<svg width="666" height="791" viewBox="0 0 666 791" fill="none" xmlns="http://www.w3.org/2000/svg">
<rect width="666" height="791" fill="#1E1E1E"/>
<rect id="Background_Adder" width="666" height="791" fill="white"/>
<path id="WireAddSub_Adder" d="M433 72L441.66 57H424.34L433 72ZM433 30L431.5 30L431.5 58.5H433H434.5L434.5 30L433 30Z" fill="black"/>
<path id="WireC1" d="M433 246L441.66 231H424.34L433 246ZM433 185L431.5 185L431.5 232.5H433H434.5L434.5 185L433 185Z" fill="black"/>
<path id="WireC2" d="M433 415L441.66 400H424.34L433 415ZM433 359L431.5 359L431.5 401.5H433H434.5L434.5 359L433 359Z" fill="black"/>
<path id="WireC3" d="M433 589L441.66 574H424.34L433 589ZM433 528L431.5 528L431.5 575.5H433H434.5L434.5 528L433 528Z" fill="black"/>
<path id="WireC4_Adder" d="M433 753L441.66 738H424.34L433 753ZM433 702H431.5V739.5H433H434.5V702H433Z" fill="black"/>
<path id="Add&#226;&#128;&#153;Sub" d="M404.055 18.1211L401.877 11.7832L399.562 18.1211H404.055ZM400.861 9.6543H403.059L408.264 24H406.135L404.68 19.7031H399.006L397.453 24H395.461L400.861 9.6543ZM410.91 18.8926C410.91 20.0124 411.148 20.9499 411.623 21.7051C412.098 22.4603 412.86 22.8379 413.908 22.8379C414.722 22.8379 415.389 22.4896 415.91 21.793C416.438 21.0898 416.701 20.084 416.701 18.7754C416.701 17.4538 416.431 16.4772 415.891 15.8457C415.35 15.2077 414.683 14.8887 413.889 14.8887C413.003 14.8887 412.284 15.2272 411.73 15.9043C411.184 16.5814 410.91 17.5775 410.91 18.8926ZM413.557 13.3555C414.357 13.3555 415.028 13.5247 415.568 13.8633C415.881 14.0586 416.236 14.4004 416.633 14.8887V9.60547H418.322V24H416.74V22.5449C416.33 23.1895 415.845 23.6549 415.285 23.9414C414.725 24.2279 414.084 24.3711 413.361 24.3711C412.196 24.3711 411.187 23.8828 410.334 22.9062C409.481 21.9232 409.055 20.6178 409.055 18.9902C409.055 17.4668 409.442 16.1484 410.217 15.0352C410.998 13.9154 412.111 13.3555 413.557 13.3555ZM422.043 18.8926C422.043 20.0124 422.281 20.9499 422.756 21.7051C423.231 22.4603 423.993 22.8379 425.041 22.8379C425.855 22.8379 426.522 22.4896 427.043 21.793C427.57 21.0898 427.834 20.084 427.834 18.7754C427.834 17.4538 427.564 16.4772 427.023 15.8457C426.483 15.2077 425.816 14.8887 425.021 14.8887C424.136 14.8887 423.417 15.2272 422.863 15.9043C422.316 16.5814 422.043 17.5775 422.043 18.8926ZM424.689 13.3555C425.49 13.3555 426.161 13.5247 426.701 13.8633C427.014 14.0586 427.368 14.4004 427.766 14.8887V9.60547H429.455V24H427.873V22.5449C427.463 23.1895 426.978 23.6549 426.418 23.9414C425.858 24.2279 425.217 24.3711 424.494 24.3711C423.329 24.3711 422.32 23.8828 421.467 22.9062C420.614 21.9232 420.188 20.6178 420.188 18.9902C420.188 17.4668 420.575 16.1484 421.35 15.0352C422.131 13.9154 423.244 13.3555 424.689 13.3555ZM432.434 13.8242C432.792 13.7656 433.062 13.5638 433.244 13.2188C433.433 12.8737 433.527 12.4766 433.527 12.0273C433.527 11.9818 433.524 11.9427 433.518 11.9102C433.518 11.8711 433.511 11.8288 433.498 11.7832H432.434V9.6543H434.523V11.6172C434.523 12.4505 434.351 13.1602 434.006 13.7461C433.661 14.3255 433.137 14.6576 432.434 14.7422V13.8242ZM438.02 19.3711C438.065 20.1849 438.257 20.8457 438.596 21.3535C439.24 22.304 440.376 22.7793 442.004 22.7793C442.733 22.7793 443.397 22.6751 443.996 22.4668C445.155 22.0632 445.734 21.3405 445.734 20.2988C445.734 19.5176 445.49 18.9609 445.002 18.6289C444.507 18.3034 443.732 18.0202 442.678 17.7793L440.734 17.3398C439.465 17.0534 438.566 16.7376 438.039 16.3926C437.128 15.7936 436.672 14.8984 436.672 13.707C436.672 12.418 437.118 11.36 438.01 10.5332C438.902 9.70638 440.165 9.29297 441.799 9.29297C443.303 9.29297 444.579 9.65755 445.627 10.3867C446.682 11.1094 447.209 12.2682 447.209 13.8633H445.383C445.285 13.0951 445.077 12.5059 444.758 12.0957C444.165 11.347 443.16 10.9727 441.74 10.9727C440.594 10.9727 439.771 11.2135 439.27 11.6953C438.768 12.1771 438.518 12.737 438.518 13.375C438.518 14.0781 438.811 14.5924 439.396 14.918C439.781 15.1263 440.65 15.3867 442.004 15.6992L444.016 16.1582C444.986 16.3796 445.734 16.6823 446.262 17.0664C447.173 17.737 447.629 18.7103 447.629 19.9863C447.629 21.5749 447.049 22.7109 445.891 23.3945C444.738 24.0781 443.397 24.4199 441.867 24.4199C440.083 24.4199 438.687 23.9642 437.678 23.0527C436.669 22.1478 436.174 20.9206 436.193 19.3711H438.02ZM451.613 13.541V20.4844C451.613 21.0182 451.698 21.4544 451.867 21.793C452.18 22.418 452.762 22.7305 453.615 22.7305C454.839 22.7305 455.673 22.1836 456.115 21.0898C456.356 20.5039 456.477 19.6999 456.477 18.6777V13.541H458.234V24H456.574L456.594 22.457C456.366 22.8542 456.083 23.1895 455.744 23.4629C455.074 24.0098 454.26 24.2832 453.303 24.2832C451.812 24.2832 450.796 23.7852 450.256 22.7891C449.963 22.2552 449.816 21.5423 449.816 20.6504V13.541H451.613ZM460.852 9.60547H462.561V14.8105C462.945 14.3092 463.404 13.9284 463.938 13.668C464.471 13.401 465.051 13.2676 465.676 13.2676C466.978 13.2676 468.033 13.7168 468.84 14.6152C469.654 15.5072 470.061 16.8255 470.061 18.5703C470.061 20.224 469.66 21.5977 468.859 22.6914C468.059 23.7852 466.949 24.332 465.529 24.332C464.735 24.332 464.064 24.14 463.518 23.7559C463.192 23.528 462.844 23.1634 462.473 22.6621V24H460.852V9.60547ZM465.422 22.7793C466.372 22.7793 467.082 22.4017 467.551 21.6465C468.026 20.8913 468.264 19.8952 468.264 18.6582C468.264 17.5579 468.026 16.6465 467.551 15.9238C467.082 15.2012 466.389 14.8398 465.471 14.8398C464.67 14.8398 463.967 15.1361 463.361 15.7285C462.762 16.321 462.463 17.2975 462.463 18.6582C462.463 19.6413 462.587 20.4388 462.834 21.0508C463.296 22.2031 464.159 22.7793 465.422 22.7793Z" fill="black"/>
<g id="C1">
<path id="C" d="M453.342 205.264C455.158 205.264 456.568 205.742 457.57 206.699C458.573 207.656 459.13 208.743 459.24 209.961H457.346C457.131 209.036 456.701 208.304 456.057 207.764C455.419 207.223 454.52 206.953 453.361 206.953C451.949 206.953 450.806 207.451 449.934 208.447C449.068 209.437 448.635 210.957 448.635 213.008C448.635 214.688 449.025 216.051 449.807 217.1C450.594 218.141 451.766 218.662 453.322 218.662C454.755 218.662 455.845 218.112 456.594 217.012C456.991 216.432 457.287 215.671 457.482 214.727H459.377C459.208 216.237 458.648 217.503 457.697 218.525C456.558 219.756 455.021 220.371 453.088 220.371C451.421 220.371 450.021 219.867 448.889 218.857C447.398 217.523 446.652 215.462 446.652 212.676C446.652 210.56 447.212 208.825 448.332 207.471C449.543 205.999 451.213 205.264 453.342 205.264Z" fill="black"/>
<path id="1" d="M461.848 218.098V216.75C463.117 216.626 464.003 216.421 464.504 216.135C465.005 215.842 465.38 215.155 465.627 214.074H467.014V228H465.139V218.098H461.848Z" fill="black"/>
</g>
<g id="C2">
<path id="C_2" d="M450.342 371.264C452.158 371.264 453.568 371.742 454.57 372.699C455.573 373.656 456.13 374.743 456.24 375.961H454.346C454.131 375.036 453.701 374.304 453.057 373.764C452.419 373.223 451.52 372.953 450.361 372.953C448.949 372.953 447.806 373.451 446.934 374.447C446.068 375.437 445.635 376.957 445.635 379.008C445.635 380.688 446.025 382.051 446.807 383.1C447.594 384.141 448.766 384.662 450.322 384.662C451.755 384.662 452.845 384.112 453.594 383.012C453.991 382.432 454.287 381.671 454.482 380.727H456.377C456.208 382.237 455.648 383.503 454.697 384.525C453.558 385.756 452.021 386.371 450.088 386.371C448.421 386.371 447.021 385.867 445.889 384.857C444.398 383.523 443.652 381.462 443.652 378.676C443.652 376.56 444.212 374.825 445.332 373.471C446.543 371.999 448.213 371.264 450.342 371.264Z" fill="black"/>
<path id="2" d="M457.559 394C457.624 392.796 457.871 391.747 458.301 390.855C458.737 389.964 459.583 389.153 460.84 388.424L462.715 387.34C463.555 386.852 464.144 386.435 464.482 386.09C465.016 385.549 465.283 384.931 465.283 384.234C465.283 383.421 465.039 382.776 464.551 382.301C464.062 381.819 463.411 381.578 462.598 381.578C461.393 381.578 460.56 382.034 460.098 382.945C459.85 383.434 459.714 384.111 459.688 384.977H457.9C457.92 383.759 458.145 382.766 458.574 381.998C459.336 380.644 460.68 379.967 462.607 379.967C464.209 379.967 465.378 380.4 466.113 381.266C466.855 382.132 467.227 383.095 467.227 384.156C467.227 385.276 466.833 386.233 466.045 387.027C465.589 387.49 464.772 388.049 463.594 388.707L462.256 389.449C461.618 389.801 461.117 390.136 460.752 390.455C460.101 391.021 459.691 391.65 459.521 392.34H467.158V394H457.559Z" fill="black"/>
</g>
<g id="C3">
<path id="C_3" d="M451.342 546.264C453.158 546.264 454.568 546.742 455.57 547.699C456.573 548.656 457.13 549.743 457.24 550.961H455.346C455.131 550.036 454.701 549.304 454.057 548.764C453.419 548.223 452.52 547.953 451.361 547.953C449.949 547.953 448.806 548.451 447.934 549.447C447.068 550.437 446.635 551.957 446.635 554.008C446.635 555.688 447.025 557.051 447.807 558.1C448.594 559.141 449.766 559.662 451.322 559.662C452.755 559.662 453.845 559.112 454.594 558.012C454.991 557.432 455.287 556.671 455.482 555.727H457.377C457.208 557.237 456.648 558.503 455.697 559.525C454.558 560.756 453.021 561.371 451.088 561.371C449.421 561.371 448.021 560.867 446.889 559.857C445.398 558.523 444.652 556.462 444.652 553.676C444.652 551.56 445.212 549.825 446.332 548.471C447.543 546.999 449.213 546.264 451.342 546.264Z" fill="black"/>
<path id="3" d="M463.129 569.381C461.475 569.381 460.274 568.928 459.525 568.023C458.783 567.112 458.412 566.005 458.412 564.703H460.248C460.326 565.608 460.495 566.266 460.756 566.676C461.212 567.411 462.035 567.779 463.227 567.779C464.151 567.779 464.893 567.532 465.453 567.037C466.013 566.542 466.293 565.904 466.293 565.123C466.293 564.16 465.997 563.486 465.404 563.102C464.818 562.717 464.001 562.525 462.953 562.525C462.836 562.525 462.715 562.529 462.592 562.535C462.475 562.535 462.354 562.538 462.23 562.545V560.992C462.413 561.012 462.566 561.025 462.689 561.031C462.813 561.038 462.947 561.041 463.09 561.041C463.747 561.041 464.288 560.937 464.711 560.729C465.453 560.364 465.824 559.713 465.824 558.775C465.824 558.079 465.577 557.542 465.082 557.164C464.587 556.786 464.011 556.598 463.354 556.598C462.182 556.598 461.371 556.988 460.922 557.77C460.674 558.199 460.535 558.811 460.502 559.605H458.764C458.764 558.564 458.972 557.678 459.389 556.949C460.105 555.647 461.365 554.996 463.168 554.996C464.594 554.996 465.697 555.315 466.479 555.953C467.26 556.585 467.65 557.503 467.65 558.707C467.65 559.566 467.419 560.263 466.957 560.797C466.671 561.129 466.299 561.389 465.844 561.578C466.579 561.78 467.152 562.171 467.562 562.75C467.979 563.323 468.188 564.026 468.188 564.859C468.188 566.194 467.748 567.281 466.869 568.121C465.99 568.961 464.743 569.381 463.129 569.381Z" fill="black"/>
</g>
<g id="C4">
<path id="C_4" d="M425.342 761.264C427.158 761.264 428.568 761.742 429.57 762.699C430.573 763.656 431.13 764.743 431.24 765.961H429.346C429.131 765.036 428.701 764.304 428.057 763.764C427.419 763.223 426.52 762.953 425.361 762.953C423.949 762.953 422.806 763.451 421.934 764.447C421.068 765.437 420.635 766.957 420.635 769.008C420.635 770.688 421.025 772.051 421.807 773.1C422.594 774.141 423.766 774.662 425.322 774.662C426.755 774.662 427.845 774.112 428.594 773.012C428.991 772.432 429.287 771.671 429.482 770.727H431.377C431.208 772.237 430.648 773.503 429.697 774.525C428.558 775.756 427.021 776.371 425.088 776.371C423.421 776.371 422.021 775.867 420.889 774.857C419.398 773.523 418.652 771.462 418.652 768.676C418.652 766.56 419.212 764.825 420.332 763.471C421.543 761.999 423.213 761.264 425.342 761.264Z" fill="black"/>
<path id="4" d="M438.545 779.049V772.711L434.062 779.049H438.545ZM438.574 784V780.582H432.441V778.863L438.848 769.977H440.332V779.049H442.393V780.582H440.332V784H438.574Z" fill="black"/>
</g>
<path id="WireS0" d="M611.061 129.061C611.646 128.475 611.646 127.525 611.061 126.939L601.515 117.393C600.929 116.808 599.979 116.808 599.393 117.393C598.808 117.979 598.808 118.929 599.393 119.515L607.879 128L599.393 136.485C598.808 137.071 598.808 138.021 599.393 138.607C599.979 139.192 600.929 139.192 601.515 138.607L611.061 129.061ZM495 128V129.5H610V128V126.5H495V128Z" fill="black"/>
<path id="WireS1" d="M611.061 303.061C611.646 302.475 611.646 301.525 611.061 300.939L601.515 291.393C600.929 290.808 599.979 290.808 599.393 291.393C598.808 291.979 598.808 292.929 599.393 293.515L607.879 302L599.393 310.485C598.808 311.071 598.808 312.021 599.393 312.607C599.979 313.192 600.929 313.192 601.515 312.607L611.061 303.061ZM495 302V303.5H610V302V300.5H495V302Z" fill="black"/>
<path id="WireS2" d="M613.061 473.061C613.646 472.475 613.646 471.525 613.061 470.939L603.515 461.393C602.929 460.808 601.979 460.808 601.393 461.393C600.808 461.979 600.808 462.929 601.393 463.515L609.879 472L601.393 480.485C600.808 481.071 600.808 482.021 601.393 482.607C601.979 483.192 602.929 483.192 603.515 482.607L613.061 473.061ZM494 472V473.5H612V472V470.5H494V472Z" fill="black"/>
<path id="WireS3" d="M613.061 647.061C613.646 646.475 613.646 645.525 613.061 644.939L603.515 635.393C602.929 634.808 601.979 634.808 601.393 635.393C600.808 635.979 600.808 636.929 601.393 637.515L609.879 646L601.393 654.485C600.808 655.071 600.808 656.021 601.393 656.607C601.979 657.192 602.929 657.192 603.515 656.607L613.061 647.061ZM494.5 646V647.5H612V646V644.5H494.5V646Z" fill="black"/>
<path id="S" d="M620.521 133.668C620.604 135.133 620.949 136.322 621.559 137.236C622.719 138.947 624.764 139.803 627.693 139.803C629.006 139.803 630.201 139.615 631.279 139.24C633.365 138.514 634.408 137.213 634.408 135.338C634.408 133.932 633.969 132.93 633.09 132.332C632.199 131.746 630.805 131.236 628.906 130.803L625.408 130.012C623.123 129.496 621.506 128.928 620.557 128.307C618.916 127.229 618.096 125.617 618.096 123.473C618.096 121.152 618.898 119.248 620.504 117.76C622.109 116.271 624.383 115.527 627.324 115.527C630.031 115.527 632.328 116.184 634.215 117.496C636.113 118.797 637.062 120.883 637.062 123.754H633.775C633.6 122.371 633.225 121.311 632.65 120.572C631.584 119.225 629.773 118.551 627.219 118.551C625.156 118.551 623.674 118.984 622.771 119.852C621.869 120.719 621.418 121.727 621.418 122.875C621.418 124.141 621.945 125.066 623 125.652C623.691 126.027 625.256 126.496 627.693 127.059L631.314 127.885C633.061 128.283 634.408 128.828 635.357 129.52C636.998 130.727 637.818 132.479 637.818 134.775C637.818 137.635 636.775 139.68 634.689 140.91C632.615 142.141 630.201 142.756 627.447 142.756C624.236 142.756 621.723 141.936 619.906 140.295C618.09 138.666 617.199 136.457 617.234 133.668H620.521Z" fill="black"/>
<path id="0" d="M647.719 131.828C650.977 131.828 653.332 133.17 654.785 135.854C655.91 137.928 656.473 140.77 656.473 144.379C656.473 147.801 655.963 150.631 654.943 152.869C653.467 156.08 651.053 157.686 647.701 157.686C644.678 157.686 642.428 156.373 640.951 153.748C639.721 151.557 639.105 148.615 639.105 144.924C639.105 142.064 639.475 139.609 640.213 137.559C641.596 133.738 644.098 131.828 647.719 131.828ZM647.684 154.803C649.324 154.803 650.631 154.076 651.604 152.623C652.576 151.17 653.062 148.463 653.062 144.502C653.062 141.643 652.711 139.293 652.008 137.453C651.305 135.602 649.939 134.676 647.912 134.676C646.049 134.676 644.684 135.555 643.816 137.312C642.961 139.059 642.533 141.637 642.533 145.047C642.533 147.613 642.809 149.676 643.359 151.234C644.203 153.613 645.645 154.803 647.684 154.803Z" fill="black"/>
<path id="S_2" d="M622.521 306.668C622.604 308.133 622.949 309.322 623.559 310.236C624.719 311.947 626.764 312.803 629.693 312.803C631.006 312.803 632.201 312.615 633.279 312.24C635.365 311.514 636.408 310.213 636.408 308.338C636.408 306.932 635.969 305.93 635.09 305.332C634.199 304.746 632.805 304.236 630.906 303.803L627.408 303.012C625.123 302.496 623.506 301.928 622.557 301.307C620.916 300.229 620.096 298.617 620.096 296.473C620.096 294.152 620.898 292.248 622.504 290.76C624.109 289.271 626.383 288.527 629.324 288.527C632.031 288.527 634.328 289.184 636.215 290.496C638.113 291.797 639.062 293.883 639.062 296.754H635.775C635.6 295.371 635.225 294.311 634.65 293.572C633.584 292.225 631.773 291.551 629.219 291.551C627.156 291.551 625.674 291.984 624.771 292.852C623.869 293.719 623.418 294.727 623.418 295.875C623.418 297.141 623.945 298.066 625 298.652C625.691 299.027 627.256 299.496 629.693 300.059L633.314 300.885C635.061 301.283 636.408 301.828 637.357 302.52C638.998 303.727 639.818 305.479 639.818 307.775C639.818 310.635 638.775 312.68 636.689 313.91C634.615 315.141 632.201 315.756 629.447 315.756C626.236 315.756 623.723 314.936 621.906 313.295C620.09 311.666 619.199 309.457 619.234 306.668H622.521Z" fill="black"/>
<path id="1_2" d="M643.426 312.176V309.75C645.711 309.527 647.305 309.158 648.207 308.643C649.109 308.115 649.783 306.879 650.229 304.934H652.725V330H649.35V312.176H643.426Z" fill="black"/>
<path id="S_3" d="M622.521 476.668C622.604 478.133 622.949 479.322 623.559 480.236C624.719 481.947 626.764 482.803 629.693 482.803C631.006 482.803 632.201 482.615 633.279 482.24C635.365 481.514 636.408 480.213 636.408 478.338C636.408 476.932 635.969 475.93 635.09 475.332C634.199 474.746 632.805 474.236 630.906 473.803L627.408 473.012C625.123 472.496 623.506 471.928 622.557 471.307C620.916 470.229 620.096 468.617 620.096 466.473C620.096 464.152 620.898 462.248 622.504 460.76C624.109 459.271 626.383 458.527 629.324 458.527C632.031 458.527 634.328 459.184 636.215 460.496C638.113 461.797 639.062 463.883 639.062 466.754H635.775C635.6 465.371 635.225 464.311 634.65 463.572C633.584 462.225 631.773 461.551 629.219 461.551C627.156 461.551 625.674 461.984 624.771 462.852C623.869 463.719 623.418 464.727 623.418 465.875C623.418 467.141 623.945 468.066 625 468.652C625.691 469.027 627.256 469.496 629.693 470.059L633.314 470.885C635.061 471.283 636.408 471.828 637.357 472.52C638.998 473.727 639.818 475.479 639.818 477.775C639.818 480.635 638.775 482.68 636.689 483.91C634.615 485.141 632.201 485.756 629.447 485.756C626.236 485.756 623.723 484.936 621.906 483.295C620.09 481.666 619.199 479.457 619.234 476.668H622.521Z" fill="black"/>
<path id="2_2" d="M641.105 500C641.223 497.832 641.668 495.945 642.441 494.34C643.227 492.734 644.75 491.275 647.012 489.963L650.387 488.012C651.898 487.133 652.959 486.383 653.568 485.762C654.529 484.789 655.01 483.676 655.01 482.422C655.01 480.957 654.57 479.797 653.691 478.941C652.812 478.074 651.641 477.641 650.176 477.641C648.008 477.641 646.508 478.461 645.676 480.102C645.23 480.98 644.984 482.199 644.938 483.758H641.721C641.756 481.566 642.16 479.779 642.934 478.396C644.305 475.959 646.725 474.74 650.193 474.74C653.076 474.74 655.18 475.52 656.504 477.078C657.84 478.637 658.508 480.371 658.508 482.281C658.508 484.297 657.799 486.02 656.381 487.449C655.561 488.281 654.09 489.289 651.969 490.473L649.561 491.809C648.412 492.441 647.51 493.045 646.854 493.619C645.682 494.639 644.943 495.77 644.639 497.012H658.385V500H641.105Z" fill="black"/>
<path id="S_4" d="M624.521 649.668C624.604 651.133 624.949 652.322 625.559 653.236C626.719 654.947 628.764 655.803 631.693 655.803C633.006 655.803 634.201 655.615 635.279 655.24C637.365 654.514 638.408 653.213 638.408 651.338C638.408 649.932 637.969 648.93 637.09 648.332C636.199 647.746 634.805 647.236 632.906 646.803L629.408 646.012C627.123 645.496 625.506 644.928 624.557 644.307C622.916 643.229 622.096 641.617 622.096 639.473C622.096 637.152 622.898 635.248 624.504 633.76C626.109 632.271 628.383 631.527 631.324 631.527C634.031 631.527 636.328 632.184 638.215 633.496C640.113 634.797 641.062 636.883 641.062 639.754H637.775C637.6 638.371 637.225 637.311 636.65 636.572C635.584 635.225 633.773 634.551 631.219 634.551C629.156 634.551 627.674 634.984 626.771 635.852C625.869 636.719 625.418 637.727 625.418 638.875C625.418 640.141 625.945 641.066 627 641.652C627.691 642.027 629.256 642.496 631.693 643.059L635.314 643.885C637.061 644.283 638.408 644.828 639.357 645.52C640.998 646.727 641.818 648.479 641.818 650.775C641.818 653.635 640.775 655.68 638.689 656.91C636.615 658.141 634.201 658.756 631.447 658.756C628.236 658.756 625.723 657.936 623.906 656.295C622.09 654.666 621.199 652.457 621.234 649.668H624.521Z" fill="black"/>
<path id="3_2" d="M651.332 673.686C648.355 673.686 646.193 672.871 644.846 671.242C643.51 669.602 642.842 667.609 642.842 665.266H646.146C646.287 666.895 646.592 668.078 647.061 668.816C647.881 670.141 649.363 670.803 651.508 670.803C653.172 670.803 654.508 670.357 655.516 669.467C656.523 668.576 657.027 667.428 657.027 666.021C657.027 664.287 656.494 663.074 655.428 662.383C654.373 661.691 652.902 661.346 651.016 661.346C650.805 661.346 650.588 661.352 650.365 661.363C650.154 661.363 649.938 661.369 649.715 661.381V658.586C650.043 658.621 650.318 658.645 650.541 658.656C650.764 658.668 651.004 658.674 651.262 658.674C652.445 658.674 653.418 658.486 654.18 658.111C655.516 657.455 656.184 656.283 656.184 654.596C656.184 653.342 655.738 652.375 654.848 651.695C653.957 651.016 652.92 650.676 651.736 650.676C649.627 650.676 648.168 651.379 647.359 652.785C646.914 653.559 646.662 654.66 646.604 656.09H643.475C643.475 654.215 643.85 652.621 644.6 651.309C645.889 648.965 648.156 647.793 651.402 647.793C653.969 647.793 655.955 648.367 657.361 649.516C658.768 650.652 659.471 652.305 659.471 654.473C659.471 656.02 659.055 657.273 658.223 658.234C657.707 658.832 657.039 659.301 656.219 659.641C657.543 660.004 658.574 660.707 659.312 661.75C660.062 662.781 660.438 664.047 660.438 665.547C660.438 667.949 659.646 669.906 658.064 671.418C656.482 672.93 654.238 673.686 651.332 673.686Z" fill="black"/>
<g id="Y2">
<path id="2_3" d="M25.1055 535C25.2227 532.832 25.668 530.945 26.4414 529.34C27.2266 527.734 28.75 526.275 31.0117 524.963L34.3867 523.012C35.8984 522.133 36.959 521.383 37.5684 520.762C38.5293 519.789 39.0098 518.676 39.0098 517.422C39.0098 515.957 38.5703 514.797 37.6914 513.941C36.8125 513.074 35.6406 512.641 34.1758 512.641C32.0078 512.641 30.5078 513.461 29.6758 515.102C29.2305 515.98 28.9844 517.199 28.9375 518.758H25.7207C25.7559 516.566 26.1602 514.779 26.9336 513.396C28.3047 510.959 30.7246 509.74 34.1934 509.74C37.0762 509.74 39.1797 510.52 40.5039 512.078C41.8398 513.637 42.5078 515.371 42.5078 517.281C42.5078 519.297 41.7988 521.02 40.3809 522.449C39.5605 523.281 38.0898 524.289 35.9688 525.473L33.5605 526.809C32.4121 527.441 31.5098 528.045 30.8535 528.619C29.6816 529.639 28.9434 530.77 28.6387 532.012H42.3848V535H25.1055Z" fill="black"/>
<path id="y" d="M22.0801 491.174H25.5781C25.1328 492.381 24.1426 495.135 22.6074 499.436C21.459 502.67 20.498 505.307 19.7246 507.346C17.8965 512.15 16.6074 515.08 15.8574 516.135C15.1074 517.189 13.8184 517.717 11.9902 517.717C11.5449 517.717 11.1992 517.699 10.9531 517.664C10.7188 517.629 10.4258 517.564 10.0742 517.471V514.588C10.625 514.74 11.0234 514.834 11.2695 514.869C11.5156 514.904 11.7324 514.922 11.9199 514.922C12.5059 514.922 12.9336 514.822 13.2031 514.623C13.4844 514.436 13.7188 514.201 13.9063 513.92C13.9648 513.826 14.1758 513.346 14.5391 512.479C14.9023 511.611 15.166 510.967 15.3301 510.545L8.36914 491.174H11.9551L17 506.502L22.0801 491.174Z" fill="black"/>
</g>
<g id="Y1">
<path id="1_3" d="M28.4258 354.176V351.75C30.7109 351.527 32.3047 351.158 33.207 350.643C34.1094 350.115 34.7832 348.879 35.2285 346.934H37.7246V372H34.3496V354.176H28.4258Z" fill="black"/>
<path id="y_2" d="M23.0801 328.174H26.5781C26.1328 329.381 25.1426 332.135 23.6074 336.436C22.459 339.67 21.498 342.307 20.7246 344.346C18.8965 349.15 17.6074 352.08 16.8574 353.135C16.1074 354.189 14.8184 354.717 12.9902 354.717C12.5449 354.717 12.1992 354.699 11.9531 354.664C11.7188 354.629 11.4258 354.564 11.0742 354.471V351.588C11.625 351.74 12.0234 351.834 12.2695 351.869C12.5156 351.904 12.7324 351.922 12.9199 351.922C13.5059 351.922 13.9336 351.822 14.2031 351.623C14.4844 351.436 14.7188 351.201 14.9063 350.92C14.9648 350.826 15.1758 350.346 15.5391 349.479C15.9023 348.611 16.166 347.967 16.3301 347.545L9.36914 328.174H12.9551L18 343.502L23.0801 328.174Z" fill="black"/>
</g>
<g id="Y0">
<path id="0_2" d="M34.7188 167.828C37.9766 167.828 40.332 169.17 41.7852 171.854C42.9102 173.928 43.4727 176.77 43.4727 180.379C43.4727 183.801 42.9629 186.631 41.9434 188.869C40.4668 192.08 38.0527 193.686 34.7012 193.686C31.6777 193.686 29.4277 192.373 27.9512 189.748C26.7207 187.557 26.1055 184.615 26.1055 180.924C26.1055 178.064 26.4746 175.609 27.2129 173.559C28.5957 169.738 31.0977 167.828 34.7188 167.828ZM34.6836 190.803C36.3242 190.803 37.6309 190.076 38.6035 188.623C39.5762 187.17 40.0625 184.463 40.0625 180.502C40.0625 177.643 39.7109 175.293 39.0078 173.453C38.3047 171.602 36.9395 170.676 34.9121 170.676C33.0488 170.676 31.6836 171.555 30.8164 173.312C29.9609 175.059 29.5332 177.637 29.5332 181.047C29.5332 183.613 29.8086 185.676 30.3594 187.234C31.2031 189.613 32.6445 190.803 34.6836 190.803Z" fill="black"/>
<path id="y_3" d="M23.0801 149.174H26.5781C26.1328 150.381 25.1426 153.135 23.6074 157.436C22.459 160.67 21.498 163.307 20.7246 165.346C18.8965 170.15 17.6074 173.08 16.8574 174.135C16.1074 175.189 14.8184 175.717 12.9902 175.717C12.5449 175.717 12.1992 175.699 11.9531 175.664C11.7188 175.629 11.4258 175.564 11.0742 175.471V172.588C11.625 172.74 12.0234 172.834 12.2695 172.869C12.5156 172.904 12.7324 172.922 12.9199 172.922C13.5059 172.922 13.9336 172.822 14.2031 172.623C14.4844 172.436 14.7188 172.201 14.9063 171.92C14.9648 171.826 15.1758 171.346 15.5391 170.479C15.9023 169.611 16.166 168.967 16.3301 168.545L9.36914 149.174H12.9551L18 164.502L23.0801 149.174Z" fill="black"/>
</g>
<g id="X0">
<path id="x" d="M9.52734 88.1738H13.623L17.9473 94.8008L22.3242 88.1738L26.1738 88.2617L19.8281 97.3496L26.4551 107H22.4121L17.7363 99.9336L13.2012 107H9.19336L15.8203 97.3496L9.52734 88.1738Z" fill="black"/>
<path id="0_3" d="M36.7188 102.828C39.9766 102.828 42.332 104.17 43.7852 106.854C44.9102 108.928 45.4727 111.77 45.4727 115.379C45.4727 118.801 44.9629 121.631 43.9434 123.869C42.4668 127.08 40.0527 128.686 36.7012 128.686C33.6777 128.686 31.4277 127.373 29.9512 124.748C28.7207 122.557 28.1055 119.615 28.1055 115.924C28.1055 113.064 28.4746 110.609 29.2129 108.559C30.5957 104.738 33.0977 102.828 36.7188 102.828ZM36.6836 125.803C38.3242 125.803 39.6309 125.076 40.6035 123.623C41.5762 122.17 42.0625 119.463 42.0625 115.502C42.0625 112.643 41.7109 110.293 41.0078 108.453C40.3047 106.602 38.9395 105.676 36.9121 105.676C35.0488 105.676 33.6836 106.555 32.8164 108.312C31.9609 110.059 31.5332 112.637 31.5332 116.047C31.5332 118.613 31.8086 120.676 32.3594 122.234C33.2031 124.613 34.6445 125.803 36.6836 125.803Z" fill="black"/>
</g>
<g id="X2">
<path id="x_2" d="M9.52734 426.174H13.623L17.9473 432.801L22.3242 426.174L26.1738 426.262L19.8281 435.35L26.4551 445H22.4121L17.7363 437.934L13.2012 445H9.19336L15.8203 435.35L9.52734 426.174Z" fill="black"/>
<path id="2_4" d="M28.1055 466C28.2227 463.832 28.668 461.945 29.4414 460.34C30.2266 458.734 31.75 457.275 34.0117 455.963L37.3867 454.012C38.8984 453.133 39.959 452.383 40.5684 451.762C41.5293 450.789 42.0098 449.676 42.0098 448.422C42.0098 446.957 41.5703 445.797 40.6914 444.941C39.8125 444.074 38.6406 443.641 37.1758 443.641C35.0078 443.641 33.5078 444.461 32.6758 446.102C32.2305 446.98 31.9844 448.199 31.9375 449.758H28.7207C28.7559 447.566 29.1602 445.779 29.9336 444.396C31.3047 441.959 33.7246 440.74 37.1934 440.74C40.0762 440.74 42.1797 441.52 43.5039 443.078C44.8398 444.637 45.5078 446.371 45.5078 448.281C45.5078 450.297 44.7988 452.02 43.3809 453.449C42.5605 454.281 41.0898 455.289 38.9688 456.473L36.5605 457.809C35.4121 458.441 34.5098 459.045 33.8535 459.619C32.6816 460.639 31.9434 461.77 31.6387 463.012H45.3848V466H28.1055Z" fill="black"/>
</g>
<g id="X1">
<path id="x_3" d="M9.52734 263.174H13.623L17.9473 269.801L22.3242 263.174L26.1738 263.262L19.8281 272.35L26.4551 282H22.4121L17.7363 274.934L13.2012 282H9.19336L15.8203 272.35L9.52734 263.174Z" fill="black"/>
<path id="1_4" d="M30.4258 285.176V282.75C32.7109 282.527 34.3047 282.158 35.207 281.643C36.1094 281.115 36.7832 279.879 37.2285 277.934H39.7246V303H36.3496V285.176H30.4258Z" fill="black"/>
</g>
<g id="X3">
<path id="x_4" d="M9.52734 598.174H13.623L17.9473 604.801L22.3242 598.174L26.1738 598.262L19.8281 607.35L26.4551 617H22.4121L17.7363 609.934L13.2012 617H9.19336L15.8203 607.35L9.52734 598.174Z" fill="black"/>
<path id="3_3" d="M36.332 638.686C33.3555 638.686 31.1934 637.871 29.8457 636.242C28.5098 634.602 27.8418 632.609 27.8418 630.266H31.1465C31.2871 631.895 31.5918 633.078 32.0605 633.816C32.8809 635.141 34.3633 635.803 36.5078 635.803C38.1719 635.803 39.5078 635.357 40.5156 634.467C41.5234 633.576 42.0273 632.428 42.0273 631.021C42.0273 629.287 41.4941 628.074 40.4277 627.383C39.373 626.691 37.9023 626.346 36.0156 626.346C35.8047 626.346 35.5879 626.352 35.3652 626.363C35.1543 626.363 34.9375 626.369 34.7148 626.381V623.586C35.043 623.621 35.3184 623.645 35.541 623.656C35.7637 623.668 36.0039 623.674 36.2617 623.674C37.4453 623.674 38.418 623.486 39.1797 623.111C40.5156 622.455 41.1836 621.283 41.1836 619.596C41.1836 618.342 40.7383 617.375 39.8477 616.695C38.957 616.016 37.9199 615.676 36.7363 615.676C34.627 615.676 33.168 616.379 32.3594 617.785C31.9141 618.559 31.6621 619.66 31.6035 621.09H28.4746C28.4746 619.215 28.8496 617.621 29.5996 616.309C30.8887 613.965 33.1562 612.793 36.4023 612.793C38.9688 612.793 40.9551 613.367 42.3613 614.516C43.7676 615.652 44.4707 617.305 44.4707 619.473C44.4707 621.02 44.0547 622.273 43.2227 623.234C42.707 623.832 42.0391 624.301 41.2188 624.641C42.543 625.004 43.5742 625.707 44.3125 626.75C45.0625 627.781 45.4375 629.047 45.4375 630.547C45.4375 632.949 44.6465 634.906 43.0645 636.418C41.4824 637.93 39.2383 638.686 36.332 638.686Z" fill="black"/>
</g>
<g id="Y3">
<path id="3_4" d="M33.332 714.686C30.3555 714.686 28.1934 713.871 26.8457 712.242C25.5098 710.602 24.8418 708.609 24.8418 706.266H28.1465C28.2871 707.895 28.5918 709.078 29.0605 709.816C29.8809 711.141 31.3633 711.803 33.5078 711.803C35.1719 711.803 36.5078 711.357 37.5156 710.467C38.5234 709.576 39.0273 708.428 39.0273 707.021C39.0273 705.287 38.4941 704.074 37.4277 703.383C36.373 702.691 34.9023 702.346 33.0156 702.346C32.8047 702.346 32.5879 702.352 32.3652 702.363C32.1543 702.363 31.9375 702.369 31.7148 702.381V699.586C32.043 699.621 32.3184 699.645 32.541 699.656C32.7637 699.668 33.0039 699.674 33.2617 699.674C34.4453 699.674 35.418 699.486 36.1797 699.111C37.5156 698.455 38.1836 697.283 38.1836 695.596C38.1836 694.342 37.7383 693.375 36.8477 692.695C35.957 692.016 34.9199 691.676 33.7363 691.676C31.627 691.676 30.168 692.379 29.3594 693.785C28.9141 694.559 28.6621 695.66 28.6035 697.09H25.4746C25.4746 695.215 25.8496 693.621 26.5996 692.309C27.8887 689.965 30.1562 688.793 33.4023 688.793C35.9688 688.793 37.9551 689.367 39.3613 690.516C40.7676 691.652 41.4707 693.305 41.4707 695.473C41.4707 697.02 41.0547 698.273 40.2227 699.234C39.707 699.832 39.0391 700.301 38.2188 700.641C39.543 701.004 40.5742 701.707 41.3125 702.75C42.0625 703.781 42.4375 705.047 42.4375 706.547C42.4375 708.949 41.6465 710.906 40.0645 712.418C38.4824 713.93 36.2383 714.686 33.332 714.686Z" fill="black"/>
<path id="y_4" d="M22.0801 670.174H25.5781C25.1328 671.381 24.1426 674.135 22.6074 678.436C21.459 681.67 20.498 684.307 19.7246 686.346C17.8965 691.15 16.6074 694.08 15.8574 695.135C15.1074 696.189 13.8184 696.717 11.9902 696.717C11.5449 696.717 11.1992 696.699 10.9531 696.664C10.7188 696.629 10.4258 696.564 10.0742 696.471V693.588C10.625 693.74 11.0234 693.834 11.2695 693.869C11.5156 693.904 11.7324 693.922 11.9199 693.922C12.5059 693.922 12.9336 693.822 13.2031 693.623C13.4844 693.436 13.7188 693.201 13.9063 692.92C13.9648 692.826 14.1758 692.346 14.5391 691.479C14.9023 690.611 15.166 689.967 15.3301 689.545L8.36914 670.174H11.9551L17 685.502L22.0801 670.174Z" fill="black"/>
</g>
<path id="WireX0" d="M372 97L357 88.3397V105.66L372 97ZM30 97V98.5H358.5V97V95.5H30V97Z" fill="black"/>
<path id="WireY0" d="M373 160L358 151.34V168.66L373 160ZM31 160V161.5H359.5V160V158.5H31V160Z" fill="black"/>
<path id="WireX1" d="M372 269L357 260.34V277.66L372 269ZM30 269V270.5H358.5V269V267.5H30V269Z" fill="black"/>
<path id="WireY1" d="M373 339L358 330.34V347.66L373 339ZM31 339V340.5H359.5V339V337.5H31V339Z" fill="black"/>
<path id="WireX2" d="M372 434L357 425.34V442.66L372 434ZM30 434V435.5H358.5V434V432.5H30V434Z" fill="black"/>
<path id="WireY2" d="M372 502L357 493.34V510.66L372 502ZM30 502V503.5H358.5V502V500.5H30V502Z" fill="black"/>
<path id="WireX3" d="M372 606L357 597.34V614.66L372 606ZM30 606V607.5H358.5V606V604.5H30V606Z" fill="black"/>
<path id="WireY3" d="M372 681L357 672.34V689.66L372 681ZM30 681V682.5H358.5V681V679.5H30V681Z" fill="black"/>
<g id="FullAdder0">
<rect id="Rectangle 1" x="373.5" y="73.5" width="120" height="110" fill="white" stroke="black" stroke-width="3"/>
<path id="Full Adder" d="M416.691 101.785H428.633V103.895H419.023V109.121H427.473V111.172H419.023V119H416.691V101.785ZM432.969 106.449V114.781C432.969 115.422 433.07 115.945 433.273 116.352C433.648 117.102 434.348 117.477 435.371 117.477C436.84 117.477 437.84 116.82 438.371 115.508C438.66 114.805 438.805 113.84 438.805 112.613V106.449H440.914V119H438.922L438.945 117.148C438.672 117.625 438.332 118.027 437.926 118.355C437.121 119.012 436.145 119.34 434.996 119.34C433.207 119.34 431.988 118.742 431.34 117.547C430.988 116.906 430.812 116.051 430.812 114.98V106.449H432.969ZM444.277 101.785H446.387V119H444.277V101.785ZM449.621 101.785H451.73V119H449.621V101.785ZM412.625 139.945L410.012 132.34L407.234 139.945H412.625ZM408.793 129.785H411.43L417.676 147H415.121L413.375 141.844H406.566L404.703 147H402.312L408.793 129.785ZM420.852 140.871C420.852 142.215 421.137 143.34 421.707 144.246C422.277 145.152 423.191 145.605 424.449 145.605C425.426 145.605 426.227 145.188 426.852 144.352C427.484 143.508 427.801 142.301 427.801 140.73C427.801 139.145 427.477 137.973 426.828 137.215C426.18 136.449 425.379 136.066 424.426 136.066C423.363 136.066 422.5 136.473 421.836 137.285C421.18 138.098 420.852 139.293 420.852 140.871ZM424.027 134.227C424.988 134.227 425.793 134.43 426.441 134.836C426.816 135.07 427.242 135.48 427.719 136.066V129.727H429.746V147H427.848V145.254C427.355 146.027 426.773 146.586 426.102 146.93C425.43 147.273 424.66 147.445 423.793 147.445C422.395 147.445 421.184 146.859 420.16 145.688C419.137 144.508 418.625 142.941 418.625 140.988C418.625 139.16 419.09 137.578 420.02 136.242C420.957 134.898 422.293 134.227 424.027 134.227ZM434.211 140.871C434.211 142.215 434.496 143.34 435.066 144.246C435.637 145.152 436.551 145.605 437.809 145.605C438.785 145.605 439.586 145.188 440.211 144.352C440.844 143.508 441.16 142.301 441.16 140.73C441.16 139.145 440.836 137.973 440.188 137.215C439.539 136.449 438.738 136.066 437.785 136.066C436.723 136.066 435.859 136.473 435.195 137.285C434.539 138.098 434.211 139.293 434.211 140.871ZM437.387 134.227C438.348 134.227 439.152 134.43 439.801 134.836C440.176 135.07 440.602 135.48 441.078 136.066V129.727H443.105V147H441.207V145.254C440.715 146.027 440.133 146.586 439.461 146.93C438.789 147.273 438.02 147.445 437.152 147.445C435.754 147.445 434.543 146.859 433.52 145.688C432.496 144.508 431.984 142.941 431.984 140.988C431.984 139.16 432.449 137.578 433.379 136.242C434.316 134.898 435.652 134.227 437.387 134.227ZM451.461 134.168C452.352 134.168 453.215 134.379 454.051 134.801C454.887 135.215 455.523 135.754 455.961 136.418C456.383 137.051 456.664 137.789 456.805 138.633C456.93 139.211 456.992 140.133 456.992 141.398H447.793C447.832 142.672 448.133 143.695 448.695 144.469C449.258 145.234 450.129 145.617 451.309 145.617C452.41 145.617 453.289 145.254 453.945 144.527C454.32 144.105 454.586 143.617 454.742 143.062H456.816C456.762 143.523 456.578 144.039 456.266 144.609C455.961 145.172 455.617 145.633 455.234 145.992C454.594 146.617 453.801 147.039 452.855 147.258C452.348 147.383 451.773 147.445 451.133 147.445C449.57 147.445 448.246 146.879 447.16 145.746C446.074 144.605 445.531 143.012 445.531 140.965C445.531 138.949 446.078 137.312 447.172 136.055C448.266 134.797 449.695 134.168 451.461 134.168ZM454.824 139.723C454.738 138.809 454.539 138.078 454.227 137.531C453.648 136.516 452.684 136.008 451.332 136.008C450.363 136.008 449.551 136.359 448.895 137.062C448.238 137.758 447.891 138.645 447.852 139.723H454.824ZM459.652 134.449H461.656V136.617C461.82 136.195 462.223 135.684 462.863 135.082C463.504 134.473 464.242 134.168 465.078 134.168C465.117 134.168 465.184 134.172 465.277 134.18C465.371 134.188 465.531 134.203 465.758 134.227V136.453C465.633 136.43 465.516 136.414 465.406 136.406C465.305 136.398 465.191 136.395 465.066 136.395C464.004 136.395 463.188 136.738 462.617 137.426C462.047 138.105 461.762 138.891 461.762 139.781V147H459.652V134.449Z" fill="black"/>
</g>
<g id="FullAdder1">
<rect id="Rectangle 1_2" x="373.5" y="247.5" width="120" height="110" fill="white" stroke="black" stroke-width="3"/>
<path id="Full Adder_2" d="M416.691 275.785H428.633V277.895H419.023V283.121H427.473V285.172H419.023V293H416.691V275.785ZM432.969 280.449V288.781C432.969 289.422 433.07 289.945 433.273 290.352C433.648 291.102 434.348 291.477 435.371 291.477C436.84 291.477 437.84 290.82 438.371 289.508C438.66 288.805 438.805 287.84 438.805 286.613V280.449H440.914V293H438.922L438.945 291.148C438.672 291.625 438.332 292.027 437.926 292.355C437.121 293.012 436.145 293.34 434.996 293.34C433.207 293.34 431.988 292.742 431.34 291.547C430.988 290.906 430.812 290.051 430.812 288.98V280.449H432.969ZM444.277 275.785H446.387V293H444.277V275.785ZM449.621 275.785H451.73V293H449.621V275.785ZM412.625 313.945L410.012 306.34L407.234 313.945H412.625ZM408.793 303.785H411.43L417.676 321H415.121L413.375 315.844H406.566L404.703 321H402.312L408.793 303.785ZM420.852 314.871C420.852 316.215 421.137 317.34 421.707 318.246C422.277 319.152 423.191 319.605 424.449 319.605C425.426 319.605 426.227 319.188 426.852 318.352C427.484 317.508 427.801 316.301 427.801 314.73C427.801 313.145 427.477 311.973 426.828 311.215C426.18 310.449 425.379 310.066 424.426 310.066C423.363 310.066 422.5 310.473 421.836 311.285C421.18 312.098 420.852 313.293 420.852 314.871ZM424.027 308.227C424.988 308.227 425.793 308.43 426.441 308.836C426.816 309.07 427.242 309.48 427.719 310.066V303.727H429.746V321H427.848V319.254C427.355 320.027 426.773 320.586 426.102 320.93C425.43 321.273 424.66 321.445 423.793 321.445C422.395 321.445 421.184 320.859 420.16 319.688C419.137 318.508 418.625 316.941 418.625 314.988C418.625 313.16 419.09 311.578 420.02 310.242C420.957 308.898 422.293 308.227 424.027 308.227ZM434.211 314.871C434.211 316.215 434.496 317.34 435.066 318.246C435.637 319.152 436.551 319.605 437.809 319.605C438.785 319.605 439.586 319.188 440.211 318.352C440.844 317.508 441.16 316.301 441.16 314.73C441.16 313.145 440.836 311.973 440.188 311.215C439.539 310.449 438.738 310.066 437.785 310.066C436.723 310.066 435.859 310.473 435.195 311.285C434.539 312.098 434.211 313.293 434.211 314.871ZM437.387 308.227C438.348 308.227 439.152 308.43 439.801 308.836C440.176 309.07 440.602 309.48 441.078 310.066V303.727H443.105V321H441.207V319.254C440.715 320.027 440.133 320.586 439.461 320.93C438.789 321.273 438.02 321.445 437.152 321.445C435.754 321.445 434.543 320.859 433.52 319.688C432.496 318.508 431.984 316.941 431.984 314.988C431.984 313.16 432.449 311.578 433.379 310.242C434.316 308.898 435.652 308.227 437.387 308.227ZM451.461 308.168C452.352 308.168 453.215 308.379 454.051 308.801C454.887 309.215 455.523 309.754 455.961 310.418C456.383 311.051 456.664 311.789 456.805 312.633C456.93 313.211 456.992 314.133 456.992 315.398H447.793C447.832 316.672 448.133 317.695 448.695 318.469C449.258 319.234 450.129 319.617 451.309 319.617C452.41 319.617 453.289 319.254 453.945 318.527C454.32 318.105 454.586 317.617 454.742 317.062H456.816C456.762 317.523 456.578 318.039 456.266 318.609C455.961 319.172 455.617 319.633 455.234 319.992C454.594 320.617 453.801 321.039 452.855 321.258C452.348 321.383 451.773 321.445 451.133 321.445C449.57 321.445 448.246 320.879 447.16 319.746C446.074 318.605 445.531 317.012 445.531 314.965C445.531 312.949 446.078 311.312 447.172 310.055C448.266 308.797 449.695 308.168 451.461 308.168ZM454.824 313.723C454.738 312.809 454.539 312.078 454.227 311.531C453.648 310.516 452.684 310.008 451.332 310.008C450.363 310.008 449.551 310.359 448.895 311.062C448.238 311.758 447.891 312.645 447.852 313.723H454.824ZM459.652 308.449H461.656V310.617C461.82 310.195 462.223 309.684 462.863 309.082C463.504 308.473 464.242 308.168 465.078 308.168C465.117 308.168 465.184 308.172 465.277 308.18C465.371 308.188 465.531 308.203 465.758 308.227V310.453C465.633 310.43 465.516 310.414 465.406 310.406C465.305 310.398 465.191 310.395 465.066 310.395C464.004 310.395 463.188 310.738 462.617 311.426C462.047 312.105 461.762 312.891 461.762 313.781V321H459.652V308.449Z" fill="black"/>
</g>
<g id="FullAdder2">
<rect id="Rectangle 1_3" x="373.5" y="416.5" width="120" height="110" fill="white" stroke="black" stroke-width="3"/>
<path id="Full Adder_3" d="M416.691 444.785H428.633V446.895H419.023V452.121H427.473V454.172H419.023V462H416.691V444.785ZM432.969 449.449V457.781C432.969 458.422 433.07 458.945 433.273 459.352C433.648 460.102 434.348 460.477 435.371 460.477C436.84 460.477 437.84 459.82 438.371 458.508C438.66 457.805 438.805 456.84 438.805 455.613V449.449H440.914V462H438.922L438.945 460.148C438.672 460.625 438.332 461.027 437.926 461.355C437.121 462.012 436.145 462.34 434.996 462.34C433.207 462.34 431.988 461.742 431.34 460.547C430.988 459.906 430.812 459.051 430.812 457.98V449.449H432.969ZM444.277 444.785H446.387V462H444.277V444.785ZM449.621 444.785H451.73V462H449.621V444.785ZM412.625 482.945L410.012 475.34L407.234 482.945H412.625ZM408.793 472.785H411.43L417.676 490H415.121L413.375 484.844H406.566L404.703 490H402.312L408.793 472.785ZM420.852 483.871C420.852 485.215 421.137 486.34 421.707 487.246C422.277 488.152 423.191 488.605 424.449 488.605C425.426 488.605 426.227 488.188 426.852 487.352C427.484 486.508 427.801 485.301 427.801 483.73C427.801 482.145 427.477 480.973 426.828 480.215C426.18 479.449 425.379 479.066 424.426 479.066C423.363 479.066 422.5 479.473 421.836 480.285C421.18 481.098 420.852 482.293 420.852 483.871ZM424.027 477.227C424.988 477.227 425.793 477.43 426.441 477.836C426.816 478.07 427.242 478.48 427.719 479.066V472.727H429.746V490H427.848V488.254C427.355 489.027 426.773 489.586 426.102 489.93C425.43 490.273 424.66 490.445 423.793 490.445C422.395 490.445 421.184 489.859 420.16 488.688C419.137 487.508 418.625 485.941 418.625 483.988C418.625 482.16 419.09 480.578 420.02 479.242C420.957 477.898 422.293 477.227 424.027 477.227ZM434.211 483.871C434.211 485.215 434.496 486.34 435.066 487.246C435.637 488.152 436.551 488.605 437.809 488.605C438.785 488.605 439.586 488.188 440.211 487.352C440.844 486.508 441.16 485.301 441.16 483.73C441.16 482.145 440.836 480.973 440.188 480.215C439.539 479.449 438.738 479.066 437.785 479.066C436.723 479.066 435.859 479.473 435.195 480.285C434.539 481.098 434.211 482.293 434.211 483.871ZM437.387 477.227C438.348 477.227 439.152 477.43 439.801 477.836C440.176 478.07 440.602 478.48 441.078 479.066V472.727H443.105V490H441.207V488.254C440.715 489.027 440.133 489.586 439.461 489.93C438.789 490.273 438.02 490.445 437.152 490.445C435.754 490.445 434.543 489.859 433.52 488.688C432.496 487.508 431.984 485.941 431.984 483.988C431.984 482.16 432.449 480.578 433.379 479.242C434.316 477.898 435.652 477.227 437.387 477.227ZM451.461 477.168C452.352 477.168 453.215 477.379 454.051 477.801C454.887 478.215 455.523 478.754 455.961 479.418C456.383 480.051 456.664 480.789 456.805 481.633C456.93 482.211 456.992 483.133 456.992 484.398H447.793C447.832 485.672 448.133 486.695 448.695 487.469C449.258 488.234 450.129 488.617 451.309 488.617C452.41 488.617 453.289 488.254 453.945 487.527C454.32 487.105 454.586 486.617 454.742 486.062H456.816C456.762 486.523 456.578 487.039 456.266 487.609C455.961 488.172 455.617 488.633 455.234 488.992C454.594 489.617 453.801 490.039 452.855 490.258C452.348 490.383 451.773 490.445 451.133 490.445C449.57 490.445 448.246 489.879 447.16 488.746C446.074 487.605 445.531 486.012 445.531 483.965C445.531 481.949 446.078 480.312 447.172 479.055C448.266 477.797 449.695 477.168 451.461 477.168ZM454.824 482.723C454.738 481.809 454.539 481.078 454.227 480.531C453.648 479.516 452.684 479.008 451.332 479.008C450.363 479.008 449.551 479.359 448.895 480.062C448.238 480.758 447.891 481.645 447.852 482.723H454.824ZM459.652 477.449H461.656V479.617C461.82 479.195 462.223 478.684 462.863 478.082C463.504 477.473 464.242 477.168 465.078 477.168C465.117 477.168 465.184 477.172 465.277 477.18C465.371 477.188 465.531 477.203 465.758 477.227V479.453C465.633 479.43 465.516 479.414 465.406 479.406C465.305 479.398 465.191 479.395 465.066 479.395C464.004 479.395 463.188 479.738 462.617 480.426C462.047 481.105 461.762 481.891 461.762 482.781V490H459.652V477.449Z" fill="black"/>
</g>
<g id="FullAdder3">
<rect id="Rectangle 1_4" x="373.5" y="590.5" width="120" height="110" fill="white" stroke="black" stroke-width="3"/>
<path id="Full Adder_4" d="M416.691 618.785H428.633V620.895H419.023V626.121H427.473V628.172H419.023V636H416.691V618.785ZM432.969 623.449V631.781C432.969 632.422 433.07 632.945 433.273 633.352C433.648 634.102 434.348 634.477 435.371 634.477C436.84 634.477 437.84 633.82 438.371 632.508C438.66 631.805 438.805 630.84 438.805 629.613V623.449H440.914V636H438.922L438.945 634.148C438.672 634.625 438.332 635.027 437.926 635.355C437.121 636.012 436.145 636.34 434.996 636.34C433.207 636.34 431.988 635.742 431.34 634.547C430.988 633.906 430.812 633.051 430.812 631.98V623.449H432.969ZM444.277 618.785H446.387V636H444.277V618.785ZM449.621 618.785H451.73V636H449.621V618.785ZM412.625 656.945L410.012 649.34L407.234 656.945H412.625ZM408.793 646.785H411.43L417.676 664H415.121L413.375 658.844H406.566L404.703 664H402.312L408.793 646.785ZM420.852 657.871C420.852 659.215 421.137 660.34 421.707 661.246C422.277 662.152 423.191 662.605 424.449 662.605C425.426 662.605 426.227 662.188 426.852 661.352C427.484 660.508 427.801 659.301 427.801 657.73C427.801 656.145 427.477 654.973 426.828 654.215C426.18 653.449 425.379 653.066 424.426 653.066C423.363 653.066 422.5 653.473 421.836 654.285C421.18 655.098 420.852 656.293 420.852 657.871ZM424.027 651.227C424.988 651.227 425.793 651.43 426.441 651.836C426.816 652.07 427.242 652.48 427.719 653.066V646.727H429.746V664H427.848V662.254C427.355 663.027 426.773 663.586 426.102 663.93C425.43 664.273 424.66 664.445 423.793 664.445C422.395 664.445 421.184 663.859 420.16 662.688C419.137 661.508 418.625 659.941 418.625 657.988C418.625 656.16 419.09 654.578 420.02 653.242C420.957 651.898 422.293 651.227 424.027 651.227ZM434.211 657.871C434.211 659.215 434.496 660.34 435.066 661.246C435.637 662.152 436.551 662.605 437.809 662.605C438.785 662.605 439.586 662.188 440.211 661.352C440.844 660.508 441.16 659.301 441.16 657.73C441.16 656.145 440.836 654.973 440.188 654.215C439.539 653.449 438.738 653.066 437.785 653.066C436.723 653.066 435.859 653.473 435.195 654.285C434.539 655.098 434.211 656.293 434.211 657.871ZM437.387 651.227C438.348 651.227 439.152 651.43 439.801 651.836C440.176 652.07 440.602 652.48 441.078 653.066V646.727H443.105V664H441.207V662.254C440.715 663.027 440.133 663.586 439.461 663.93C438.789 664.273 438.02 664.445 437.152 664.445C435.754 664.445 434.543 663.859 433.52 662.688C432.496 661.508 431.984 659.941 431.984 657.988C431.984 656.16 432.449 654.578 433.379 653.242C434.316 651.898 435.652 651.227 437.387 651.227ZM451.461 651.168C452.352 651.168 453.215 651.379 454.051 651.801C454.887 652.215 455.523 652.754 455.961 653.418C456.383 654.051 456.664 654.789 456.805 655.633C456.93 656.211 456.992 657.133 456.992 658.398H447.793C447.832 659.672 448.133 660.695 448.695 661.469C449.258 662.234 450.129 662.617 451.309 662.617C452.41 662.617 453.289 662.254 453.945 661.527C454.32 661.105 454.586 660.617 454.742 660.062H456.816C456.762 660.523 456.578 661.039 456.266 661.609C455.961 662.172 455.617 662.633 455.234 662.992C454.594 663.617 453.801 664.039 452.855 664.258C452.348 664.383 451.773 664.445 451.133 664.445C449.57 664.445 448.246 663.879 447.16 662.746C446.074 661.605 445.531 660.012 445.531 657.965C445.531 655.949 446.078 654.312 447.172 653.055C448.266 651.797 449.695 651.168 451.461 651.168ZM454.824 656.723C454.738 655.809 454.539 655.078 454.227 654.531C453.648 653.516 452.684 653.008 451.332 653.008C450.363 653.008 449.551 653.359 448.895 654.062C448.238 654.758 447.891 655.645 447.852 656.723H454.824ZM459.652 651.449H461.656V653.617C461.82 653.195 462.223 652.684 462.863 652.082C463.504 651.473 464.242 651.168 465.078 651.168C465.117 651.168 465.184 651.172 465.277 651.18C465.371 651.188 465.531 651.203 465.758 651.227V653.453C465.633 653.43 465.516 653.414 465.406 653.406C465.305 653.398 465.191 653.395 465.066 653.395C464.004 653.395 463.188 653.738 462.617 654.426C462.047 655.105 461.762 655.891 461.762 656.781V664H459.652V651.449Z" fill="black"/>
</g>
</svg>
