<svg width="75" height="16" viewBox="0 0 75 16" fill="none" xmlns="http://www.w3.org/2000/svg">
<path d="M8.59375 8.85742L6.41602 2.51953L4.10156 8.85742H8.59375ZM5.40039 0.390625H7.59766L12.8027 14.7363H10.6738L9.21875 10.4395H3.54492L1.99219 14.7363H0L5.40039 0.390625ZM15.4492 9.62891C15.4492 10.7487 15.6868 11.6862 16.1621 12.4414C16.6374 13.1966 17.3991 13.5742 18.4473 13.5742C19.2611 13.5742 19.9284 13.2259 20.4492 12.5293C20.9766 11.8262 21.2402 10.8203 21.2402 9.51172C21.2402 8.1901 20.9701 7.21354 20.4297 6.58203C19.8893 5.94401 19.222 5.625 18.4277 5.625C17.5423 5.625 16.8229 5.96354 16.2695 6.64062C15.7227 7.31771 15.4492 8.3138 15.4492 9.62891ZM18.0957 4.0918C18.8965 4.0918 19.5671 4.26107 20.1074 4.59961C20.4199 4.79492 20.7747 5.13672 21.1719 5.625V0.341797H22.8613V14.7363H21.2793V13.2812C20.8691 13.9258 20.3841 14.3913 19.8242 14.6777C19.2643 14.9642 18.623 15.1074 17.9004 15.1074C16.735 15.1074 15.7259 14.6191 14.873 13.6426C14.0202 12.6595 13.5938 11.3542 13.5938 9.72656C13.5938 8.20312 13.9811 6.88477 14.7559 5.77148C15.5371 4.65169 16.6504 4.0918 18.0957 4.0918ZM26.582 9.62891C26.582 10.7487 26.8197 11.6862 27.2949 12.4414C27.7702 13.1966 28.5319 13.5742 29.5801 13.5742C30.3939 13.5742 31.0612 13.2259 31.582 12.5293C32.1094 11.8262 32.373 10.8203 32.373 9.51172C32.373 8.1901 32.1029 7.21354 31.5625 6.58203C31.0221 5.94401 30.3548 5.625 29.5605 5.625C28.6751 5.625 27.9557 5.96354 27.4023 6.64062C26.8555 7.31771 26.582 8.3138 26.582 9.62891ZM29.2285 4.0918C30.0293 4.0918 30.6999 4.26107 31.2402 4.59961C31.5527 4.79492 31.9076 5.13672 32.3047 5.625V0.341797H33.9941V14.7363H32.4121V13.2812C32.002 13.9258 31.5169 14.3913 30.957 14.6777C30.3971 14.9642 29.7559 15.1074 29.0332 15.1074C27.8678 15.1074 26.8587 14.6191 26.0059 13.6426C25.153 12.6595 24.7266 11.3542 24.7266 9.72656C24.7266 8.20312 25.1139 6.88477 25.8887 5.77148C26.6699 4.65169 27.7832 4.0918 29.2285 4.0918ZM36.9727 4.56055C37.3307 4.50195 37.6009 4.30013 37.7832 3.95508C37.972 3.61003 38.0664 3.21289 38.0664 2.76367C38.0664 2.7181 38.0632 2.67904 38.0566 2.64648C38.0566 2.60742 38.0501 2.5651 38.0371 2.51953H36.9727V0.390625H39.0625V2.35352C39.0625 3.18685 38.89 3.89648 38.5449 4.48242C38.1999 5.06185 37.6758 5.39388 36.9727 5.47852V4.56055ZM42.5586 10.1074C42.6042 10.9212 42.7962 11.582 43.1348 12.0898C43.7793 13.0404 44.9154 13.5156 46.543 13.5156C47.2721 13.5156 47.9362 13.4115 48.5352 13.2031C49.694 12.7995 50.2734 12.0768 50.2734 11.0352C50.2734 10.2539 50.0293 9.69727 49.541 9.36523C49.0462 9.03971 48.2715 8.75651 47.2168 8.51562L45.2734 8.07617C44.0039 7.78971 43.1055 7.47396 42.5781 7.12891C41.6667 6.52995 41.2109 5.63477 41.2109 4.44336C41.2109 3.1543 41.6569 2.09635 42.5488 1.26953C43.4408 0.442708 44.7038 0.0292969 46.3379 0.0292969C47.8418 0.0292969 49.1178 0.39388 50.166 1.12305C51.2207 1.8457 51.748 3.00456 51.748 4.59961H49.9219C49.8242 3.83138 49.6159 3.24219 49.2969 2.83203C48.7044 2.08333 47.6986 1.70898 46.2793 1.70898C45.1335 1.70898 44.3099 1.94987 43.8086 2.43164C43.3073 2.91341 43.0566 3.47331 43.0566 4.11133C43.0566 4.81445 43.3496 5.32878 43.9355 5.6543C44.3197 5.86263 45.1888 6.12305 46.543 6.43555L48.5547 6.89453C49.5247 7.11589 50.2734 7.41862 50.8008 7.80273C51.7122 8.47331 52.168 9.44661 52.168 10.7227C52.168 12.3112 51.5885 13.4473 50.4297 14.1309C49.2773 14.8145 47.9362 15.1562 46.4062 15.1562C44.6224 15.1562 43.2259 14.7005 42.2168 13.7891C41.2077 12.8841 40.7129 11.6569 40.7324 10.1074H42.5586ZM56.1523 4.27734V11.2207C56.1523 11.7546 56.237 12.1908 56.4062 12.5293C56.7188 13.1543 57.3014 13.4668 58.1543 13.4668C59.3783 13.4668 60.2116 12.9199 60.6543 11.8262C60.8952 11.2402 61.0156 10.4362 61.0156 9.41406V4.27734H62.7734V14.7363H61.1133L61.1328 13.1934C60.9049 13.5905 60.6217 13.9258 60.2832 14.1992C59.6126 14.7461 58.7988 15.0195 57.8418 15.0195C56.3509 15.0195 55.3353 14.5215 54.7949 13.5254C54.502 12.9915 54.3555 12.2786 54.3555 11.3867V4.27734H56.1523ZM65.3906 0.341797H67.0996V5.54688C67.4837 5.04557 67.9427 4.66471 68.4766 4.4043C69.0104 4.13737 69.5898 4.00391 70.2148 4.00391C71.5169 4.00391 72.5716 4.45312 73.3789 5.35156C74.1927 6.24349 74.5996 7.56185 74.5996 9.30664C74.5996 10.9603 74.1992 12.334 73.3984 13.4277C72.5977 14.5215 71.4876 15.0684 70.0684 15.0684C69.2741 15.0684 68.6035 14.8763 68.0566 14.4922C67.7311 14.2643 67.3828 13.8997 67.0117 13.3984V14.7363H65.3906V0.341797ZM69.9609 13.5156C70.9115 13.5156 71.6211 13.138 72.0898 12.3828C72.5651 11.6276 72.8027 10.6315 72.8027 9.39453C72.8027 8.29427 72.5651 7.38281 72.0898 6.66016C71.6211 5.9375 70.9277 5.57617 70.0098 5.57617C69.209 5.57617 68.5059 5.8724 67.9004 6.46484C67.3014 7.05729 67.002 8.03385 67.002 9.39453C67.002 10.3776 67.1257 11.1751 67.373 11.7871C67.8353 12.9395 68.6979 13.5156 69.9609 13.5156Z" fill="black"/>
</svg>
