<svg width="1568" height="1046" viewBox="0 0 1568 1046" fill="none" xmlns="http://www.w3.org/2000/svg">
<rect id="Background_ALU" width="1568" height="1046" fill="transparent"/>
<line id="Line 2" x1="136.939" y1="418.939" x2="162.939" y2="392.939" stroke="black" stroke-width="3"/>
<line id="Line 11" x1="756.939" y1="979.939" x2="782.939" y2="953.939" stroke="black" stroke-width="3"/>
<line id="Line 8" x1="136.939" y1="418.939" x2="162.939" y2="392.939" stroke="black" stroke-width="3"/>
<line id="Line 13" x1="1267.94" y1="253.939" x2="1293.94" y2="227.939" stroke="black" stroke-width="3"/>
<line id="Line 7" x1="569.939" y1="243.939" x2="595.939" y2="217.939" stroke="black" stroke-width="3"/>
<line id="Line 12" x1="944.939" y1="512.939" x2="970.939" y2="486.939" stroke="black" stroke-width="3"/>
<line id="Line 15" x1="1131.94" y1="473.939" x2="1157.94" y2="447.939" stroke="black" stroke-width="3"/>
<line id="Line 14" x1="1417.94" y1="474.939" x2="1443.94" y2="448.939" stroke="black" stroke-width="3"/>
<line id="Line 9" x1="136.939" y1="593.939" x2="162.939" y2="567.939" stroke="black" stroke-width="3"/>
<path id="32" d="M145.062 433.381C143.409 433.381 142.208 432.928 141.459 432.023C140.717 431.112 140.346 430.005 140.346 428.703H142.182C142.26 429.608 142.429 430.266 142.689 430.676C143.145 431.411 143.969 431.779 145.16 431.779C146.085 431.779 146.827 431.532 147.387 431.037C147.947 430.542 148.227 429.904 148.227 429.123C148.227 428.16 147.93 427.486 147.338 427.102C146.752 426.717 145.935 426.525 144.887 426.525C144.77 426.525 144.649 426.529 144.525 426.535C144.408 426.535 144.288 426.538 144.164 426.545V424.992C144.346 425.012 144.499 425.025 144.623 425.031C144.747 425.038 144.88 425.041 145.023 425.041C145.681 425.041 146.221 424.937 146.645 424.729C147.387 424.364 147.758 423.713 147.758 422.775C147.758 422.079 147.51 421.542 147.016 421.164C146.521 420.786 145.945 420.598 145.287 420.598C144.115 420.598 143.305 420.988 142.855 421.77C142.608 422.199 142.468 422.811 142.436 423.605H140.697C140.697 422.564 140.906 421.678 141.322 420.949C142.038 419.647 143.298 418.996 145.102 418.996C146.527 418.996 147.631 419.315 148.412 419.953C149.193 420.585 149.584 421.503 149.584 422.707C149.584 423.566 149.353 424.263 148.891 424.797C148.604 425.129 148.233 425.389 147.777 425.578C148.513 425.78 149.086 426.171 149.496 426.75C149.913 427.323 150.121 428.026 150.121 428.859C150.121 430.194 149.682 431.281 148.803 432.121C147.924 432.961 146.677 433.381 145.062 433.381ZM151.625 433C151.69 431.796 151.938 430.747 152.367 429.855C152.803 428.964 153.65 428.153 154.906 427.424L156.781 426.34C157.621 425.852 158.21 425.435 158.549 425.09C159.083 424.549 159.35 423.931 159.35 423.234C159.35 422.421 159.105 421.776 158.617 421.301C158.129 420.819 157.478 420.578 156.664 420.578C155.46 420.578 154.626 421.034 154.164 421.945C153.917 422.434 153.78 423.111 153.754 423.977H151.967C151.986 422.759 152.211 421.766 152.641 420.998C153.402 419.644 154.747 418.967 156.674 418.967C158.275 418.967 159.444 419.4 160.18 420.266C160.922 421.132 161.293 422.095 161.293 423.156C161.293 424.276 160.899 425.233 160.111 426.027C159.656 426.49 158.839 427.049 157.66 427.707L156.322 428.449C155.684 428.801 155.183 429.136 154.818 429.455C154.167 430.021 153.757 430.65 153.588 431.34H161.225V433H151.625Z" fill="black"/>
<path id="2" d="M1295.56 251C1295.62 249.796 1295.87 248.747 1296.3 247.855C1296.74 246.964 1297.58 246.153 1298.84 245.424L1300.71 244.34C1301.55 243.852 1302.14 243.435 1302.48 243.09C1303.02 242.549 1303.28 241.931 1303.28 241.234C1303.28 240.421 1303.04 239.776 1302.55 239.301C1302.06 238.819 1301.41 238.578 1300.6 238.578C1299.39 238.578 1298.56 239.034 1298.1 239.945C1297.85 240.434 1297.71 241.111 1297.69 241.977H1295.9C1295.92 240.759 1296.14 239.766 1296.57 238.998C1297.34 237.644 1298.68 236.967 1300.61 236.967C1302.21 236.967 1303.38 237.4 1304.11 238.266C1304.86 239.132 1305.23 240.095 1305.23 241.156C1305.23 242.276 1304.83 243.233 1304.04 244.027C1303.59 244.49 1302.77 245.049 1301.59 245.707L1300.26 246.449C1299.62 246.801 1299.12 247.136 1298.75 247.455C1298.1 248.021 1297.69 248.65 1297.52 249.34H1305.16V251H1295.56Z" fill="black"/>
<path id="1" d="M1158.85 461.098V459.75C1160.12 459.626 1161 459.421 1161.5 459.135C1162.01 458.842 1162.38 458.155 1162.63 457.074H1164.01V471H1162.14V461.098H1158.85Z" fill="black"/>
<line id="Line 16" x1="328.939" y1="500.939" x2="354.939" y2="474.939" stroke="black" stroke-width="3"/>
<path id="1_2" d="M355.848 488.098V486.75C357.117 486.626 358.003 486.421 358.504 486.135C359.005 485.842 359.38 485.155 359.627 484.074H361.014V498H359.139V488.098H355.848Z" fill="black"/>
<path id="x" d="M73.5273 398.174H77.623L81.9473 404.801L86.3242 398.174L90.1738 398.262L83.8281 407.35L90.4551 417H86.4121L81.7363 409.934L77.2012 417H73.1934L79.8203 407.35L73.5273 398.174Z" fill="black"/>
<path id="y" d="M87.0801 572.174H90.5781C90.1328 573.381 89.1426 576.135 87.6074 580.436C86.459 583.67 85.498 586.307 84.7246 588.346C82.8965 593.15 81.6074 596.08 80.8574 597.135C80.1074 598.189 78.8184 598.717 76.9902 598.717C76.5449 598.717 76.1992 598.699 75.9531 598.664C75.7188 598.629 75.4258 598.564 75.0742 598.471V595.588C75.625 595.74 76.0234 595.834 76.2695 595.869C76.5156 595.904 76.7324 595.922 76.9199 595.922C77.5059 595.922 77.9336 595.822 78.2031 595.623C78.4844 595.436 78.7188 595.201 78.9062 594.92C78.9648 594.826 79.1758 594.346 79.5391 593.479C79.9023 592.611 80.166 591.967 80.3301 591.545L73.3691 572.174H76.9551L82 587.502L87.0801 572.174Z" fill="black"/>
<path id="32_2" d="M581.562 259.381C579.909 259.381 578.708 258.928 577.959 258.023C577.217 257.112 576.846 256.005 576.846 254.703H578.682C578.76 255.608 578.929 256.266 579.189 256.676C579.645 257.411 580.469 257.779 581.66 257.779C582.585 257.779 583.327 257.532 583.887 257.037C584.447 256.542 584.727 255.904 584.727 255.123C584.727 254.16 584.43 253.486 583.838 253.102C583.252 252.717 582.435 252.525 581.387 252.525C581.27 252.525 581.149 252.529 581.025 252.535C580.908 252.535 580.788 252.538 580.664 252.545V250.992C580.846 251.012 580.999 251.025 581.123 251.031C581.247 251.038 581.38 251.041 581.523 251.041C582.181 251.041 582.721 250.937 583.145 250.729C583.887 250.364 584.258 249.713 584.258 248.775C584.258 248.079 584.01 247.542 583.516 247.164C583.021 246.786 582.445 246.598 581.787 246.598C580.615 246.598 579.805 246.988 579.355 247.77C579.108 248.199 578.968 248.811 578.936 249.605H577.197C577.197 248.564 577.406 247.678 577.822 246.949C578.538 245.647 579.798 244.996 581.602 244.996C583.027 244.996 584.131 245.315 584.912 245.953C585.693 246.585 586.084 247.503 586.084 248.707C586.084 249.566 585.853 250.263 585.391 250.797C585.104 251.129 584.733 251.389 584.277 251.578C585.013 251.78 585.586 252.171 585.996 252.75C586.413 253.323 586.621 254.026 586.621 254.859C586.621 256.194 586.182 257.281 585.303 258.121C584.424 258.961 583.177 259.381 581.562 259.381ZM588.125 259C588.19 257.796 588.438 256.747 588.867 255.855C589.303 254.964 590.15 254.153 591.406 253.424L593.281 252.34C594.121 251.852 594.71 251.435 595.049 251.09C595.583 250.549 595.85 249.931 595.85 249.234C595.85 248.421 595.605 247.776 595.117 247.301C594.629 246.819 593.978 246.578 593.164 246.578C591.96 246.578 591.126 247.034 590.664 247.945C590.417 248.434 590.28 249.111 590.254 249.977H588.467C588.486 248.759 588.711 247.766 589.141 246.998C589.902 245.644 591.247 244.967 593.174 244.967C594.775 244.967 595.944 245.4 596.68 246.266C597.422 247.132 597.793 248.095 597.793 249.156C597.793 250.276 597.399 251.233 596.611 252.027C596.156 252.49 595.339 253.049 594.16 253.707L592.822 254.449C592.184 254.801 591.683 255.136 591.318 255.455C590.667 256.021 590.257 256.65 590.088 257.34H597.725V259H588.125Z" fill="black"/>
<path id="32_3" d="M953.062 532.381C951.409 532.381 950.208 531.928 949.459 531.023C948.717 530.112 948.346 529.005 948.346 527.703H950.182C950.26 528.608 950.429 529.266 950.689 529.676C951.145 530.411 951.969 530.779 953.16 530.779C954.085 530.779 954.827 530.532 955.387 530.037C955.947 529.542 956.227 528.904 956.227 528.123C956.227 527.16 955.93 526.486 955.338 526.102C954.752 525.717 953.935 525.525 952.887 525.525C952.77 525.525 952.649 525.529 952.525 525.535C952.408 525.535 952.288 525.538 952.164 525.545V523.992C952.346 524.012 952.499 524.025 952.623 524.031C952.747 524.038 952.88 524.041 953.023 524.041C953.681 524.041 954.221 523.937 954.645 523.729C955.387 523.364 955.758 522.713 955.758 521.775C955.758 521.079 955.51 520.542 955.016 520.164C954.521 519.786 953.945 519.598 953.287 519.598C952.115 519.598 951.305 519.988 950.855 520.77C950.608 521.199 950.468 521.811 950.436 522.605H948.697C948.697 521.564 948.906 520.678 949.322 519.949C950.038 518.647 951.298 517.996 953.102 517.996C954.527 517.996 955.631 518.315 956.412 518.953C957.193 519.585 957.584 520.503 957.584 521.707C957.584 522.566 957.353 523.263 956.891 523.797C956.604 524.129 956.233 524.389 955.777 524.578C956.513 524.78 957.086 525.171 957.496 525.75C957.913 526.323 958.121 527.026 958.121 527.859C958.121 529.194 957.682 530.281 956.803 531.121C955.924 531.961 954.677 532.381 953.062 532.381ZM959.625 532C959.69 530.796 959.938 529.747 960.367 528.855C960.803 527.964 961.65 527.153 962.906 526.424L964.781 525.34C965.621 524.852 966.21 524.435 966.549 524.09C967.083 523.549 967.35 522.931 967.35 522.234C967.35 521.421 967.105 520.776 966.617 520.301C966.129 519.819 965.478 519.578 964.664 519.578C963.46 519.578 962.626 520.034 962.164 520.945C961.917 521.434 961.78 522.111 961.754 522.977H959.967C959.986 521.759 960.211 520.766 960.641 519.998C961.402 518.644 962.747 517.967 964.674 517.967C966.275 517.967 967.444 518.4 968.18 519.266C968.922 520.132 969.293 521.095 969.293 522.156C969.293 523.276 968.899 524.233 968.111 525.027C967.656 525.49 966.839 526.049 965.66 526.707L964.322 527.449C963.684 527.801 963.183 528.136 962.818 528.455C962.167 529.021 961.757 529.65 961.588 530.34H969.225V532H959.625Z" fill="black"/>
<line id="Line 18" x1="944.939" y1="861.939" x2="970.939" y2="835.939" stroke="black" stroke-width="3"/>
<path id="32_4" d="M953.062 881.381C951.409 881.381 950.208 880.928 949.459 880.023C948.717 879.112 948.346 878.005 948.346 876.703H950.182C950.26 877.608 950.429 878.266 950.689 878.676C951.145 879.411 951.969 879.779 953.16 879.779C954.085 879.779 954.827 879.532 955.387 879.037C955.947 878.542 956.227 877.904 956.227 877.123C956.227 876.16 955.93 875.486 955.338 875.102C954.752 874.717 953.935 874.525 952.887 874.525C952.77 874.525 952.649 874.529 952.525 874.535C952.408 874.535 952.288 874.538 952.164 874.545V872.992C952.346 873.012 952.499 873.025 952.623 873.031C952.747 873.038 952.88 873.041 953.023 873.041C953.681 873.041 954.221 872.937 954.645 872.729C955.387 872.364 955.758 871.713 955.758 870.775C955.758 870.079 955.51 869.542 955.016 869.164C954.521 868.786 953.945 868.598 953.287 868.598C952.115 868.598 951.305 868.988 950.855 869.77C950.608 870.199 950.468 870.811 950.436 871.605H948.697C948.697 870.564 948.906 869.678 949.322 868.949C950.038 867.647 951.298 866.996 953.102 866.996C954.527 866.996 955.631 867.315 956.412 867.953C957.193 868.585 957.584 869.503 957.584 870.707C957.584 871.566 957.353 872.263 956.891 872.797C956.604 873.129 956.233 873.389 955.777 873.578C956.513 873.78 957.086 874.171 957.496 874.75C957.913 875.323 958.121 876.026 958.121 876.859C958.121 878.194 957.682 879.281 956.803 880.121C955.924 880.961 954.677 881.381 953.062 881.381ZM959.625 881C959.69 879.796 959.938 878.747 960.367 877.855C960.803 876.964 961.65 876.153 962.906 875.424L964.781 874.34C965.621 873.852 966.21 873.435 966.549 873.09C967.083 872.549 967.35 871.931 967.35 871.234C967.35 870.421 967.105 869.776 966.617 869.301C966.129 868.819 965.478 868.578 964.664 868.578C963.46 868.578 962.626 869.034 962.164 869.945C961.917 870.434 961.78 871.111 961.754 871.977H959.967C959.986 870.759 960.211 869.766 960.641 868.998C961.402 867.644 962.747 866.967 964.674 866.967C966.275 866.967 967.444 867.4 968.18 868.266C968.922 869.132 969.293 870.095 969.293 871.156C969.293 872.276 968.899 873.233 968.111 874.027C967.656 874.49 966.839 875.049 965.66 875.707L964.322 876.449C963.684 876.801 963.183 877.136 962.818 877.455C962.167 878.021 961.757 878.65 961.588 879.34H969.225V881H959.625Z" fill="black"/>
<line id="Line 17" x1="944.939" y1="200.939" x2="970.939" y2="174.939" stroke="black" stroke-width="3"/>
<path id="32_5" d="M953.062 220.381C951.409 220.381 950.208 219.928 949.459 219.023C948.717 218.112 948.346 217.005 948.346 215.703H950.182C950.26 216.608 950.429 217.266 950.689 217.676C951.145 218.411 951.969 218.779 953.16 218.779C954.085 218.779 954.827 218.532 955.387 218.037C955.947 217.542 956.227 216.904 956.227 216.123C956.227 215.16 955.93 214.486 955.338 214.102C954.752 213.717 953.935 213.525 952.887 213.525C952.77 213.525 952.649 213.529 952.525 213.535C952.408 213.535 952.288 213.538 952.164 213.545V211.992C952.346 212.012 952.499 212.025 952.623 212.031C952.747 212.038 952.88 212.041 953.023 212.041C953.681 212.041 954.221 211.937 954.645 211.729C955.387 211.364 955.758 210.713 955.758 209.775C955.758 209.079 955.51 208.542 955.016 208.164C954.521 207.786 953.945 207.598 953.287 207.598C952.115 207.598 951.305 207.988 950.855 208.77C950.608 209.199 950.468 209.811 950.436 210.605H948.697C948.697 209.564 948.906 208.678 949.322 207.949C950.038 206.647 951.298 205.996 953.102 205.996C954.527 205.996 955.631 206.315 956.412 206.953C957.193 207.585 957.584 208.503 957.584 209.707C957.584 210.566 957.353 211.263 956.891 211.797C956.604 212.129 956.233 212.389 955.777 212.578C956.513 212.78 957.086 213.171 957.496 213.75C957.913 214.323 958.121 215.026 958.121 215.859C958.121 217.194 957.682 218.281 956.803 219.121C955.924 219.961 954.677 220.381 953.062 220.381ZM959.625 220C959.69 218.796 959.938 217.747 960.367 216.855C960.803 215.964 961.65 215.153 962.906 214.424L964.781 213.34C965.621 212.852 966.21 212.435 966.549 212.09C967.083 211.549 967.35 210.931 967.35 210.234C967.35 209.421 967.105 208.776 966.617 208.301C966.129 207.819 965.478 207.578 964.664 207.578C963.46 207.578 962.626 208.034 962.164 208.945C961.917 209.434 961.78 210.111 961.754 210.977H959.967C959.986 209.759 960.211 208.766 960.641 207.998C961.402 206.644 962.747 205.967 964.674 205.967C966.275 205.967 967.444 206.4 968.18 207.266C968.922 208.132 969.293 209.095 969.293 210.156C969.293 211.276 968.899 212.233 968.111 213.027C967.656 213.49 966.839 214.049 965.66 214.707L964.322 215.449C963.684 215.801 963.183 216.136 962.818 216.455C962.167 217.021 961.757 217.65 961.588 218.34H969.225V220H959.625Z" fill="black"/>
<path id="32_6" d="M1429.56 494.381C1427.91 494.381 1426.71 493.928 1425.96 493.023C1425.22 492.112 1424.85 491.005 1424.85 489.703H1426.68C1426.76 490.608 1426.93 491.266 1427.19 491.676C1427.65 492.411 1428.47 492.779 1429.66 492.779C1430.58 492.779 1431.33 492.532 1431.89 492.037C1432.45 491.542 1432.73 490.904 1432.73 490.123C1432.73 489.16 1432.43 488.486 1431.84 488.102C1431.25 487.717 1430.43 487.525 1429.39 487.525C1429.27 487.525 1429.15 487.529 1429.03 487.535C1428.91 487.535 1428.79 487.538 1428.66 487.545V485.992C1428.85 486.012 1429 486.025 1429.12 486.031C1429.25 486.038 1429.38 486.041 1429.52 486.041C1430.18 486.041 1430.72 485.937 1431.14 485.729C1431.89 485.364 1432.26 484.713 1432.26 483.775C1432.26 483.079 1432.01 482.542 1431.52 482.164C1431.02 481.786 1430.44 481.598 1429.79 481.598C1428.62 481.598 1427.8 481.988 1427.36 482.77C1427.11 483.199 1426.97 483.811 1426.94 484.605H1425.2C1425.2 483.564 1425.41 482.678 1425.82 481.949C1426.54 480.647 1427.8 479.996 1429.6 479.996C1431.03 479.996 1432.13 480.315 1432.91 480.953C1433.69 481.585 1434.08 482.503 1434.08 483.707C1434.08 484.566 1433.85 485.263 1433.39 485.797C1433.1 486.129 1432.73 486.389 1432.28 486.578C1433.01 486.78 1433.59 487.171 1434 487.75C1434.41 488.323 1434.62 489.026 1434.62 489.859C1434.62 491.194 1434.18 492.281 1433.3 493.121C1432.42 493.961 1431.18 494.381 1429.56 494.381ZM1436.12 494C1436.19 492.796 1436.44 491.747 1436.87 490.855C1437.3 489.964 1438.15 489.153 1439.41 488.424L1441.28 487.34C1442.12 486.852 1442.71 486.435 1443.05 486.09C1443.58 485.549 1443.85 484.931 1443.85 484.234C1443.85 483.421 1443.61 482.776 1443.12 482.301C1442.63 481.819 1441.98 481.578 1441.16 481.578C1439.96 481.578 1439.13 482.034 1438.66 482.945C1438.42 483.434 1438.28 484.111 1438.25 484.977H1436.47C1436.49 483.759 1436.71 482.766 1437.14 481.998C1437.9 480.644 1439.25 479.967 1441.17 479.967C1442.78 479.967 1443.94 480.4 1444.68 481.266C1445.42 482.132 1445.79 483.095 1445.79 484.156C1445.79 485.276 1445.4 486.233 1444.61 487.027C1444.16 487.49 1443.34 488.049 1442.16 488.707L1440.82 489.449C1440.18 489.801 1439.68 490.136 1439.32 490.455C1438.67 491.021 1438.26 491.65 1438.09 492.34H1445.72V494H1436.12Z" fill="black"/>
<path id="32_7" d="M145.062 609.381C143.409 609.381 142.208 608.928 141.459 608.023C140.717 607.112 140.346 606.005 140.346 604.703H142.182C142.26 605.608 142.429 606.266 142.689 606.676C143.145 607.411 143.969 607.779 145.16 607.779C146.085 607.779 146.827 607.532 147.387 607.037C147.947 606.542 148.227 605.904 148.227 605.123C148.227 604.16 147.93 603.486 147.338 603.102C146.752 602.717 145.935 602.525 144.887 602.525C144.77 602.525 144.649 602.529 144.525 602.535C144.408 602.535 144.288 602.538 144.164 602.545V600.992C144.346 601.012 144.499 601.025 144.623 601.031C144.747 601.038 144.88 601.041 145.023 601.041C145.681 601.041 146.221 600.937 146.645 600.729C147.387 600.364 147.758 599.713 147.758 598.775C147.758 598.079 147.51 597.542 147.016 597.164C146.521 596.786 145.945 596.598 145.287 596.598C144.115 596.598 143.305 596.988 142.855 597.77C142.608 598.199 142.468 598.811 142.436 599.605H140.697C140.697 598.564 140.906 597.678 141.322 596.949C142.038 595.647 143.298 594.996 145.102 594.996C146.527 594.996 147.631 595.315 148.412 595.953C149.193 596.585 149.584 597.503 149.584 598.707C149.584 599.566 149.353 600.263 148.891 600.797C148.604 601.129 148.233 601.389 147.777 601.578C148.513 601.78 149.086 602.171 149.496 602.75C149.913 603.323 150.121 604.026 150.121 604.859C150.121 606.194 149.682 607.281 148.803 608.121C147.924 608.961 146.677 609.381 145.062 609.381ZM151.625 609C151.69 607.796 151.938 606.747 152.367 605.855C152.803 604.964 153.65 604.153 154.906 603.424L156.781 602.34C157.621 601.852 158.21 601.435 158.549 601.09C159.083 600.549 159.35 599.931 159.35 599.234C159.35 598.421 159.105 597.776 158.617 597.301C158.129 596.819 157.478 596.578 156.664 596.578C155.46 596.578 154.626 597.034 154.164 597.945C153.917 598.434 153.78 599.111 153.754 599.977H151.967C151.986 598.759 152.211 597.766 152.641 596.998C153.402 595.644 154.747 594.967 156.674 594.967C158.275 594.967 159.444 595.4 160.18 596.266C160.922 597.132 161.293 598.095 161.293 599.156C161.293 600.276 160.899 601.233 160.111 602.027C159.656 602.49 158.839 603.049 157.66 603.707L156.322 604.449C155.684 604.801 155.183 605.136 154.818 605.455C154.167 606.021 153.757 606.65 153.588 607.34H161.225V609H151.625Z" fill="black"/>
<path id="Add&#226;&#128;&#153;Sub" d="M15.7656 629.945L13.1523 622.34L10.375 629.945H15.7656ZM11.9336 619.785H14.5703L20.8164 637H18.2617L16.5156 631.844H9.70703L7.84375 637H5.45312L11.9336 619.785ZM23.9922 630.871C23.9922 632.215 24.2773 633.34 24.8477 634.246C25.418 635.152 26.332 635.605 27.5898 635.605C28.5664 635.605 29.3672 635.188 29.9922 634.352C30.625 633.508 30.9414 632.301 30.9414 630.73C30.9414 629.145 30.6172 627.973 29.9688 627.215C29.3203 626.449 28.5195 626.066 27.5664 626.066C26.5039 626.066 25.6406 626.473 24.9766 627.285C24.3203 628.098 23.9922 629.293 23.9922 630.871ZM27.168 624.227C28.1289 624.227 28.9336 624.43 29.582 624.836C29.957 625.07 30.3828 625.48 30.8594 626.066V619.727H32.8867V637H30.9883V635.254C30.4961 636.027 29.9141 636.586 29.2422 636.93C28.5703 637.273 27.8008 637.445 26.9336 637.445C25.5352 637.445 24.3242 636.859 23.3008 635.688C22.2773 634.508 21.7656 632.941 21.7656 630.988C21.7656 629.16 22.2305 627.578 23.1602 626.242C24.0977 624.898 25.4336 624.227 27.168 624.227ZM37.3516 630.871C37.3516 632.215 37.6367 633.34 38.207 634.246C38.7773 635.152 39.6914 635.605 40.9492 635.605C41.9258 635.605 42.7266 635.188 43.3516 634.352C43.9844 633.508 44.3008 632.301 44.3008 630.73C44.3008 629.145 43.9766 627.973 43.3281 627.215C42.6797 626.449 41.8789 626.066 40.9258 626.066C39.8633 626.066 39 626.473 38.3359 627.285C37.6797 628.098 37.3516 629.293 37.3516 630.871ZM40.5273 624.227C41.4883 624.227 42.293 624.43 42.9414 624.836C43.3164 625.07 43.7422 625.48 44.2188 626.066V619.727H46.2461V637H44.3477V635.254C43.8555 636.027 43.2734 636.586 42.6016 636.93C41.9297 637.273 41.1602 637.445 40.293 637.445C38.8945 637.445 37.6836 636.859 36.6602 635.688C35.6367 634.508 35.125 632.941 35.125 630.988C35.125 629.16 35.5898 627.578 36.5195 626.242C37.457 624.898 38.793 624.227 40.5273 624.227ZM49.8203 624.789C50.25 624.719 50.5742 624.477 50.793 624.062C51.0195 623.648 51.1328 623.172 51.1328 622.633C51.1328 622.578 51.1289 622.531 51.1211 622.492C51.1211 622.445 51.1133 622.395 51.0977 622.34H49.8203V619.785H52.3281V622.141C52.3281 623.141 52.1211 623.992 51.707 624.695C51.293 625.391 50.6641 625.789 49.8203 625.891V624.789ZM56.5234 631.445C56.5781 632.422 56.8086 633.215 57.2148 633.824C57.9883 634.965 59.3516 635.535 61.3047 635.535C62.1797 635.535 62.9766 635.41 63.6953 635.16C65.0859 634.676 65.7812 633.809 65.7812 632.559C65.7812 631.621 65.4883 630.953 64.9023 630.555C64.3086 630.164 63.3789 629.824 62.1133 629.535L59.7812 629.008C58.2578 628.664 57.1797 628.285 56.5469 627.871C55.4531 627.152 54.9062 626.078 54.9062 624.648C54.9062 623.102 55.4414 621.832 56.5117 620.84C57.582 619.848 59.0977 619.352 61.0586 619.352C62.8633 619.352 64.3945 619.789 65.6523 620.664C66.918 621.531 67.5508 622.922 67.5508 624.836H65.3594C65.2422 623.914 64.9922 623.207 64.6094 622.715C63.8984 621.816 62.6914 621.367 60.9883 621.367C59.6133 621.367 58.625 621.656 58.0234 622.234C57.4219 622.812 57.1211 623.484 57.1211 624.25C57.1211 625.094 57.4727 625.711 58.1758 626.102C58.6367 626.352 59.6797 626.664 61.3047 627.039L63.7188 627.59C64.8828 627.855 65.7812 628.219 66.4141 628.68C67.5078 629.484 68.0547 630.652 68.0547 632.184C68.0547 634.09 67.3594 635.453 65.9688 636.273C64.5859 637.094 62.9766 637.504 61.1406 637.504C59 637.504 57.3242 636.957 56.1133 635.863C54.9023 634.777 54.3086 633.305 54.332 631.445H56.5234ZM72.8359 624.449V632.781C72.8359 633.422 72.9375 633.945 73.1406 634.352C73.5156 635.102 74.2148 635.477 75.2383 635.477C76.707 635.477 77.707 634.82 78.2383 633.508C78.5273 632.805 78.6719 631.84 78.6719 630.613V624.449H80.7812V637H78.7891L78.8125 635.148C78.5391 635.625 78.1992 636.027 77.793 636.355C76.9883 637.012 76.0117 637.34 74.8633 637.34C73.0742 637.34 71.8555 636.742 71.207 635.547C70.8555 634.906 70.6797 634.051 70.6797 632.98V624.449H72.8359ZM83.9219 619.727H85.9727V625.973C86.4336 625.371 86.9844 624.914 87.625 624.602C88.2656 624.281 88.9609 624.121 89.7109 624.121C91.2734 624.121 92.5391 624.66 93.5078 625.738C94.4844 626.809 94.9727 628.391 94.9727 630.484C94.9727 632.469 94.4922 634.117 93.5312 635.43C92.5703 636.742 91.2383 637.398 89.5352 637.398C88.582 637.398 87.7773 637.168 87.1211 636.707C86.7305 636.434 86.3125 635.996 85.8672 635.395V637H83.9219V619.727ZM89.4062 635.535C90.5469 635.535 91.3984 635.082 91.9609 634.176C92.5312 633.27 92.8164 632.074 92.8164 630.59C92.8164 629.27 92.5312 628.176 91.9609 627.309C91.3984 626.441 90.5664 626.008 89.4648 626.008C88.5039 626.008 87.6602 626.363 86.9336 627.074C86.2148 627.785 85.8555 628.957 85.8555 630.59C85.8555 631.77 86.0039 632.727 86.3008 633.461C86.8555 634.844 87.8906 635.535 89.4062 635.535Z" fill="black"/>
<path id="Shift Direction" d="M711.488 15.3711C711.534 16.1849 711.726 16.8457 712.064 17.3535C712.709 18.304 713.845 18.7793 715.473 18.7793C716.202 18.7793 716.866 18.6751 717.465 18.4668C718.624 18.0632 719.203 17.3405 719.203 16.2988C719.203 15.5176 718.959 14.9609 718.471 14.6289C717.976 14.3034 717.201 14.0202 716.146 13.7793L714.203 13.3398C712.934 13.0534 712.035 12.7376 711.508 12.3926C710.596 11.7936 710.141 10.8984 710.141 9.70703C710.141 8.41797 710.587 7.36003 711.479 6.5332C712.37 5.70638 713.633 5.29297 715.268 5.29297C716.771 5.29297 718.048 5.65755 719.096 6.38672C720.15 7.10938 720.678 8.26823 720.678 9.86328H718.852C718.754 9.09505 718.546 8.50586 718.227 8.0957C717.634 7.34701 716.628 6.97266 715.209 6.97266C714.063 6.97266 713.24 7.21354 712.738 7.69531C712.237 8.17708 711.986 8.73698 711.986 9.375C711.986 10.0781 712.279 10.5924 712.865 10.918C713.249 11.1263 714.118 11.3867 715.473 11.6992L717.484 12.1582C718.454 12.3796 719.203 12.6823 719.73 13.0664C720.642 13.737 721.098 14.7103 721.098 15.9863C721.098 17.5749 720.518 18.7109 719.359 19.3945C718.207 20.0781 716.866 20.4199 715.336 20.4199C713.552 20.4199 712.156 19.9642 711.146 19.0527C710.137 18.1478 709.643 16.9206 709.662 15.3711H711.488ZM723.324 5.60547H725.082V10.957C725.499 10.4297 725.873 10.0586 726.205 9.84375C726.771 9.47266 727.478 9.28711 728.324 9.28711C729.841 9.28711 730.87 9.81771 731.41 10.8789C731.703 11.4583 731.85 12.2624 731.85 13.291V20H730.043V13.4082C730.043 12.64 729.945 12.0768 729.75 11.7188C729.431 11.1458 728.832 10.8594 727.953 10.8594C727.224 10.8594 726.563 11.11 725.971 11.6113C725.378 12.1126 725.082 13.0599 725.082 14.4531V20H723.324V5.60547ZM734.457 9.58984H736.244V20H734.457V9.58984ZM734.457 5.6543H736.244V7.64648H734.457V5.6543ZM739.35 7.94922C739.376 7.22005 739.503 6.6862 739.73 6.34766C740.141 5.7487 740.932 5.44922 742.104 5.44922C742.214 5.44922 742.328 5.45247 742.445 5.45898C742.562 5.46549 742.696 5.47526 742.846 5.48828V7.08984C742.663 7.07682 742.53 7.07031 742.445 7.07031C742.367 7.0638 742.292 7.06055 742.221 7.06055C741.687 7.06055 741.368 7.20052 741.264 7.48047C741.16 7.75391 741.107 8.45703 741.107 9.58984H742.846V10.9766H741.088V20H739.35V10.9766H737.895V9.58984H739.35V7.94922ZM744.828 6.62109H746.605V9.54102H748.275V10.9766H746.605V17.8027C746.605 18.1673 746.729 18.4115 746.977 18.5352C747.113 18.6068 747.341 18.6426 747.66 18.6426C747.745 18.6426 747.836 18.6426 747.934 18.6426C748.031 18.6361 748.145 18.6263 748.275 18.6133V20C748.074 20.0586 747.862 20.1009 747.641 20.127C747.426 20.153 747.191 20.166 746.938 20.166C746.117 20.166 745.561 19.9577 745.268 19.541C744.975 19.1178 744.828 18.571 744.828 17.9004V10.9766H743.412V9.54102H744.828V6.62109ZM761.352 18.3398C762.009 18.3398 762.549 18.2715 762.973 18.1348C763.728 17.8809 764.346 17.3926 764.828 16.6699C765.212 16.0905 765.489 15.3483 765.658 14.4434C765.756 13.903 765.805 13.4017 765.805 12.9395C765.805 11.1621 765.45 9.7819 764.74 8.79883C764.037 7.81576 762.901 7.32422 761.332 7.32422H757.885V18.3398H761.352ZM755.932 5.6543H761.742C763.715 5.6543 765.245 6.35417 766.332 7.75391C767.302 9.01693 767.787 10.6348 767.787 12.6074C767.787 14.1309 767.501 15.5078 766.928 16.7383C765.919 18.9128 764.184 20 761.723 20H755.932V5.6543ZM770.062 9.58984H771.85V20H770.062V9.58984ZM770.062 5.6543H771.85V7.64648H770.062V5.6543ZM774.564 9.54102H776.234V11.3477C776.371 10.9961 776.706 10.5697 777.24 10.0684C777.774 9.56055 778.389 9.30664 779.086 9.30664C779.118 9.30664 779.174 9.3099 779.252 9.31641C779.33 9.32292 779.464 9.33594 779.652 9.35547V11.2109C779.548 11.1914 779.451 11.1784 779.359 11.1719C779.275 11.1654 779.18 11.1621 779.076 11.1621C778.191 11.1621 777.51 11.4486 777.035 12.0215C776.56 12.5879 776.322 13.2422 776.322 13.9844V20H774.564V9.54102ZM785.531 9.30664C786.273 9.30664 786.993 9.48242 787.689 9.83398C788.386 10.179 788.917 10.6283 789.281 11.1816C789.633 11.709 789.867 12.3242 789.984 13.0273C790.089 13.5091 790.141 14.2773 790.141 15.332H782.475C782.507 16.3932 782.758 17.2461 783.227 17.8906C783.695 18.5286 784.421 18.8477 785.404 18.8477C786.322 18.8477 787.055 18.5449 787.602 17.9395C787.914 17.5879 788.135 17.181 788.266 16.7188H789.994C789.949 17.1029 789.796 17.5326 789.535 18.0078C789.281 18.4766 788.995 18.8607 788.676 19.1602C788.142 19.681 787.481 20.0326 786.693 20.2148C786.27 20.319 785.792 20.3711 785.258 20.3711C783.956 20.3711 782.852 19.8991 781.947 18.9551C781.042 18.0046 780.59 16.6764 780.59 14.9707C780.59 13.291 781.046 11.9271 781.957 10.8789C782.868 9.83073 784.06 9.30664 785.531 9.30664ZM788.334 13.9355C788.262 13.1738 788.096 12.5651 787.836 12.1094C787.354 11.263 786.55 10.8398 785.424 10.8398C784.617 10.8398 783.939 11.1328 783.393 11.7188C782.846 12.2982 782.556 13.0371 782.523 13.9355H788.334ZM796.342 9.23828C797.52 9.23828 798.477 9.52474 799.213 10.0977C799.955 10.6706 800.401 11.6569 800.551 13.0566H798.842C798.738 12.4121 798.5 11.8783 798.129 11.4551C797.758 11.0254 797.162 10.8105 796.342 10.8105C795.222 10.8105 794.421 11.3574 793.939 12.4512C793.627 13.1608 793.471 14.0365 793.471 15.0781C793.471 16.1263 793.692 17.0085 794.135 17.7246C794.577 18.4408 795.274 18.7988 796.225 18.7988C796.954 18.7988 797.53 18.5775 797.953 18.1348C798.383 17.6855 798.679 17.0736 798.842 16.2988H800.551C800.355 17.6855 799.867 18.7012 799.086 19.3457C798.305 19.9837 797.305 20.3027 796.088 20.3027C794.721 20.3027 793.63 19.8047 792.816 18.8086C792.003 17.806 791.596 16.556 791.596 15.0586C791.596 13.2227 792.042 11.7936 792.934 10.7715C793.826 9.74935 794.962 9.23828 796.342 9.23828ZM802.66 6.62109H804.438V9.54102H806.107V10.9766H804.438V17.8027C804.438 18.1673 804.561 18.4115 804.809 18.5352C804.945 18.6068 805.173 18.6426 805.492 18.6426C805.577 18.6426 805.668 18.6426 805.766 18.6426C805.863 18.6361 805.977 18.6263 806.107 18.6133V20C805.906 20.0586 805.694 20.1009 805.473 20.127C805.258 20.153 805.023 20.166 804.77 20.166C803.949 20.166 803.393 19.9577 803.1 19.541C802.807 19.1178 802.66 18.571 802.66 17.9004V10.9766H801.244V9.54102H802.66V6.62109ZM807.875 9.58984H809.662V20H807.875V9.58984ZM807.875 5.6543H809.662V7.64648H807.875V5.6543ZM816.479 18.8672C817.644 18.8672 818.441 18.4277 818.871 17.5488C819.307 16.6634 819.525 15.6803 819.525 14.5996C819.525 13.623 819.369 12.8288 819.057 12.2168C818.562 11.2533 817.709 10.7715 816.498 10.7715C815.424 10.7715 814.643 11.1816 814.154 12.002C813.666 12.8223 813.422 13.8118 813.422 14.9707C813.422 16.084 813.666 17.0117 814.154 17.7539C814.643 18.4961 815.417 18.8672 816.479 18.8672ZM816.547 9.23828C817.895 9.23828 819.034 9.6875 819.965 10.5859C820.896 11.4844 821.361 12.806 821.361 14.5508C821.361 16.237 820.951 17.6302 820.131 18.7305C819.311 19.8307 818.038 20.3809 816.312 20.3809C814.874 20.3809 813.731 19.8958 812.885 18.9258C812.038 17.9492 811.615 16.6406 811.615 15C811.615 13.2422 812.061 11.8424 812.953 10.8008C813.845 9.75911 815.043 9.23828 816.547 9.23828ZM823.461 9.54102H825.131V11.0254C825.626 10.4134 826.15 9.97396 826.703 9.70703C827.257 9.4401 827.872 9.30664 828.549 9.30664C830.033 9.30664 831.036 9.82422 831.557 10.8594C831.843 11.4258 831.986 12.2363 831.986 13.291V20H830.199V13.4082C830.199 12.7702 830.105 12.2559 829.916 11.8652C829.604 11.2142 829.037 10.8887 828.217 10.8887C827.8 10.8887 827.458 10.931 827.191 11.0156C826.71 11.1589 826.286 11.4453 825.922 11.875C825.629 12.2201 825.437 12.5781 825.346 12.9492C825.261 13.3138 825.219 13.8379 825.219 14.5215V20H823.461V9.54102Z" fill="black"/>
<path id="Logic Function" d="M707.926 1021.65H709.869V1034.29H717.135V1036H707.926V1021.65ZM722.975 1034.87C724.14 1034.87 724.938 1034.43 725.367 1033.55C725.803 1032.66 726.021 1031.68 726.021 1030.6C726.021 1029.62 725.865 1028.83 725.553 1028.22C725.058 1027.25 724.205 1026.77 722.994 1026.77C721.92 1026.77 721.139 1027.18 720.65 1028C720.162 1028.82 719.918 1029.81 719.918 1030.97C719.918 1032.08 720.162 1033.01 720.65 1033.75C721.139 1034.5 721.913 1034.87 722.975 1034.87ZM723.043 1025.24C724.391 1025.24 725.53 1025.69 726.461 1026.59C727.392 1027.48 727.857 1028.81 727.857 1030.55C727.857 1032.24 727.447 1033.63 726.627 1034.73C725.807 1035.83 724.534 1036.38 722.809 1036.38C721.37 1036.38 720.227 1035.9 719.381 1034.93C718.535 1033.95 718.111 1032.64 718.111 1031C718.111 1029.24 718.557 1027.84 719.449 1026.8C720.341 1025.76 721.539 1025.24 723.043 1025.24ZM733.648 1025.36C734.469 1025.36 735.185 1025.56 735.797 1025.96C736.129 1026.19 736.467 1026.52 736.812 1026.96V1025.64H738.434V1035.15C738.434 1036.48 738.238 1037.53 737.848 1038.29C737.118 1039.71 735.742 1040.42 733.717 1040.42C732.59 1040.42 731.643 1040.17 730.875 1039.66C730.107 1039.16 729.677 1038.37 729.586 1037.3H731.373C731.458 1037.77 731.627 1038.13 731.881 1038.38C732.278 1038.77 732.903 1038.97 733.756 1038.97C735.104 1038.97 735.986 1038.49 736.402 1037.54C736.65 1036.98 736.764 1035.98 736.744 1034.54C736.393 1035.08 735.969 1035.48 735.475 1035.74C734.98 1036 734.326 1036.13 733.512 1036.13C732.379 1036.13 731.386 1035.73 730.533 1034.93C729.687 1034.12 729.264 1032.79 729.264 1030.93C729.264 1029.18 729.69 1027.81 730.543 1026.83C731.402 1025.85 732.438 1025.36 733.648 1025.36ZM736.812 1030.73C736.812 1029.43 736.546 1028.47 736.012 1027.85C735.478 1027.22 734.798 1026.91 733.971 1026.91C732.734 1026.91 731.887 1027.49 731.432 1028.65C731.191 1029.26 731.07 1030.08 731.07 1031.08C731.07 1032.26 731.308 1033.15 731.783 1033.77C732.265 1034.39 732.91 1034.69 733.717 1034.69C734.98 1034.69 735.868 1034.12 736.383 1032.98C736.669 1032.34 736.812 1031.59 736.812 1030.73ZM741.09 1025.59H742.877V1036H741.09V1025.59ZM741.09 1021.65H742.877V1023.65H741.09V1021.65ZM749.576 1025.24C750.755 1025.24 751.712 1025.52 752.447 1026.1C753.189 1026.67 753.635 1027.66 753.785 1029.06H752.076C751.972 1028.41 751.734 1027.88 751.363 1027.46C750.992 1027.03 750.396 1026.81 749.576 1026.81C748.456 1026.81 747.656 1027.36 747.174 1028.45C746.861 1029.16 746.705 1030.04 746.705 1031.08C746.705 1032.13 746.926 1033.01 747.369 1033.72C747.812 1034.44 748.508 1034.8 749.459 1034.8C750.188 1034.8 750.764 1034.58 751.188 1034.13C751.617 1033.69 751.913 1033.07 752.076 1032.3H753.785C753.59 1033.69 753.102 1034.7 752.32 1035.35C751.539 1035.98 750.54 1036.3 749.322 1036.3C747.955 1036.3 746.865 1035.8 746.051 1034.81C745.237 1033.81 744.83 1032.56 744.83 1031.06C744.83 1029.22 745.276 1027.79 746.168 1026.77C747.06 1025.75 748.196 1025.24 749.576 1025.24ZM761.529 1021.65H771.48V1023.41H763.473V1027.77H770.514V1029.48H763.473V1036H761.529V1021.65ZM775.094 1025.54V1032.48C775.094 1033.02 775.178 1033.45 775.348 1033.79C775.66 1034.42 776.243 1034.73 777.096 1034.73C778.32 1034.73 779.153 1034.18 779.596 1033.09C779.837 1032.5 779.957 1031.7 779.957 1030.68V1025.54H781.715V1036H780.055L780.074 1034.46C779.846 1034.85 779.563 1035.19 779.225 1035.46C778.554 1036.01 777.74 1036.28 776.783 1036.28C775.292 1036.28 774.277 1035.79 773.736 1034.79C773.443 1034.26 773.297 1033.54 773.297 1032.65V1025.54H775.094ZM784.469 1025.54H786.139V1027.03C786.633 1026.41 787.158 1025.97 787.711 1025.71C788.264 1025.44 788.88 1025.31 789.557 1025.31C791.041 1025.31 792.044 1025.82 792.564 1026.86C792.851 1027.43 792.994 1028.24 792.994 1029.29V1036H791.207V1029.41C791.207 1028.77 791.113 1028.26 790.924 1027.87C790.611 1027.21 790.045 1026.89 789.225 1026.89C788.808 1026.89 788.466 1026.93 788.199 1027.02C787.717 1027.16 787.294 1027.45 786.93 1027.88C786.637 1028.22 786.445 1028.58 786.354 1028.95C786.269 1029.31 786.227 1029.84 786.227 1030.52V1036H784.469V1025.54ZM799.635 1025.24C800.813 1025.24 801.77 1025.52 802.506 1026.1C803.248 1026.67 803.694 1027.66 803.844 1029.06H802.135C802.031 1028.41 801.793 1027.88 801.422 1027.46C801.051 1027.03 800.455 1026.81 799.635 1026.81C798.515 1026.81 797.714 1027.36 797.232 1028.45C796.92 1029.16 796.764 1030.04 796.764 1031.08C796.764 1032.13 796.985 1033.01 797.428 1033.72C797.87 1034.44 798.567 1034.8 799.518 1034.8C800.247 1034.8 800.823 1034.58 801.246 1034.13C801.676 1033.69 801.972 1033.07 802.135 1032.3H803.844C803.648 1033.69 803.16 1034.7 802.379 1035.35C801.598 1035.98 800.598 1036.3 799.381 1036.3C798.014 1036.3 796.923 1035.8 796.109 1034.81C795.296 1033.81 794.889 1032.56 794.889 1031.06C794.889 1029.22 795.335 1027.79 796.227 1026.77C797.118 1025.75 798.255 1025.24 799.635 1025.24ZM805.953 1022.62H807.73V1025.54H809.4V1026.98H807.73V1033.8C807.73 1034.17 807.854 1034.41 808.102 1034.54C808.238 1034.61 808.466 1034.64 808.785 1034.64C808.87 1034.64 808.961 1034.64 809.059 1034.64C809.156 1034.64 809.27 1034.63 809.4 1034.61V1036C809.199 1036.06 808.987 1036.1 808.766 1036.13C808.551 1036.15 808.316 1036.17 808.062 1036.17C807.242 1036.17 806.686 1035.96 806.393 1035.54C806.1 1035.12 805.953 1034.57 805.953 1033.9V1026.98H804.537V1025.54H805.953V1022.62ZM811.168 1025.59H812.955V1036H811.168V1025.59ZM811.168 1021.65H812.955V1023.65H811.168V1021.65ZM819.771 1034.87C820.937 1034.87 821.734 1034.43 822.164 1033.55C822.6 1032.66 822.818 1031.68 822.818 1030.6C822.818 1029.62 822.662 1028.83 822.35 1028.22C821.855 1027.25 821.002 1026.77 819.791 1026.77C818.717 1026.77 817.936 1027.18 817.447 1028C816.959 1028.82 816.715 1029.81 816.715 1030.97C816.715 1032.08 816.959 1033.01 817.447 1033.75C817.936 1034.5 818.71 1034.87 819.771 1034.87ZM819.84 1025.24C821.188 1025.24 822.327 1025.69 823.258 1026.59C824.189 1027.48 824.654 1028.81 824.654 1030.55C824.654 1032.24 824.244 1033.63 823.424 1034.73C822.604 1035.83 821.331 1036.38 819.605 1036.38C818.167 1036.38 817.024 1035.9 816.178 1034.93C815.331 1033.95 814.908 1032.64 814.908 1031C814.908 1029.24 815.354 1027.84 816.246 1026.8C817.138 1025.76 818.336 1025.24 819.84 1025.24ZM826.754 1025.54H828.424V1027.03C828.919 1026.41 829.443 1025.97 829.996 1025.71C830.549 1025.44 831.165 1025.31 831.842 1025.31C833.326 1025.31 834.329 1025.82 834.85 1026.86C835.136 1027.43 835.279 1028.24 835.279 1029.29V1036H833.492V1029.41C833.492 1028.77 833.398 1028.26 833.209 1027.87C832.896 1027.21 832.33 1026.89 831.51 1026.89C831.093 1026.89 830.751 1026.93 830.484 1027.02C830.003 1027.16 829.579 1027.45 829.215 1027.88C828.922 1028.22 828.73 1028.58 828.639 1028.95C828.554 1029.31 828.512 1029.84 828.512 1030.52V1036H826.754V1025.54Z" fill="black"/>
<path id="2_2" d="M788.059 976C788.124 974.796 788.371 973.747 788.801 972.855C789.237 971.964 790.083 971.153 791.34 970.424L793.215 969.34C794.055 968.852 794.644 968.435 794.982 968.09C795.516 967.549 795.783 966.931 795.783 966.234C795.783 965.421 795.539 964.776 795.051 964.301C794.562 963.819 793.911 963.578 793.098 963.578C791.893 963.578 791.06 964.034 790.598 964.945C790.35 965.434 790.214 966.111 790.188 966.977H788.4C788.42 965.759 788.645 964.766 789.074 963.998C789.836 962.644 791.18 961.967 793.107 961.967C794.709 961.967 795.878 962.4 796.613 963.266C797.355 964.132 797.727 965.095 797.727 966.156C797.727 967.276 797.333 968.233 796.545 969.027C796.089 969.49 795.272 970.049 794.094 970.707L792.756 971.449C792.118 971.801 791.617 972.136 791.252 972.455C790.601 973.021 790.191 973.65 790.021 974.34H797.658V976H788.059Z" fill="black"/>
<path id="MSB" d="M1091.8 415.654H1094.59L1098.71 427.783L1102.8 415.654H1105.55V430H1103.71V421.533C1103.71 421.24 1103.72 420.755 1103.73 420.078C1103.74 419.401 1103.75 418.675 1103.75 417.9L1099.66 430H1097.73L1093.61 417.9V418.34C1093.61 418.691 1093.62 419.229 1093.63 419.951C1093.65 420.667 1093.66 421.195 1093.66 421.533V430H1091.8V415.654ZM1109.78 425.371C1109.83 426.185 1110.02 426.846 1110.36 427.354C1111 428.304 1112.14 428.779 1113.77 428.779C1114.5 428.779 1115.16 428.675 1115.76 428.467C1116.92 428.063 1117.5 427.34 1117.5 426.299C1117.5 425.518 1117.25 424.961 1116.77 424.629C1116.27 424.303 1115.5 424.02 1114.44 423.779L1112.5 423.34C1111.23 423.053 1110.33 422.738 1109.8 422.393C1108.89 421.794 1108.44 420.898 1108.44 419.707C1108.44 418.418 1108.88 417.36 1109.77 416.533C1110.67 415.706 1111.93 415.293 1113.56 415.293C1115.07 415.293 1116.34 415.658 1117.39 416.387C1118.45 417.109 1118.97 418.268 1118.97 419.863H1117.15C1117.05 419.095 1116.84 418.506 1116.52 418.096C1115.93 417.347 1114.92 416.973 1113.5 416.973C1112.36 416.973 1111.53 417.214 1111.03 417.695C1110.53 418.177 1110.28 418.737 1110.28 419.375C1110.28 420.078 1110.57 420.592 1111.16 420.918C1111.54 421.126 1112.41 421.387 1113.77 421.699L1115.78 422.158C1116.75 422.38 1117.5 422.682 1118.03 423.066C1118.94 423.737 1119.39 424.71 1119.39 425.986C1119.39 427.575 1118.81 428.711 1117.65 429.395C1116.5 430.078 1115.16 430.42 1113.63 430.42C1111.85 430.42 1110.45 429.964 1109.44 429.053C1108.43 428.148 1107.94 426.921 1107.96 425.371H1109.78ZM1127.24 421.719C1128.06 421.719 1128.7 421.605 1129.16 421.377C1129.87 421.019 1130.23 420.374 1130.23 419.443C1130.23 418.506 1129.85 417.874 1129.09 417.549C1128.66 417.367 1128.02 417.275 1127.18 417.275H1123.71V421.719H1127.24ZM1127.9 428.34C1129.09 428.34 1129.94 427.995 1130.45 427.305C1130.77 426.868 1130.93 426.341 1130.93 425.723C1130.93 424.681 1130.46 423.971 1129.53 423.594C1129.03 423.392 1128.38 423.291 1127.57 423.291H1123.71V428.34H1127.9ZM1121.8 415.654H1127.97C1129.65 415.654 1130.84 416.156 1131.55 417.158C1131.97 417.751 1132.18 418.434 1132.18 419.209C1132.18 420.114 1131.92 420.856 1131.4 421.436C1131.14 421.742 1130.75 422.021 1130.25 422.275C1130.99 422.555 1131.54 422.871 1131.9 423.223C1132.55 423.848 1132.87 424.71 1132.87 425.811C1132.87 426.735 1132.58 427.572 1132 428.32C1131.13 429.44 1129.76 430 1127.87 430H1121.8V415.654Z" fill="black"/>
<path id="LSB" d="M378.617 484.654H380.561V497.291H387.826V499H378.617V484.654ZM391.02 494.371C391.065 495.185 391.257 495.846 391.596 496.354C392.24 497.304 393.376 497.779 395.004 497.779C395.733 497.779 396.397 497.675 396.996 497.467C398.155 497.063 398.734 496.34 398.734 495.299C398.734 494.518 398.49 493.961 398.002 493.629C397.507 493.303 396.732 493.02 395.678 492.779L393.734 492.34C392.465 492.053 391.566 491.738 391.039 491.393C390.128 490.794 389.672 489.898 389.672 488.707C389.672 487.418 390.118 486.36 391.01 485.533C391.902 484.706 393.165 484.293 394.799 484.293C396.303 484.293 397.579 484.658 398.627 485.387C399.682 486.109 400.209 487.268 400.209 488.863H398.383C398.285 488.095 398.077 487.506 397.758 487.096C397.165 486.347 396.16 485.973 394.74 485.973C393.594 485.973 392.771 486.214 392.27 486.695C391.768 487.177 391.518 487.737 391.518 488.375C391.518 489.078 391.811 489.592 392.396 489.918C392.781 490.126 393.65 490.387 395.004 490.699L397.016 491.158C397.986 491.38 398.734 491.682 399.262 492.066C400.173 492.737 400.629 493.71 400.629 494.986C400.629 496.575 400.049 497.711 398.891 498.395C397.738 499.078 396.397 499.42 394.867 499.42C393.083 499.42 391.687 498.964 390.678 498.053C389.669 497.148 389.174 495.921 389.193 494.371H391.02ZM408.48 490.719C409.301 490.719 409.939 490.605 410.395 490.377C411.111 490.019 411.469 489.374 411.469 488.443C411.469 487.506 411.088 486.874 410.326 486.549C409.896 486.367 409.258 486.275 408.412 486.275H404.945V490.719H408.48ZM409.135 497.34C410.326 497.34 411.176 496.995 411.684 496.305C412.003 495.868 412.162 495.341 412.162 494.723C412.162 493.681 411.697 492.971 410.766 492.594C410.271 492.392 409.617 492.291 408.803 492.291H404.945V497.34H409.135ZM403.041 484.654H409.203C410.883 484.654 412.077 485.156 412.787 486.158C413.204 486.751 413.412 487.434 413.412 488.209C413.412 489.114 413.155 489.856 412.641 490.436C412.374 490.742 411.99 491.021 411.488 491.275C412.224 491.555 412.774 491.871 413.139 492.223C413.783 492.848 414.105 493.71 414.105 494.811C414.105 495.735 413.816 496.572 413.236 497.32C412.37 498.44 410.993 499 409.105 499H403.041V484.654Z" fill="black"/>
<path id="Function Class" d="M1244.32 121.654H1254.27V123.412H1246.26V127.768H1253.3V129.477H1246.26V136H1244.32V121.654ZM1257.88 125.541V132.484C1257.88 133.018 1257.97 133.454 1258.14 133.793C1258.45 134.418 1259.03 134.73 1259.89 134.73C1261.11 134.73 1261.94 134.184 1262.39 133.09C1262.63 132.504 1262.75 131.7 1262.75 130.678V125.541H1264.51V136H1262.85L1262.87 134.457C1262.64 134.854 1262.35 135.189 1262.02 135.463C1261.35 136.01 1260.53 136.283 1259.57 136.283C1258.08 136.283 1257.07 135.785 1256.53 134.789C1256.23 134.255 1256.09 133.542 1256.09 132.65V125.541H1257.88ZM1267.26 125.541H1268.93V127.025C1269.42 126.413 1269.95 125.974 1270.5 125.707C1271.06 125.44 1271.67 125.307 1272.35 125.307C1273.83 125.307 1274.83 125.824 1275.36 126.859C1275.64 127.426 1275.79 128.236 1275.79 129.291V136H1274V129.408C1274 128.77 1273.9 128.256 1273.71 127.865C1273.4 127.214 1272.84 126.889 1272.02 126.889C1271.6 126.889 1271.26 126.931 1270.99 127.016C1270.51 127.159 1270.09 127.445 1269.72 127.875C1269.43 128.22 1269.24 128.578 1269.14 128.949C1269.06 129.314 1269.02 129.838 1269.02 130.521V136H1267.26V125.541ZM1282.43 125.238C1283.6 125.238 1284.56 125.525 1285.3 126.098C1286.04 126.671 1286.49 127.657 1286.63 129.057H1284.93C1284.82 128.412 1284.58 127.878 1284.21 127.455C1283.84 127.025 1283.25 126.811 1282.43 126.811C1281.31 126.811 1280.51 127.357 1280.02 128.451C1279.71 129.161 1279.55 130.036 1279.55 131.078C1279.55 132.126 1279.78 133.008 1280.22 133.725C1280.66 134.441 1281.36 134.799 1282.31 134.799C1283.04 134.799 1283.61 134.577 1284.04 134.135C1284.47 133.686 1284.76 133.074 1284.93 132.299H1286.63C1286.44 133.686 1285.95 134.701 1285.17 135.346C1284.39 135.984 1283.39 136.303 1282.17 136.303C1280.8 136.303 1279.71 135.805 1278.9 134.809C1278.09 133.806 1277.68 132.556 1277.68 131.059C1277.68 129.223 1278.13 127.794 1279.02 126.771C1279.91 125.749 1281.05 125.238 1282.43 125.238ZM1288.74 122.621H1290.52V125.541H1292.19V126.977H1290.52V133.803C1290.52 134.167 1290.65 134.411 1290.89 134.535C1291.03 134.607 1291.26 134.643 1291.58 134.643C1291.66 134.643 1291.75 134.643 1291.85 134.643C1291.95 134.636 1292.06 134.626 1292.19 134.613V136C1291.99 136.059 1291.78 136.101 1291.56 136.127C1291.34 136.153 1291.11 136.166 1290.85 136.166C1290.03 136.166 1289.48 135.958 1289.18 135.541C1288.89 135.118 1288.74 134.571 1288.74 133.9V126.977H1287.33V125.541H1288.74V122.621ZM1293.96 125.59H1295.75V136H1293.96V125.59ZM1293.96 121.654H1295.75V123.646H1293.96V121.654ZM1302.56 134.867C1303.73 134.867 1304.53 134.428 1304.96 133.549C1305.39 132.663 1305.61 131.68 1305.61 130.6C1305.61 129.623 1305.45 128.829 1305.14 128.217C1304.65 127.253 1303.79 126.771 1302.58 126.771C1301.51 126.771 1300.73 127.182 1300.24 128.002C1299.75 128.822 1299.51 129.812 1299.51 130.971C1299.51 132.084 1299.75 133.012 1300.24 133.754C1300.73 134.496 1301.5 134.867 1302.56 134.867ZM1302.63 125.238C1303.98 125.238 1305.12 125.688 1306.05 126.586C1306.98 127.484 1307.45 128.806 1307.45 130.551C1307.45 132.237 1307.04 133.63 1306.21 134.73C1305.39 135.831 1304.12 136.381 1302.4 136.381C1300.96 136.381 1299.82 135.896 1298.97 134.926C1298.12 133.949 1297.7 132.641 1297.7 131C1297.7 129.242 1298.15 127.842 1299.04 126.801C1299.93 125.759 1301.13 125.238 1302.63 125.238ZM1309.54 125.541H1311.21V127.025C1311.71 126.413 1312.23 125.974 1312.79 125.707C1313.34 125.44 1313.96 125.307 1314.63 125.307C1316.12 125.307 1317.12 125.824 1317.64 126.859C1317.93 127.426 1318.07 128.236 1318.07 129.291V136H1316.28V129.408C1316.28 128.77 1316.19 128.256 1316 127.865C1315.69 127.214 1315.12 126.889 1314.3 126.889C1313.88 126.889 1313.54 126.931 1313.28 127.016C1312.79 127.159 1312.37 127.445 1312.01 127.875C1311.71 128.22 1311.52 128.578 1311.43 128.949C1311.35 129.314 1311.3 129.838 1311.3 130.521V136H1309.54V125.541ZM1263.55 144.264C1265.37 144.264 1266.77 144.742 1267.78 145.699C1268.78 146.656 1269.34 147.743 1269.45 148.961H1267.55C1267.34 148.036 1266.91 147.304 1266.26 146.764C1265.63 146.223 1264.73 145.953 1263.57 145.953C1262.16 145.953 1261.01 146.451 1260.14 147.447C1259.27 148.437 1258.84 149.957 1258.84 152.008C1258.84 153.688 1259.23 155.051 1260.01 156.1C1260.8 157.141 1261.97 157.662 1263.53 157.662C1264.96 157.662 1266.05 157.112 1266.8 156.012C1267.2 155.432 1267.49 154.671 1267.69 153.727H1269.58C1269.41 155.237 1268.85 156.503 1267.9 157.525C1266.76 158.756 1265.23 159.371 1263.29 159.371C1261.63 159.371 1260.23 158.867 1259.1 157.857C1257.6 156.523 1256.86 154.462 1256.86 151.676C1256.86 149.56 1257.42 147.825 1258.54 146.471C1259.75 144.999 1261.42 144.264 1263.55 144.264ZM1271.77 144.654H1273.53V159H1271.77V144.654ZM1277.52 156.217C1277.52 156.725 1277.71 157.125 1278.08 157.418C1278.45 157.711 1278.89 157.857 1279.4 157.857C1280.02 157.857 1280.62 157.714 1281.2 157.428C1282.17 156.952 1282.66 156.174 1282.66 155.094V153.678C1282.45 153.814 1282.17 153.928 1281.83 154.02C1281.49 154.111 1281.16 154.176 1280.83 154.215L1279.77 154.352C1279.13 154.436 1278.65 154.57 1278.33 154.752C1277.79 155.058 1277.52 155.546 1277.52 156.217ZM1281.78 152.662C1282.18 152.61 1282.46 152.441 1282.59 152.154C1282.67 151.998 1282.71 151.773 1282.71 151.48C1282.71 150.882 1282.49 150.449 1282.06 150.182C1281.64 149.908 1281.03 149.771 1280.24 149.771C1279.32 149.771 1278.67 150.019 1278.29 150.514C1278.07 150.787 1277.93 151.194 1277.87 151.734H1276.22C1276.26 150.445 1276.67 149.55 1277.47 149.049C1278.28 148.541 1279.22 148.287 1280.28 148.287C1281.51 148.287 1282.51 148.521 1283.28 148.99C1284.04 149.459 1284.42 150.188 1284.42 151.178V157.203C1284.42 157.385 1284.45 157.532 1284.53 157.643C1284.6 157.753 1284.76 157.809 1285 157.809C1285.08 157.809 1285.17 157.805 1285.27 157.799C1285.37 157.786 1285.47 157.77 1285.58 157.75V159.049C1285.31 159.127 1285.1 159.176 1284.96 159.195C1284.81 159.215 1284.62 159.225 1284.37 159.225C1283.76 159.225 1283.32 159.01 1283.05 158.58C1282.91 158.352 1282.81 158.03 1282.75 157.613C1282.39 158.082 1281.88 158.489 1281.21 158.834C1280.53 159.179 1279.8 159.352 1278.99 159.352C1278.02 159.352 1277.22 159.059 1276.61 158.473C1275.99 157.88 1275.69 157.141 1275.69 156.256C1275.69 155.286 1275.99 154.534 1276.6 154C1277.2 153.466 1278 153.137 1278.98 153.014L1281.78 152.662ZM1288.35 155.719C1288.41 156.305 1288.55 156.754 1288.79 157.066C1289.24 157.633 1290 157.916 1291.1 157.916C1291.75 157.916 1292.32 157.776 1292.82 157.496C1293.31 157.21 1293.56 156.77 1293.56 156.178C1293.56 155.729 1293.36 155.387 1292.96 155.152C1292.71 155.009 1292.21 154.843 1291.46 154.654L1290.06 154.303C1289.17 154.081 1288.51 153.834 1288.09 153.561C1287.33 153.085 1286.96 152.428 1286.96 151.588C1286.96 150.598 1287.31 149.798 1288.02 149.186C1288.74 148.574 1289.7 148.268 1290.9 148.268C1292.48 148.268 1293.61 148.73 1294.31 149.654C1294.75 150.24 1294.96 150.872 1294.95 151.549H1293.29C1293.25 151.152 1293.11 150.79 1292.87 150.465C1292.46 150.003 1291.76 149.771 1290.77 149.771C1290.1 149.771 1289.6 149.898 1289.25 150.152C1288.91 150.406 1288.74 150.742 1288.74 151.158C1288.74 151.614 1288.97 151.979 1289.42 152.252C1289.68 152.415 1290.06 152.558 1290.57 152.682L1291.73 152.965C1293 153.271 1293.84 153.567 1294.27 153.854C1294.96 154.303 1295.3 155.009 1295.3 155.973C1295.3 156.904 1294.94 157.708 1294.23 158.385C1293.53 159.062 1292.46 159.4 1291.01 159.4C1289.45 159.4 1288.35 159.049 1287.7 158.346C1287.05 157.636 1286.71 156.76 1286.66 155.719H1288.35ZM1298.35 155.719C1298.41 156.305 1298.55 156.754 1298.79 157.066C1299.24 157.633 1300 157.916 1301.1 157.916C1301.75 157.916 1302.32 157.776 1302.82 157.496C1303.31 157.21 1303.56 156.77 1303.56 156.178C1303.56 155.729 1303.36 155.387 1302.96 155.152C1302.71 155.009 1302.21 154.843 1301.46 154.654L1300.06 154.303C1299.17 154.081 1298.51 153.834 1298.09 153.561C1297.33 153.085 1296.96 152.428 1296.96 151.588C1296.96 150.598 1297.31 149.798 1298.02 149.186C1298.74 148.574 1299.7 148.268 1300.9 148.268C1302.48 148.268 1303.61 148.73 1304.31 149.654C1304.75 150.24 1304.96 150.872 1304.95 151.549H1303.29C1303.25 151.152 1303.11 150.79 1302.87 150.465C1302.46 150.003 1301.76 149.771 1300.77 149.771C1300.1 149.771 1299.6 149.898 1299.25 150.152C1298.91 150.406 1298.74 150.742 1298.74 151.158C1298.74 151.614 1298.97 151.979 1299.42 152.252C1299.68 152.415 1300.06 152.558 1300.57 152.682L1301.73 152.965C1303 153.271 1303.84 153.567 1304.27 153.854C1304.96 154.303 1305.3 155.009 1305.3 155.973C1305.3 156.904 1304.94 157.708 1304.23 158.385C1303.53 159.062 1302.46 159.4 1301.01 159.4C1299.45 159.4 1298.35 159.049 1297.7 158.346C1297.05 157.636 1296.71 156.76 1296.66 155.719H1298.35Z" fill="black"/>
<path id="S" d="M1544.52 467.668C1544.6 469.133 1544.95 470.322 1545.56 471.236C1546.72 472.947 1548.76 473.803 1551.69 473.803C1553.01 473.803 1554.2 473.615 1555.28 473.24C1557.37 472.514 1558.41 471.213 1558.41 469.338C1558.41 467.932 1557.97 466.93 1557.09 466.332C1556.2 465.746 1554.8 465.236 1552.91 464.803L1549.41 464.012C1547.12 463.496 1545.51 462.928 1544.56 462.307C1542.92 461.229 1542.1 459.617 1542.1 457.473C1542.1 455.152 1542.9 453.248 1544.5 451.76C1546.11 450.271 1548.38 449.527 1551.32 449.527C1554.03 449.527 1556.33 450.184 1558.21 451.496C1560.11 452.797 1561.06 454.883 1561.06 457.754H1557.78C1557.6 456.371 1557.22 455.311 1556.65 454.572C1555.58 453.225 1553.77 452.551 1551.22 452.551C1549.16 452.551 1547.67 452.984 1546.77 453.852C1545.87 454.719 1545.42 455.727 1545.42 456.875C1545.42 458.141 1545.95 459.066 1547 459.652C1547.69 460.027 1549.26 460.496 1551.69 461.059L1555.31 461.885C1557.06 462.283 1558.41 462.828 1559.36 463.52C1561 464.727 1561.82 466.479 1561.82 468.775C1561.82 471.635 1560.78 473.68 1558.69 474.91C1556.62 476.141 1554.2 476.756 1551.45 476.756C1548.24 476.756 1545.72 475.936 1543.91 474.295C1542.09 472.666 1541.2 470.457 1541.23 467.668H1544.52Z" fill="black"/>
<path id="WireX_ALU" d="M207.5 395.5C212.132 395.5 215.946 399 216.443 403.5H672.5V396.34L687.5 405L672.5 413.66V406.5H216.274C215.473 410.029 212.6 412.769 209 413.373V812.5H644V805.34L659 814L644 822.66V815.5H206V413.373C202.4 412.769 199.527 410.029 198.726 406.5H105V403.5H198.557C199.054 399 202.868 395.5 207.5 395.5Z" fill="black"/>
<path id="WireY_ALU" d="M659 232.5L644 241.16V234H279V574.702C282.904 575.499 285.988 578.58 286.441 582.5H428V575.34L443 584L428 592.66V585.5H286.264C285.445 588.937 282.565 591.569 279 592.297V884.5H644V877.34L659 886L644 894.66V887.5H276V592.448C271.983 592.046 268.63 589.253 267.736 585.5H104V582.5H267.559C268.05 578.251 271.633 574.988 276 574.551V231H644V223.84L659 232.5Z" fill="black"/>
<path id="WireC0_ALU" d="M780.5 314V379.5H787.66L779 394.5L770.34 379.5H777.5V317H344V632H341V314H780.5Z" fill="black"/>
<path id="WireAddSub_ALU" d="M442 631L427 639.66V632.5H349.833C349.138 635.923 346.112 638.5 342.483 638.5C338.855 638.5 335.829 635.923 335.134 632.5H105V629.5H335.134C335.829 626.077 338.855 623.5 342.483 623.5C346.112 623.5 349.138 626.077 349.833 629.5H427V622.34L442 631Z" fill="black"/>
<path id="WireShiftDirection_ALU" d="M772.5 102H779.66L771 117L762.34 102H769.5V34H772.5V102Z" fill="black"/>
<path id="WireLogicFunction_ALU" d="M779.66 939H772.5V1012H769.5V939H762.34L771 924L779.66 939Z" fill="black"/>
<path id="WireFunctionClass_ALU" d="M1282.5 316H1289.66L1281 331L1272.34 316H1279.5V173H1282.5V316Z" fill="black"/>
<path id="WireYXOR_ALU" d="M687.5 605.5L672.5 614.16V607H549V604H672.5V596.84L687.5 605.5Z" fill="black"/>
<path id="WireX+Y_ALU" d="M1233.5 501L1218.5 509.66V502.5H1152.93C1152.44 506.169 1149.3 509 1145.5 509C1141.7 509 1138.56 506.169 1138.07 502.5H886V499.5H1138.27C1139.15 496.329 1142.05 494 1145.5 494C1148.95 494 1151.85 496.329 1152.73 499.5H1218.5V492.34L1233.5 501Z" fill="black"/>
<path id="WireShiftedY_ALU" d="M1024 347.5H1218V340.34L1233 349L1218 357.66V350.5H1021V190H883V187H1024V347.5Z" fill="black"/>
<path id="WireLogic_ALU" d="M1233 576L1218 584.66V577.5H1024V852H883V849H1021V574.5H1218V567.34L1233 576Z" fill="black"/>
<path id="WireMSB_ALU" d="M1233 425L1218 433.66V426.5H1147V501H1144V423.5H1218V416.34L1233 425Z" fill="black"/>
<path id="WireC4_ALU" d="M780.5 669L789.16 654L771.84 654L780.5 669ZM780.5 655.5L782 655.5L782 605L780.5 605L779 605L779 655.5L780.5 655.5Z" fill="black"/>
<path id="WireS_ALU" d="M1532 462L1517 470.66V463.5H1327V460.5H1517V453.34L1532 462Z" fill="black"/>
<g id="XOR_ALU">
<g id="ORGate">
<path id="ORGate_2" d="M549 605.5C527.436 634.175 498.057 649.333 468.2 650H448C459.201 615.339 459.203 595.846 448 561H468.2C498.057 561.667 527.436 576.825 549 605.5Z" fill="white" stroke="black" stroke-width="3"/>
</g>
<path id="XOR" d="M438 561C448.465 595.757 448.604 615.243 438 650" stroke="black" stroke-width="3"/>
</g>
<g id="MUX4to1_ALU">
<path id="MUX" d="M1325.5 363.096V561.903L1234.5 624.156V300.843L1325.5 363.096Z" fill="white" stroke="black" stroke-width="3"/>
<path id="0" d="M1244.49 341.219C1246.66 341.219 1248.23 342.113 1249.2 343.902C1249.95 345.285 1250.33 347.18 1250.33 349.586C1250.33 351.867 1249.99 353.754 1249.31 355.246C1248.32 357.387 1246.71 358.457 1244.48 358.457C1242.46 358.457 1240.96 357.582 1239.98 355.832C1239.16 354.371 1238.75 352.41 1238.75 349.949C1238.75 348.043 1239 346.406 1239.49 345.039C1240.41 342.492 1242.08 341.219 1244.49 341.219ZM1244.47 356.535C1245.56 356.535 1246.43 356.051 1247.08 355.082C1247.73 354.113 1248.05 352.309 1248.05 349.668C1248.05 347.762 1247.82 346.195 1247.35 344.969C1246.88 343.734 1245.97 343.117 1244.62 343.117C1243.38 343.117 1242.47 343.703 1241.89 344.875C1241.32 346.039 1241.04 347.758 1241.04 350.031C1241.04 351.742 1241.22 353.117 1241.59 354.156C1242.15 355.742 1243.11 356.535 1244.47 356.535Z" fill="black"/>
<path id="1_3" d="M1240.3 419.117V417.5C1241.82 417.352 1242.88 417.105 1243.48 416.762C1244.09 416.41 1244.54 415.586 1244.83 414.289H1246.5V431H1244.25V419.117H1240.3Z" fill="black"/>
<path id="2_3" d="M1238.75 505C1238.83 503.555 1239.12 502.297 1239.64 501.227C1240.16 500.156 1241.18 499.184 1242.69 498.309L1244.94 497.008C1245.95 496.422 1246.65 495.922 1247.06 495.508C1247.7 494.859 1248.02 494.117 1248.02 493.281C1248.02 492.305 1247.73 491.531 1247.14 490.961C1246.55 490.383 1245.77 490.094 1244.8 490.094C1243.35 490.094 1242.35 490.641 1241.8 491.734C1241.5 492.32 1241.34 493.133 1241.3 494.172H1239.16C1239.18 492.711 1239.45 491.52 1239.97 490.598C1240.88 488.973 1242.5 488.16 1244.81 488.16C1246.73 488.16 1248.13 488.68 1249.02 489.719C1249.91 490.758 1250.35 491.914 1250.35 493.188C1250.35 494.531 1249.88 495.68 1248.93 496.633C1248.39 497.188 1247.41 497.859 1245.99 498.648L1244.39 499.539C1243.62 499.961 1243.02 500.363 1242.58 500.746C1241.8 501.426 1241.31 502.18 1241.11 503.008H1250.27V505H1238.75Z" fill="black"/>
<path id="3" d="M1244.23 578.457C1242.25 578.457 1240.81 577.914 1239.91 576.828C1239.02 575.734 1238.57 574.406 1238.57 572.844H1240.78C1240.87 573.93 1241.07 574.719 1241.39 575.211C1241.93 576.094 1242.92 576.535 1244.35 576.535C1245.46 576.535 1246.35 576.238 1247.02 575.645C1247.7 575.051 1248.03 574.285 1248.03 573.348C1248.03 572.191 1247.68 571.383 1246.96 570.922C1246.26 570.461 1245.28 570.23 1244.02 570.23C1243.88 570.23 1243.74 570.234 1243.59 570.242C1243.45 570.242 1243.3 570.246 1243.16 570.254V568.391C1243.38 568.414 1243.56 568.43 1243.71 568.438C1243.86 568.445 1244.02 568.449 1244.19 568.449C1244.98 568.449 1245.62 568.324 1246.13 568.074C1247.02 567.637 1247.47 566.855 1247.47 565.73C1247.47 564.895 1247.17 564.25 1246.58 563.797C1245.98 563.344 1245.29 563.117 1244.5 563.117C1243.1 563.117 1242.12 563.586 1241.59 564.523C1241.29 565.039 1241.12 565.773 1241.08 566.727H1239C1239 565.477 1239.25 564.414 1239.75 563.539C1240.61 561.977 1242.12 561.195 1244.28 561.195C1245.99 561.195 1247.32 561.578 1248.25 562.344C1249.19 563.102 1249.66 564.203 1249.66 565.648C1249.66 566.68 1249.38 567.516 1248.83 568.156C1248.48 568.555 1248.04 568.867 1247.49 569.094C1248.38 569.336 1249.06 569.805 1249.55 570.5C1250.05 571.188 1250.3 572.031 1250.3 573.031C1250.3 574.633 1249.78 575.938 1248.72 576.945C1247.67 577.953 1246.17 578.457 1244.23 578.457Z" fill="black"/>
</g>
<g id="Shifter_ALU">
<rect id="Body" x="660.5" y="125.5" width="221" height="137" fill="white" stroke="black" stroke-width="3"/>
<path id="Shifter" d="M723.961 198.668C724.043 200.133 724.389 201.322 724.998 202.236C726.158 203.947 728.203 204.803 731.133 204.803C732.445 204.803 733.641 204.615 734.719 204.24C736.805 203.514 737.848 202.213 737.848 200.338C737.848 198.932 737.408 197.93 736.529 197.332C735.639 196.746 734.244 196.236 732.346 195.803L728.848 195.012C726.562 194.496 724.945 193.928 723.996 193.307C722.355 192.229 721.535 190.617 721.535 188.473C721.535 186.152 722.338 184.248 723.943 182.76C725.549 181.271 727.822 180.527 730.764 180.527C733.471 180.527 735.768 181.184 737.654 182.496C739.553 183.797 740.502 185.883 740.502 188.754H737.215C737.039 187.371 736.664 186.311 736.09 185.572C735.023 184.225 733.213 183.551 730.658 183.551C728.596 183.551 727.113 183.984 726.211 184.852C725.309 185.719 724.857 186.727 724.857 187.875C724.857 189.141 725.385 190.066 726.439 190.652C727.131 191.027 728.695 191.496 731.133 192.059L734.754 192.885C736.5 193.283 737.848 193.828 738.797 194.52C740.438 195.727 741.258 197.479 741.258 199.775C741.258 202.635 740.215 204.68 738.129 205.91C736.055 207.141 733.641 207.756 730.887 207.756C727.676 207.756 725.162 206.936 723.346 205.295C721.529 203.666 720.639 201.457 720.674 198.668H723.961ZM745.266 181.09H748.43V190.723C749.18 189.773 749.854 189.105 750.451 188.719C751.471 188.051 752.742 187.717 754.266 187.717C756.996 187.717 758.848 188.672 759.82 190.582C760.348 191.625 760.611 193.072 760.611 194.924V207H757.359V195.135C757.359 193.752 757.184 192.738 756.832 192.094C756.258 191.062 755.18 190.547 753.598 190.547C752.285 190.547 751.096 190.998 750.029 191.9C748.963 192.803 748.43 194.508 748.43 197.016V207H745.266V181.09ZM765.305 188.262H768.521V207H765.305V188.262ZM765.305 181.178H768.521V184.764H765.305V181.178ZM774.111 185.309C774.158 183.996 774.387 183.035 774.797 182.426C775.535 181.348 776.959 180.809 779.068 180.809C779.268 180.809 779.473 180.814 779.684 180.826C779.895 180.838 780.135 180.855 780.404 180.879V183.762C780.076 183.738 779.836 183.727 779.684 183.727C779.543 183.715 779.408 183.709 779.279 183.709C778.318 183.709 777.744 183.961 777.557 184.465C777.369 184.957 777.275 186.223 777.275 188.262H780.404V190.758H777.24V207H774.111V190.758H771.492V188.262H774.111V185.309ZM783.973 182.918H787.172V188.174H790.178V190.758H787.172V203.045C787.172 203.701 787.395 204.141 787.84 204.363C788.086 204.492 788.496 204.557 789.07 204.557C789.223 204.557 789.387 204.557 789.562 204.557C789.738 204.545 789.943 204.527 790.178 204.504V207C789.814 207.105 789.434 207.182 789.035 207.229C788.648 207.275 788.227 207.299 787.77 207.299C786.293 207.299 785.291 206.924 784.764 206.174C784.236 205.412 783.973 204.428 783.973 203.221V190.758H781.424V188.174H783.973V182.918ZM801.199 187.752C802.535 187.752 803.83 188.068 805.084 188.701C806.338 189.322 807.293 190.131 807.949 191.127C808.582 192.076 809.004 193.184 809.215 194.449C809.402 195.316 809.496 196.699 809.496 198.598H795.697C795.756 200.508 796.207 202.043 797.051 203.203C797.895 204.352 799.201 204.926 800.971 204.926C802.623 204.926 803.941 204.381 804.926 203.291C805.488 202.658 805.887 201.926 806.121 201.094H809.232C809.15 201.785 808.875 202.559 808.406 203.414C807.949 204.258 807.434 204.949 806.859 205.488C805.898 206.426 804.709 207.059 803.291 207.387C802.529 207.574 801.668 207.668 800.707 207.668C798.363 207.668 796.377 206.818 794.748 205.119C793.119 203.408 792.305 201.018 792.305 197.947C792.305 194.924 793.125 192.469 794.766 190.582C796.406 188.695 798.551 187.752 801.199 187.752ZM806.244 196.084C806.115 194.713 805.816 193.617 805.348 192.797C804.48 191.273 803.033 190.512 801.006 190.512C799.553 190.512 798.334 191.039 797.35 192.094C796.365 193.137 795.844 194.467 795.785 196.084H806.244ZM813.486 188.174H816.492V191.426C816.738 190.793 817.342 190.025 818.303 189.123C819.264 188.209 820.371 187.752 821.625 187.752C821.684 187.752 821.783 187.758 821.924 187.77C822.064 187.781 822.305 187.805 822.645 187.84V191.18C822.457 191.145 822.281 191.121 822.117 191.109C821.965 191.098 821.795 191.092 821.607 191.092C820.014 191.092 818.789 191.607 817.934 192.639C817.078 193.658 816.65 194.836 816.65 196.172V207H813.486V188.174Z" fill="black"/>
</g>
<g id="LogicUnit_ALU">
<rect id="Body_2" x="660.5" y="785.5" width="221" height="137" fill="white" stroke="black" stroke-width="3"/>
<path id="Logic Unit" d="M730.676 822.178H734.174V844.924H747.252V848H730.676V822.178ZM757.764 845.961C759.861 845.961 761.297 845.17 762.07 843.588C762.855 841.994 763.248 840.225 763.248 838.279C763.248 836.521 762.967 835.092 762.404 833.99C761.514 832.256 759.979 831.389 757.799 831.389C755.865 831.389 754.459 832.127 753.58 833.604C752.701 835.08 752.262 836.861 752.262 838.947C752.262 840.951 752.701 842.621 753.58 843.957C754.459 845.293 755.854 845.961 757.764 845.961ZM757.887 828.629C760.312 828.629 762.363 829.438 764.039 831.055C765.715 832.672 766.553 835.051 766.553 838.191C766.553 841.227 765.814 843.734 764.338 845.715C762.861 847.695 760.57 848.686 757.465 848.686C754.875 848.686 752.818 847.812 751.295 846.066C749.771 844.309 749.01 841.953 749.01 839C749.01 835.836 749.812 833.316 751.418 831.441C753.023 829.566 755.18 828.629 757.887 828.629ZM776.977 828.84C778.453 828.84 779.742 829.203 780.844 829.93C781.441 830.34 782.051 830.938 782.672 831.723V829.35H785.59V846.471C785.59 848.861 785.238 850.748 784.535 852.131C783.223 854.686 780.744 855.963 777.1 855.963C775.072 855.963 773.367 855.506 771.984 854.592C770.602 853.689 769.828 852.271 769.664 850.338H772.881C773.033 851.182 773.338 851.832 773.795 852.289C774.51 852.992 775.635 853.344 777.17 853.344C779.596 853.344 781.184 852.488 781.934 850.777C782.379 849.77 782.584 847.971 782.549 845.381C781.916 846.342 781.154 847.057 780.264 847.525C779.373 847.994 778.195 848.229 776.73 848.229C774.691 848.229 772.904 847.508 771.369 846.066C769.846 844.613 769.084 842.217 769.084 838.877C769.084 835.725 769.852 833.264 771.387 831.494C772.934 829.725 774.797 828.84 776.977 828.84ZM782.672 838.508C782.672 836.176 782.191 834.447 781.23 833.322C780.27 832.197 779.045 831.635 777.557 831.635C775.33 831.635 773.807 832.678 772.986 834.764C772.553 835.877 772.336 837.336 772.336 839.141C772.336 841.262 772.764 842.879 773.619 843.992C774.486 845.094 775.646 845.645 777.1 845.645C779.373 845.645 780.973 844.619 781.898 842.568C782.414 841.408 782.672 840.055 782.672 838.508ZM790.371 829.262H793.588V848H790.371V829.262ZM790.371 822.178H793.588V825.764H790.371V822.178ZM805.646 828.629C807.768 828.629 809.49 829.145 810.814 830.176C812.15 831.207 812.953 832.982 813.223 835.502H810.146C809.959 834.342 809.531 833.381 808.863 832.619C808.195 831.846 807.123 831.459 805.646 831.459C803.631 831.459 802.189 832.443 801.322 834.412C800.76 835.689 800.479 837.266 800.479 839.141C800.479 841.027 800.877 842.615 801.674 843.904C802.471 845.193 803.725 845.838 805.436 845.838C806.748 845.838 807.785 845.439 808.547 844.643C809.32 843.834 809.854 842.732 810.146 841.338H813.223C812.871 843.834 811.992 845.662 810.586 846.822C809.18 847.971 807.381 848.545 805.189 848.545C802.729 848.545 800.766 847.648 799.301 845.855C797.836 844.051 797.104 841.801 797.104 839.105C797.104 835.801 797.906 833.229 799.512 831.389C801.117 829.549 803.162 828.629 805.646 828.629ZM745.494 863.178V879.139C745.494 881.014 745.846 882.572 746.549 883.814C747.592 885.689 749.35 886.627 751.822 886.627C754.787 886.627 756.803 885.613 757.869 883.586C758.443 882.484 758.73 881.002 758.73 879.139V863.178H762.281V877.68C762.281 880.855 761.854 883.299 760.998 885.01C759.428 888.127 756.463 889.686 752.104 889.686C747.744 889.686 744.785 888.127 743.227 885.01C742.371 883.299 741.943 880.855 741.943 877.68V863.178H745.494ZM767.291 870.174H770.297V872.846C771.188 871.744 772.131 870.953 773.127 870.473C774.123 869.992 775.23 869.752 776.449 869.752C779.121 869.752 780.926 870.684 781.863 872.547C782.379 873.566 782.637 875.025 782.637 876.924V889H779.42V877.135C779.42 875.986 779.25 875.061 778.91 874.357C778.348 873.186 777.328 872.6 775.852 872.6C775.102 872.6 774.486 872.676 774.006 872.828C773.139 873.086 772.377 873.602 771.721 874.375C771.193 874.996 770.848 875.641 770.684 876.309C770.531 876.965 770.455 877.908 770.455 879.139V889H767.291V870.174ZM787.33 870.262H790.547V889H787.33V870.262ZM787.33 863.178H790.547V866.764H787.33V863.178ZM795.979 864.918H799.178V870.174H802.184V872.758H799.178V885.045C799.178 885.701 799.4 886.141 799.846 886.363C800.092 886.492 800.502 886.557 801.076 886.557C801.229 886.557 801.393 886.557 801.568 886.557C801.744 886.545 801.949 886.527 802.184 886.504V889C801.82 889.105 801.439 889.182 801.041 889.229C800.654 889.275 800.232 889.299 799.775 889.299C798.299 889.299 797.297 888.924 796.77 888.174C796.242 887.412 795.979 886.428 795.979 885.221V872.758H793.43V870.174H795.979V864.918Z" fill="black"/>
</g>
<g id="Adder_ALU">
<path id="Body_3" d="M886 459.583L689 343V459.583L742.377 501L689 542.418V659L886 542.418V459.583Z" fill="white" stroke="black" stroke-width="3"/>
<path id="Adder" d="M775.938 501.418L772.018 490.01L767.852 501.418H775.938ZM770.189 486.178H774.145L783.514 512H779.682L777.062 504.266H766.85L764.055 512H760.469L770.189 486.178ZM788.277 502.807C788.277 504.822 788.705 506.51 789.561 507.869C790.416 509.229 791.787 509.908 793.674 509.908C795.139 509.908 796.34 509.281 797.277 508.027C798.227 506.762 798.701 504.951 798.701 502.596C798.701 500.217 798.215 498.459 797.242 497.322C796.27 496.174 795.068 495.6 793.639 495.6C792.045 495.6 790.75 496.209 789.754 497.428C788.77 498.646 788.277 500.439 788.277 502.807ZM793.041 492.84C794.482 492.84 795.689 493.145 796.662 493.754C797.225 494.105 797.863 494.721 798.578 495.6V486.09H801.619V512H798.771V509.381C798.033 510.541 797.16 511.379 796.152 511.895C795.145 512.41 793.99 512.668 792.689 512.668C790.592 512.668 788.775 511.789 787.24 510.031C785.705 508.262 784.938 505.912 784.938 502.982C784.938 500.24 785.635 497.867 787.029 495.863C788.436 493.848 790.439 492.84 793.041 492.84ZM808.316 502.807C808.316 504.822 808.744 506.51 809.6 507.869C810.455 509.229 811.826 509.908 813.713 509.908C815.178 509.908 816.379 509.281 817.316 508.027C818.266 506.762 818.74 504.951 818.74 502.596C818.74 500.217 818.254 498.459 817.281 497.322C816.309 496.174 815.107 495.6 813.678 495.6C812.084 495.6 810.789 496.209 809.793 497.428C808.809 498.646 808.316 500.439 808.316 502.807ZM813.08 492.84C814.521 492.84 815.729 493.145 816.701 493.754C817.264 494.105 817.902 494.721 818.617 495.6V486.09H821.658V512H818.811V509.381C818.072 510.541 817.199 511.379 816.191 511.895C815.184 512.41 814.029 512.668 812.729 512.668C810.631 512.668 808.814 511.789 807.279 510.031C805.744 508.262 804.977 505.912 804.977 502.982C804.977 500.24 805.674 497.867 807.068 495.863C808.475 493.848 810.479 492.84 813.08 492.84ZM834.191 492.752C835.527 492.752 836.822 493.068 838.076 493.701C839.33 494.322 840.285 495.131 840.941 496.127C841.574 497.076 841.996 498.184 842.207 499.449C842.395 500.316 842.488 501.699 842.488 503.598H828.689C828.748 505.508 829.199 507.043 830.043 508.203C830.887 509.352 832.193 509.926 833.963 509.926C835.615 509.926 836.934 509.381 837.918 508.291C838.48 507.658 838.879 506.926 839.113 506.094H842.225C842.143 506.785 841.867 507.559 841.398 508.414C840.941 509.258 840.426 509.949 839.852 510.488C838.891 511.426 837.701 512.059 836.283 512.387C835.521 512.574 834.66 512.668 833.699 512.668C831.355 512.668 829.369 511.818 827.74 510.119C826.111 508.408 825.297 506.018 825.297 502.947C825.297 499.924 826.117 497.469 827.758 495.582C829.398 493.695 831.543 492.752 834.191 492.752ZM839.236 501.084C839.107 499.713 838.809 498.617 838.34 497.797C837.473 496.273 836.025 495.512 833.998 495.512C832.545 495.512 831.326 496.039 830.342 497.094C829.357 498.137 828.836 499.467 828.777 501.084H839.236ZM846.479 493.174H849.484V496.426C849.73 495.793 850.334 495.025 851.295 494.123C852.256 493.209 853.363 492.752 854.617 492.752C854.676 492.752 854.775 492.758 854.916 492.77C855.057 492.781 855.297 492.805 855.637 492.84V496.18C855.449 496.145 855.273 496.121 855.109 496.109C854.957 496.098 854.787 496.092 854.6 496.092C853.006 496.092 851.781 496.607 850.926 497.639C850.07 498.658 849.643 499.836 849.643 501.172V512H846.479V493.174Z" fill="black"/>
<g id="C0">
<path id="C" d="M770.615 400.475C773.885 400.475 776.422 401.336 778.227 403.059C780.031 404.781 781.033 406.738 781.232 408.93H777.822C777.436 407.266 776.662 405.947 775.502 404.975C774.354 404.002 772.736 403.516 770.65 403.516C768.107 403.516 766.051 404.412 764.48 406.205C762.922 407.986 762.143 410.723 762.143 414.414C762.143 417.438 762.846 419.893 764.252 421.779C765.67 423.654 767.779 424.592 770.58 424.592C773.158 424.592 775.121 423.602 776.469 421.621C777.184 420.578 777.717 419.207 778.068 417.508H781.479C781.174 420.227 780.166 422.506 778.455 424.346C776.404 426.561 773.639 427.668 770.158 427.668C767.158 427.668 764.639 426.76 762.6 424.943C759.916 422.541 758.574 418.832 758.574 413.816C758.574 410.008 759.582 406.885 761.598 404.447C763.777 401.799 766.783 400.475 770.615 400.475Z" fill="black"/>
<path id="0_2" d="M789.219 417.828C792.477 417.828 794.832 419.17 796.285 421.854C797.41 423.928 797.973 426.77 797.973 430.379C797.973 433.801 797.463 436.631 796.443 438.869C794.967 442.08 792.553 443.686 789.201 443.686C786.178 443.686 783.928 442.373 782.451 439.748C781.221 437.557 780.605 434.615 780.605 430.924C780.605 428.064 780.975 425.609 781.713 423.559C783.096 419.738 785.598 417.828 789.219 417.828ZM789.184 440.803C790.824 440.803 792.131 440.076 793.104 438.623C794.076 437.17 794.562 434.463 794.562 430.502C794.562 427.643 794.211 425.293 793.508 423.453C792.805 421.602 791.439 420.676 789.412 420.676C787.549 420.676 786.184 421.555 785.316 423.312C784.461 425.059 784.033 427.637 784.033 431.047C784.033 433.613 784.309 435.676 784.859 437.234C785.703 439.613 787.145 440.803 789.184 440.803Z" fill="black"/>
</g>
<g id="C4">
<path id="C_2" d="M771.115 548.475C774.385 548.475 776.922 549.336 778.727 551.059C780.531 552.781 781.533 554.738 781.732 556.93H778.322C777.936 555.266 777.162 553.947 776.002 552.975C774.854 552.002 773.236 551.516 771.15 551.516C768.607 551.516 766.551 552.412 764.98 554.205C763.422 555.986 762.643 558.723 762.643 562.414C762.643 565.438 763.346 567.893 764.752 569.779C766.17 571.654 768.279 572.592 771.08 572.592C773.658 572.592 775.621 571.602 776.969 569.621C777.684 568.578 778.217 567.207 778.568 565.508H781.979C781.674 568.227 780.666 570.506 778.955 572.346C776.904 574.561 774.139 575.668 770.658 575.668C767.658 575.668 765.139 574.76 763.1 572.943C760.416 570.541 759.074 566.832 759.074 561.816C759.074 558.008 760.082 554.885 762.098 552.447C764.277 549.799 767.283 548.475 771.115 548.475Z" fill="black"/>
<path id="4" d="M791.381 582.088V570.68L783.312 582.088H791.381ZM791.434 591V584.848H780.395V581.754L791.926 565.758H794.598V582.088H798.307V584.848H794.598V591H791.434Z" fill="black"/>
</g>
</g>
</svg>
