<svg width="1033" height="406" viewBox="0 0 1033 406" fill="none" xmlns="http://www.w3.org/2000/svg">
<rect width="1033" height="406" fill="#1E1E1E"/>
<path id="Background_FullAdder" d="M0 0H1033V406H0V0Z" fill="white"/>
<path id="S" d="M953.521 74.668C953.604 76.1328 953.949 77.3223 954.559 78.2363C955.719 79.9473 957.764 80.8027 960.693 80.8027C962.006 80.8027 963.201 80.6152 964.279 80.2402C966.365 79.5137 967.408 78.2129 967.408 76.3379C967.408 74.9316 966.969 73.9297 966.09 73.332C965.199 72.7461 963.805 72.2363 961.906 71.8027L958.408 71.0117C956.123 70.4961 954.506 69.9277 953.557 69.3066C951.916 68.2285 951.096 66.6172 951.096 64.4727C951.096 62.1523 951.898 60.248 953.504 58.7598C955.109 57.2715 957.383 56.5273 960.324 56.5273C963.031 56.5273 965.328 57.1836 967.215 58.4961C969.113 59.7969 970.062 61.8828 970.062 64.7539H966.775C966.6 63.3711 966.225 62.3105 965.65 61.5723C964.584 60.2246 962.773 59.5508 960.219 59.5508C958.156 59.5508 956.674 59.9844 955.771 60.8516C954.869 61.7188 954.418 62.7266 954.418 63.875C954.418 65.1406 954.945 66.0664 956 66.6523C956.691 67.0273 958.256 67.4961 960.693 68.0586L964.314 68.8848C966.061 69.2832 967.408 69.8281 968.357 70.5195C969.998 71.7266 970.818 73.4785 970.818 75.7754C970.818 78.6348 969.775 80.6797 967.689 81.9102C965.615 83.1406 963.201 83.7559 960.447 83.7559C957.236 83.7559 954.723 82.9355 952.906 81.2949C951.09 79.666 950.199 77.457 950.234 74.668H953.521Z" fill="black"/>
<path id="y" d="M46.0801 59.1738H49.5781C49.1328 60.3809 48.1426 63.1348 46.6074 67.4355C45.459 70.6699 44.498 73.3066 43.7246 75.3457C41.8965 80.1504 40.6074 83.0801 39.8574 84.1348C39.1074 85.1895 37.8184 85.7168 35.9902 85.7168C35.5449 85.7168 35.1992 85.6992 34.9531 85.6641C34.7188 85.6289 34.4258 85.5645 34.0742 85.4707V82.5879C34.625 82.7402 35.0234 82.834 35.2695 82.8691C35.5156 82.9043 35.7324 82.9219 35.9199 82.9219C36.5059 82.9219 36.9336 82.8223 37.2031 82.623C37.4844 82.4355 37.7188 82.2012 37.9062 81.9199C37.9648 81.8262 38.1758 81.3457 38.5391 80.4785C38.9023 79.6113 39.166 78.9668 39.3301 78.5449L32.3691 59.1738H35.9551L41 74.502L46.0801 59.1738Z" fill="black"/>
<path id="x" d="M32.5273 16.1738H36.623L40.9473 22.8008L45.3242 16.1738L49.1738 16.2617L42.8281 25.3496L49.4551 35H45.4121L40.7363 27.9336L36.2012 35H32.1934L38.8203 25.3496L32.5273 16.1738Z" fill="black"/>
<g id="Cin">
<path id="C" d="M13.6152 352.475C16.8848 352.475 19.4219 353.336 21.2266 355.059C23.0312 356.781 24.0332 358.738 24.2324 360.93H20.8223C20.4355 359.266 19.6621 357.947 18.502 356.975C17.3535 356.002 15.7363 355.516 13.6504 355.516C11.1074 355.516 9.05078 356.412 7.48047 358.205C5.92188 359.986 5.14258 362.723 5.14258 366.414C5.14258 369.438 5.8457 371.893 7.25195 373.779C8.66992 375.654 10.7793 376.592 13.5801 376.592C16.1582 376.592 18.1211 375.602 19.4688 373.621C20.1836 372.578 20.7168 371.207 21.0684 369.508H24.4785C24.1738 372.227 23.166 374.506 21.4551 376.346C19.4043 378.561 16.6387 379.668 13.1582 379.668C10.1582 379.668 7.63867 378.76 5.59961 376.943C2.91602 374.541 1.57422 370.832 1.57422 365.816C1.57422 362.008 2.58203 358.885 4.59766 356.447C6.77734 353.799 9.7832 352.475 13.6152 352.475Z" fill="black"/>
<path id="in" d="M25.793 381.262H29.0098V400H25.793V381.262ZM25.793 374.178H29.0098V377.764H25.793V374.178ZM33.8086 381.174H36.8145V383.846C37.7051 382.744 38.6484 381.953 39.6445 381.473C40.6406 380.992 41.748 380.752 42.9668 380.752C45.6387 380.752 47.4434 381.684 48.3809 383.547C48.8965 384.566 49.1543 386.025 49.1543 387.924V400H45.9375V388.135C45.9375 386.986 45.7676 386.061 45.4277 385.357C44.8652 384.186 43.8457 383.6 42.3691 383.6C41.6191 383.6 41.0039 383.676 40.5234 383.828C39.6562 384.086 38.8945 384.602 38.2383 385.375C37.7109 385.996 37.3652 386.641 37.2012 387.309C37.0488 387.965 36.9727 388.908 36.9727 390.139V400H33.8086V381.174Z" fill="black"/>
</g>
<g id="Cout">
<path id="C_2" d="M968.615 273.475C971.885 273.475 974.422 274.336 976.227 276.059C978.031 277.781 979.033 279.738 979.232 281.93H975.822C975.436 280.266 974.662 278.947 973.502 277.975C972.354 277.002 970.736 276.516 968.65 276.516C966.107 276.516 964.051 277.412 962.48 279.205C960.922 280.986 960.143 283.723 960.143 287.414C960.143 290.438 960.846 292.893 962.252 294.779C963.67 296.654 965.779 297.592 968.58 297.592C971.158 297.592 973.121 296.602 974.469 294.621C975.184 293.578 975.717 292.207 976.068 290.508H979.479C979.174 293.227 978.166 295.506 976.455 297.346C974.404 299.561 971.639 300.668 968.158 300.668C965.158 300.668 962.639 299.76 960.6 297.943C957.916 295.541 956.574 291.832 956.574 286.816C956.574 283.008 957.582 279.885 959.598 277.447C961.777 274.799 964.783 273.475 968.615 273.475Z" fill="black"/>
<path id="out" d="M987.742 318.961C989.84 318.961 991.275 318.17 992.049 316.588C992.834 314.994 993.227 313.225 993.227 311.279C993.227 309.521 992.945 308.092 992.383 306.99C991.492 305.256 989.957 304.389 987.777 304.389C985.844 304.389 984.438 305.127 983.559 306.604C982.68 308.08 982.24 309.861 982.24 311.947C982.24 313.951 982.68 315.621 983.559 316.957C984.438 318.293 985.832 318.961 987.742 318.961ZM987.865 301.629C990.291 301.629 992.342 302.438 994.018 304.055C995.693 305.672 996.531 308.051 996.531 311.191C996.531 314.227 995.793 316.734 994.316 318.715C992.84 320.695 990.549 321.686 987.443 321.686C984.854 321.686 982.797 320.812 981.273 319.066C979.75 317.309 978.988 314.953 978.988 312C978.988 308.836 979.791 306.316 981.396 304.441C983.002 302.566 985.158 301.629 987.865 301.629ZM1003.47 302.174V314.672C1003.47 315.633 1003.63 316.418 1003.93 317.027C1004.49 318.152 1005.54 318.715 1007.08 318.715C1009.28 318.715 1010.78 317.73 1011.58 315.762C1012.01 314.707 1012.23 313.26 1012.23 311.42V302.174H1015.39V321H1012.4L1012.44 318.223C1012.03 318.938 1011.52 319.541 1010.91 320.033C1009.7 321.018 1008.24 321.51 1006.52 321.51C1003.83 321.51 1002 320.613 1001.03 318.82C1000.5 317.859 1000.24 316.576 1000.24 314.971V302.174H1003.47ZM1020.98 296.918H1024.18V302.174H1027.19V304.758H1024.18V317.045C1024.18 317.701 1024.4 318.141 1024.85 318.363C1025.1 318.492 1025.51 318.557 1026.08 318.557C1026.23 318.557 1026.4 318.557 1026.57 318.557C1026.75 318.545 1026.95 318.527 1027.19 318.504V321C1026.82 321.105 1026.44 321.182 1026.04 321.229C1025.66 321.275 1025.24 321.299 1024.78 321.299C1023.3 321.299 1022.3 320.924 1021.77 320.174C1021.25 319.412 1020.98 318.428 1020.98 317.221V304.758H1018.43V302.174H1020.98V296.918Z" fill="black"/>
</g>
<path id="WireX_FullAdder" d="M214 25L199 33.6602V26.5H155.729C154.983 29.1987 152.77 31.2874 150 31.8496V229.5H204V222.34L219 231L204 239.66V232.5H147V31.8496C144.23 31.2874 142.017 29.1987 141.271 26.5H53V23.5H141.068C141.557 19.8308 144.697 17 148.5 17C152.303 17 155.443 19.8308 155.932 23.5H199V16.3398L214 25Z" fill="black"/>
<path id="WireY_FullAdder" d="M214 69L199 77.6602V70.5H121.729C120.983 73.1987 118.77 75.2874 116 75.8496V265.5H204V258.34L219 267L204 275.66V268.5H113V75.8496C110.23 75.2874 108.017 73.1987 107.271 70.5H53V67.5H107.068C107.557 63.8308 110.697 61 114.5 61C118.303 61 121.443 63.8308 121.932 67.5H199V60.3398L214 69Z" fill="black"/>
<path id="WireCin_FullAdder" d="M536 91L521 99.6602V92.5H477V262.149C480.103 262.779 482.509 265.326 482.932 268.5H526V261.34L541 270L526 278.66V271.5H482.729C481.983 274.199 479.77 276.287 477 276.85V370.5H53V367.5H474V276.85C470.577 276.155 468 273.128 468 269.5C468 265.872 470.577 262.844 474 262.149V89.5H521V82.3398L536 91Z" fill="black"/>
<path id="WireXOR_FullAdder" d="M536 47L521 55.6602V48.5H435.932C435.486 51.842 432.842 54.4862 429.5 54.9316V216.5H526.5V209.34L541.5 218L526.5 226.66V219.5H426.5V54.7275C423.641 53.9381 421.468 51.5007 421.068 48.5H319V45.5H421.271C422.147 42.3291 425.051 40 428.5 40C431.949 40 434.853 42.3291 435.729 45.5H521V38.3398L536 47Z" fill="black"/>
<path id="WireAND1_FullAdder" d="M735 313L720 304.34V321.66L735 313ZM369 313V314.5H721.5V313V311.5H369V313ZM367.5 314.5H369L369 249.5L367.5 249.5L366 249.5L366 314.5H367.5ZM319 251V252.5H366V251V249.5H319V251Z" fill="black"/>
<path id="WireAND2_FullAdder" d="M735 270L720 261.34V278.66L735 270ZM690 270V271.5H721.5V270V268.5H690V270ZM688.5 271.5H690L690 252L688.5 252L687 252L687 271.5H688.5ZM641 251V252.5H690V251V249.5H641V251Z" fill="black"/>
<path id="WireS_FullAdder" d="M943.5 69L928.5 60.3397V77.6603L943.5 69ZM642 69V70.5H930V69V67.5H642V69Z" fill="black"/>
<path id="WireCout_FullAdder" d="M943.5 289.5L928.5 280.84V298.16L943.5 289.5ZM829.5 289.5V291H930V289.5V288H829.5V289.5Z" fill="black"/>
<g id="XORGate0_FullAdder">
<g id="ORGate">
<path id="ORGate_2" d="M320 46.5C298.436 75.1745 269.057 90.3333 239.2 91H219C230.201 56.3394 230.203 36.8459 219 2H239.2C269.057 2.66666 298.436 17.8255 320 46.5Z" fill="white" stroke="black" stroke-width="3"/>
</g>
<path id="XOR" d="M209 2C219.465 36.7574 219.604 56.2426 209 91" stroke="black" stroke-width="3"/>
</g>
<g id="XORGate1_FullAdder">
<g id="ORGate_3">
<path id="ORGate_4" d="M642 69.5C620.436 98.1745 591.057 113.333 561.2 114H541C552.201 79.3394 552.203 59.8459 541 25H561.2C591.057 25.6667 620.436 40.8255 642 69.5Z" fill="white" stroke="black" stroke-width="3"/>
</g>
<path id="XOR_2" d="M531 25C541.465 59.7574 541.604 79.2426 531 114" stroke="black" stroke-width="3"/>
</g>
<g id="ANDGate0_FullAdder">
<path id="AND Gate" d="M220.5 208.806C224.368 208.293 236.675 206.913 251.476 207.779C269.501 208.835 290.902 213.208 305.382 226.209C311.951 232.107 315.22 238.335 316.854 243.07C317.671 245.441 318.08 247.441 318.286 248.841C318.389 249.54 318.442 250.09 318.469 250.461C318.482 250.646 318.49 250.787 318.494 250.883C318.496 250.932 318.498 250.967 318.499 251C318.499 251.003 318.499 251.007 318.499 251.011C318.499 251.027 318.498 251.049 318.497 251.076C318.494 251.154 318.489 251.279 318.477 251.445C318.452 251.779 318.403 252.282 318.303 252.931C318.102 254.228 317.698 256.104 316.883 258.354C315.255 262.849 311.983 268.864 305.382 274.791C290.894 287.799 269.478 292.17 251.446 293.223C242.465 293.747 234.401 293.443 228.581 293.009C225.673 292.792 223.328 292.543 221.714 292.348C221.246 292.291 220.841 292.238 220.5 292.193V208.806Z" fill="white" stroke="black" stroke-width="3"/>
</g>
<g id="ANDGate1_FullAdder">
<path id="AND Gate_2" d="M542.5 208.806C546.368 208.293 558.675 206.913 573.476 207.779C591.501 208.835 612.902 213.208 627.382 226.209C633.951 232.107 637.22 238.335 638.854 243.07C639.671 245.441 640.08 247.441 640.286 248.841C640.389 249.54 640.442 250.09 640.469 250.461C640.482 250.646 640.49 250.787 640.494 250.883C640.496 250.932 640.498 250.967 640.499 251C640.499 251.003 640.499 251.007 640.499 251.011C640.499 251.027 640.498 251.049 640.497 251.076C640.494 251.154 640.489 251.279 640.477 251.445C640.452 251.779 640.403 252.282 640.303 252.931C640.102 254.228 639.698 256.104 638.883 258.354C637.255 262.849 633.983 268.864 627.382 274.791C612.894 287.799 591.478 292.17 573.446 293.223C564.465 293.747 556.401 293.443 550.581 293.009C547.673 292.792 545.328 292.543 543.714 292.348C543.246 292.291 542.841 292.238 542.5 292.193V208.806Z" fill="white" stroke="black" stroke-width="3"/>
</g>
<g id="ORGate_FullAdder">
<path id="ORGate_5" d="M830 289.5C808.436 318.175 779.057 333.333 749.2 334H729C740.201 299.339 740.203 279.846 729 245H749.2C779.057 245.667 808.436 260.825 830 289.5Z" fill="white" stroke="black" stroke-width="3"/>
</g>
</svg>
