<svg width="1026" height="474" viewBox="0 0 1026 474" fill="none" xmlns="http://www.w3.org/2000/svg">
<rect width="1026" height="474" fill="#1E1E1E"/>
<rect id="Background_LU" width="1026" height="474" fill="white"/>
<g id="AND_LU">
<path id="AND Gate" d="M269.5 8.80566C273.368 8.29347 285.675 6.91263 300.476 7.7793C318.501 8.83481 339.902 13.2079 354.382 26.209C360.951 32.1069 364.22 38.3346 365.854 43.0703C366.671 45.441 367.08 47.4412 367.286 48.8408C367.389 49.5403 367.442 50.0903 367.469 50.4609C367.482 50.6456 367.49 50.7872 367.494 50.8828C367.496 50.9324 367.498 50.9671 367.499 51C367.499 51.003 367.499 51.0069 367.499 51.0107C367.499 51.0268 367.498 51.0486 367.497 51.0762C367.494 51.1544 367.489 51.2786 367.477 51.4453C367.452 51.7787 367.403 52.2823 367.303 52.9307C367.102 54.2281 366.698 56.1038 365.883 58.3545C364.255 62.8485 360.983 68.8641 354.382 74.791C339.894 87.7992 318.478 92.1702 300.446 93.2227C291.465 93.7468 283.401 93.4433 277.581 93.0088C274.673 92.7916 272.328 92.5426 270.714 92.3477C270.246 92.2912 269.841 92.2385 269.5 92.1934V8.80566Z" fill="white" stroke="black" stroke-width="3"/>
</g>
<g id="OR_LU">
<path id="OR Gate" d="M366.349 172.409C330.496 194.093 308.917 211.685 270.006 215.147C274.477 198.437 276.731 185.162 276.728 171.979C276.724 158.816 274.47 145.823 270.022 129.671C308.924 133.137 330.501 150.728 366.349 172.409Z" fill="white" stroke="black" stroke-width="3"/>
</g>
<g id="XOR_LU">
<g id="XOR Gate">
<path d="M270.866 249C276.462 266.284 279.086 279.926 278.981 293.705C278.877 307.473 276.051 321.281 270.879 338.885L268 338.039C273.14 320.543 275.88 307.043 275.981 293.683C276.082 280.333 273.55 267.025 268.013 249.924L270.866 249Z" fill="white"/>
<path d="M278.939 249.462C320.427 252.557 342.584 271.323 380.189 293.871C342.584 316.419 320.427 335.185 278.939 338.28C288.589 303.026 288.562 283.572 278.939 249.462Z" fill="white"/>
<path d="M270.866 249C276.462 266.284 279.086 279.926 278.981 293.705C278.877 307.473 276.051 321.281 270.879 338.885L268 338.039C273.14 320.543 275.88 307.043 275.981 293.683C276.082 280.333 273.55 267.025 268.013 249.924L270.866 249Z" stroke="black" stroke-width="3"/>
<path d="M278.939 249.462C320.427 252.557 342.584 271.323 380.189 293.871C342.584 316.419 320.427 335.185 278.939 338.28C288.589 303.026 288.562 283.572 278.939 249.462Z" stroke="black" stroke-width="3"/>
</g>
</g>
<g id="NOR_LU">
<path id="NOR Gate" d="M270.021 374.671C308.915 378.136 330.503 395.725 366.349 417.408C330.498 439.094 308.909 456.686 270.005 460.147C274.476 443.437 276.731 430.162 276.728 416.979C276.724 403.816 274.469 390.823 270.021 374.671ZM371.5 414.5C373.157 414.5 374.5 415.843 374.5 417.5C374.5 419.157 373.157 420.5 371.5 420.5C370.116 420.5 368.948 419.561 368.604 418.283L368.376 417.441L368.633 416.613C369.011 415.388 370.154 414.5 371.5 414.5Z" fill="white" stroke="black" stroke-width="3"/>
</g>
<g id="4-1_LU">
<g id="4-1 MUX">
<path d="M674 73L767.455 137.323H768V337.301L674 402V73Z" fill="white"/>
<path d="M684.274 116.952C686.4 116.952 687.938 117.829 688.886 119.583C689.621 120.938 689.988 122.795 689.988 125.154C689.988 127.39 689.655 129.24 688.99 130.703C688.026 132.801 686.45 133.85 684.262 133.85C682.288 133.85 680.82 132.993 679.856 131.277C679.053 129.845 678.651 127.923 678.651 125.51C678.651 123.642 678.892 122.037 679.374 120.697C680.277 118.2 681.91 116.952 684.274 116.952ZM684.251 131.966C685.322 131.966 686.175 131.492 686.809 130.542C687.444 129.592 687.762 127.823 687.762 125.235C687.762 123.366 687.532 121.83 687.073 120.628C686.614 119.418 685.723 118.813 684.4 118.813C683.184 118.813 682.292 119.387 681.726 120.536C681.168 121.677 680.889 123.362 680.889 125.591C680.889 127.268 681.068 128.616 681.428 129.634C681.979 131.189 682.92 131.966 684.251 131.966Z" fill="black"/>
<path d="M678.651 284.366C678.728 282.949 679.018 281.716 679.523 280.667C680.036 279.618 681.03 278.664 682.507 277.806L684.71 276.531C685.696 275.957 686.389 275.467 686.787 275.061C687.414 274.425 687.727 273.698 687.727 272.878C687.727 271.921 687.441 271.163 686.867 270.604C686.293 270.037 685.528 269.754 684.572 269.754C683.157 269.754 682.178 270.29 681.634 271.362C681.344 271.936 681.183 272.733 681.153 273.751H679.053C679.076 272.319 679.34 271.151 679.844 270.248C680.739 268.655 682.319 267.858 684.583 267.858C686.465 267.858 687.838 268.367 688.703 269.386C689.575 270.405 690.011 271.538 690.011 272.786C690.011 274.104 689.548 275.229 688.622 276.164C688.087 276.708 687.127 277.366 685.742 278.14L684.17 279.013C683.421 279.426 682.832 279.821 682.403 280.196C681.638 280.862 681.156 281.601 680.957 282.413H689.931V284.366H678.651Z" fill="black"/>
<path d="M684.021 359.316C682.078 359.316 680.667 358.783 679.787 357.719C678.915 356.647 678.479 355.345 678.479 353.813H680.636C680.728 354.877 680.927 355.651 681.233 356.133C681.768 356.999 682.736 357.432 684.136 357.432C685.222 357.432 686.094 357.141 686.752 356.558C687.41 355.976 687.739 355.226 687.739 354.307C687.739 353.173 687.391 352.381 686.695 351.929C686.006 351.477 685.046 351.251 683.815 351.251C683.677 351.251 683.535 351.255 683.39 351.263C683.252 351.263 683.111 351.266 682.965 351.274V349.448C683.18 349.471 683.359 349.486 683.505 349.494C683.65 349.501 683.807 349.505 683.975 349.505C684.748 349.505 685.383 349.383 685.88 349.137C686.752 348.709 687.188 347.943 687.188 346.84C687.188 346.02 686.897 345.389 686.316 344.944C685.735 344.5 685.058 344.278 684.285 344.278C682.908 344.278 681.956 344.738 681.428 345.657C681.137 346.162 680.973 346.882 680.934 347.816H678.892C678.892 346.591 679.137 345.549 679.626 344.692C680.468 343.16 681.948 342.394 684.067 342.394C685.742 342.394 687.039 342.769 687.957 343.52C688.875 344.263 689.334 345.343 689.334 346.759C689.334 347.77 689.062 348.59 688.519 349.218C688.183 349.608 687.747 349.915 687.211 350.137C688.076 350.374 688.749 350.834 689.231 351.515C689.72 352.189 689.965 353.016 689.965 353.997C689.965 355.567 689.449 356.846 688.416 357.834C687.383 358.822 685.918 359.316 684.021 359.316Z" fill="black"/>
<path d="M680.166 196.255V194.67C681.657 194.525 682.698 194.283 683.287 193.946C683.876 193.602 684.316 192.794 684.606 191.522H686.236V207.904H684.033V196.255H680.166Z" fill="black"/>
<path d="M674.851 71.7646L767.921 135.823H769.5V338.09L768.851 338.537L674.851 403.235L672.5 404.854V70.1465L674.851 71.7646Z" stroke="black" stroke-width="3"/>
</g>
</g>
<path id="Wire_X_LU" d="M268 29L253 20.3397V37.6603L268 29ZM274.5 398L259.5 389.34V406.66L274.5 398ZM273.5 276L258.5 267.34V284.66L273.5 276ZM273.5 150L258.5 141.34V158.66L273.5 150ZM20 29V30.5H89.5V29V27.5H20V29ZM89.5 29V30.5H254.5V29V27.5H89.5V29ZM88 398V399.5H89.5V398V396.5H88V398ZM89.5 398V399.5H261V398V396.5H89.5V398ZM91 276V277.5H260V276V274.5H91V276ZM88 150V151.5H89.5V150V148.5H88V150ZM89.5 150V151.5H260V150V148.5H89.5V150ZM89.5 29L88 29L88 150L89.5 150L91 150L91 29L89.5 29ZM89.5 150L88 150L88 398L89.5 398L91 398L91 150L89.5 150Z" fill="black"/>
<path id="Wire_Y_LU" d="M274 440L259 431.34V448.66L274 440ZM268 73L253 64.3397V81.6603L268 73ZM274 194L259 185.34V202.66L274 194ZM272 321L257 312.34V329.66L272 321ZM20 440V441.5H260.5V440V438.5H20V440ZM161 73V74.5H254.5V73V71.5H161V73ZM161 194V195.5H260.5V194V192.5H161V194ZM161 321V322.5H258.5V321V319.5H161V321ZM162.5 73L161 73L161 440L162.5 440L164 440L164 73L162.5 73Z" fill="black"/>
<circle id="Ellipse 3" cx="89.5" cy="29.5" r="7.5" fill="black"/>
<circle id="Ellipse 4" cx="89.5" cy="150.5" r="7.5" fill="black"/>
<circle id="Ellipse 5" cx="89.5" cy="276.5" r="7.5" fill="black"/>
<circle id="Ellipse 6" cx="162.5" cy="439.5" r="7.5" fill="black"/>
<circle id="Ellipse 8" cx="162.5" cy="321.5" r="7.5" fill="black"/>
<circle id="Ellipse 9" cx="162.5" cy="194.5" r="7.5" fill="black"/>
<path id="Wire_LOGIC_LU" d="M928 237L913 228.34V245.66L928 237ZM768 237V238.5H914.5V237V235.5H768V237Z" fill="black"/>
<path id="Wire_LOGIC_FUNC_LU" d="M729 367L720.34 382L737.66 382L729 367ZM729 446L730.5 446L730.5 380.5L729 380.5L727.5 380.5L727.5 446L729 446Z" fill="black"/>
<line id="Line 12" x1="715.939" y1="424.939" x2="741.939" y2="398.939" stroke="black" stroke-width="3"/>
<path id="2" d="M743.625 418C743.69 416.796 743.938 415.747 744.367 414.855C744.803 413.964 745.65 413.153 746.906 412.424L748.781 411.34C749.621 410.852 750.21 410.435 750.549 410.09C751.083 409.549 751.35 408.931 751.35 408.234C751.35 407.421 751.105 406.776 750.617 406.301C750.129 405.819 749.478 405.578 748.664 405.578C747.46 405.578 746.626 406.034 746.164 406.945C745.917 407.434 745.78 408.111 745.754 408.977H743.967C743.986 407.759 744.211 406.766 744.641 405.998C745.402 404.644 746.747 403.967 748.674 403.967C750.275 403.967 751.444 404.4 752.18 405.266C752.922 406.132 753.293 407.095 753.293 408.156C753.293 409.276 752.899 410.233 752.111 411.027C751.656 411.49 750.839 412.049 749.66 412.707L748.322 413.449C747.684 413.801 747.183 414.136 746.818 414.455C746.167 415.021 745.757 415.65 745.588 416.34H753.225V418H743.625Z" fill="black"/>
<path id="Logic Function" d="M675.523 453.654H677.467V466.291H684.732V468H675.523V453.654ZM690.572 466.867C691.738 466.867 692.535 466.428 692.965 465.549C693.401 464.663 693.619 463.68 693.619 462.6C693.619 461.623 693.463 460.829 693.15 460.217C692.656 459.253 691.803 458.771 690.592 458.771C689.518 458.771 688.736 459.182 688.248 460.002C687.76 460.822 687.516 461.812 687.516 462.971C687.516 464.084 687.76 465.012 688.248 465.754C688.736 466.496 689.511 466.867 690.572 466.867ZM690.641 457.238C691.988 457.238 693.128 457.688 694.059 458.586C694.99 459.484 695.455 460.806 695.455 462.551C695.455 464.237 695.045 465.63 694.225 466.73C693.404 467.831 692.132 468.381 690.406 468.381C688.967 468.381 687.825 467.896 686.979 466.926C686.132 465.949 685.709 464.641 685.709 463C685.709 461.242 686.155 459.842 687.047 458.801C687.939 457.759 689.137 457.238 690.641 457.238ZM701.246 457.355C702.066 457.355 702.783 457.557 703.395 457.961C703.727 458.189 704.065 458.521 704.41 458.957V457.639H706.031V467.15C706.031 468.479 705.836 469.527 705.445 470.295C704.716 471.714 703.339 472.424 701.314 472.424C700.188 472.424 699.241 472.17 698.473 471.662C697.704 471.161 697.275 470.373 697.184 469.299H698.971C699.055 469.768 699.225 470.129 699.479 470.383C699.876 470.773 700.501 470.969 701.354 470.969C702.701 470.969 703.583 470.493 704 469.543C704.247 468.983 704.361 467.984 704.342 466.545C703.99 467.079 703.567 467.476 703.072 467.736C702.577 467.997 701.923 468.127 701.109 468.127C699.977 468.127 698.984 467.727 698.131 466.926C697.285 466.118 696.861 464.787 696.861 462.932C696.861 461.18 697.288 459.813 698.141 458.83C699 457.847 700.035 457.355 701.246 457.355ZM704.41 462.727C704.41 461.431 704.143 460.471 703.609 459.846C703.076 459.221 702.395 458.908 701.568 458.908C700.331 458.908 699.485 459.488 699.029 460.646C698.788 461.265 698.668 462.076 698.668 463.078C698.668 464.257 698.906 465.155 699.381 465.773C699.863 466.385 700.507 466.691 701.314 466.691C702.577 466.691 703.466 466.122 703.98 464.982C704.267 464.338 704.41 463.586 704.41 462.727ZM708.688 457.59H710.475V468H708.688V457.59ZM708.688 453.654H710.475V455.646H708.688V453.654ZM717.174 457.238C718.352 457.238 719.309 457.525 720.045 458.098C720.787 458.671 721.233 459.657 721.383 461.057H719.674C719.57 460.412 719.332 459.878 718.961 459.455C718.59 459.025 717.994 458.811 717.174 458.811C716.054 458.811 715.253 459.357 714.771 460.451C714.459 461.161 714.303 462.036 714.303 463.078C714.303 464.126 714.524 465.008 714.967 465.725C715.41 466.441 716.106 466.799 717.057 466.799C717.786 466.799 718.362 466.577 718.785 466.135C719.215 465.686 719.511 465.074 719.674 464.299H721.383C721.188 465.686 720.699 466.701 719.918 467.346C719.137 467.984 718.137 468.303 716.92 468.303C715.553 468.303 714.462 467.805 713.648 466.809C712.835 465.806 712.428 464.556 712.428 463.059C712.428 461.223 712.874 459.794 713.766 458.771C714.658 457.749 715.794 457.238 717.174 457.238ZM729.127 453.654H739.078V455.412H731.07V459.768H738.111V461.477H731.07V468H729.127V453.654ZM742.691 457.541V464.484C742.691 465.018 742.776 465.454 742.945 465.793C743.258 466.418 743.84 466.73 744.693 466.73C745.917 466.73 746.751 466.184 747.193 465.09C747.434 464.504 747.555 463.7 747.555 462.678V457.541H749.312V468H747.652L747.672 466.457C747.444 466.854 747.161 467.189 746.822 467.463C746.152 468.01 745.338 468.283 744.381 468.283C742.89 468.283 741.874 467.785 741.334 466.789C741.041 466.255 740.895 465.542 740.895 464.65V457.541H742.691ZM752.066 457.541H753.736V459.025C754.231 458.413 754.755 457.974 755.309 457.707C755.862 457.44 756.477 457.307 757.154 457.307C758.639 457.307 759.641 457.824 760.162 458.859C760.449 459.426 760.592 460.236 760.592 461.291V468H758.805V461.408C758.805 460.77 758.71 460.256 758.521 459.865C758.209 459.214 757.643 458.889 756.822 458.889C756.406 458.889 756.064 458.931 755.797 459.016C755.315 459.159 754.892 459.445 754.527 459.875C754.234 460.22 754.042 460.578 753.951 460.949C753.867 461.314 753.824 461.838 753.824 462.521V468H752.066V457.541ZM767.232 457.238C768.411 457.238 769.368 457.525 770.104 458.098C770.846 458.671 771.292 459.657 771.441 461.057H769.732C769.628 460.412 769.391 459.878 769.02 459.455C768.648 459.025 768.053 458.811 767.232 458.811C766.113 458.811 765.312 459.357 764.83 460.451C764.518 461.161 764.361 462.036 764.361 463.078C764.361 464.126 764.583 465.008 765.025 465.725C765.468 466.441 766.165 466.799 767.115 466.799C767.844 466.799 768.421 466.577 768.844 466.135C769.273 465.686 769.57 465.074 769.732 464.299H771.441C771.246 465.686 770.758 466.701 769.977 467.346C769.195 467.984 768.196 468.303 766.979 468.303C765.611 468.303 764.521 467.805 763.707 466.809C762.893 465.806 762.486 464.556 762.486 463.059C762.486 461.223 762.932 459.794 763.824 458.771C764.716 457.749 765.852 457.238 767.232 457.238ZM773.551 454.621H775.328V457.541H776.998V458.977H775.328V465.803C775.328 466.167 775.452 466.411 775.699 466.535C775.836 466.607 776.064 466.643 776.383 466.643C776.467 466.643 776.559 466.643 776.656 466.643C776.754 466.636 776.868 466.626 776.998 466.613V468C776.796 468.059 776.585 468.101 776.363 468.127C776.148 468.153 775.914 468.166 775.66 468.166C774.84 468.166 774.283 467.958 773.99 467.541C773.697 467.118 773.551 466.571 773.551 465.9V458.977H772.135V457.541H773.551V454.621ZM778.766 457.59H780.553V468H778.766V457.59ZM778.766 453.654H780.553V455.646H778.766V453.654ZM787.369 466.867C788.535 466.867 789.332 466.428 789.762 465.549C790.198 464.663 790.416 463.68 790.416 462.6C790.416 461.623 790.26 460.829 789.947 460.217C789.452 459.253 788.6 458.771 787.389 458.771C786.314 458.771 785.533 459.182 785.045 460.002C784.557 460.822 784.312 461.812 784.312 462.971C784.312 464.084 784.557 465.012 785.045 465.754C785.533 466.496 786.308 466.867 787.369 466.867ZM787.438 457.238C788.785 457.238 789.924 457.688 790.855 458.586C791.786 459.484 792.252 460.806 792.252 462.551C792.252 464.237 791.842 465.63 791.021 466.73C790.201 467.831 788.928 468.381 787.203 468.381C785.764 468.381 784.622 467.896 783.775 466.926C782.929 465.949 782.506 464.641 782.506 463C782.506 461.242 782.952 459.842 783.844 458.801C784.736 457.759 785.934 457.238 787.438 457.238ZM794.352 457.541H796.021V459.025C796.516 458.413 797.04 457.974 797.594 457.707C798.147 457.44 798.762 457.307 799.439 457.307C800.924 457.307 801.926 457.824 802.447 458.859C802.734 459.426 802.877 460.236 802.877 461.291V468H801.09V461.408C801.09 460.77 800.995 460.256 800.807 459.865C800.494 459.214 799.928 458.889 799.107 458.889C798.691 458.889 798.349 458.931 798.082 459.016C797.6 459.159 797.177 459.445 796.812 459.875C796.52 460.22 796.327 460.578 796.236 460.949C796.152 461.314 796.109 461.838 796.109 462.521V468H794.352V457.541Z" fill="black"/>
<path id="Wire_NOR" d="M671 351L656 342.34V359.66L671 351ZM571 351V352.5H657.5V351V349.5H571V351ZM375 417.5V419H570V417.5V416H375V417.5ZM571.5 419H573V349.5H571.5H570V419H571.5Z" fill="black"/>
<path id="Wire_XOR" d="M671 276L656 267.34V284.66L671 276ZM571 276V277.5H657.5V276V274.5H571V276ZM379 294V295.5H570V294V292.5H379V294ZM571.5 295.5H573V274.5H571.5H570V295.5H571.5Z" fill="black"/>
<path id="Wire_OR" d="M671 200L656 191.34V208.66L671 200ZM571 200V201.5H657.5V200V198.5H571V200ZM365 172.5V174H570V172.5V171H365V172.5ZM571.5 201.5H573V171H571.5H570V201.5H571.5Z" fill="black"/>
<path id="Wire_AND" d="M671 128L656 119.34V136.66L671 128ZM571 128V129.5H657.5V128V126.5H571V128ZM368 50.5V52H570V50.5V49H368V50.5ZM571.5 129.5H573V49H571.5H570V129.5H571.5Z" fill="black"/>
<path id="x" d="M0.527344 20.1738H4.62305L8.94727 26.8008L13.3242 20.1738L17.1738 20.2617L10.8281 29.3496L17.4551 39H13.4121L8.73633 31.9336L4.20117 39H0.193359L6.82031 29.3496L0.527344 20.1738Z" fill="black"/>
<path id="y" d="M14.0801 432.174H17.5781C17.1328 433.381 16.1426 436.135 14.6074 440.436C13.459 443.67 12.498 446.307 11.7246 448.346C9.89648 453.15 8.60742 456.08 7.85742 457.135C7.10742 458.189 5.81836 458.717 3.99023 458.717C3.54492 458.717 3.19922 458.699 2.95312 458.664C2.71875 458.629 2.42578 458.564 2.07422 458.471V455.588C2.625 455.74 3.02344 455.834 3.26953 455.869C3.51562 455.904 3.73242 455.922 3.91992 455.922C4.50586 455.922 4.93359 455.822 5.20312 455.623C5.48438 455.436 5.71875 455.201 5.90625 454.92C5.96484 454.826 6.17578 454.346 6.53906 453.479C6.90234 452.611 7.16602 451.967 7.33008 451.545L0.369141 432.174H3.95508L9 447.502L14.0801 432.174Z" fill="black"/>
<path id="Logic" d="M941.676 223.178H945.174V245.924H958.252V249H941.676V223.178ZM968.764 246.961C970.861 246.961 972.297 246.17 973.07 244.588C973.855 242.994 974.248 241.225 974.248 239.279C974.248 237.521 973.967 236.092 973.404 234.99C972.514 233.256 970.979 232.389 968.799 232.389C966.865 232.389 965.459 233.127 964.58 234.604C963.701 236.08 963.262 237.861 963.262 239.947C963.262 241.951 963.701 243.621 964.58 244.957C965.459 246.293 966.854 246.961 968.764 246.961ZM968.887 229.629C971.312 229.629 973.363 230.438 975.039 232.055C976.715 233.672 977.553 236.051 977.553 239.191C977.553 242.227 976.814 244.734 975.338 246.715C973.861 248.695 971.57 249.686 968.465 249.686C965.875 249.686 963.818 248.812 962.295 247.066C960.771 245.309 960.01 242.953 960.01 240C960.01 236.836 960.812 234.316 962.418 232.441C964.023 230.566 966.18 229.629 968.887 229.629ZM987.977 229.84C989.453 229.84 990.742 230.203 991.844 230.93C992.441 231.34 993.051 231.938 993.672 232.723V230.35H996.59V247.471C996.59 249.861 996.238 251.748 995.535 253.131C994.223 255.686 991.744 256.963 988.1 256.963C986.072 256.963 984.367 256.506 982.984 255.592C981.602 254.689 980.828 253.271 980.664 251.338H983.881C984.033 252.182 984.338 252.832 984.795 253.289C985.51 253.992 986.635 254.344 988.17 254.344C990.596 254.344 992.184 253.488 992.934 251.777C993.379 250.77 993.584 248.971 993.549 246.381C992.916 247.342 992.154 248.057 991.264 248.525C990.373 248.994 989.195 249.229 987.73 249.229C985.691 249.229 983.904 248.508 982.369 247.066C980.846 245.613 980.084 243.217 980.084 239.877C980.084 236.725 980.852 234.264 982.387 232.494C983.934 230.725 985.797 229.84 987.977 229.84ZM993.672 239.508C993.672 237.176 993.191 235.447 992.23 234.322C991.27 233.197 990.045 232.635 988.557 232.635C986.33 232.635 984.807 233.678 983.986 235.764C983.553 236.877 983.336 238.336 983.336 240.141C983.336 242.262 983.764 243.879 984.619 244.992C985.486 246.094 986.646 246.645 988.1 246.645C990.373 246.645 991.973 245.619 992.898 243.568C993.414 242.408 993.672 241.055 993.672 239.508ZM1001.37 230.262H1004.59V249H1001.37V230.262ZM1001.37 223.178H1004.59V226.764H1001.37V223.178ZM1016.65 229.629C1018.77 229.629 1020.49 230.145 1021.81 231.176C1023.15 232.207 1023.95 233.982 1024.22 236.502H1021.15C1020.96 235.342 1020.53 234.381 1019.86 233.619C1019.2 232.846 1018.12 232.459 1016.65 232.459C1014.63 232.459 1013.19 233.443 1012.32 235.412C1011.76 236.689 1011.48 238.266 1011.48 240.141C1011.48 242.027 1011.88 243.615 1012.67 244.904C1013.47 246.193 1014.72 246.838 1016.44 246.838C1017.75 246.838 1018.79 246.439 1019.55 245.643C1020.32 244.834 1020.85 243.732 1021.15 242.338H1024.22C1023.87 244.834 1022.99 246.662 1021.59 247.822C1020.18 248.971 1018.38 249.545 1016.19 249.545C1013.73 249.545 1011.77 248.648 1010.3 246.855C1008.84 245.051 1008.1 242.801 1008.1 240.105C1008.1 236.801 1008.91 234.229 1010.51 232.389C1012.12 230.549 1014.16 229.629 1016.65 229.629Z" fill="black"/>
</svg>
