<svg width="1026" height="474" viewBox="0 0 1026 474" fill="none" xmlns="http://www.w3.org/2000/svg">
<rect width="1026" height="474" fill="#1E1E1E"/>
<rect id="Background_LU" width="1026" height="474" fill="white"/>
<path id="WireX_LU" d="M268 29L253 20.3397V37.6603L268 29ZM274.5 398L259.5 389.34V406.66L274.5 398ZM273.5 276L258.5 267.34V284.66L273.5 276ZM272.5 150L257.5 141.34V158.66L272.5 150ZM20 29V30.5H89.5V29V27.5H20V29ZM89.5 29V30.5H254.5V29V27.5H89.5V29ZM88 398V399.5H89.5V398V396.5H88V398ZM89.5 398V399.5H261V398V396.5H89.5V398ZM91 276V277.5H260V276V274.5H91V276ZM88 150V151.5H89.5V150V148.5H88V150ZM89.5 150V151.5H259V150V148.5H89.5V150ZM89.5 29L88 29L88 150H89.5H91L91 29L89.5 29ZM89.5 150H88L88 398H89.5H91L91 150H89.5Z" fill="black"/>
<path id="WireY_LU" d="M274 440L259 431.34V448.66L274 440ZM268 73L253 64.3397V81.6603L268 73ZM273 194L258 185.34V202.66L273 194ZM272 321L257 312.34V329.66L272 321ZM20 440V441.5H260.5V440V438.5H20V440ZM161 73V74.5H254.5V73V71.5H161V73ZM161 194V195.5H259.5V194V192.5H161V194ZM161 321V322.5H258.5V321V319.5H161V321ZM162.5 73L161 73L161 440H162.5H164L164 73L162.5 73Z" fill="black"/>
<circle id="Ellipse 3" cx="89.5" cy="29.5" r="7.5" fill="black"/>
<circle id="Ellipse 4" cx="89.5" cy="150.5" r="7.5" fill="black"/>
<circle id="Ellipse 5" cx="89.5" cy="276.5" r="7.5" fill="black"/>
<circle id="Ellipse 6" cx="162.5" cy="439.5" r="7.5" fill="black"/>
<circle id="Ellipse 8" cx="162.5" cy="321.5" r="7.5" fill="black"/>
<circle id="Ellipse 9" cx="162.5" cy="194.5" r="7.5" fill="black"/>
<path id="WireLogic_LU" d="M928 237L913 228.34V245.66L928 237ZM765 237V238.5H914.5V237V235.5H765V237Z" fill="black"/>
<path id="WireLogicFunc_LU" d="M729 362L720.34 377L737.66 377L729 362ZM729 446H730.5L730.5 375.5L729 375.5L727.5 375.5L727.5 446H729Z" fill="black"/>
<line id="Line 12" x1="715.939" y1="424.939" x2="741.939" y2="398.939" stroke="black" stroke-width="3"/>
<path id="2" d="M743.625 418C743.69 416.796 743.938 415.747 744.367 414.855C744.803 413.964 745.65 413.153 746.906 412.424L748.781 411.34C749.621 410.852 750.21 410.435 750.549 410.09C751.083 409.549 751.35 408.931 751.35 408.234C751.35 407.421 751.105 406.776 750.617 406.301C750.129 405.819 749.478 405.578 748.664 405.578C747.46 405.578 746.626 406.034 746.164 406.945C745.917 407.434 745.78 408.111 745.754 408.977H743.967C743.986 407.759 744.211 406.766 744.641 405.998C745.402 404.644 746.747 403.967 748.674 403.967C750.275 403.967 751.444 404.4 752.18 405.266C752.922 406.132 753.293 407.095 753.293 408.156C753.293 409.276 752.899 410.233 752.111 411.027C751.656 411.49 750.839 412.049 749.66 412.707L748.322 413.449C747.684 413.801 747.183 414.136 746.818 414.455C746.167 415.021 745.757 415.65 745.588 416.34H753.225V418H743.625Z" fill="black"/>
<path id="Logic Function" d="M675.523 453.654H677.467V466.291H684.732V468H675.523V453.654ZM690.572 466.867C691.738 466.867 692.535 466.428 692.965 465.549C693.401 464.663 693.619 463.68 693.619 462.6C693.619 461.623 693.463 460.829 693.15 460.217C692.656 459.253 691.803 458.771 690.592 458.771C689.518 458.771 688.736 459.182 688.248 460.002C687.76 460.822 687.516 461.812 687.516 462.971C687.516 464.084 687.76 465.012 688.248 465.754C688.736 466.496 689.511 466.867 690.572 466.867ZM690.641 457.238C691.988 457.238 693.128 457.688 694.059 458.586C694.99 459.484 695.455 460.806 695.455 462.551C695.455 464.237 695.045 465.63 694.225 466.73C693.404 467.831 692.132 468.381 690.406 468.381C688.967 468.381 687.825 467.896 686.979 466.926C686.132 465.949 685.709 464.641 685.709 463C685.709 461.242 686.155 459.842 687.047 458.801C687.939 457.759 689.137 457.238 690.641 457.238ZM701.246 457.355C702.066 457.355 702.783 457.557 703.395 457.961C703.727 458.189 704.065 458.521 704.41 458.957V457.639H706.031V467.15C706.031 468.479 705.836 469.527 705.445 470.295C704.716 471.714 703.339 472.424 701.314 472.424C700.188 472.424 699.241 472.17 698.473 471.662C697.704 471.161 697.275 470.373 697.184 469.299H698.971C699.055 469.768 699.225 470.129 699.479 470.383C699.876 470.773 700.501 470.969 701.354 470.969C702.701 470.969 703.583 470.493 704 469.543C704.247 468.983 704.361 467.984 704.342 466.545C703.99 467.079 703.567 467.476 703.072 467.736C702.577 467.997 701.923 468.127 701.109 468.127C699.977 468.127 698.984 467.727 698.131 466.926C697.285 466.118 696.861 464.787 696.861 462.932C696.861 461.18 697.288 459.813 698.141 458.83C699 457.847 700.035 457.355 701.246 457.355ZM704.41 462.727C704.41 461.431 704.143 460.471 703.609 459.846C703.076 459.221 702.395 458.908 701.568 458.908C700.331 458.908 699.485 459.488 699.029 460.646C698.788 461.265 698.668 462.076 698.668 463.078C698.668 464.257 698.906 465.155 699.381 465.773C699.863 466.385 700.507 466.691 701.314 466.691C702.577 466.691 703.466 466.122 703.98 464.982C704.267 464.338 704.41 463.586 704.41 462.727ZM708.688 457.59H710.475V468H708.688V457.59ZM708.688 453.654H710.475V455.646H708.688V453.654ZM717.174 457.238C718.352 457.238 719.309 457.525 720.045 458.098C720.787 458.671 721.233 459.657 721.383 461.057H719.674C719.57 460.412 719.332 459.878 718.961 459.455C718.59 459.025 717.994 458.811 717.174 458.811C716.054 458.811 715.253 459.357 714.771 460.451C714.459 461.161 714.303 462.036 714.303 463.078C714.303 464.126 714.524 465.008 714.967 465.725C715.41 466.441 716.106 466.799 717.057 466.799C717.786 466.799 718.362 466.577 718.785 466.135C719.215 465.686 719.511 465.074 719.674 464.299H721.383C721.188 465.686 720.699 466.701 719.918 467.346C719.137 467.984 718.137 468.303 716.92 468.303C715.553 468.303 714.462 467.805 713.648 466.809C712.835 465.806 712.428 464.556 712.428 463.059C712.428 461.223 712.874 459.794 713.766 458.771C714.658 457.749 715.794 457.238 717.174 457.238ZM729.127 453.654H739.078V455.412H731.07V459.768H738.111V461.477H731.07V468H729.127V453.654ZM742.691 457.541V464.484C742.691 465.018 742.776 465.454 742.945 465.793C743.258 466.418 743.84 466.73 744.693 466.73C745.917 466.73 746.751 466.184 747.193 465.09C747.434 464.504 747.555 463.7 747.555 462.678V457.541H749.312V468H747.652L747.672 466.457C747.444 466.854 747.161 467.189 746.822 467.463C746.152 468.01 745.338 468.283 744.381 468.283C742.89 468.283 741.874 467.785 741.334 466.789C741.041 466.255 740.895 465.542 740.895 464.65V457.541H742.691ZM752.066 457.541H753.736V459.025C754.231 458.413 754.755 457.974 755.309 457.707C755.862 457.44 756.477 457.307 757.154 457.307C758.639 457.307 759.641 457.824 760.162 458.859C760.449 459.426 760.592 460.236 760.592 461.291V468H758.805V461.408C758.805 460.77 758.71 460.256 758.521 459.865C758.209 459.214 757.643 458.889 756.822 458.889C756.406 458.889 756.064 458.931 755.797 459.016C755.315 459.159 754.892 459.445 754.527 459.875C754.234 460.22 754.042 460.578 753.951 460.949C753.867 461.314 753.824 461.838 753.824 462.521V468H752.066V457.541ZM767.232 457.238C768.411 457.238 769.368 457.525 770.104 458.098C770.846 458.671 771.292 459.657 771.441 461.057H769.732C769.628 460.412 769.391 459.878 769.02 459.455C768.648 459.025 768.053 458.811 767.232 458.811C766.113 458.811 765.312 459.357 764.83 460.451C764.518 461.161 764.361 462.036 764.361 463.078C764.361 464.126 764.583 465.008 765.025 465.725C765.468 466.441 766.165 466.799 767.115 466.799C767.844 466.799 768.421 466.577 768.844 466.135C769.273 465.686 769.57 465.074 769.732 464.299H771.441C771.246 465.686 770.758 466.701 769.977 467.346C769.195 467.984 768.196 468.303 766.979 468.303C765.611 468.303 764.521 467.805 763.707 466.809C762.893 465.806 762.486 464.556 762.486 463.059C762.486 461.223 762.932 459.794 763.824 458.771C764.716 457.749 765.852 457.238 767.232 457.238ZM773.551 454.621H775.328V457.541H776.998V458.977H775.328V465.803C775.328 466.167 775.452 466.411 775.699 466.535C775.836 466.607 776.064 466.643 776.383 466.643C776.467 466.643 776.559 466.643 776.656 466.643C776.754 466.636 776.868 466.626 776.998 466.613V468C776.796 468.059 776.585 468.101 776.363 468.127C776.148 468.153 775.914 468.166 775.66 468.166C774.84 468.166 774.283 467.958 773.99 467.541C773.697 467.118 773.551 466.571 773.551 465.9V458.977H772.135V457.541H773.551V454.621ZM778.766 457.59H780.553V468H778.766V457.59ZM778.766 453.654H780.553V455.646H778.766V453.654ZM787.369 466.867C788.535 466.867 789.332 466.428 789.762 465.549C790.198 464.663 790.416 463.68 790.416 462.6C790.416 461.623 790.26 460.829 789.947 460.217C789.452 459.253 788.6 458.771 787.389 458.771C786.314 458.771 785.533 459.182 785.045 460.002C784.557 460.822 784.312 461.812 784.312 462.971C784.312 464.084 784.557 465.012 785.045 465.754C785.533 466.496 786.308 466.867 787.369 466.867ZM787.438 457.238C788.785 457.238 789.924 457.688 790.855 458.586C791.786 459.484 792.252 460.806 792.252 462.551C792.252 464.237 791.842 465.63 791.021 466.73C790.201 467.831 788.928 468.381 787.203 468.381C785.764 468.381 784.622 467.896 783.775 466.926C782.929 465.949 782.506 464.641 782.506 463C782.506 461.242 782.952 459.842 783.844 458.801C784.736 457.759 785.934 457.238 787.438 457.238ZM794.352 457.541H796.021V459.025C796.516 458.413 797.04 457.974 797.594 457.707C798.147 457.44 798.762 457.307 799.439 457.307C800.924 457.307 801.926 457.824 802.447 458.859C802.734 459.426 802.877 460.236 802.877 461.291V468H801.09V461.408C801.09 460.77 800.995 460.256 800.807 459.865C800.494 459.214 799.928 458.889 799.107 458.889C798.691 458.889 798.349 458.931 798.082 459.016C797.6 459.159 797.177 459.445 796.812 459.875C796.52 460.22 796.327 460.578 796.236 460.949C796.152 461.314 796.109 461.838 796.109 462.521V468H794.352V457.541Z" fill="black"/>
<path id="WireNOR" d="M671 351L656 342.34V359.66L671 351ZM571 351V352.5H657.5V351V349.5H571V351ZM375.5 417V418.5H570.5V417V415.5H375.5V417ZM571.5 418.5H573V349.5H571.5H570V418.5H571.5Z" fill="black"/>
<path id="WireXOR" d="M671 276L656 267.34V284.66L671 276ZM571 276V277.5H657.5V276V274.5H571V276ZM379 295.5V297H573V295.5V294H379V295.5ZM571.5 295.5H573V274.5H571.5H570V295.5H571.5Z" fill="black"/>
<path id="WireOR" d="M671 200L656 191.34V208.66L671 200ZM571 200V201.5H657.5V200V198.5H571V200ZM365 172.5V174H570V172.5V171H365V172.5ZM571.5 201.5H573V171H571.5H570V201.5H571.5Z" fill="black"/>
<path id="WireAND" d="M671 128L656 119.34V136.66L671 128ZM571 128V129.5H657.5V128V126.5H571V128ZM368 50.5V52H570V50.5V49H368V50.5ZM571.5 129.5H573V49H571.5H570V129.5H571.5Z" fill="black"/>
<path id="x" d="M0.527344 20.1738H4.62305L8.94727 26.8008L13.3242 20.1738L17.1738 20.2617L10.8281 29.3496L17.4551 39H13.4121L8.73633 31.9336L4.20117 39H0.193359L6.82031 29.3496L0.527344 20.1738Z" fill="black"/>
<path id="y" d="M14.0801 432.174H17.5781C17.1328 433.381 16.1426 436.135 14.6074 440.436C13.459 443.67 12.498 446.307 11.7246 448.346C9.89648 453.15 8.60742 456.08 7.85742 457.135C7.10742 458.189 5.81836 458.717 3.99023 458.717C3.54492 458.717 3.19922 458.699 2.95312 458.664C2.71875 458.629 2.42578 458.564 2.07422 458.471V455.588C2.625 455.74 3.02344 455.834 3.26953 455.869C3.51562 455.904 3.73242 455.922 3.91992 455.922C4.50586 455.922 4.93359 455.822 5.20312 455.623C5.48438 455.436 5.71875 455.201 5.90625 454.92C5.96484 454.826 6.17578 454.346 6.53906 453.479C6.90234 452.611 7.16602 451.967 7.33008 451.545L0.369141 432.174H3.95508L9 447.502L14.0801 432.174Z" fill="black"/>
<path id="Logic" d="M941.676 223.178H945.174V245.924H958.252V249H941.676V223.178ZM968.764 246.961C970.861 246.961 972.297 246.17 973.07 244.588C973.855 242.994 974.248 241.225 974.248 239.279C974.248 237.521 973.967 236.092 973.404 234.99C972.514 233.256 970.979 232.389 968.799 232.389C966.865 232.389 965.459 233.127 964.58 234.604C963.701 236.08 963.262 237.861 963.262 239.947C963.262 241.951 963.701 243.621 964.58 244.957C965.459 246.293 966.854 246.961 968.764 246.961ZM968.887 229.629C971.312 229.629 973.363 230.438 975.039 232.055C976.715 233.672 977.553 236.051 977.553 239.191C977.553 242.227 976.814 244.734 975.338 246.715C973.861 248.695 971.57 249.686 968.465 249.686C965.875 249.686 963.818 248.812 962.295 247.066C960.771 245.309 960.01 242.953 960.01 240C960.01 236.836 960.812 234.316 962.418 232.441C964.023 230.566 966.18 229.629 968.887 229.629ZM987.977 229.84C989.453 229.84 990.742 230.203 991.844 230.93C992.441 231.34 993.051 231.938 993.672 232.723V230.35H996.59V247.471C996.59 249.861 996.238 251.748 995.535 253.131C994.223 255.686 991.744 256.963 988.1 256.963C986.072 256.963 984.367 256.506 982.984 255.592C981.602 254.689 980.828 253.271 980.664 251.338H983.881C984.033 252.182 984.338 252.832 984.795 253.289C985.51 253.992 986.635 254.344 988.17 254.344C990.596 254.344 992.184 253.488 992.934 251.777C993.379 250.77 993.584 248.971 993.549 246.381C992.916 247.342 992.154 248.057 991.264 248.525C990.373 248.994 989.195 249.229 987.73 249.229C985.691 249.229 983.904 248.508 982.369 247.066C980.846 245.613 980.084 243.217 980.084 239.877C980.084 236.725 980.852 234.264 982.387 232.494C983.934 230.725 985.797 229.84 987.977 229.84ZM993.672 239.508C993.672 237.176 993.191 235.447 992.23 234.322C991.27 233.197 990.045 232.635 988.557 232.635C986.33 232.635 984.807 233.678 983.986 235.764C983.553 236.877 983.336 238.336 983.336 240.141C983.336 242.262 983.764 243.879 984.619 244.992C985.486 246.094 986.646 246.645 988.1 246.645C990.373 246.645 991.973 245.619 992.898 243.568C993.414 242.408 993.672 241.055 993.672 239.508ZM1001.37 230.262H1004.59V249H1001.37V230.262ZM1001.37 223.178H1004.59V226.764H1001.37V223.178ZM1016.65 229.629C1018.77 229.629 1020.49 230.145 1021.81 231.176C1023.15 232.207 1023.95 233.982 1024.22 236.502H1021.15C1020.96 235.342 1020.53 234.381 1019.86 233.619C1019.2 232.846 1018.12 232.459 1016.65 232.459C1014.63 232.459 1013.19 233.443 1012.32 235.412C1011.76 236.689 1011.48 238.266 1011.48 240.141C1011.48 242.027 1011.88 243.615 1012.67 244.904C1013.47 246.193 1014.72 246.838 1016.44 246.838C1017.75 246.838 1018.79 246.439 1019.55 245.643C1020.32 244.834 1020.85 243.732 1021.15 242.338H1024.22C1023.87 244.834 1022.99 246.662 1021.59 247.822C1020.18 248.971 1018.38 249.545 1016.19 249.545C1013.73 249.545 1011.77 248.648 1010.3 246.855C1008.84 245.051 1008.1 242.801 1008.1 240.105C1008.1 236.801 1008.91 234.229 1010.51 232.389C1012.12 230.549 1014.16 229.629 1016.65 229.629Z" fill="black"/>
<g id="AND_LU">
<path id="AND Gate" d="M269.5 8.80566C273.368 8.29347 285.675 6.91263 300.476 7.7793C318.501 8.83481 339.902 13.2079 354.382 26.209C360.951 32.1069 364.22 38.3346 365.854 43.0703C366.671 45.441 367.08 47.4412 367.286 48.8408C367.389 49.5403 367.442 50.0903 367.469 50.4609C367.482 50.6456 367.49 50.7872 367.494 50.8828C367.496 50.9324 367.498 50.9671 367.499 51C367.499 51.003 367.499 51.0069 367.499 51.0107C367.499 51.0268 367.498 51.0486 367.497 51.0762C367.494 51.1544 367.489 51.2786 367.477 51.4453C367.452 51.7787 367.403 52.2823 367.303 52.9307C367.102 54.2281 366.698 56.1038 365.883 58.3545C364.255 62.8485 360.983 68.8641 354.382 74.791C339.894 87.7992 318.478 92.1702 300.446 93.2227C291.465 93.7468 283.401 93.4433 277.581 93.0088C274.673 92.7916 272.328 92.5426 270.714 92.3477C270.246 92.2912 269.841 92.2385 269.5 92.1934V8.80566Z" fill="white" stroke="black" stroke-width="3"/>
</g>
<g id="OR_LU">
<path id="ORGate" d="M369 172.5C347.436 201.175 318.057 216.333 288.2 217H268C279.201 182.339 279.203 162.846 268 128H288.2C318.057 128.667 347.436 143.825 369 172.5Z" fill="white" stroke="black" stroke-width="3"/>
</g>
<g id="XOR_LU">
<g id="ORGate_2">
<path id="ORGate_3" d="M379 295.5C357.436 324.175 328.057 339.333 298.2 340H278C289.201 305.339 289.203 285.846 278 251H298.2C328.057 251.667 357.436 266.825 379 295.5Z" fill="white" stroke="black" stroke-width="3"/>
</g>
<path id="XOR" d="M268 251C278.465 285.757 278.604 305.243 268 340" stroke="black" stroke-width="3"/>
</g>
<g id="NOR_LU">
<circle id="Not" cx="374" cy="417" r="3" fill="white" stroke="black" stroke-width="2"/>
<g id="ORGate_4">
<path id="ORGate_5" d="M370 416.5C348.436 445.175 319.057 460.333 289.2 461H269C280.201 426.339 280.203 406.846 269 372H289.2C319.057 372.667 348.436 387.825 370 416.5Z" fill="white" stroke="black" stroke-width="3"/>
</g>
</g>
<g id="4_1MUX_LU">
<path id="MUX" d="M763.5 138.096V336.903L672.5 399.156V75.8428L763.5 138.096Z" fill="white" stroke="black" stroke-width="3"/>
<path id="0" d="M682.492 116.219C684.664 116.219 686.234 117.113 687.203 118.902C687.953 120.285 688.328 122.18 688.328 124.586C688.328 126.867 687.988 128.754 687.309 130.246C686.324 132.387 684.715 133.457 682.48 133.457C680.465 133.457 678.965 132.582 677.98 130.832C677.16 129.371 676.75 127.41 676.75 124.949C676.75 123.043 676.996 121.406 677.488 120.039C678.41 117.492 680.078 116.219 682.492 116.219ZM682.469 131.535C683.562 131.535 684.434 131.051 685.082 130.082C685.73 129.113 686.055 127.309 686.055 124.668C686.055 122.762 685.82 121.195 685.352 119.969C684.883 118.734 683.973 118.117 682.621 118.117C681.379 118.117 680.469 118.703 679.891 119.875C679.32 121.039 679.035 122.758 679.035 125.031C679.035 126.742 679.219 128.117 679.586 129.156C680.148 130.742 681.109 131.535 682.469 131.535Z" fill="black"/>
<path id="1" d="M678.297 194.117V192.5C679.82 192.352 680.883 192.105 681.484 191.762C682.086 191.41 682.535 190.586 682.832 189.289H684.496V206H682.246V194.117H678.297Z" fill="black"/>
<path id="2_2" d="M676.75 280C676.828 278.555 677.125 277.297 677.641 276.227C678.164 275.156 679.18 274.184 680.688 273.309L682.938 272.008C683.945 271.422 684.652 270.922 685.059 270.508C685.699 269.859 686.02 269.117 686.02 268.281C686.02 267.305 685.727 266.531 685.141 265.961C684.555 265.383 683.773 265.094 682.797 265.094C681.352 265.094 680.352 265.641 679.797 266.734C679.5 267.32 679.336 268.133 679.305 269.172H677.16C677.184 267.711 677.453 266.52 677.969 265.598C678.883 263.973 680.496 263.16 682.809 263.16C684.73 263.16 686.133 263.68 687.016 264.719C687.906 265.758 688.352 266.914 688.352 268.188C688.352 269.531 687.879 270.68 686.934 271.633C686.387 272.188 685.406 272.859 683.992 273.648L682.387 274.539C681.621 274.961 681.02 275.363 680.582 275.746C679.801 276.426 679.309 277.18 679.105 278.008H688.27V280H676.75Z" fill="black"/>
<path id="3" d="M682.234 353.457C680.25 353.457 678.809 352.914 677.91 351.828C677.02 350.734 676.574 349.406 676.574 347.844H678.777C678.871 348.93 679.074 349.719 679.387 350.211C679.934 351.094 680.922 351.535 682.352 351.535C683.461 351.535 684.352 351.238 685.023 350.645C685.695 350.051 686.031 349.285 686.031 348.348C686.031 347.191 685.676 346.383 684.965 345.922C684.262 345.461 683.281 345.23 682.023 345.23C681.883 345.23 681.738 345.234 681.59 345.242C681.449 345.242 681.305 345.246 681.156 345.254V343.391C681.375 343.414 681.559 343.43 681.707 343.438C681.855 343.445 682.016 343.449 682.188 343.449C682.977 343.449 683.625 343.324 684.133 343.074C685.023 342.637 685.469 341.855 685.469 340.73C685.469 339.895 685.172 339.25 684.578 338.797C683.984 338.344 683.293 338.117 682.504 338.117C681.098 338.117 680.125 338.586 679.586 339.523C679.289 340.039 679.121 340.773 679.082 341.727H676.996C676.996 340.477 677.246 339.414 677.746 338.539C678.605 336.977 680.117 336.195 682.281 336.195C683.992 336.195 685.316 336.578 686.254 337.344C687.191 338.102 687.66 339.203 687.66 340.648C687.66 341.68 687.383 342.516 686.828 343.156C686.484 343.555 686.039 343.867 685.492 344.094C686.375 344.336 687.062 344.805 687.555 345.5C688.055 346.188 688.305 347.031 688.305 348.031C688.305 349.633 687.777 350.938 686.723 351.945C685.668 352.953 684.172 353.457 682.234 353.457Z" fill="black"/>
</g>
</svg>
