<svg width="1050" height="505" viewBox="0 0 1050 505" fill="none" xmlns="http://www.w3.org/2000/svg">
<rect width="1050" height="505" fill="#1E1E1E"/>
<rect id="Background_LU" width="1050" height="505" fill="white"/>
<line id="Line 12" x1="729.939" y1="439.939" x2="755.939" y2="413.939" stroke="black" stroke-width="3"/>
<path id="x" d="M14.5273 35.1738H18.623L22.9473 41.8008L27.3242 35.1738L31.1738 35.2617L24.8281 44.3496L31.4551 54H27.4121L22.7363 46.9336L18.2012 54H14.1934L20.8203 44.3496L14.5273 35.1738Z" fill="black"/>
<path id="y" d="M28.0801 447.174H31.5781C31.1328 448.381 30.1426 451.135 28.6074 455.436C27.459 458.67 26.498 461.307 25.7246 463.346C23.8965 468.15 22.6074 471.08 21.8574 472.135C21.1074 473.189 19.8184 473.717 17.9902 473.717C17.5449 473.717 17.1992 473.699 16.9531 473.664C16.7188 473.629 16.4258 473.564 16.0742 473.471V470.588C16.625 470.74 17.0234 470.834 17.2695 470.869C17.5156 470.904 17.7324 470.922 17.9199 470.922C18.5059 470.922 18.9336 470.822 19.2031 470.623C19.4844 470.436 19.7188 470.201 19.9062 469.92C19.9648 469.826 20.1758 469.346 20.5391 468.479C20.9023 467.611 21.166 466.967 21.3301 466.545L14.3691 447.174H17.9551L23 462.502L28.0801 447.174Z" fill="black"/>
<path id="Logic Function" d="M689.523 468.654H691.467V481.291H698.732V483H689.523V468.654ZM704.572 481.867C705.738 481.867 706.535 481.428 706.965 480.549C707.401 479.663 707.619 478.68 707.619 477.6C707.619 476.623 707.463 475.829 707.15 475.217C706.656 474.253 705.803 473.771 704.592 473.771C703.518 473.771 702.736 474.182 702.248 475.002C701.76 475.822 701.516 476.812 701.516 477.971C701.516 479.084 701.76 480.012 702.248 480.754C702.736 481.496 703.511 481.867 704.572 481.867ZM704.641 472.238C705.988 472.238 707.128 472.688 708.059 473.586C708.99 474.484 709.455 475.806 709.455 477.551C709.455 479.237 709.045 480.63 708.225 481.73C707.404 482.831 706.132 483.381 704.406 483.381C702.967 483.381 701.825 482.896 700.979 481.926C700.132 480.949 699.709 479.641 699.709 478C699.709 476.242 700.155 474.842 701.047 473.801C701.939 472.759 703.137 472.238 704.641 472.238ZM715.246 472.355C716.066 472.355 716.783 472.557 717.395 472.961C717.727 473.189 718.065 473.521 718.41 473.957V472.639H720.031V482.15C720.031 483.479 719.836 484.527 719.445 485.295C718.716 486.714 717.339 487.424 715.314 487.424C714.188 487.424 713.241 487.17 712.473 486.662C711.704 486.161 711.275 485.373 711.184 484.299H712.971C713.055 484.768 713.225 485.129 713.479 485.383C713.876 485.773 714.501 485.969 715.354 485.969C716.701 485.969 717.583 485.493 718 484.543C718.247 483.983 718.361 482.984 718.342 481.545C717.99 482.079 717.567 482.476 717.072 482.736C716.577 482.997 715.923 483.127 715.109 483.127C713.977 483.127 712.984 482.727 712.131 481.926C711.285 481.118 710.861 479.787 710.861 477.932C710.861 476.18 711.288 474.813 712.141 473.83C713 472.847 714.035 472.355 715.246 472.355ZM718.41 477.727C718.41 476.431 718.143 475.471 717.609 474.846C717.076 474.221 716.395 473.908 715.568 473.908C714.331 473.908 713.485 474.488 713.029 475.646C712.788 476.265 712.668 477.076 712.668 478.078C712.668 479.257 712.906 480.155 713.381 480.773C713.863 481.385 714.507 481.691 715.314 481.691C716.577 481.691 717.466 481.122 717.98 479.982C718.267 479.338 718.41 478.586 718.41 477.727ZM722.688 472.59H724.475V483H722.688V472.59ZM722.688 468.654H724.475V470.646H722.688V468.654ZM731.174 472.238C732.352 472.238 733.309 472.525 734.045 473.098C734.787 473.671 735.233 474.657 735.383 476.057H733.674C733.57 475.412 733.332 474.878 732.961 474.455C732.59 474.025 731.994 473.811 731.174 473.811C730.054 473.811 729.253 474.357 728.771 475.451C728.459 476.161 728.303 477.036 728.303 478.078C728.303 479.126 728.524 480.008 728.967 480.725C729.41 481.441 730.106 481.799 731.057 481.799C731.786 481.799 732.362 481.577 732.785 481.135C733.215 480.686 733.511 480.074 733.674 479.299H735.383C735.188 480.686 734.699 481.701 733.918 482.346C733.137 482.984 732.137 483.303 730.92 483.303C729.553 483.303 728.462 482.805 727.648 481.809C726.835 480.806 726.428 479.556 726.428 478.059C726.428 476.223 726.874 474.794 727.766 473.771C728.658 472.749 729.794 472.238 731.174 472.238ZM743.127 468.654H753.078V470.412H745.07V474.768H752.111V476.477H745.07V483H743.127V468.654ZM756.691 472.541V479.484C756.691 480.018 756.776 480.454 756.945 480.793C757.258 481.418 757.84 481.73 758.693 481.73C759.917 481.73 760.751 481.184 761.193 480.09C761.434 479.504 761.555 478.7 761.555 477.678V472.541H763.312V483H761.652L761.672 481.457C761.444 481.854 761.161 482.189 760.822 482.463C760.152 483.01 759.338 483.283 758.381 483.283C756.89 483.283 755.874 482.785 755.334 481.789C755.041 481.255 754.895 480.542 754.895 479.65V472.541H756.691ZM766.066 472.541H767.736V474.025C768.231 473.413 768.755 472.974 769.309 472.707C769.862 472.44 770.477 472.307 771.154 472.307C772.639 472.307 773.641 472.824 774.162 473.859C774.449 474.426 774.592 475.236 774.592 476.291V483H772.805V476.408C772.805 475.77 772.71 475.256 772.521 474.865C772.209 474.214 771.643 473.889 770.822 473.889C770.406 473.889 770.064 473.931 769.797 474.016C769.315 474.159 768.892 474.445 768.527 474.875C768.234 475.22 768.042 475.578 767.951 475.949C767.867 476.314 767.824 476.838 767.824 477.521V483H766.066V472.541ZM781.232 472.238C782.411 472.238 783.368 472.525 784.104 473.098C784.846 473.671 785.292 474.657 785.441 476.057H783.732C783.628 475.412 783.391 474.878 783.02 474.455C782.648 474.025 782.053 473.811 781.232 473.811C780.113 473.811 779.312 474.357 778.83 475.451C778.518 476.161 778.361 477.036 778.361 478.078C778.361 479.126 778.583 480.008 779.025 480.725C779.468 481.441 780.165 481.799 781.115 481.799C781.844 481.799 782.421 481.577 782.844 481.135C783.273 480.686 783.57 480.074 783.732 479.299H785.441C785.246 480.686 784.758 481.701 783.977 482.346C783.195 482.984 782.196 483.303 780.979 483.303C779.611 483.303 778.521 482.805 777.707 481.809C776.893 480.806 776.486 479.556 776.486 478.059C776.486 476.223 776.932 474.794 777.824 473.771C778.716 472.749 779.852 472.238 781.232 472.238ZM787.551 469.621H789.328V472.541H790.998V473.977H789.328V480.803C789.328 481.167 789.452 481.411 789.699 481.535C789.836 481.607 790.064 481.643 790.383 481.643C790.467 481.643 790.559 481.643 790.656 481.643C790.754 481.636 790.868 481.626 790.998 481.613V483C790.796 483.059 790.585 483.101 790.363 483.127C790.148 483.153 789.914 483.166 789.66 483.166C788.84 483.166 788.283 482.958 787.99 482.541C787.697 482.118 787.551 481.571 787.551 480.9V473.977H786.135V472.541H787.551V469.621ZM792.766 472.59H794.553V483H792.766V472.59ZM792.766 468.654H794.553V470.646H792.766V468.654ZM801.369 481.867C802.535 481.867 803.332 481.428 803.762 480.549C804.198 479.663 804.416 478.68 804.416 477.6C804.416 476.623 804.26 475.829 803.947 475.217C803.452 474.253 802.6 473.771 801.389 473.771C800.314 473.771 799.533 474.182 799.045 475.002C798.557 475.822 798.312 476.812 798.312 477.971C798.312 479.084 798.557 480.012 799.045 480.754C799.533 481.496 800.308 481.867 801.369 481.867ZM801.438 472.238C802.785 472.238 803.924 472.688 804.855 473.586C805.786 474.484 806.252 475.806 806.252 477.551C806.252 479.237 805.842 480.63 805.021 481.73C804.201 482.831 802.928 483.381 801.203 483.381C799.764 483.381 798.622 482.896 797.775 481.926C796.929 480.949 796.506 479.641 796.506 478C796.506 476.242 796.952 474.842 797.844 473.801C798.736 472.759 799.934 472.238 801.438 472.238ZM808.352 472.541H810.021V474.025C810.516 473.413 811.04 472.974 811.594 472.707C812.147 472.44 812.762 472.307 813.439 472.307C814.924 472.307 815.926 472.824 816.447 473.859C816.734 474.426 816.877 475.236 816.877 476.291V483H815.09V476.408C815.09 475.77 814.995 475.256 814.807 474.865C814.494 474.214 813.928 473.889 813.107 473.889C812.691 473.889 812.349 473.931 812.082 474.016C811.6 474.159 811.177 474.445 810.812 474.875C810.52 475.22 810.327 475.578 810.236 475.949C810.152 476.314 810.109 476.838 810.109 477.521V483H808.352V472.541Z" fill="black"/>
<path id="Logic" d="M955.676 238.178H959.174V260.924H972.252V264H955.676V238.178ZM982.764 261.961C984.861 261.961 986.297 261.17 987.07 259.588C987.855 257.994 988.248 256.225 988.248 254.279C988.248 252.521 987.967 251.092 987.404 249.99C986.514 248.256 984.979 247.389 982.799 247.389C980.865 247.389 979.459 248.127 978.58 249.604C977.701 251.08 977.262 252.861 977.262 254.947C977.262 256.951 977.701 258.621 978.58 259.957C979.459 261.293 980.854 261.961 982.764 261.961ZM982.887 244.629C985.312 244.629 987.363 245.438 989.039 247.055C990.715 248.672 991.553 251.051 991.553 254.191C991.553 257.227 990.814 259.734 989.338 261.715C987.861 263.695 985.57 264.686 982.465 264.686C979.875 264.686 977.818 263.812 976.295 262.066C974.771 260.309 974.01 257.953 974.01 255C974.01 251.836 974.812 249.316 976.418 247.441C978.023 245.566 980.18 244.629 982.887 244.629ZM1001.98 244.84C1003.45 244.84 1004.74 245.203 1005.84 245.93C1006.44 246.34 1007.05 246.938 1007.67 247.723V245.35H1010.59V262.471C1010.59 264.861 1010.24 266.748 1009.54 268.131C1008.22 270.686 1005.74 271.963 1002.1 271.963C1000.07 271.963 998.367 271.506 996.984 270.592C995.602 269.689 994.828 268.271 994.664 266.338H997.881C998.033 267.182 998.338 267.832 998.795 268.289C999.51 268.992 1000.63 269.344 1002.17 269.344C1004.6 269.344 1006.18 268.488 1006.93 266.777C1007.38 265.77 1007.58 263.971 1007.55 261.381C1006.92 262.342 1006.15 263.057 1005.26 263.525C1004.37 263.994 1003.2 264.229 1001.73 264.229C999.691 264.229 997.904 263.508 996.369 262.066C994.846 260.613 994.084 258.217 994.084 254.877C994.084 251.725 994.852 249.264 996.387 247.494C997.934 245.725 999.797 244.84 1001.98 244.84ZM1007.67 254.508C1007.67 252.176 1007.19 250.447 1006.23 249.322C1005.27 248.197 1004.04 247.635 1002.56 247.635C1000.33 247.635 998.807 248.678 997.986 250.764C997.553 251.877 997.336 253.336 997.336 255.141C997.336 257.262 997.764 258.879 998.619 259.992C999.486 261.094 1000.65 261.645 1002.1 261.645C1004.37 261.645 1005.97 260.619 1006.9 258.568C1007.41 257.408 1007.67 256.055 1007.67 254.508ZM1015.37 245.262H1018.59V264H1015.37V245.262ZM1015.37 238.178H1018.59V241.764H1015.37V238.178ZM1030.65 244.629C1032.77 244.629 1034.49 245.145 1035.81 246.176C1037.15 247.207 1037.95 248.982 1038.22 251.502H1035.15C1034.96 250.342 1034.53 249.381 1033.86 248.619C1033.2 247.846 1032.12 247.459 1030.65 247.459C1028.63 247.459 1027.19 248.443 1026.32 250.412C1025.76 251.689 1025.48 253.266 1025.48 255.141C1025.48 257.027 1025.88 258.615 1026.67 259.904C1027.47 261.193 1028.72 261.838 1030.44 261.838C1031.75 261.838 1032.79 261.439 1033.55 260.643C1034.32 259.834 1034.85 258.732 1035.15 257.338H1038.22C1037.87 259.834 1036.99 261.662 1035.59 262.822C1034.18 263.971 1032.38 264.545 1030.19 264.545C1027.73 264.545 1025.77 263.648 1024.3 261.855C1022.84 260.051 1022.1 257.801 1022.1 255.105C1022.1 251.801 1022.91 249.229 1024.51 247.389C1026.12 245.549 1028.16 244.629 1030.65 244.629Z" fill="black"/>
<path id="2" d="M757.625 433C757.69 431.796 757.938 430.747 758.367 429.855C758.803 428.964 759.65 428.153 760.906 427.424L762.781 426.34C763.621 425.852 764.21 425.435 764.549 425.09C765.083 424.549 765.35 423.931 765.35 423.234C765.35 422.421 765.105 421.776 764.617 421.301C764.129 420.819 763.478 420.578 762.664 420.578C761.46 420.578 760.626 421.034 760.164 421.945C759.917 422.434 759.78 423.111 759.754 423.977H757.967C757.986 422.759 758.211 421.766 758.641 420.998C759.402 419.644 760.747 418.967 762.674 418.967C764.275 418.967 765.444 419.4 766.18 420.266C766.922 421.132 767.293 422.095 767.293 423.156C767.293 424.276 766.899 425.233 766.111 426.027C765.656 426.49 764.839 427.049 763.66 427.707L762.322 428.449C761.684 428.801 761.183 429.136 760.818 429.455C760.167 430.021 759.757 430.65 759.588 431.34H767.225V433H757.625Z" fill="black"/>
<path id="WireX_LU" d="M282 44L267 52.6602V45.5H110.932C110.509 48.6736 108.103 51.2196 105 51.8496V158.149C107.77 158.712 109.983 160.801 110.729 163.5H271.5V156.34L286.5 165L271.5 173.66V166.5H110.932C110.509 169.674 108.103 172.22 105 172.85V284.149C107.77 284.712 109.983 286.801 110.729 289.5H272.5V282.34L287.5 291L272.5 299.66V292.5H110.932C110.509 295.674 108.103 298.22 105 298.85V411.5H273.5V404.34L288.5 413L273.5 421.66V414.5H102V298.85C98.5767 298.155 96 295.128 96 291.5C96 287.872 98.5766 284.844 102 284.149V172.85C98.5767 172.155 96 169.128 96 165.5C96 161.872 98.5766 158.844 102 158.149V51.8496C98.8967 51.2196 96.4913 48.6736 96.0684 45.5H34V42.5H96.2715C97.1469 39.3291 100.051 37 103.5 37C106.949 37 109.853 39.3291 110.729 42.5H267V35.3398L282 44Z" fill="black"/>
<path id="WireY_LU" d="M282 88L267 96.6602V89.5H178V202.149C180.77 202.712 182.983 204.801 183.729 207.5H272V200.34L287 209L272 217.66V210.5H183.932C183.509 213.674 181.103 216.22 178 216.85V329.149C180.77 329.712 182.983 331.801 183.729 334.5H271V327.34L286 336L271 344.66V337.5H183.932C183.509 340.674 181.103 343.22 178 343.85V447.149C181.103 447.779 183.509 450.326 183.932 453.5H273V446.34L288 455L273 463.66V456.5H183.729C182.853 459.671 179.949 462 176.5 462C173.051 462 170.147 459.671 169.271 456.5H34V453.5H169.068C169.491 450.326 171.897 447.779 175 447.149V343.85C171.577 343.155 169 340.128 169 336.5C169 332.872 171.577 329.844 175 329.149V216.85C171.577 216.155 169 213.128 169 209.5C169 205.872 171.577 202.844 175 202.149V86.5H267V79.3398L282 88Z" fill="black"/>
<path id="WireAND_LU" d="M685 143L670 134.34V151.66L685 143ZM585 143V144.5H671.5V143V141.5H585V143ZM382 65.5V67H584V65.5V64H382V65.5ZM585.5 144.5H587V64H585.5H584V144.5H585.5Z" fill="black"/>
<path id="WireOR_LU" d="M685 215L670 206.34V223.66L685 215ZM585 215V216.5H671.5V215V213.5H585V215ZM379 187.5V189H584V187.5V186H379V187.5ZM585.5 216.5H587V186H585.5H584V216.5H585.5Z" fill="black"/>
<path id="WireXOR_LU" d="M685 291L670 282.34V299.66L685 291ZM585 291V292.5H671.5V291V289.5H585V291ZM393 310.5V312H587V310.5V309H393V310.5ZM585.5 310.5H587V289.5H585.5H584V310.5H585.5Z" fill="black"/>
<path id="WireNOR_LU" d="M685 366L670 357.34V374.66L685 366ZM585 366V367.5H671.5V366V364.5H585V366ZM389.5 432V433.5H584.5V432V430.5H389.5V432ZM585.5 433.5H587V364.5H585.5H584V433.5H585.5Z" fill="black"/>
<path id="WireLogicFunc_LU" d="M743 377L734.34 392L751.66 392L743 377ZM743 461H744.5L744.5 390.5L743 390.5L741.5 390.5L741.5 461H743Z" fill="black"/>
<path id="WireLogic_LU" d="M942 252L927 243.34V260.66L942 252ZM779 252V253.5H928.5V252V250.5H779V252Z" fill="black"/>
<g id="AND_LU">
<path id="AND Gate" d="M283.5 23.8057C287.368 23.2935 299.675 21.9126 314.476 22.7793C332.501 23.8348 353.902 28.2079 368.382 41.209C374.951 47.1069 378.22 53.3346 379.854 58.0703C380.671 60.441 381.08 62.4412 381.286 63.8408C381.389 64.5403 381.442 65.0903 381.469 65.4609C381.482 65.6456 381.49 65.7872 381.494 65.8828C381.496 65.9324 381.498 65.9671 381.499 66C381.499 66.003 381.499 66.0069 381.499 66.0107C381.499 66.0268 381.498 66.0486 381.497 66.0762C381.494 66.1544 381.489 66.2786 381.477 66.4453C381.452 66.7787 381.403 67.2823 381.303 67.9307C381.102 69.2281 380.698 71.1038 379.883 73.3545C378.255 77.8485 374.983 83.8641 368.382 89.791C353.894 102.799 332.478 107.17 314.446 108.223C305.465 108.747 297.401 108.443 291.581 108.009C288.673 107.792 286.328 107.543 284.714 107.348C284.246 107.291 283.841 107.238 283.5 107.193V23.8057Z" fill="white" stroke="black" stroke-width="3"/>
</g>
<g id="OR_LU">
<path id="ORGate" d="M383 187.5C361.436 216.175 332.057 231.333 302.2 232H282C293.201 197.339 293.203 177.846 282 143H302.2C332.057 143.667 361.436 158.825 383 187.5Z" fill="white" stroke="black" stroke-width="3"/>
</g>
<g id="XOR_LU">
<g id="ORGate_2">
<path id="ORGate_3" d="M393 310.5C371.436 339.175 342.057 354.333 312.2 355H292C303.201 320.339 303.203 300.846 292 266H312.2C342.057 266.667 371.436 281.825 393 310.5Z" fill="white" stroke="black" stroke-width="3"/>
</g>
<path id="XOR" d="M282 266C292.465 300.757 292.604 320.243 282 355" stroke="black" stroke-width="3"/>
</g>
<g id="NOR_LU">
<circle id="Not" cx="388" cy="432" r="3" fill="white" stroke="black" stroke-width="2"/>
<g id="ORGate_4">
<path id="ORGate_5" d="M384 431.5C362.436 460.175 333.057 475.333 303.2 476H283C294.201 441.339 294.203 421.846 283 387H303.2C333.057 387.667 362.436 402.825 384 431.5Z" fill="white" stroke="black" stroke-width="3"/>
</g>
</g>
<g id="MUX4to1_LU">
<path id="MUX" d="M777.5 153.096V351.903L686.5 414.156V90.8428L777.5 153.096Z" fill="white" stroke="black" stroke-width="3"/>
<path id="0" d="M696.492 131.219C698.664 131.219 700.234 132.113 701.203 133.902C701.953 135.285 702.328 137.18 702.328 139.586C702.328 141.867 701.988 143.754 701.309 145.246C700.324 147.387 698.715 148.457 696.48 148.457C694.465 148.457 692.965 147.582 691.98 145.832C691.16 144.371 690.75 142.41 690.75 139.949C690.75 138.043 690.996 136.406 691.488 135.039C692.41 132.492 694.078 131.219 696.492 131.219ZM696.469 146.535C697.562 146.535 698.434 146.051 699.082 145.082C699.73 144.113 700.055 142.309 700.055 139.668C700.055 137.762 699.82 136.195 699.352 134.969C698.883 133.734 697.973 133.117 696.621 133.117C695.379 133.117 694.469 133.703 693.891 134.875C693.32 136.039 693.035 137.758 693.035 140.031C693.035 141.742 693.219 143.117 693.586 144.156C694.148 145.742 695.109 146.535 696.469 146.535Z" fill="black"/>
<path id="1" d="M692.297 209.117V207.5C693.82 207.352 694.883 207.105 695.484 206.762C696.086 206.41 696.535 205.586 696.832 204.289H698.496V221H696.246V209.117H692.297Z" fill="black"/>
<path id="2_2" d="M690.75 295C690.828 293.555 691.125 292.297 691.641 291.227C692.164 290.156 693.18 289.184 694.688 288.309L696.938 287.008C697.945 286.422 698.652 285.922 699.059 285.508C699.699 284.859 700.02 284.117 700.02 283.281C700.02 282.305 699.727 281.531 699.141 280.961C698.555 280.383 697.773 280.094 696.797 280.094C695.352 280.094 694.352 280.641 693.797 281.734C693.5 282.32 693.336 283.133 693.305 284.172H691.16C691.184 282.711 691.453 281.52 691.969 280.598C692.883 278.973 694.496 278.16 696.809 278.16C698.73 278.16 700.133 278.68 701.016 279.719C701.906 280.758 702.352 281.914 702.352 283.188C702.352 284.531 701.879 285.68 700.934 286.633C700.387 287.188 699.406 287.859 697.992 288.648L696.387 289.539C695.621 289.961 695.02 290.363 694.582 290.746C693.801 291.426 693.309 292.18 693.105 293.008H702.27V295H690.75Z" fill="black"/>
<path id="3" d="M696.234 368.457C694.25 368.457 692.809 367.914 691.91 366.828C691.02 365.734 690.574 364.406 690.574 362.844H692.777C692.871 363.93 693.074 364.719 693.387 365.211C693.934 366.094 694.922 366.535 696.352 366.535C697.461 366.535 698.352 366.238 699.023 365.645C699.695 365.051 700.031 364.285 700.031 363.348C700.031 362.191 699.676 361.383 698.965 360.922C698.262 360.461 697.281 360.23 696.023 360.23C695.883 360.23 695.738 360.234 695.59 360.242C695.449 360.242 695.305 360.246 695.156 360.254V358.391C695.375 358.414 695.559 358.43 695.707 358.438C695.855 358.445 696.016 358.449 696.188 358.449C696.977 358.449 697.625 358.324 698.133 358.074C699.023 357.637 699.469 356.855 699.469 355.73C699.469 354.895 699.172 354.25 698.578 353.797C697.984 353.344 697.293 353.117 696.504 353.117C695.098 353.117 694.125 353.586 693.586 354.523C693.289 355.039 693.121 355.773 693.082 356.727H690.996C690.996 355.477 691.246 354.414 691.746 353.539C692.605 351.977 694.117 351.195 696.281 351.195C697.992 351.195 699.316 351.578 700.254 352.344C701.191 353.102 701.66 354.203 701.66 355.648C701.66 356.68 701.383 357.516 700.828 358.156C700.484 358.555 700.039 358.867 699.492 359.094C700.375 359.336 701.062 359.805 701.555 360.5C702.055 361.188 702.305 362.031 702.305 363.031C702.305 364.633 701.777 365.938 700.723 366.945C699.668 367.953 698.172 368.457 696.234 368.457Z" fill="black"/>
</g>
</svg>
