<svg width="1107" height="736" viewBox="0 0 1107 736" fill="none" xmlns="http://www.w3.org/2000/svg">
<rect width="1107" height="736" fill="#1E1E1E"/>
<path id="Background_MUX4to1" d="M0 0H1107V736H0V0Z" fill="white"/>
<path id="Out" d="M1057.35 462.475C1061.91 462.475 1065.28 463.939 1067.47 466.869C1069.18 469.154 1070.04 472.078 1070.04 475.641C1070.04 479.496 1069.06 482.701 1067.1 485.256C1064.81 488.256 1061.53 489.756 1057.28 489.756C1053.3 489.756 1050.18 488.443 1047.91 485.818C1045.88 483.287 1044.87 480.088 1044.87 476.221C1044.87 472.729 1045.73 469.74 1047.47 467.256C1049.7 464.068 1052.99 462.475 1057.35 462.475ZM1057.7 486.627C1060.78 486.627 1063.01 485.525 1064.38 483.322C1065.76 481.107 1066.45 478.564 1066.45 475.693C1066.45 472.658 1065.66 470.215 1064.06 468.363C1062.48 466.512 1060.31 465.586 1057.56 465.586C1054.89 465.586 1052.71 466.506 1051.02 468.346C1049.33 470.174 1048.49 472.875 1048.49 476.449C1048.49 479.309 1049.21 481.723 1050.65 483.691C1052.1 485.648 1054.45 486.627 1057.7 486.627ZM1076.96 470.174V482.672C1076.96 483.633 1077.12 484.418 1077.42 485.027C1077.98 486.152 1079.03 486.715 1080.57 486.715C1082.77 486.715 1084.27 485.73 1085.07 483.762C1085.5 482.707 1085.72 481.26 1085.72 479.42V470.174H1088.88V489H1085.89L1085.93 486.223C1085.52 486.938 1085.01 487.541 1084.4 488.033C1083.19 489.018 1081.73 489.51 1080.01 489.51C1077.32 489.51 1075.49 488.613 1074.52 486.82C1073.99 485.859 1073.73 484.576 1073.73 482.971V470.174H1076.96ZM1094.47 464.918H1097.67V470.174H1100.68V472.758H1097.67V485.045C1097.67 485.701 1097.89 486.141 1098.34 486.363C1098.59 486.492 1099 486.557 1099.57 486.557C1099.72 486.557 1099.89 486.557 1100.06 486.557C1100.24 486.545 1100.44 486.527 1100.68 486.504V489C1100.31 489.105 1099.93 489.182 1099.54 489.229C1099.15 489.275 1098.73 489.299 1098.27 489.299C1096.79 489.299 1095.79 488.924 1095.26 488.174C1094.74 487.412 1094.47 486.428 1094.47 485.221V472.758H1091.92V470.174H1094.47V464.918Z" fill="black"/>
<circle id="Ellipse 10" cx="322.5" cy="92.5" r="7.5" fill="black"/>
<circle id="Ellipse 9" cx="159.5" cy="93.5" r="7.5" fill="black"/>
<circle id="Ellipse 8" cx="400.5" cy="384.5" r="7.5" fill="black"/>
<circle id="Ellipse 7" cx="322.5" cy="252.5" r="7.5" fill="black"/>
<circle id="Ellipse 6" cx="241.5" cy="568.5" r="7.5" fill="black"/>
<circle id="Ellipse 5" cx="159.5" cy="304.5" r="7.5" fill="black"/>
<g id="S0">
<path id="S" d="M148.021 24.668C148.104 26.1328 148.449 27.3223 149.059 28.2363C150.219 29.9473 152.264 30.8027 155.193 30.8027C156.506 30.8027 157.701 30.6152 158.779 30.2402C160.865 29.5137 161.908 28.2129 161.908 26.3379C161.908 24.9316 161.469 23.9297 160.59 23.332C159.699 22.7461 158.305 22.2363 156.406 21.8027L152.908 21.0117C150.623 20.4961 149.006 19.9277 148.057 19.3066C146.416 18.2285 145.596 16.6172 145.596 14.4727C145.596 12.1523 146.398 10.248 148.004 8.75977C149.609 7.27148 151.883 6.52734 154.824 6.52734C157.531 6.52734 159.828 7.18359 161.715 8.49609C163.613 9.79688 164.562 11.8828 164.562 14.7539H161.275C161.1 13.3711 160.725 12.3105 160.15 11.5723C159.084 10.2246 157.273 9.55078 154.719 9.55078C152.656 9.55078 151.174 9.98438 150.271 10.8516C149.369 11.7187 148.918 12.7266 148.918 13.875C148.918 15.1406 149.445 16.0664 150.5 16.6523C151.191 17.0273 152.756 17.4961 155.193 18.0586L158.814 18.8848C160.561 19.2832 161.908 19.8281 162.857 20.5195C164.498 21.7266 165.318 23.4785 165.318 25.7754C165.318 28.6348 164.275 30.6797 162.189 31.9102C160.115 33.1406 157.701 33.7559 154.947 33.7559C151.736 33.7559 149.223 32.9355 147.406 31.2949C145.59 29.666 144.699 27.457 144.734 24.668H148.021Z" fill="black"/>
<path id="0" d="M173.719 28.8281C176.977 28.8281 179.332 30.1699 180.785 32.8535C181.91 34.9277 182.473 37.7695 182.473 41.3789C182.473 44.8008 181.963 47.6309 180.943 49.8691C179.467 53.0801 177.053 54.6855 173.701 54.6855C170.678 54.6855 168.428 53.373 166.951 50.748C165.721 48.5566 165.105 45.6152 165.105 41.9238C165.105 39.0645 165.475 36.6094 166.213 34.5586C167.596 30.7383 170.098 28.8281 173.719 28.8281ZM173.684 51.8027C175.324 51.8027 176.631 51.0762 177.604 49.623C178.576 48.1699 179.062 45.4629 179.062 41.502C179.062 38.6426 178.711 36.293 178.008 34.4531C177.305 32.6016 175.939 31.6758 173.912 31.6758C172.049 31.6758 170.684 32.5547 169.816 34.3125C168.961 36.0586 168.533 38.6367 168.533 42.0469C168.533 44.6133 168.809 46.6758 169.359 48.2344C170.203 50.6133 171.645 51.8027 173.684 51.8027Z" fill="black"/>
</g>
<g id="S1">
<path id="S_2" d="M311.021 24.668C311.104 26.1328 311.449 27.3223 312.059 28.2363C313.219 29.9473 315.264 30.8027 318.193 30.8027C319.506 30.8027 320.701 30.6152 321.779 30.2402C323.865 29.5137 324.908 28.2129 324.908 26.3379C324.908 24.9316 324.469 23.9297 323.59 23.332C322.699 22.7461 321.305 22.2363 319.406 21.8027L315.908 21.0117C313.623 20.4961 312.006 19.9277 311.057 19.3066C309.416 18.2285 308.596 16.6172 308.596 14.4727C308.596 12.1523 309.398 10.248 311.004 8.75977C312.609 7.27148 314.883 6.52734 317.824 6.52734C320.531 6.52734 322.828 7.18359 324.715 8.49609C326.613 9.79688 327.562 11.8828 327.562 14.7539H324.275C324.1 13.3711 323.725 12.3105 323.15 11.5723C322.084 10.2246 320.273 9.55078 317.719 9.55078C315.656 9.55078 314.174 9.98438 313.271 10.8516C312.369 11.7187 311.918 12.7266 311.918 13.875C311.918 15.1406 312.445 16.0664 313.5 16.6523C314.191 17.0273 315.756 17.4961 318.193 18.0586L321.814 18.8848C323.561 19.2832 324.908 19.8281 325.857 20.5195C327.498 21.7266 328.318 23.4785 328.318 25.7754C328.318 28.6348 327.275 30.6797 325.189 31.9102C323.115 33.1406 320.701 33.7559 317.947 33.7559C314.736 33.7559 312.223 32.9355 310.406 31.2949C308.59 29.666 307.699 27.457 307.734 24.668H311.021Z" fill="black"/>
<path id="1" d="M330.426 36.1758V33.75C332.711 33.5273 334.305 33.1582 335.207 32.6426C336.109 32.1152 336.783 30.8789 337.229 28.9336H339.725V54H336.35V36.1758H330.426Z" fill="black"/>
</g>
<g id="I0">
<path id="I" d="M21.5234 257.178H25.0566V283H21.5234V257.178Z" fill="black"/>
<path id="0_2" d="M41.7188 278.828C44.9766 278.828 47.332 280.17 48.7852 282.854C49.9102 284.928 50.4727 287.77 50.4727 291.379C50.4727 294.801 49.9629 297.631 48.9434 299.869C47.4668 303.08 45.0527 304.686 41.7012 304.686C38.6777 304.686 36.4277 303.373 34.9512 300.748C33.7207 298.557 33.1055 295.615 33.1055 291.924C33.1055 289.064 33.4746 286.609 34.2129 284.559C35.5957 280.738 38.0977 278.828 41.7188 278.828ZM41.6836 301.803C43.3242 301.803 44.6309 301.076 45.6035 299.623C46.5762 298.17 47.0625 295.463 47.0625 291.502C47.0625 288.643 46.7109 286.293 46.0078 284.453C45.3047 282.602 43.9395 281.676 41.9121 281.676C40.0488 281.676 38.6836 282.555 37.8164 284.312C36.9609 286.059 36.5332 288.637 36.5332 292.047C36.5332 294.613 36.8086 296.676 37.3594 298.234C38.2031 300.613 39.6445 301.803 41.6836 301.803Z" fill="black"/>
</g>
<g id="I1">
<path id="I_2" d="M21.5234 388.178H25.0566V414H21.5234V388.178Z" fill="black"/>
<path id="1_2" d="M35.4258 417.176V414.75C37.7109 414.527 39.3047 414.158 40.207 413.643C41.1094 413.115 41.7832 411.879 42.2285 409.934H44.7246V435H41.3496V417.176H35.4258Z" fill="black"/>
</g>
<g id="I2">
<path id="I_3" d="M21.5234 519.178H25.0566V545H21.5234V519.178Z" fill="black"/>
<path id="2" d="M33.1055 566C33.2227 563.832 33.668 561.945 34.4414 560.34C35.2266 558.734 36.75 557.275 39.0117 555.963L42.3867 554.012C43.8984 553.133 44.959 552.383 45.5684 551.762C46.5293 550.789 47.0098 549.676 47.0098 548.422C47.0098 546.957 46.5703 545.797 45.6914 544.941C44.8125 544.074 43.6406 543.641 42.1758 543.641C40.0078 543.641 38.5078 544.461 37.6758 546.102C37.2305 546.98 36.9844 548.199 36.9375 549.758H33.7207C33.7559 547.566 34.1602 545.779 34.9336 544.396C36.3047 541.959 38.7246 540.74 42.1934 540.74C45.0762 540.74 47.1797 541.52 48.5039 543.078C49.8398 544.637 50.5078 546.371 50.5078 548.281C50.5078 550.297 49.7988 552.02 48.3809 553.449C47.5605 554.281 46.0898 555.289 43.9688 556.473L41.5605 557.809C40.4121 558.441 39.5098 559.045 38.8535 559.619C37.6816 560.639 36.9434 561.77 36.6387 563.012H50.3848V566H33.1055Z" fill="black"/>
</g>
<g id="I3">
<path id="I_4" d="M21.5234 650.178H25.0566V676H21.5234V650.178Z" fill="black"/>
<path id="3" d="M41.332 697.686C38.3555 697.686 36.1934 696.871 34.8457 695.242C33.5098 693.602 32.8418 691.609 32.8418 689.266H36.1465C36.2871 690.895 36.5918 692.078 37.0605 692.816C37.8809 694.141 39.3633 694.803 41.5078 694.803C43.1719 694.803 44.5078 694.357 45.5156 693.467C46.5234 692.576 47.0273 691.428 47.0273 690.021C47.0273 688.287 46.4941 687.074 45.4277 686.383C44.373 685.691 42.9023 685.346 41.0156 685.346C40.8047 685.346 40.5879 685.352 40.3652 685.363C40.1543 685.363 39.9375 685.369 39.7148 685.381V682.586C40.043 682.621 40.3184 682.645 40.541 682.656C40.7637 682.668 41.0039 682.674 41.2617 682.674C42.4453 682.674 43.418 682.486 44.1797 682.111C45.5156 681.455 46.1836 680.283 46.1836 678.596C46.1836 677.342 45.7383 676.375 44.8477 675.695C43.957 675.016 42.9199 674.676 41.7363 674.676C39.627 674.676 38.168 675.379 37.3594 676.785C36.9141 677.559 36.6621 678.66 36.6035 680.09H33.4746C33.4746 678.215 33.8496 676.621 34.5996 675.309C35.8887 672.965 38.1562 671.793 41.4023 671.793C43.9688 671.793 45.9551 672.367 47.3613 673.516C48.7676 674.652 49.4707 676.305 49.4707 678.473C49.4707 680.02 49.0547 681.273 48.2227 682.234C47.707 682.832 47.0391 683.301 46.2188 683.641C47.543 684.004 48.5742 684.707 49.3125 685.75C50.0625 686.781 50.4375 688.047 50.4375 689.547C50.4375 691.949 49.6465 693.906 48.0645 695.418C46.4824 696.93 44.2383 697.686 41.332 697.686Z" fill="black"/>
</g>
<path id="WireI0_MUX4to1" d="M562.5 278L547.5 269.34V286.66L562.5 278ZM64 278V279.5H549V278V276.5H64V278Z" fill="black"/>
<path id="WireI1_MUX4to1" d="M562.5 410L547.5 401.34V418.66L562.5 410ZM64 410V411.5H549V410V408.5H64V410Z" fill="black"/>
<path id="WireI2_MUX4to1" d="M561.5 542L546.5 533.34V550.66L561.5 542ZM63 542V543.5H548V542V540.5H63V542Z" fill="black"/>
<path id="WireI3_MUX4to1" d="M562 674L547 665.34V682.66L562 674ZM63.5 674V675.5H548.5V674V672.5H63.5V674Z" fill="black"/>
<path id="WireAND0_MUX4to1" d="M840 445L825 436.34V453.66L840 445ZM775 445V446.5H826.5V445V443.5H775V445ZM773.5 446.5L775 446.5L775 278L773.5 278L772 278L772 446.5L773.5 446.5ZM661 279.5V281H774V279.5V278H661V279.5Z" fill="black"/>
<path id="WireAND1_MUX4to1" d="M844 466L829 457.34V474.66L844 466ZM744.5 466V467.5H830.5V466V464.5H744.5V466ZM744.5 467.5H746V409.5H744.5H743V467.5H744.5ZM661 411V412.5H745V411V409.5H661V411Z" fill="black"/>
<path id="WireAND2_MUX4to1" d="M844 486.5L829 495.16V477.84L844 486.5ZM744.5 486.5V485H830.5V486.5V488H744.5V486.5ZM744.5 485H746V543H744.5H743V485H744.5ZM661 541.5V540H745V541.5V543H661V541.5Z" fill="black"/>
<path id="WireAND3_MUX4to1" d="M840 509.5L825 518.16V500.84L840 509.5ZM775 509.5V508H826.5V509.5V511H775V509.5ZM773.5 508L775 508L775 676.5L773.5 676.5L772 676.5L772 508L773.5 508ZM661 675V673.5H774V675V676.5H661V675Z" fill="black"/>
<path id="WireS0not_MUX4to1" d="M562 701L547 692.34V709.66L562 701ZM562 569L547 560.34V577.66L562 569ZM240 701V702.5H548.5V701V699.5H240V701ZM241 569V570.5H548.5V569V567.5H241V569ZM242 169L240.5 168.997L239.5 702.497L241 702.5L242.5 702.503L243.5 169.003L242 169Z" fill="black"/>
<path id="WireS1not_MUX4to1" d="M562 649L547 640.34V657.66L562 649ZM562 385L547 376.34V393.66L562 385ZM400.5 649V650.5H548.5V649V647.5H400.5V649ZM401 385V386.5H548.5V385V383.5H401V385ZM400 169L398.5 169L398.5 650.5L400 650.5L401.5 650.5L401.5 169L400 169Z" fill="black"/>
<path id="WireS0_MUX4to1" d="M562 305L547 296.34V313.66L562 305ZM562 437L547 428.34V445.66L562 437ZM242 122L250.66 107H233.34L242 122ZM160.5 305V306.5H548.5V305V303.5H160.5V305ZM158 437V438.5H548.5V437V435.5H158V437ZM159.5 436L161 436L161 60L159.5 60L158 60L158 436L159.5 436ZM242 92H240.5V108.5H242H243.5V92H242ZM242 93.5V92H160V93.5V95H242V93.5Z" fill="black"/>
<path id="WireS1_MUX4to1" d="M562 517L547 508.34V525.66L562 517ZM562 253L547 244.34V261.66L562 253ZM400 121L408.66 106H391.34L400 121ZM321 517V518.5H322.5V517V515.5H321V517ZM322.5 517V518.5H548.5V517V515.5H322.5V517ZM322 253V254.5H322.5V253V251.5H322V253ZM322.5 253V254.5H548.5V253V251.5H322.5V253ZM322.5 517L324 517L324 253L322.5 253L321 253L321 517L322.5 517ZM322.5 253L324 253L324 60L322.5 60L321 60L321 253L322.5 253ZM400 91H398.5V107.5H400H401.5V91H400ZM400 92.5V91H321.5V92.5V94H400V92.5Z" fill="black"/>
<path id="WireOut_MUX4to1" d="M1037.5 476.5L1022.5 467.84V485.16L1037.5 476.5ZM937.5 476.5V478H1024V476.5V475H937.5V476.5Z" fill="black"/>
<g id="AND Gate">
<path id="AND Gate_2" d="M562.5 236.806C566.368 236.293 578.675 234.913 593.476 235.779C611.501 236.835 632.902 241.208 647.382 254.209C653.951 260.107 657.22 266.335 658.854 271.07C659.671 273.441 660.08 275.441 660.286 276.841C660.389 277.54 660.442 278.09 660.469 278.461C660.482 278.646 660.49 278.787 660.494 278.883C660.496 278.932 660.498 278.967 660.499 279C660.499 279.003 660.499 279.007 660.499 279.011C660.499 279.027 660.498 279.049 660.497 279.076C660.494 279.154 660.489 279.279 660.477 279.445C660.452 279.779 660.403 280.282 660.303 280.931C660.102 282.228 659.698 284.104 658.883 286.354C657.255 290.849 653.983 296.864 647.382 302.791C632.894 315.799 611.478 320.17 593.446 321.223C584.465 321.747 576.401 321.443 570.581 321.009C567.673 320.792 565.328 320.543 563.714 320.348C563.246 320.291 562.841 320.238 562.5 320.193V236.806Z" fill="white" stroke="black" stroke-width="3"/>
</g>
<g id="AND Gate_3">
<path id="AND Gate_4" d="M562.5 368.806C566.368 368.293 578.675 366.913 593.476 367.779C611.501 368.835 632.902 373.208 647.382 386.209C653.951 392.107 657.22 398.335 658.854 403.07C659.671 405.441 660.08 407.441 660.286 408.841C660.389 409.54 660.442 410.09 660.469 410.461C660.482 410.646 660.49 410.787 660.494 410.883C660.496 410.932 660.498 410.967 660.499 411C660.499 411.003 660.499 411.007 660.499 411.011C660.499 411.027 660.498 411.049 660.497 411.076C660.494 411.154 660.489 411.279 660.477 411.445C660.452 411.779 660.403 412.282 660.303 412.931C660.102 414.228 659.698 416.104 658.883 418.354C657.255 422.849 653.983 428.864 647.382 434.791C632.894 447.799 611.478 452.17 593.446 453.223C584.465 453.747 576.401 453.443 570.581 453.009C567.673 452.792 565.328 452.543 563.714 452.348C563.246 452.291 562.841 452.238 562.5 452.193V368.806Z" fill="white" stroke="black" stroke-width="3"/>
</g>
<g id="AND Gate_5">
<path id="AND Gate_6" d="M562.5 500.806C566.368 500.293 578.675 498.913 593.476 499.779C611.501 500.835 632.902 505.208 647.382 518.209C653.951 524.107 657.22 530.335 658.854 535.07C659.671 537.441 660.08 539.441 660.286 540.841C660.389 541.54 660.442 542.09 660.469 542.461C660.482 542.646 660.49 542.787 660.494 542.883C660.496 542.932 660.498 542.967 660.499 543C660.499 543.003 660.499 543.007 660.499 543.011C660.499 543.027 660.498 543.049 660.497 543.076C660.494 543.154 660.489 543.279 660.477 543.445C660.452 543.779 660.403 544.282 660.303 544.931C660.102 546.228 659.698 548.104 658.883 550.354C657.255 554.849 653.983 560.864 647.382 566.791C632.894 579.799 611.478 584.17 593.446 585.223C584.465 585.747 576.401 585.443 570.581 585.009C567.673 584.792 565.328 584.543 563.714 584.348C563.246 584.291 562.841 584.238 562.5 584.193V500.806Z" fill="white" stroke="black" stroke-width="3"/>
</g>
<g id="AND Gate_7">
<path id="AND Gate_8" d="M562.5 632.806C566.368 632.293 578.675 630.913 593.476 631.779C611.501 632.835 632.902 637.208 647.382 650.209C653.951 656.107 657.22 662.335 658.854 667.07C659.671 669.441 660.08 671.441 660.286 672.841C660.389 673.54 660.442 674.09 660.469 674.461C660.482 674.646 660.49 674.787 660.494 674.883C660.496 674.932 660.498 674.967 660.499 675C660.499 675.003 660.499 675.007 660.499 675.011C660.499 675.027 660.498 675.049 660.497 675.076C660.494 675.154 660.489 675.279 660.477 675.445C660.452 675.779 660.403 676.282 660.303 676.931C660.102 678.228 659.698 680.104 658.883 682.354C657.255 686.849 653.983 692.864 647.382 698.791C632.894 711.799 611.478 716.17 593.446 717.223C584.465 717.747 576.401 717.443 570.581 717.009C567.673 716.792 565.328 716.543 563.714 716.348C563.246 716.291 562.841 716.238 562.5 716.193V632.806Z" fill="white" stroke="black" stroke-width="3"/>
</g>
<g id="ORGate">
<path id="ORGate_2" d="M938 476.5C916.436 505.175 887.057 520.333 857.2 521H837C848.201 486.339 848.203 466.846 837 432H857.2C887.057 432.667 916.436 447.825 938 476.5Z" fill="white" stroke="black" stroke-width="3"/>
</g>
<g id="NotGate">
<path id="Buffer" d="M398.701 160.75L377.916 124.75L376.617 122.5L423.383 122.5L422.084 124.75L401.299 160.75L400 163L398.701 160.75Z" fill="white" stroke="black" stroke-width="3"/>
<circle id="Not" cx="400" cy="166" r="3" transform="rotate(90 400 166)" fill="#D9D9D9" stroke="black" stroke-width="2"/>
</g>
<g id="NotGate_2">
<path id="Buffer_2" d="M240.701 160.75L219.916 124.75L218.617 122.5L265.383 122.5L264.084 124.75L243.299 160.75L242 163L240.701 160.75Z" fill="white" stroke="black" stroke-width="3"/>
<circle id="Not_2" cx="242" cy="166" r="3" transform="rotate(90 242 166)" fill="#D9D9D9" stroke="black" stroke-width="2"/>
</g>
</svg>
