<svg width="909" height="978" viewBox="0 0 909 978" fill="none" xmlns="http://www.w3.org/2000/svg">
<rect width="909" height="978" fill="#1E1E1E"/>
<rect id="background_shifter" width="909" height="978" fill="white"/>
<path id="Shift Direction" d="M138.488 13.3711C138.534 14.1849 138.726 14.8457 139.064 15.3535C139.709 16.304 140.845 16.7793 142.473 16.7793C143.202 16.7793 143.866 16.6751 144.465 16.4668C145.624 16.0632 146.203 15.3405 146.203 14.2988C146.203 13.5176 145.959 12.9609 145.471 12.6289C144.976 12.3034 144.201 12.0202 143.146 11.7793L141.203 11.3398C139.934 11.0534 139.035 10.7376 138.508 10.3926C137.596 9.79362 137.141 8.89844 137.141 7.70703C137.141 6.41797 137.587 5.36003 138.479 4.5332C139.37 3.70638 140.633 3.29297 142.268 3.29297C143.771 3.29297 145.048 3.65755 146.096 4.38672C147.15 5.10938 147.678 6.26823 147.678 7.86328H145.852C145.754 7.09505 145.546 6.50586 145.227 6.0957C144.634 5.34701 143.628 4.97266 142.209 4.97266C141.063 4.97266 140.24 5.21354 139.738 5.69531C139.237 6.17708 138.986 6.73698 138.986 7.375C138.986 8.07812 139.279 8.59245 139.865 8.91797C140.249 9.1263 141.118 9.38672 142.473 9.69922L144.484 10.1582C145.454 10.3796 146.203 10.6823 146.73 11.0664C147.642 11.737 148.098 12.7103 148.098 13.9863C148.098 15.5749 147.518 16.7109 146.359 17.3945C145.207 18.0781 143.866 18.4199 142.336 18.4199C140.552 18.4199 139.156 17.9642 138.146 17.0527C137.137 16.1478 136.643 14.9206 136.662 13.3711H138.488ZM150.324 3.60547H152.082V8.95703C152.499 8.42969 152.873 8.05859 153.205 7.84375C153.771 7.47266 154.478 7.28711 155.324 7.28711C156.841 7.28711 157.87 7.81771 158.41 8.87891C158.703 9.45833 158.85 10.2624 158.85 11.291V18H157.043V11.4082C157.043 10.64 156.945 10.0768 156.75 9.71875C156.431 9.14583 155.832 8.85938 154.953 8.85938C154.224 8.85938 153.563 9.11003 152.971 9.61133C152.378 10.1126 152.082 11.0599 152.082 12.4531V18H150.324V3.60547ZM161.457 7.58984H163.244V18H161.457V7.58984ZM161.457 3.6543H163.244V5.64648H161.457V3.6543ZM166.35 5.94922C166.376 5.22005 166.503 4.6862 166.73 4.34766C167.141 3.7487 167.932 3.44922 169.104 3.44922C169.214 3.44922 169.328 3.45247 169.445 3.45898C169.562 3.46549 169.696 3.47526 169.846 3.48828V5.08984C169.663 5.07682 169.53 5.07031 169.445 5.07031C169.367 5.0638 169.292 5.06055 169.221 5.06055C168.687 5.06055 168.368 5.20052 168.264 5.48047C168.16 5.75391 168.107 6.45703 168.107 7.58984H169.846V8.97656H168.088V18H166.35V8.97656H164.895V7.58984H166.35V5.94922ZM171.828 4.62109H173.605V7.54102H175.275V8.97656H173.605V15.8027C173.605 16.1673 173.729 16.4115 173.977 16.5352C174.113 16.6068 174.341 16.6426 174.66 16.6426C174.745 16.6426 174.836 16.6426 174.934 16.6426C175.031 16.6361 175.145 16.6263 175.275 16.6133V18C175.074 18.0586 174.862 18.1009 174.641 18.127C174.426 18.153 174.191 18.166 173.938 18.166C173.117 18.166 172.561 17.9577 172.268 17.541C171.975 17.1178 171.828 16.571 171.828 15.9004V8.97656H170.412V7.54102H171.828V4.62109ZM188.352 16.3398C189.009 16.3398 189.549 16.2715 189.973 16.1348C190.728 15.8809 191.346 15.3926 191.828 14.6699C192.212 14.0905 192.489 13.3483 192.658 12.4434C192.756 11.903 192.805 11.4017 192.805 10.9395C192.805 9.16211 192.45 7.7819 191.74 6.79883C191.037 5.81576 189.901 5.32422 188.332 5.32422H184.885V16.3398H188.352ZM182.932 3.6543H188.742C190.715 3.6543 192.245 4.35417 193.332 5.75391C194.302 7.01693 194.787 8.63477 194.787 10.6074C194.787 12.1309 194.501 13.5078 193.928 14.7383C192.919 16.9128 191.184 18 188.723 18H182.932V3.6543ZM197.062 7.58984H198.85V18H197.062V7.58984ZM197.062 3.6543H198.85V5.64648H197.062V3.6543ZM201.564 7.54102H203.234V9.34766C203.371 8.99609 203.706 8.56966 204.24 8.06836C204.774 7.56055 205.389 7.30664 206.086 7.30664C206.118 7.30664 206.174 7.3099 206.252 7.31641C206.33 7.32292 206.464 7.33594 206.652 7.35547V9.21094C206.548 9.19141 206.451 9.17839 206.359 9.17188C206.275 9.16536 206.18 9.16211 206.076 9.16211C205.191 9.16211 204.51 9.44857 204.035 10.0215C203.56 10.5879 203.322 11.2422 203.322 11.9844V18H201.564V7.54102ZM212.531 7.30664C213.273 7.30664 213.993 7.48242 214.689 7.83398C215.386 8.17904 215.917 8.62826 216.281 9.18164C216.633 9.70898 216.867 10.3242 216.984 11.0273C217.089 11.5091 217.141 12.2773 217.141 13.332H209.475C209.507 14.3932 209.758 15.2461 210.227 15.8906C210.695 16.5286 211.421 16.8477 212.404 16.8477C213.322 16.8477 214.055 16.5449 214.602 15.9395C214.914 15.5879 215.135 15.181 215.266 14.7188H216.994C216.949 15.1029 216.796 15.5326 216.535 16.0078C216.281 16.4766 215.995 16.8607 215.676 17.1602C215.142 17.681 214.481 18.0326 213.693 18.2148C213.27 18.319 212.792 18.3711 212.258 18.3711C210.956 18.3711 209.852 17.8991 208.947 16.9551C208.042 16.0046 207.59 14.6764 207.59 12.9707C207.59 11.291 208.046 9.92708 208.957 8.87891C209.868 7.83073 211.06 7.30664 212.531 7.30664ZM215.334 11.9355C215.262 11.1738 215.096 10.5651 214.836 10.1094C214.354 9.26302 213.55 8.83984 212.424 8.83984C211.617 8.83984 210.939 9.13281 210.393 9.71875C209.846 10.2982 209.556 11.0371 209.523 11.9355H215.334ZM223.342 7.23828C224.52 7.23828 225.477 7.52474 226.213 8.09766C226.955 8.67057 227.401 9.6569 227.551 11.0566H225.842C225.738 10.4121 225.5 9.87826 225.129 9.45508C224.758 9.02539 224.162 8.81055 223.342 8.81055C222.222 8.81055 221.421 9.35742 220.939 10.4512C220.627 11.1608 220.471 12.0365 220.471 13.0781C220.471 14.1263 220.692 15.0085 221.135 15.7246C221.577 16.4408 222.274 16.7988 223.225 16.7988C223.954 16.7988 224.53 16.5775 224.953 16.1348C225.383 15.6855 225.679 15.0736 225.842 14.2988H227.551C227.355 15.6855 226.867 16.7012 226.086 17.3457C225.305 17.9837 224.305 18.3027 223.088 18.3027C221.721 18.3027 220.63 17.8047 219.816 16.8086C219.003 15.806 218.596 14.556 218.596 13.0586C218.596 11.2227 219.042 9.79362 219.934 8.77148C220.826 7.74935 221.962 7.23828 223.342 7.23828ZM229.66 4.62109H231.438V7.54102H233.107V8.97656H231.438V15.8027C231.438 16.1673 231.561 16.4115 231.809 16.5352C231.945 16.6068 232.173 16.6426 232.492 16.6426C232.577 16.6426 232.668 16.6426 232.766 16.6426C232.863 16.6361 232.977 16.6263 233.107 16.6133V18C232.906 18.0586 232.694 18.1009 232.473 18.127C232.258 18.153 232.023 18.166 231.77 18.166C230.949 18.166 230.393 17.9577 230.1 17.541C229.807 17.1178 229.66 16.571 229.66 15.9004V8.97656H228.244V7.54102H229.66V4.62109ZM234.875 7.58984H236.662V18H234.875V7.58984ZM234.875 3.6543H236.662V5.64648H234.875V3.6543ZM243.479 16.8672C244.644 16.8672 245.441 16.4277 245.871 15.5488C246.307 14.6634 246.525 13.6803 246.525 12.5996C246.525 11.623 246.369 10.8288 246.057 10.2168C245.562 9.25326 244.709 8.77148 243.498 8.77148C242.424 8.77148 241.643 9.18164 241.154 10.002C240.666 10.8223 240.422 11.8118 240.422 12.9707C240.422 14.084 240.666 15.0117 241.154 15.7539C241.643 16.4961 242.417 16.8672 243.479 16.8672ZM243.547 7.23828C244.895 7.23828 246.034 7.6875 246.965 8.58594C247.896 9.48438 248.361 10.806 248.361 12.5508C248.361 14.237 247.951 15.6302 247.131 16.7305C246.311 17.8307 245.038 18.3809 243.312 18.3809C241.874 18.3809 240.731 17.8958 239.885 16.9258C239.038 15.9492 238.615 14.6406 238.615 13C238.615 11.2422 239.061 9.84245 239.953 8.80078C240.845 7.75911 242.043 7.23828 243.547 7.23828ZM250.461 7.54102H252.131V9.02539C252.626 8.41341 253.15 7.97396 253.703 7.70703C254.257 7.4401 254.872 7.30664 255.549 7.30664C257.033 7.30664 258.036 7.82422 258.557 8.85938C258.843 9.42578 258.986 10.2363 258.986 11.291V18H257.199V11.4082C257.199 10.7702 257.105 10.2559 256.916 9.86523C256.604 9.21419 256.037 8.88867 255.217 8.88867C254.8 8.88867 254.458 8.93099 254.191 9.01562C253.71 9.15885 253.286 9.44531 252.922 9.875C252.629 10.2201 252.437 10.5781 252.346 10.9492C252.261 11.3138 252.219 11.8379 252.219 12.5215V18H250.461V7.54102Z" fill="black"/>
<g id="Y0">
<path id="y" d="M45.0801 191.174H48.5781C48.1328 192.381 47.1426 195.135 45.6074 199.436C44.459 202.67 43.498 205.307 42.7246 207.346C40.8965 212.15 39.6074 215.08 38.8574 216.135C38.1074 217.189 36.8184 217.717 34.9902 217.717C34.5449 217.717 34.1992 217.699 33.9531 217.664C33.7188 217.629 33.4258 217.564 33.0742 217.471V214.588C33.625 214.74 34.0234 214.834 34.2695 214.869C34.5156 214.904 34.7324 214.922 34.9199 214.922C35.5059 214.922 35.9336 214.822 36.2031 214.623C36.4844 214.436 36.7188 214.201 36.9062 213.92C36.9648 213.826 37.1758 213.346 37.5391 212.479C37.9023 211.611 38.166 210.967 38.3301 210.545L31.3691 191.174H34.9551L40 206.502L45.0801 191.174Z" fill="black"/>
<path id="0" d="M58.7188 205.828C61.9766 205.828 64.332 207.17 65.7852 209.854C66.9102 211.928 67.4727 214.77 67.4727 218.379C67.4727 221.801 66.9629 224.631 65.9434 226.869C64.4668 230.08 62.0527 231.686 58.7012 231.686C55.6777 231.686 53.4277 230.373 51.9512 227.748C50.7207 225.557 50.1055 222.615 50.1055 218.924C50.1055 216.064 50.4746 213.609 51.2129 211.559C52.5957 207.738 55.0977 205.828 58.7188 205.828ZM58.6836 228.803C60.3242 228.803 61.6309 228.076 62.6035 226.623C63.5762 225.17 64.0625 222.463 64.0625 218.502C64.0625 215.643 63.7109 213.293 63.0078 211.453C62.3047 209.602 60.9395 208.676 58.9121 208.676C57.0488 208.676 55.6836 209.555 54.8164 211.312C53.9609 213.059 53.5332 215.637 53.5332 219.047C53.5332 221.613 53.8086 223.676 54.3594 225.234C55.2031 227.613 56.6445 228.803 58.6836 228.803Z" fill="black"/>
</g>
<g id="Y1">
<path id="y_2" d="M45.0801 420.174H48.5781C48.1328 421.381 47.1426 424.135 45.6074 428.436C44.459 431.67 43.498 434.307 42.7246 436.346C40.8965 441.15 39.6074 444.08 38.8574 445.135C38.1074 446.189 36.8184 446.717 34.9902 446.717C34.5449 446.717 34.1992 446.699 33.9531 446.664C33.7188 446.629 33.4258 446.564 33.0742 446.471V443.588C33.625 443.74 34.0234 443.834 34.2695 443.869C34.5156 443.904 34.7324 443.922 34.9199 443.922C35.5059 443.922 35.9336 443.822 36.2031 443.623C36.4844 443.436 36.7188 443.201 36.9062 442.92C36.9648 442.826 37.1758 442.346 37.5391 441.479C37.9023 440.611 38.166 439.967 38.3301 439.545L31.3691 420.174H34.9551L40 435.502L45.0801 420.174Z" fill="black"/>
<path id="1" d="M52.4258 442.176V439.75C54.7109 439.527 56.3047 439.158 57.207 438.643C58.1094 438.115 58.7832 436.879 59.2285 434.934H61.7246V460H58.3496V442.176H52.4258Z" fill="black"/>
</g>
<g id="Y2">
<path id="y_3" d="M45.0801 693.174H48.5781C48.1328 694.381 47.1426 697.135 45.6074 701.436C44.459 704.67 43.498 707.307 42.7246 709.346C40.8965 714.15 39.6074 717.08 38.8574 718.135C38.1074 719.189 36.8184 719.717 34.9902 719.717C34.5449 719.717 34.1992 719.699 33.9531 719.664C33.7188 719.629 33.4258 719.564 33.0742 719.471V716.588C33.625 716.74 34.0234 716.834 34.2695 716.869C34.5156 716.904 34.7324 716.922 34.9199 716.922C35.5059 716.922 35.9336 716.822 36.2031 716.623C36.4844 716.436 36.7188 716.201 36.9062 715.92C36.9648 715.826 37.1758 715.346 37.5391 714.479C37.9023 713.611 38.166 712.967 38.3301 712.545L31.3691 693.174H34.9551L40 708.502L45.0801 693.174Z" fill="black"/>
<path id="2" d="M50.1055 733C50.2227 730.832 50.668 728.945 51.4414 727.34C52.2266 725.734 53.75 724.275 56.0117 722.963L59.3867 721.012C60.8984 720.133 61.959 719.383 62.5684 718.762C63.5293 717.789 64.0098 716.676 64.0098 715.422C64.0098 713.957 63.5703 712.797 62.6914 711.941C61.8125 711.074 60.6406 710.641 59.1758 710.641C57.0078 710.641 55.5078 711.461 54.6758 713.102C54.2305 713.98 53.9844 715.199 53.9375 716.758H50.7207C50.7559 714.566 51.1602 712.779 51.9336 711.396C53.3047 708.959 55.7246 707.74 59.1934 707.74C62.0762 707.74 64.1797 708.52 65.5039 710.078C66.8398 711.637 67.5078 713.371 67.5078 715.281C67.5078 717.297 66.7988 719.02 65.3809 720.449C64.5605 721.281 63.0898 722.289 60.9688 723.473L58.5605 724.809C57.4121 725.441 56.5098 726.045 55.8535 726.619C54.6816 727.639 53.9434 728.77 53.6387 730.012H67.3848V733H50.1055Z" fill="black"/>
</g>
<g id="Y3">
<path id="y_4" d="M45.0801 916.174H48.5781C48.1328 917.381 47.1426 920.135 45.6074 924.436C44.459 927.67 43.498 930.307 42.7246 932.346C40.8965 937.15 39.6074 940.08 38.8574 941.135C38.1074 942.189 36.8184 942.717 34.9902 942.717C34.5449 942.717 34.1992 942.699 33.9531 942.664C33.7188 942.629 33.4258 942.564 33.0742 942.471V939.588C33.625 939.74 34.0234 939.834 34.2695 939.869C34.5156 939.904 34.7324 939.922 34.9199 939.922C35.5059 939.922 35.9336 939.822 36.2031 939.623C36.4844 939.436 36.7188 939.201 36.9062 938.92C36.9648 938.826 37.1758 938.346 37.5391 937.479C37.9023 936.611 38.166 935.967 38.3301 935.545L31.3691 916.174H34.9551L40 931.502L45.0801 916.174Z" fill="black"/>
<path id="3" d="M58.332 956.686C55.3555 956.686 53.1934 955.871 51.8457 954.242C50.5098 952.602 49.8418 950.609 49.8418 948.266H53.1465C53.2871 949.895 53.5918 951.078 54.0605 951.816C54.8809 953.141 56.3633 953.803 58.5078 953.803C60.1719 953.803 61.5078 953.357 62.5156 952.467C63.5234 951.576 64.0273 950.428 64.0273 949.021C64.0273 947.287 63.4941 946.074 62.4277 945.383C61.373 944.691 59.9023 944.346 58.0156 944.346C57.8047 944.346 57.5879 944.352 57.3652 944.363C57.1543 944.363 56.9375 944.369 56.7148 944.381V941.586C57.043 941.621 57.3184 941.645 57.541 941.656C57.7637 941.668 58.0039 941.674 58.2617 941.674C59.4453 941.674 60.418 941.486 61.1797 941.111C62.5156 940.455 63.1836 939.283 63.1836 937.596C63.1836 936.342 62.7383 935.375 61.8477 934.695C60.957 934.016 59.9199 933.676 58.7363 933.676C56.627 933.676 55.168 934.379 54.3594 935.785C53.9141 936.559 53.6621 937.66 53.6035 939.09H50.4746C50.4746 937.215 50.8496 935.621 51.5996 934.309C52.8887 931.965 55.1562 930.793 58.4023 930.793C60.9688 930.793 62.9551 931.367 64.3613 932.516C65.7676 933.652 66.4707 935.305 66.4707 937.473C66.4707 939.02 66.0547 940.273 65.2227 941.234C64.707 941.832 64.0391 942.301 63.2188 942.641C64.543 943.004 65.5742 943.707 66.3125 944.75C67.0625 945.781 67.4375 947.047 67.4375 948.547C67.4375 950.949 66.6465 952.906 65.0645 954.418C63.4824 955.93 61.2383 956.686 58.332 956.686Z" fill="black"/>
</g>
<g id="S0">
<path id="S" d="M848.021 222.668C848.104 224.133 848.449 225.322 849.059 226.236C850.219 227.947 852.264 228.803 855.193 228.803C856.506 228.803 857.701 228.615 858.779 228.24C860.865 227.514 861.908 226.213 861.908 224.338C861.908 222.932 861.469 221.93 860.59 221.332C859.699 220.746 858.305 220.236 856.406 219.803L852.908 219.012C850.623 218.496 849.006 217.928 848.057 217.307C846.416 216.229 845.596 214.617 845.596 212.473C845.596 210.152 846.398 208.248 848.004 206.76C849.609 205.271 851.883 204.527 854.824 204.527C857.531 204.527 859.828 205.184 861.715 206.496C863.613 207.797 864.562 209.883 864.562 212.754H861.275C861.1 211.371 860.725 210.311 860.15 209.572C859.084 208.225 857.273 207.551 854.719 207.551C852.656 207.551 851.174 207.984 850.271 208.852C849.369 209.719 848.918 210.727 848.918 211.875C848.918 213.141 849.445 214.066 850.5 214.652C851.191 215.027 852.756 215.496 855.193 216.059L858.814 216.885C860.561 217.283 861.908 217.828 862.857 218.52C864.498 219.727 865.318 221.479 865.318 223.775C865.318 226.635 864.275 228.68 862.189 229.91C860.115 231.141 857.701 231.756 854.947 231.756C851.736 231.756 849.223 230.936 847.406 229.295C845.59 227.666 844.699 225.457 844.734 222.668H848.021Z" fill="black"/>
<path id="0_2" d="M873.719 226.828C876.977 226.828 879.332 228.17 880.785 230.854C881.91 232.928 882.473 235.77 882.473 239.379C882.473 242.801 881.963 245.631 880.943 247.869C879.467 251.08 877.053 252.686 873.701 252.686C870.678 252.686 868.428 251.373 866.951 248.748C865.721 246.557 865.105 243.615 865.105 239.924C865.105 237.064 865.475 234.609 866.213 232.559C867.596 228.738 870.098 226.828 873.719 226.828ZM873.684 249.803C875.324 249.803 876.631 249.076 877.604 247.623C878.576 246.17 879.062 243.463 879.062 239.502C879.062 236.643 878.711 234.293 878.008 232.453C877.305 230.602 875.939 229.676 873.912 229.676C872.049 229.676 870.684 230.555 869.816 232.312C868.961 234.059 868.533 236.637 868.533 240.047C868.533 242.613 868.809 244.676 869.359 246.234C870.203 248.613 871.645 249.803 873.684 249.803Z" fill="black"/>
</g>
<g id="S1">
<path id="S_2" d="M848.021 430.668C848.104 432.133 848.449 433.322 849.059 434.236C850.219 435.947 852.264 436.803 855.193 436.803C856.506 436.803 857.701 436.615 858.779 436.24C860.865 435.514 861.908 434.213 861.908 432.338C861.908 430.932 861.469 429.93 860.59 429.332C859.699 428.746 858.305 428.236 856.406 427.803L852.908 427.012C850.623 426.496 849.006 425.928 848.057 425.307C846.416 424.229 845.596 422.617 845.596 420.473C845.596 418.152 846.398 416.248 848.004 414.76C849.609 413.271 851.883 412.527 854.824 412.527C857.531 412.527 859.828 413.184 861.715 414.496C863.613 415.797 864.562 417.883 864.562 420.754H861.275C861.1 419.371 860.725 418.311 860.15 417.572C859.084 416.225 857.273 415.551 854.719 415.551C852.656 415.551 851.174 415.984 850.271 416.852C849.369 417.719 848.918 418.727 848.918 419.875C848.918 421.141 849.445 422.066 850.5 422.652C851.191 423.027 852.756 423.496 855.193 424.059L858.814 424.885C860.561 425.283 861.908 425.828 862.857 426.52C864.498 427.727 865.318 429.479 865.318 431.775C865.318 434.635 864.275 436.68 862.189 437.91C860.115 439.141 857.701 439.756 854.947 439.756C851.736 439.756 849.223 438.936 847.406 437.295C845.59 435.666 844.699 433.457 844.734 430.668H848.021Z" fill="black"/>
<path id="1_2" d="M867.426 442.176V439.75C869.711 439.527 871.305 439.158 872.207 438.643C873.109 438.115 873.783 436.879 874.229 434.934H876.725V460H873.35V442.176H867.426Z" fill="black"/>
</g>
<g id="S2">
<path id="S_3" d="M845.021 703.668C845.104 705.133 845.449 706.322 846.059 707.236C847.219 708.947 849.264 709.803 852.193 709.803C853.506 709.803 854.701 709.615 855.779 709.24C857.865 708.514 858.908 707.213 858.908 705.338C858.908 703.932 858.469 702.93 857.59 702.332C856.699 701.746 855.305 701.236 853.406 700.803L849.908 700.012C847.623 699.496 846.006 698.928 845.057 698.307C843.416 697.229 842.596 695.617 842.596 693.473C842.596 691.152 843.398 689.248 845.004 687.76C846.609 686.271 848.883 685.527 851.824 685.527C854.531 685.527 856.828 686.184 858.715 687.496C860.613 688.797 861.562 690.883 861.562 693.754H858.275C858.1 692.371 857.725 691.311 857.15 690.572C856.084 689.225 854.273 688.551 851.719 688.551C849.656 688.551 848.174 688.984 847.271 689.852C846.369 690.719 845.918 691.727 845.918 692.875C845.918 694.141 846.445 695.066 847.5 695.652C848.191 696.027 849.756 696.496 852.193 697.059L855.814 697.885C857.561 698.283 858.908 698.828 859.857 699.52C861.498 700.727 862.318 702.479 862.318 704.775C862.318 707.635 861.275 709.68 859.189 710.91C857.115 712.141 854.701 712.756 851.947 712.756C848.736 712.756 846.223 711.936 844.406 710.295C842.59 708.666 841.699 706.457 841.734 703.668H845.021Z" fill="black"/>
<path id="2_2" d="M862.105 733C862.223 730.832 862.668 728.945 863.441 727.34C864.227 725.734 865.75 724.275 868.012 722.963L871.387 721.012C872.898 720.133 873.959 719.383 874.568 718.762C875.529 717.789 876.01 716.676 876.01 715.422C876.01 713.957 875.57 712.797 874.691 711.941C873.812 711.074 872.641 710.641 871.176 710.641C869.008 710.641 867.508 711.461 866.676 713.102C866.23 713.98 865.984 715.199 865.938 716.758H862.721C862.756 714.566 863.16 712.779 863.934 711.396C865.305 708.959 867.725 707.74 871.193 707.74C874.076 707.74 876.18 708.52 877.504 710.078C878.84 711.637 879.508 713.371 879.508 715.281C879.508 717.297 878.799 719.02 877.381 720.449C876.561 721.281 875.09 722.289 872.969 723.473L870.561 724.809C869.412 725.441 868.51 726.045 867.854 726.619C866.682 727.639 865.943 728.77 865.639 730.012H879.385V733H862.105Z" fill="black"/>
</g>
<g id="S3">
<path id="S_4" d="M845.021 907.668C845.104 909.133 845.449 910.322 846.059 911.236C847.219 912.947 849.264 913.803 852.193 913.803C853.506 913.803 854.701 913.615 855.779 913.24C857.865 912.514 858.908 911.213 858.908 909.338C858.908 907.932 858.469 906.93 857.59 906.332C856.699 905.746 855.305 905.236 853.406 904.803L849.908 904.012C847.623 903.496 846.006 902.928 845.057 902.307C843.416 901.229 842.596 899.617 842.596 897.473C842.596 895.152 843.398 893.248 845.004 891.76C846.609 890.271 848.883 889.527 851.824 889.527C854.531 889.527 856.828 890.184 858.715 891.496C860.613 892.797 861.562 894.883 861.562 897.754H858.275C858.1 896.371 857.725 895.311 857.15 894.572C856.084 893.225 854.273 892.551 851.719 892.551C849.656 892.551 848.174 892.984 847.271 893.852C846.369 894.719 845.918 895.727 845.918 896.875C845.918 898.141 846.445 899.066 847.5 899.652C848.191 900.027 849.756 900.496 852.193 901.059L855.814 901.885C857.561 902.283 858.908 902.828 859.857 903.52C861.498 904.727 862.318 906.479 862.318 908.775C862.318 911.635 861.275 913.68 859.189 914.91C857.115 916.141 854.701 916.756 851.947 916.756C848.736 916.756 846.223 915.936 844.406 914.295C842.59 912.666 841.699 910.457 841.734 907.668H845.021Z" fill="black"/>
<path id="3_2" d="M870.332 937.686C867.355 937.686 865.193 936.871 863.846 935.242C862.51 933.602 861.842 931.609 861.842 929.266H865.146C865.287 930.895 865.592 932.078 866.061 932.816C866.881 934.141 868.363 934.803 870.508 934.803C872.172 934.803 873.508 934.357 874.516 933.467C875.523 932.576 876.027 931.428 876.027 930.021C876.027 928.287 875.494 927.074 874.428 926.383C873.373 925.691 871.902 925.346 870.016 925.346C869.805 925.346 869.588 925.352 869.365 925.363C869.154 925.363 868.938 925.369 868.715 925.381V922.586C869.043 922.621 869.318 922.645 869.541 922.656C869.764 922.668 870.004 922.674 870.262 922.674C871.445 922.674 872.418 922.486 873.18 922.111C874.516 921.455 875.184 920.283 875.184 918.596C875.184 917.342 874.738 916.375 873.848 915.695C872.957 915.016 871.92 914.676 870.736 914.676C868.627 914.676 867.168 915.379 866.359 916.785C865.914 917.559 865.662 918.66 865.604 920.09H862.475C862.475 918.215 862.85 916.621 863.6 915.309C864.889 912.965 867.156 911.793 870.402 911.793C872.969 911.793 874.955 912.367 876.361 913.516C877.768 914.652 878.471 916.305 878.471 918.473C878.471 920.02 878.055 921.273 877.223 922.234C876.707 922.832 876.039 923.301 875.219 923.641C876.543 924.004 877.574 924.707 878.312 925.75C879.062 926.781 879.438 928.047 879.438 929.547C879.438 931.949 878.646 933.906 877.064 935.418C875.482 936.93 873.238 937.686 870.332 937.686Z" fill="black"/>
</g>
<path id="WireY0_Shifter" d="M411 207L396 198.34V215.66L411 207ZM72 207V208.5H397.5V207V205.5H72V207Z" fill="black"/>
<path id="WireY1_Shifter" d="M413 403L398 411.66V404.5H380V427.149C383.423 427.844 386 430.872 386 434.5C386 438.128 383.423 441.155 380 441.85V468.5H398V461.34L413 470L398 478.66V471.5H377V441.85C374.061 441.253 371.747 438.939 371.15 436H72V433H371.15C371.747 430.061 374.061 427.746 377 427.149V401.5H398V394.34L413 403Z" fill="black"/>
<path id="WireY2_Shifter" d="M411 671L396 679.66V672.5H378V700.149C381.423 700.844 384 703.872 384 707.5C384 711.128 381.423 714.155 378 714.85V736.5H396V729.34L411 738L396 746.66V739.5H375V714.85C372.061 714.253 369.747 711.939 369.15 709H72V706H369.15C369.747 703.061 372.061 700.746 375 700.149V669.5H396V662.34L411 671Z" fill="black"/>
<path id="WireY3_Shifter" d="M411 932L396 923.34V940.66L411 932ZM72 932V933.5H397.5V932V930.5H72V932Z" fill="black"/>
<path id="WireShiftDirection_Shifter" d="M200 51.1494C202.939 51.7459 205.253 54.0613 205.85 57H288.5V75.5H295.66L287 90.5L278.34 75.5H285.5V60H205.85C205.253 62.9386 202.939 65.2531 200 65.8496V239.149C203.103 239.779 205.509 242.326 205.932 245.5H396V238.34L411 247L396 255.66V248.5H205.729C204.983 251.199 202.77 253.287 200 253.85V507.149C203.103 507.779 205.509 510.326 205.932 513.5H396V506.34L411 515L396 523.66V516.5H205.729C204.983 519.199 202.77 521.287 200 521.85V774H396V766.84L411 775.5L396 784.16V777H197V521.85C193.577 521.155 191 518.128 191 514.5C191 510.872 193.577 507.844 197 507.149V253.85C193.577 253.155 191 250.128 191 246.5C191 242.872 193.577 239.844 197 239.149V65.8496C193.577 65.1547 191 62.1284 191 58.5C191 54.8715 193.577 51.8443 197 51.1494V26H200V51.1494Z" fill="black"/>
<path id="WireShiftDirectionNot_Shifter" d="M288.5 356.067C291.842 356.513 294.486 359.158 294.932 362.5H396V355.34L411 364L396 372.66V365.5H294.729C293.939 368.359 291.501 370.532 288.5 370.932V623.646C291.447 624.237 293.769 626.555 294.367 629.5H396V622.34L411 631L396 639.66V632.5H294.367C293.769 635.444 291.447 637.762 288.5 638.353V891.5H396V884.34L411 893L396 901.66V894.5H285.5V638.346C282.085 637.644 279.518 634.622 279.518 631C279.518 627.378 282.085 624.355 285.5 623.653V370.728C282.329 369.852 280 366.949 280 363.5C280 360.051 282.329 357.147 285.5 356.271V138H288.5V356.067Z" fill="black"/>
<path id="WireAND0_Shifter" d="M614 417L599 408.34V425.66L614 417ZM577.5 417V418.5H600.5V417V415.5H577.5V417ZM511 228.5V230H539V228.5V227H511V228.5ZM537.5 227.5L536.035 227.82L577.535 417.82L579 417.5L580.465 417.18L538.965 227.18L537.5 227.5Z" fill="black"/>
<path id="WireAND2_Shifter" d="M614.5 689L599.5 680.34V697.66L614.5 689ZM578 689V690.5H601V689V687.5H578V689ZM511 494.5V496H539V494.5V493H511V494.5ZM537.5 493.5L536.034 493.817L578.534 690.317L580 690L581.466 689.683L538.966 493.183L537.5 493.5Z" fill="black"/>
<path id="WireAND3_Shifter" d="M614.5 450L599.5 441.34V458.66L614.5 450ZM578 450V451.5H601V450V448.5H578V450ZM511 647.5V649H539V647.5V646H511V647.5ZM537.5 648.5L538.968 648.809L580.968 449.309L579.5 449L578.032 448.691L536.032 648.191L537.5 648.5Z" fill="black"/>
<path id="WireAND5_Shifter" d="M615 722L600 713.34V730.66L615 722ZM578.5 722V723.5H601.5V722V720.5H578.5V722ZM511 915.5V917H539V915.5V914H511V915.5ZM537.531 916.699L538.996 917.017L581.466 721.318L580 721L578.534 720.682L536.065 916.38L537.531 916.699Z" fill="black"/>
<path id="WireS0_Shifter" d="M835.5 227.805L820.5 219.145V236.465L835.5 227.805ZM511 383.5V385H537.862V383.5V382H511V383.5ZM537.862 383.5V385H539V383.5V382H537.862V383.5ZM537.5 384.5L538.91 385.01L539.272 384.01L537.862 383.5L536.451 382.99L536.09 383.99L537.5 384.5ZM537.862 383.5L539.272 384.01L595.619 228.315L594.209 227.805L592.798 227.295L536.451 382.99L537.862 383.5ZM594.209 227.805L595.619 228.315L595.91 227.51L594.5 227L593.09 226.49L592.798 227.295L594.209 227.805ZM593.095 227.805V229.305H594.209V227.805V226.305H593.095V227.805ZM594.209 227.805V229.305H822V227.805V226.305H594.209V227.805Z" fill="black"/>
<path id="WireS1_Shifter" d="M834.5 435.553L819.5 426.893V444.214L834.5 435.553ZM709 435.553V437.053H821V435.553V434.053H709V435.553Z" fill="black"/>
<path id="WireS2_Shifter" d="M835 709L820 700.34V717.66L835 709ZM708.5 709V710.5H821.5V709V707.5H708.5V709Z" fill="black"/>
<path id="WireS3_Shifter" d="M836 915L821 906.34V923.66L836 915ZM511 761.5V763H537.779V761.5V760H511V761.5ZM537.779 761.5V763H539V761.5V760H537.779V761.5ZM537.5 760.5L536.055 760.903L536.334 761.903L537.779 761.5L539.224 761.097L538.945 760.097L537.5 760.5ZM537.779 761.5L536.334 761.903L579.007 915.026L580.452 914.623L581.897 914.22L539.224 761.097L537.779 761.5ZM579 915V916.5H822.5V915V913.5H579V915Z" fill="black"/>
<g id="ANDGate0_Shifter">
<path id="AND Gate" d="M412.5 186.806C416.368 186.293 428.675 184.913 443.476 185.779C461.501 186.835 482.902 191.208 497.382 204.209C503.951 210.107 507.22 216.335 508.854 221.07C509.671 223.441 510.08 225.441 510.286 226.841C510.389 227.54 510.442 228.09 510.469 228.461C510.482 228.646 510.49 228.787 510.494 228.883C510.496 228.932 510.498 228.967 510.499 229C510.499 229.003 510.499 229.007 510.499 229.011C510.499 229.027 510.498 229.049 510.497 229.076C510.494 229.154 510.489 229.279 510.477 229.445C510.452 229.779 510.403 230.282 510.303 230.931C510.102 232.228 509.698 234.104 508.883 236.354C507.255 240.849 503.983 246.864 497.382 252.791C482.894 265.799 461.478 270.17 443.446 271.223C434.465 271.747 426.401 271.443 420.581 271.009C417.673 270.792 415.328 270.543 413.714 270.348C413.246 270.291 412.841 270.238 412.5 270.193V186.806Z" fill="white" stroke="black" stroke-width="3"/>
</g>
<g id="ANDGate1_Shifter">
<path id="AND Gate_2" d="M412.5 340.806C416.368 340.293 428.675 338.913 443.476 339.779C461.501 340.835 482.902 345.208 497.382 358.209C503.951 364.107 507.22 370.335 508.854 375.07C509.671 377.441 510.08 379.441 510.286 380.841C510.389 381.54 510.442 382.09 510.469 382.461C510.482 382.646 510.49 382.787 510.494 382.883C510.496 382.932 510.498 382.967 510.499 383C510.499 383.003 510.499 383.007 510.499 383.011C510.499 383.027 510.498 383.049 510.497 383.076C510.494 383.154 510.489 383.279 510.477 383.445C510.452 383.779 510.403 384.282 510.303 384.931C510.102 386.228 509.698 388.104 508.883 390.354C507.255 394.849 503.983 400.864 497.382 406.791C482.894 419.799 461.478 424.17 443.446 425.223C434.465 425.747 426.401 425.443 420.581 425.009C417.673 424.792 415.328 424.543 413.714 424.348C413.246 424.291 412.841 424.238 412.5 424.193V340.806Z" fill="white" stroke="black" stroke-width="3"/>
</g>
<g id="ANDGate2_Shifter">
<path id="AND Gate_3" d="M412.5 452.806C416.368 452.293 428.675 450.913 443.476 451.779C461.501 452.835 482.902 457.208 497.382 470.209C503.951 476.107 507.22 482.335 508.854 487.07C509.671 489.441 510.08 491.441 510.286 492.841C510.389 493.54 510.442 494.09 510.469 494.461C510.482 494.646 510.49 494.787 510.494 494.883C510.496 494.932 510.498 494.967 510.499 495C510.499 495.003 510.499 495.007 510.499 495.011C510.499 495.027 510.498 495.049 510.497 495.076C510.494 495.154 510.489 495.279 510.477 495.445C510.452 495.779 510.403 496.282 510.303 496.931C510.102 498.228 509.698 500.104 508.883 502.354C507.255 506.849 503.983 512.864 497.382 518.791C482.894 531.799 461.478 536.17 443.446 537.223C434.465 537.747 426.401 537.443 420.581 537.009C417.673 536.792 415.328 536.543 413.714 536.348C413.246 536.291 412.841 536.238 412.5 536.193V452.806Z" fill="white" stroke="black" stroke-width="3"/>
</g>
<g id="ANDGate3_Shifter">
<path id="AND Gate_4" d="M412.5 690.194C416.368 690.707 428.675 692.087 443.476 691.221C461.501 690.165 482.902 685.792 497.382 672.791C503.951 666.893 507.22 660.665 508.854 655.93C509.671 653.559 510.08 651.559 510.286 650.159C510.389 649.46 510.442 648.91 510.469 648.539C510.482 648.354 510.49 648.213 510.494 648.117C510.496 648.068 510.498 648.033 510.499 648C510.499 647.997 510.499 647.993 510.499 647.989C510.499 647.973 510.498 647.951 510.497 647.924C510.494 647.846 510.489 647.721 510.477 647.555C510.452 647.221 510.403 646.718 510.303 646.069C510.102 644.772 509.698 642.896 508.883 640.646C507.255 636.151 503.983 630.136 497.382 624.209C482.894 611.201 461.478 606.83 443.446 605.777C434.465 605.253 426.401 605.557 420.581 605.991C417.673 606.208 415.328 606.457 413.714 606.652C413.246 606.709 412.841 606.762 412.5 606.807V690.194Z" fill="white" stroke="black" stroke-width="3"/>
</g>
<g id="ANDGate4_Shifter">
<path id="AND Gate_5" d="M412.5 802.194C416.368 802.707 428.675 804.087 443.476 803.221C461.501 802.165 482.902 797.792 497.382 784.791C503.951 778.893 507.22 772.665 508.854 767.93C509.671 765.559 510.08 763.559 510.286 762.159C510.389 761.46 510.442 760.91 510.469 760.539C510.482 760.354 510.49 760.213 510.494 760.117C510.496 760.068 510.498 760.033 510.499 760C510.499 759.997 510.499 759.993 510.499 759.989C510.499 759.973 510.498 759.951 510.497 759.924C510.494 759.846 510.489 759.721 510.477 759.555C510.452 759.221 510.403 758.718 510.303 758.069C510.102 756.772 509.698 754.896 508.883 752.646C507.255 748.151 503.983 742.136 497.382 736.209C482.894 723.201 461.478 718.83 443.446 717.777C434.465 717.253 426.401 717.557 420.581 717.991C417.673 718.208 415.328 718.457 413.714 718.652C413.246 718.709 412.841 718.762 412.5 718.807V802.194Z" fill="white" stroke="black" stroke-width="3"/>
</g>
<g id="ANDGate5_Shifter">
<path id="AND Gate_6" d="M412.5 956.194C416.368 956.707 428.675 958.087 443.476 957.221C461.501 956.165 482.902 951.792 497.382 938.791C503.951 932.893 507.22 926.665 508.854 921.93C509.671 919.559 510.08 917.559 510.286 916.159C510.389 915.46 510.442 914.91 510.469 914.539C510.482 914.354 510.49 914.213 510.494 914.117C510.496 914.068 510.498 914.033 510.499 914C510.499 913.997 510.499 913.993 510.499 913.989C510.499 913.973 510.498 913.951 510.497 913.924C510.494 913.846 510.489 913.721 510.477 913.555C510.452 913.221 510.403 912.718 510.303 912.069C510.102 910.772 509.698 908.896 508.883 906.646C507.255 902.151 503.983 896.136 497.382 890.209C482.894 877.201 461.478 872.83 443.446 871.777C434.465 871.253 426.401 871.557 420.581 871.991C417.673 872.208 415.328 872.457 413.714 872.652C413.246 872.709 412.841 872.762 412.5 872.807V956.194Z" fill="white" stroke="black" stroke-width="3"/>
</g>
<g id="ORGate0_Shifter">
<path id="ORGate" d="M709 435.5C687.436 464.175 658.057 479.333 628.2 480H608C619.201 445.339 619.203 425.846 608 391H628.2C658.057 391.667 687.436 406.825 709 435.5Z" fill="white" stroke="black" stroke-width="3"/>
</g>
<g id="ORGate1_Shifter">
<path id="ORGate_2" d="M709 708.5C687.436 737.175 658.057 752.333 628.2 753H608C619.201 718.339 619.203 698.846 608 664H628.2C658.057 664.667 687.436 679.825 709 708.5Z" fill="white" stroke="black" stroke-width="3"/>
</g>
<g id="NotGate_Shifter">
<path id="Buffer" d="M285.701 129.75L264.916 93.75L263.617 91.5L310.383 91.5L309.084 93.75L288.299 129.75L287 132L285.701 129.75Z" fill="white" stroke="black" stroke-width="3"/>
<circle id="Not" cx="287" cy="135" r="3" transform="rotate(90 287 135)" fill="#D9D9D9" stroke="black" stroke-width="2"/>
</g>
</svg>
