<svg width="1525" height="595" viewBox="0 0 1525 595" fill="none" xmlns="http://www.w3.org/2000/svg">
<rect id="Background_BranchCondCheck" width="1525" height="595" fill="transparent"/>
<line id="Line 12" x1="1352.94" y1="183.939" x2="1378.94" y2="157.939" stroke="black" stroke-width="3"/>
<path id="32" d="M1361.06 203.381C1359.41 203.381 1358.21 202.928 1357.46 202.023C1356.72 201.112 1356.35 200.005 1356.35 198.703H1358.18C1358.26 199.608 1358.43 200.266 1358.69 200.676C1359.15 201.411 1359.97 201.779 1361.16 201.779C1362.08 201.779 1362.83 201.532 1363.39 201.037C1363.95 200.542 1364.23 199.904 1364.23 199.123C1364.23 198.16 1363.93 197.486 1363.34 197.102C1362.75 196.717 1361.93 196.525 1360.89 196.525C1360.77 196.525 1360.65 196.529 1360.53 196.535C1360.41 196.535 1360.29 196.538 1360.16 196.545V194.992C1360.35 195.012 1360.5 195.025 1360.62 195.031C1360.75 195.038 1360.88 195.041 1361.02 195.041C1361.68 195.041 1362.22 194.937 1362.64 194.729C1363.39 194.364 1363.76 193.713 1363.76 192.775C1363.76 192.079 1363.51 191.542 1363.02 191.164C1362.52 190.786 1361.94 190.598 1361.29 190.598C1360.12 190.598 1359.3 190.988 1358.86 191.77C1358.61 192.199 1358.47 192.811 1358.44 193.605H1356.7C1356.7 192.564 1356.91 191.678 1357.32 190.949C1358.04 189.647 1359.3 188.996 1361.1 188.996C1362.53 188.996 1363.63 189.315 1364.41 189.953C1365.19 190.585 1365.58 191.503 1365.58 192.707C1365.58 193.566 1365.35 194.263 1364.89 194.797C1364.6 195.129 1364.23 195.389 1363.78 195.578C1364.51 195.78 1365.09 196.171 1365.5 196.75C1365.91 197.323 1366.12 198.026 1366.12 198.859C1366.12 200.194 1365.68 201.281 1364.8 202.121C1363.92 202.961 1362.68 203.381 1361.06 203.381ZM1367.62 203C1367.69 201.796 1367.94 200.747 1368.37 199.855C1368.8 198.964 1369.65 198.153 1370.91 197.424L1372.78 196.34C1373.62 195.852 1374.21 195.435 1374.55 195.09C1375.08 194.549 1375.35 193.931 1375.35 193.234C1375.35 192.421 1375.11 191.776 1374.62 191.301C1374.13 190.819 1373.48 190.578 1372.66 190.578C1371.46 190.578 1370.63 191.034 1370.16 191.945C1369.92 192.434 1369.78 193.111 1369.75 193.977H1367.97C1367.99 192.759 1368.21 191.766 1368.64 190.998C1369.4 189.644 1370.75 188.967 1372.67 188.967C1374.28 188.967 1375.44 189.4 1376.18 190.266C1376.92 191.132 1377.29 192.095 1377.29 193.156C1377.29 194.276 1376.9 195.233 1376.11 196.027C1375.66 196.49 1374.84 197.049 1373.66 197.707L1372.32 198.449C1371.68 198.801 1371.18 199.136 1370.82 199.455C1370.17 200.021 1369.76 200.65 1369.59 201.34H1377.22V203H1367.62Z" fill="black"/>
<line id="Line 13" x1="1352.94" y1="379.939" x2="1378.94" y2="353.939" stroke="black" stroke-width="3"/>
<path id="32_2" d="M1361.06 399.381C1359.41 399.381 1358.21 398.928 1357.46 398.023C1356.72 397.112 1356.35 396.005 1356.35 394.703H1358.18C1358.26 395.608 1358.43 396.266 1358.69 396.676C1359.15 397.411 1359.97 397.779 1361.16 397.779C1362.08 397.779 1362.83 397.532 1363.39 397.037C1363.95 396.542 1364.23 395.904 1364.23 395.123C1364.23 394.16 1363.93 393.486 1363.34 393.102C1362.75 392.717 1361.93 392.525 1360.89 392.525C1360.77 392.525 1360.65 392.529 1360.53 392.535C1360.41 392.535 1360.29 392.538 1360.16 392.545V390.992C1360.35 391.012 1360.5 391.025 1360.62 391.031C1360.75 391.038 1360.88 391.041 1361.02 391.041C1361.68 391.041 1362.22 390.937 1362.64 390.729C1363.39 390.364 1363.76 389.713 1363.76 388.775C1363.76 388.079 1363.51 387.542 1363.02 387.164C1362.52 386.786 1361.94 386.598 1361.29 386.598C1360.12 386.598 1359.3 386.988 1358.86 387.77C1358.61 388.199 1358.47 388.811 1358.44 389.605H1356.7C1356.7 388.564 1356.91 387.678 1357.32 386.949C1358.04 385.647 1359.3 384.996 1361.1 384.996C1362.53 384.996 1363.63 385.315 1364.41 385.953C1365.19 386.585 1365.58 387.503 1365.58 388.707C1365.58 389.566 1365.35 390.263 1364.89 390.797C1364.6 391.129 1364.23 391.389 1363.78 391.578C1364.51 391.78 1365.09 392.171 1365.5 392.75C1365.91 393.323 1366.12 394.026 1366.12 394.859C1366.12 396.194 1365.68 397.281 1364.8 398.121C1363.92 398.961 1362.68 399.381 1361.06 399.381ZM1367.62 399C1367.69 397.796 1367.94 396.747 1368.37 395.855C1368.8 394.964 1369.65 394.153 1370.91 393.424L1372.78 392.34C1373.62 391.852 1374.21 391.435 1374.55 391.09C1375.08 390.549 1375.35 389.931 1375.35 389.234C1375.35 388.421 1375.11 387.776 1374.62 387.301C1374.13 386.819 1373.48 386.578 1372.66 386.578C1371.46 386.578 1370.63 387.034 1370.16 387.945C1369.92 388.434 1369.78 389.111 1369.75 389.977H1367.97C1367.99 388.759 1368.21 387.766 1368.64 386.998C1369.4 385.644 1370.75 384.967 1372.67 384.967C1374.28 384.967 1375.44 385.4 1376.18 386.266C1376.92 387.132 1377.29 388.095 1377.29 389.156C1377.29 390.276 1376.9 391.233 1376.11 392.027C1375.66 392.49 1374.84 393.049 1373.66 393.707L1372.32 394.449C1371.68 394.801 1371.18 395.136 1370.82 395.455C1370.17 396.021 1369.76 396.65 1369.59 397.34H1377.22V399H1367.62Z" fill="black"/>
<line id="Line 15" x1="937.939" y1="277.939" x2="963.939" y2="251.939" stroke="black" stroke-width="3"/>
<path id="32_3" d="M946.062 297.381C944.409 297.381 943.208 296.928 942.459 296.023C941.717 295.112 941.346 294.005 941.346 292.703H943.182C943.26 293.608 943.429 294.266 943.689 294.676C944.145 295.411 944.969 295.779 946.16 295.779C947.085 295.779 947.827 295.532 948.387 295.037C948.947 294.542 949.227 293.904 949.227 293.123C949.227 292.16 948.93 291.486 948.338 291.102C947.752 290.717 946.935 290.525 945.887 290.525C945.77 290.525 945.649 290.529 945.525 290.535C945.408 290.535 945.288 290.538 945.164 290.545V288.992C945.346 289.012 945.499 289.025 945.623 289.031C945.747 289.038 945.88 289.041 946.023 289.041C946.681 289.041 947.221 288.937 947.645 288.729C948.387 288.364 948.758 287.713 948.758 286.775C948.758 286.079 948.51 285.542 948.016 285.164C947.521 284.786 946.945 284.598 946.287 284.598C945.115 284.598 944.305 284.988 943.855 285.77C943.608 286.199 943.468 286.811 943.436 287.605H941.697C941.697 286.564 941.906 285.678 942.322 284.949C943.038 283.647 944.298 282.996 946.102 282.996C947.527 282.996 948.631 283.315 949.412 283.953C950.193 284.585 950.584 285.503 950.584 286.707C950.584 287.566 950.353 288.263 949.891 288.797C949.604 289.129 949.233 289.389 948.777 289.578C949.513 289.78 950.086 290.171 950.496 290.75C950.913 291.323 951.121 292.026 951.121 292.859C951.121 294.194 950.682 295.281 949.803 296.121C948.924 296.961 947.677 297.381 946.062 297.381ZM952.625 297C952.69 295.796 952.938 294.747 953.367 293.855C953.803 292.964 954.65 292.153 955.906 291.424L957.781 290.34C958.621 289.852 959.21 289.435 959.549 289.09C960.083 288.549 960.35 287.931 960.35 287.234C960.35 286.421 960.105 285.776 959.617 285.301C959.129 284.819 958.478 284.578 957.664 284.578C956.46 284.578 955.626 285.034 955.164 285.945C954.917 286.434 954.78 287.111 954.754 287.977H952.967C952.986 286.759 953.211 285.766 953.641 284.998C954.402 283.644 955.747 282.967 957.674 282.967C959.275 282.967 960.444 283.4 961.18 284.266C961.922 285.132 962.293 286.095 962.293 287.156C962.293 288.276 961.899 289.233 961.111 290.027C960.656 290.49 959.839 291.049 958.66 291.707L957.322 292.449C956.684 292.801 956.183 293.136 955.818 293.455C955.167 294.021 954.757 294.65 954.588 295.34H962.225V297H952.625Z" fill="black"/>
<line id="Line 14" x1="700.939" y1="277.939" x2="726.939" y2="251.939" stroke="black" stroke-width="3"/>
<path id="1" d="M707.348 237.098V235.75C708.617 235.626 709.503 235.421 710.004 235.135C710.505 234.842 710.88 234.155 711.127 233.074H712.514V247H710.639V237.098H707.348Z" fill="black"/>
<path id="(RT)" d="M1440.97 155.756C1439.13 159.33 1437.93 161.961 1437.38 163.648C1436.55 166.215 1436.13 169.18 1436.13 172.543C1436.13 175.941 1436.61 179.047 1437.56 181.859C1438.14 183.594 1439.3 186.09 1441.02 189.348H1438.89C1437.18 186.676 1436.12 184.971 1435.71 184.232C1435.3 183.494 1434.86 182.492 1434.38 181.227C1433.72 179.492 1433.26 177.641 1433.01 175.672C1432.88 174.652 1432.81 173.68 1432.81 172.754C1432.81 169.285 1433.36 166.197 1434.45 163.49C1435.14 161.768 1436.58 159.189 1438.77 155.756H1440.97ZM1457.05 168.008C1458.69 168.008 1459.99 167.68 1460.94 167.023C1461.9 166.367 1462.38 165.184 1462.38 163.473C1462.38 161.633 1461.71 160.379 1460.38 159.711C1459.66 159.359 1458.71 159.184 1457.51 159.184H1448.97V168.008H1457.05ZM1445.47 156.178H1457.42C1459.39 156.178 1461.01 156.465 1462.29 157.039C1464.72 158.141 1465.93 160.174 1465.93 163.139C1465.93 164.686 1465.61 165.951 1464.96 166.936C1464.33 167.92 1463.44 168.711 1462.29 169.309C1463.3 169.719 1464.05 170.258 1464.56 170.926C1465.07 171.594 1465.36 172.678 1465.42 174.178L1465.54 177.641C1465.58 178.625 1465.66 179.357 1465.79 179.838C1466 180.658 1466.38 181.186 1466.91 181.42V182H1462.62C1462.51 181.777 1462.41 181.49 1462.34 181.139C1462.27 180.787 1462.21 180.107 1462.17 179.1L1461.96 174.793C1461.88 173.105 1461.25 171.975 1460.08 171.4C1459.41 171.084 1458.36 170.926 1456.93 170.926H1448.97V182H1445.47V156.178ZM1489.22 156.178V159.254H1480.52V182H1476.97V159.254H1468.27V156.178H1489.22ZM1490.94 189.348C1492.81 185.715 1494.01 183.066 1494.55 181.402C1495.37 178.883 1495.78 175.93 1495.78 172.543C1495.78 169.156 1495.3 166.057 1494.35 163.244C1493.77 161.51 1492.61 159.014 1490.89 155.756H1493.02C1494.82 158.639 1495.91 160.42 1496.29 161.1C1496.67 161.768 1497.09 162.693 1497.54 163.877C1498.1 165.342 1498.5 166.789 1498.73 168.219C1498.98 169.648 1499.1 171.025 1499.1 172.35C1499.1 175.818 1498.55 178.912 1497.45 181.631C1496.76 183.377 1495.32 185.949 1493.14 189.348H1490.94Z" fill="black"/>
<path id="BrTrue" d="M25.0762 298.094C26.5527 298.094 27.7012 297.889 28.5215 297.479C29.8105 296.834 30.4551 295.674 30.4551 293.998C30.4551 292.311 29.7695 291.174 28.3984 290.588C27.625 290.26 26.4766 290.096 24.9531 290.096H18.7129V298.094H25.0762ZM26.2539 310.012C28.3984 310.012 29.9277 309.391 30.8418 308.148C31.416 307.363 31.7031 306.414 31.7031 305.301C31.7031 303.426 30.8652 302.148 29.1895 301.469C28.2988 301.105 27.1211 300.924 25.6562 300.924H18.7129V310.012H26.2539ZM15.2852 287.178H26.377C29.4004 287.178 31.5508 288.08 32.8281 289.885C33.5781 290.951 33.9531 292.182 33.9531 293.576C33.9531 295.205 33.4902 296.541 32.5645 297.584C32.084 298.135 31.3926 298.639 30.4902 299.096C31.8145 299.6 32.8047 300.168 33.4609 300.801C34.6211 301.926 35.2012 303.479 35.2012 305.459C35.2012 307.123 34.6797 308.629 33.6367 309.977C32.0781 311.992 29.5996 313 26.2012 313H15.2852V287.178ZM39.0508 294.174H42.0566V297.426C42.3027 296.793 42.9062 296.025 43.8672 295.123C44.8281 294.209 45.9355 293.752 47.1895 293.752C47.248 293.752 47.3477 293.758 47.4883 293.77C47.6289 293.781 47.8691 293.805 48.209 293.84V297.18C48.0215 297.145 47.8457 297.121 47.6816 297.109C47.5293 297.098 47.3594 297.092 47.1719 297.092C45.5781 297.092 44.3535 297.607 43.498 298.639C42.6426 299.658 42.2148 300.836 42.2148 302.172V313H39.0508V294.174ZM70.1641 287.178V290.254H61.4629V313H57.9121V290.254H49.2109V287.178H70.1641ZM71.7109 294.174H74.7168V297.426C74.9629 296.793 75.5664 296.025 76.5273 295.123C77.4883 294.209 78.5957 293.752 79.8496 293.752C79.9082 293.752 80.0078 293.758 80.1484 293.77C80.2891 293.781 80.5293 293.805 80.8691 293.84V297.18C80.6816 297.145 80.5059 297.121 80.3418 297.109C80.1895 297.098 80.0195 297.092 79.832 297.092C78.2383 297.092 77.0137 297.607 76.1582 298.639C75.3027 299.658 74.875 300.836 74.875 302.172V313H71.7109V294.174ZM86.7754 294.174V306.672C86.7754 307.633 86.9277 308.418 87.2324 309.027C87.7949 310.152 88.8438 310.715 90.3789 310.715C92.582 310.715 94.082 309.73 94.8789 307.762C95.3125 306.707 95.5293 305.26 95.5293 303.42V294.174H98.6934V313H95.7051L95.7402 310.223C95.3301 310.938 94.8203 311.541 94.2109 312.033C93.0039 313.018 91.5391 313.51 89.8164 313.51C87.1328 313.51 85.3047 312.613 84.332 310.82C83.8047 309.859 83.541 308.576 83.541 306.971V294.174H86.7754ZM111.49 293.752C112.826 293.752 114.121 294.068 115.375 294.701C116.629 295.322 117.584 296.131 118.24 297.127C118.873 298.076 119.295 299.184 119.506 300.449C119.693 301.316 119.787 302.699 119.787 304.598H105.988C106.047 306.508 106.498 308.043 107.342 309.203C108.186 310.352 109.492 310.926 111.262 310.926C112.914 310.926 114.232 310.381 115.217 309.291C115.779 308.658 116.178 307.926 116.412 307.094H119.523C119.441 307.785 119.166 308.559 118.697 309.414C118.24 310.258 117.725 310.949 117.15 311.488C116.189 312.426 115 313.059 113.582 313.387C112.82 313.574 111.959 313.668 110.998 313.668C108.654 313.668 106.668 312.818 105.039 311.119C103.41 309.408 102.596 307.018 102.596 303.947C102.596 300.924 103.416 298.469 105.057 296.582C106.697 294.695 108.842 293.752 111.49 293.752ZM116.535 302.084C116.406 300.713 116.107 299.617 115.639 298.797C114.771 297.273 113.324 296.512 111.297 296.512C109.844 296.512 108.625 297.039 107.641 298.094C106.656 299.137 106.135 300.467 106.076 302.084H116.535Z" fill="black"/>
<path id="0" d="M533.719 172.828C536.977 172.828 539.332 174.17 540.785 176.854C541.91 178.928 542.473 181.77 542.473 185.379C542.473 188.801 541.963 191.631 540.943 193.869C539.467 197.08 537.053 198.686 533.701 198.686C530.678 198.686 528.428 197.373 526.951 194.748C525.721 192.557 525.105 189.615 525.105 185.924C525.105 183.064 525.475 180.609 526.213 178.559C527.596 174.738 530.098 172.828 533.719 172.828ZM533.684 195.803C535.324 195.803 536.631 195.076 537.604 193.623C538.576 192.17 539.062 189.463 539.062 185.502C539.062 182.643 538.711 180.293 538.008 178.453C537.305 176.602 535.939 175.676 533.912 175.676C532.049 175.676 530.684 176.555 529.816 178.312C528.961 180.059 528.533 182.637 528.533 186.047C528.533 188.613 528.809 190.676 529.359 192.234C530.203 194.613 531.645 195.803 533.684 195.803Z" fill="black"/>
<path id="(RS)" d="M1439.65 351.756C1437.81 355.33 1436.62 357.961 1436.06 359.648C1435.23 362.215 1434.82 365.18 1434.82 368.543C1434.82 371.941 1435.29 375.047 1436.24 377.859C1436.83 379.594 1437.98 382.09 1439.7 385.348H1437.58C1435.87 382.676 1434.8 380.971 1434.39 380.232C1433.98 379.494 1433.54 378.492 1433.06 377.227C1432.4 375.492 1431.95 373.641 1431.69 371.672C1431.56 370.652 1431.49 369.68 1431.49 368.754C1431.49 365.285 1432.04 362.197 1433.13 359.49C1433.82 357.768 1435.26 355.189 1437.45 351.756H1439.65ZM1455.73 364.008C1457.38 364.008 1458.67 363.68 1459.62 363.023C1460.58 362.367 1461.06 361.184 1461.06 359.473C1461.06 357.633 1460.39 356.379 1459.06 355.711C1458.34 355.359 1457.39 355.184 1456.19 355.184H1447.65V364.008H1455.73ZM1444.15 352.178H1456.1C1458.07 352.178 1459.7 352.465 1460.97 353.039C1463.4 354.141 1464.61 356.174 1464.61 359.139C1464.61 360.686 1464.29 361.951 1463.64 362.936C1463.01 363.92 1462.12 364.711 1460.97 365.309C1461.98 365.719 1462.74 366.258 1463.24 366.926C1463.76 367.594 1464.04 368.678 1464.1 370.178L1464.22 373.641C1464.26 374.625 1464.34 375.357 1464.47 375.838C1464.68 376.658 1465.06 377.186 1465.6 377.42V378H1461.31C1461.19 377.777 1461.1 377.49 1461.03 377.139C1460.96 376.787 1460.9 376.107 1460.85 375.1L1460.64 370.793C1460.56 369.105 1459.93 367.975 1458.76 367.4C1458.09 367.084 1457.04 366.926 1455.61 366.926H1447.65V378H1444.15V352.178ZM1472.03 369.668C1472.11 371.133 1472.46 372.322 1473.07 373.236C1474.23 374.947 1476.27 375.803 1479.2 375.803C1480.51 375.803 1481.71 375.615 1482.79 375.24C1484.87 374.514 1485.92 373.213 1485.92 371.338C1485.92 369.932 1485.48 368.93 1484.6 368.332C1483.71 367.746 1482.31 367.236 1480.41 366.803L1476.92 366.012C1474.63 365.496 1473.01 364.928 1472.06 364.307C1470.42 363.229 1469.6 361.617 1469.6 359.473C1469.6 357.152 1470.41 355.248 1472.01 353.76C1473.62 352.271 1475.89 351.527 1478.83 351.527C1481.54 351.527 1483.84 352.184 1485.72 353.496C1487.62 354.797 1488.57 356.883 1488.57 359.754H1485.28C1485.11 358.371 1484.73 357.311 1484.16 356.572C1483.09 355.225 1481.28 354.551 1478.73 354.551C1476.66 354.551 1475.18 354.984 1474.28 355.852C1473.38 356.719 1472.93 357.727 1472.93 358.875C1472.93 360.141 1473.45 361.066 1474.51 361.652C1475.2 362.027 1476.76 362.496 1479.2 363.059L1482.82 363.885C1484.57 364.283 1485.92 364.828 1486.87 365.52C1488.51 366.727 1489.33 368.479 1489.33 370.775C1489.33 373.635 1488.28 375.68 1486.2 376.91C1484.12 378.141 1481.71 378.756 1478.96 378.756C1475.74 378.756 1473.23 377.936 1471.41 376.295C1469.6 374.666 1468.71 372.457 1468.74 369.668H1472.03ZM1492.26 385.348C1494.12 381.715 1495.33 379.066 1495.87 377.402C1496.69 374.883 1497.1 371.93 1497.1 368.543C1497.1 365.156 1496.62 362.057 1495.67 359.244C1495.09 357.51 1493.93 355.014 1492.21 351.756H1494.34C1496.14 354.639 1497.23 356.42 1497.61 357.1C1497.99 357.768 1498.41 358.693 1498.85 359.877C1499.42 361.342 1499.81 362.789 1500.05 364.219C1500.29 365.648 1500.42 367.025 1500.42 368.35C1500.42 371.818 1499.87 374.912 1498.77 377.631C1498.07 379.377 1496.64 381.949 1494.46 385.348H1492.26Z" fill="black"/>
<path id="1_2" d="M1093.43 47.1758V44.75C1095.71 44.5273 1097.3 44.1582 1098.21 43.6426C1099.11 43.1152 1099.78 41.8789 1100.23 39.9336H1102.72V65H1099.35V47.1758H1093.43Z" fill="black"/>
<path id="BrType" d="M265.387 519.094C266.863 519.094 268.012 518.889 268.832 518.479C270.121 517.834 270.766 516.674 270.766 514.998C270.766 513.311 270.08 512.174 268.709 511.588C267.936 511.26 266.787 511.096 265.264 511.096H259.023V519.094H265.387ZM266.564 531.012C268.709 531.012 270.238 530.391 271.152 529.148C271.727 528.363 272.014 527.414 272.014 526.301C272.014 524.426 271.176 523.148 269.5 522.469C268.609 522.105 267.432 521.924 265.967 521.924H259.023V531.012H266.564ZM255.596 508.178H266.688C269.711 508.178 271.861 509.08 273.139 510.885C273.889 511.951 274.264 513.182 274.264 514.576C274.264 516.205 273.801 517.541 272.875 518.584C272.395 519.135 271.703 519.639 270.801 520.096C272.125 520.6 273.115 521.168 273.771 521.801C274.932 522.926 275.512 524.479 275.512 526.459C275.512 528.123 274.99 529.629 273.947 530.977C272.389 532.992 269.91 534 266.512 534H255.596V508.178ZM279.361 515.174H282.367V518.426C282.613 517.793 283.217 517.025 284.178 516.123C285.139 515.209 286.246 514.752 287.5 514.752C287.559 514.752 287.658 514.758 287.799 514.77C287.939 514.781 288.18 514.805 288.52 514.84V518.18C288.332 518.145 288.156 518.121 287.992 518.109C287.84 518.098 287.67 518.092 287.482 518.092C285.889 518.092 284.664 518.607 283.809 519.639C282.953 520.658 282.525 521.836 282.525 523.172V534H279.361V515.174ZM310.475 508.178V511.254H301.773V534H298.223V511.254H289.521V508.178H310.475ZM323.061 515.174H326.559C326.113 516.381 325.123 519.135 323.588 523.436C322.439 526.67 321.479 529.307 320.705 531.346C318.877 536.15 317.588 539.08 316.838 540.135C316.088 541.189 314.799 541.717 312.971 541.717C312.525 541.717 312.18 541.699 311.934 541.664C311.699 541.629 311.406 541.564 311.055 541.471V538.588C311.605 538.74 312.004 538.834 312.25 538.869C312.496 538.904 312.713 538.922 312.9 538.922C313.486 538.922 313.914 538.822 314.184 538.623C314.465 538.436 314.699 538.201 314.887 537.92C314.945 537.826 315.156 537.346 315.52 536.479C315.883 535.611 316.146 534.967 316.311 534.545L309.35 515.174H312.936L317.98 530.502L323.061 515.174ZM337.246 531.873C338.723 531.873 339.947 531.258 340.92 530.027C341.904 528.785 342.396 526.934 342.396 524.473C342.396 522.973 342.18 521.684 341.746 520.605C340.926 518.531 339.426 517.494 337.246 517.494C335.055 517.494 333.555 518.59 332.746 520.781C332.312 521.953 332.096 523.441 332.096 525.246C332.096 526.699 332.312 527.936 332.746 528.955C333.566 530.9 335.066 531.873 337.246 531.873ZM329.055 515.262H332.131V517.758C332.764 516.902 333.455 516.24 334.205 515.771C335.271 515.068 336.525 514.717 337.967 514.717C340.1 514.717 341.91 515.537 343.398 517.178C344.887 518.807 345.631 521.139 345.631 524.174C345.631 528.275 344.559 531.205 342.414 532.963C341.055 534.076 339.473 534.633 337.668 534.633C336.25 534.633 335.061 534.322 334.1 533.701C333.537 533.35 332.91 532.746 332.219 531.891V541.506H329.055V515.262ZM357.18 514.752C358.516 514.752 359.811 515.068 361.064 515.701C362.318 516.322 363.273 517.131 363.93 518.127C364.562 519.076 364.984 520.184 365.195 521.449C365.383 522.316 365.477 523.699 365.477 525.598H351.678C351.736 527.508 352.188 529.043 353.031 530.203C353.875 531.352 355.182 531.926 356.951 531.926C358.604 531.926 359.922 531.381 360.906 530.291C361.469 529.658 361.867 528.926 362.102 528.094H365.213C365.131 528.785 364.855 529.559 364.387 530.414C363.93 531.258 363.414 531.949 362.84 532.488C361.879 533.426 360.689 534.059 359.271 534.387C358.51 534.574 357.648 534.668 356.688 534.668C354.344 534.668 352.357 533.818 350.729 532.119C349.1 530.408 348.285 528.018 348.285 524.947C348.285 521.924 349.105 519.469 350.746 517.582C352.387 515.695 354.531 514.752 357.18 514.752ZM362.225 523.084C362.096 521.713 361.797 520.617 361.328 519.797C360.461 518.273 359.014 517.512 356.986 517.512C355.533 517.512 354.314 518.039 353.33 519.094C352.346 520.137 351.824 521.467 351.766 523.084H362.225Z" fill="black"/>
<path id="BrType MSB" d="M600.387 519.094C601.863 519.094 603.012 518.889 603.832 518.479C605.121 517.834 605.766 516.674 605.766 514.998C605.766 513.311 605.08 512.174 603.709 511.588C602.936 511.26 601.787 511.096 600.264 511.096H594.023V519.094H600.387ZM601.564 531.012C603.709 531.012 605.238 530.391 606.152 529.148C606.727 528.363 607.014 527.414 607.014 526.301C607.014 524.426 606.176 523.148 604.5 522.469C603.609 522.105 602.432 521.924 600.967 521.924H594.023V531.012H601.564ZM590.596 508.178H601.688C604.711 508.178 606.861 509.08 608.139 510.885C608.889 511.951 609.264 513.182 609.264 514.576C609.264 516.205 608.801 517.541 607.875 518.584C607.395 519.135 606.703 519.639 605.801 520.096C607.125 520.6 608.115 521.168 608.771 521.801C609.932 522.926 610.512 524.479 610.512 526.459C610.512 528.123 609.99 529.629 608.947 530.977C607.389 532.992 604.91 534 601.512 534H590.596V508.178ZM614.361 515.174H617.367V518.426C617.613 517.793 618.217 517.025 619.178 516.123C620.139 515.209 621.246 514.752 622.5 514.752C622.559 514.752 622.658 514.758 622.799 514.77C622.939 514.781 623.18 514.805 623.52 514.84V518.18C623.332 518.145 623.156 518.121 622.992 518.109C622.84 518.098 622.67 518.092 622.482 518.092C620.889 518.092 619.664 518.607 618.809 519.639C617.953 520.658 617.525 521.836 617.525 523.172V534H614.361V515.174ZM645.475 508.178V511.254H636.773V534H633.223V511.254H624.521V508.178H645.475ZM658.061 515.174H661.559C661.113 516.381 660.123 519.135 658.588 523.436C657.439 526.67 656.479 529.307 655.705 531.346C653.877 536.15 652.588 539.08 651.838 540.135C651.088 541.189 649.799 541.717 647.971 541.717C647.525 541.717 647.18 541.699 646.934 541.664C646.699 541.629 646.406 541.564 646.055 541.471V538.588C646.605 538.74 647.004 538.834 647.25 538.869C647.496 538.904 647.713 538.922 647.9 538.922C648.486 538.922 648.914 538.822 649.184 538.623C649.465 538.436 649.699 538.201 649.887 537.92C649.945 537.826 650.156 537.346 650.52 536.479C650.883 535.611 651.146 534.967 651.311 534.545L644.35 515.174H647.936L652.98 530.502L658.061 515.174ZM672.246 531.873C673.723 531.873 674.947 531.258 675.92 530.027C676.904 528.785 677.396 526.934 677.396 524.473C677.396 522.973 677.18 521.684 676.746 520.605C675.926 518.531 674.426 517.494 672.246 517.494C670.055 517.494 668.555 518.59 667.746 520.781C667.312 521.953 667.096 523.441 667.096 525.246C667.096 526.699 667.312 527.936 667.746 528.955C668.566 530.9 670.066 531.873 672.246 531.873ZM664.055 515.262H667.131V517.758C667.764 516.902 668.455 516.24 669.205 515.771C670.271 515.068 671.525 514.717 672.967 514.717C675.1 514.717 676.91 515.537 678.398 517.178C679.887 518.807 680.631 521.139 680.631 524.174C680.631 528.275 679.559 531.205 677.414 532.963C676.055 534.076 674.473 534.633 672.668 534.633C671.25 534.633 670.061 534.322 669.1 533.701C668.537 533.35 667.91 532.746 667.219 531.891V541.506H664.055V515.262ZM692.18 514.752C693.516 514.752 694.811 515.068 696.064 515.701C697.318 516.322 698.273 517.131 698.93 518.127C699.562 519.076 699.984 520.184 700.195 521.449C700.383 522.316 700.477 523.699 700.477 525.598H686.678C686.736 527.508 687.188 529.043 688.031 530.203C688.875 531.352 690.182 531.926 691.951 531.926C693.604 531.926 694.922 531.381 695.906 530.291C696.469 529.658 696.867 528.926 697.102 528.094H700.213C700.131 528.785 699.855 529.559 699.387 530.414C698.93 531.258 698.414 531.949 697.84 532.488C696.879 533.426 695.689 534.059 694.271 534.387C693.51 534.574 692.648 534.668 691.688 534.668C689.344 534.668 687.357 533.818 685.729 532.119C684.1 530.408 683.285 528.018 683.285 524.947C683.285 521.924 684.105 519.469 685.746 517.582C687.387 515.695 689.531 514.752 692.18 514.752ZM697.225 523.084C697.096 521.713 696.797 520.617 696.328 519.797C695.461 518.273 694.014 517.512 691.986 517.512C690.533 517.512 689.314 518.039 688.33 519.094C687.346 520.137 686.824 521.467 686.766 523.084H697.225ZM608.648 549.178H613.658L621.076 571.01L628.441 549.178H633.398V575H630.076V559.76C630.076 559.232 630.088 558.359 630.111 557.141C630.135 555.922 630.146 554.615 630.146 553.221L622.781 575H619.318L611.9 553.221V554.012C611.9 554.645 611.912 555.611 611.936 556.912C611.971 558.201 611.988 559.15 611.988 559.76V575H608.648V549.178ZM641.01 566.668C641.092 568.133 641.438 569.322 642.047 570.236C643.207 571.947 645.252 572.803 648.182 572.803C649.494 572.803 650.689 572.615 651.768 572.24C653.854 571.514 654.896 570.213 654.896 568.338C654.896 566.932 654.457 565.93 653.578 565.332C652.688 564.746 651.293 564.236 649.395 563.803L645.896 563.012C643.611 562.496 641.994 561.928 641.045 561.307C639.404 560.229 638.584 558.617 638.584 556.473C638.584 554.152 639.387 552.248 640.992 550.76C642.598 549.271 644.871 548.527 647.812 548.527C650.52 548.527 652.816 549.184 654.703 550.496C656.602 551.797 657.551 553.883 657.551 556.754H654.264C654.088 555.371 653.713 554.311 653.139 553.572C652.072 552.225 650.262 551.551 647.707 551.551C645.645 551.551 644.162 551.984 643.26 552.852C642.357 553.719 641.906 554.727 641.906 555.875C641.906 557.141 642.434 558.066 643.488 558.652C644.18 559.027 645.744 559.496 648.182 560.059L651.803 560.885C653.549 561.283 654.896 561.828 655.846 562.52C657.486 563.727 658.307 565.479 658.307 567.775C658.307 570.635 657.264 572.68 655.178 573.91C653.104 575.141 650.689 575.756 647.936 575.756C644.725 575.756 642.211 574.936 640.395 573.295C638.578 571.666 637.688 569.457 637.723 566.668H641.01ZM672.439 560.094C673.916 560.094 675.064 559.889 675.885 559.479C677.174 558.834 677.818 557.674 677.818 555.998C677.818 554.311 677.133 553.174 675.762 552.588C674.988 552.26 673.84 552.096 672.316 552.096H666.076V560.094H672.439ZM673.617 572.012C675.762 572.012 677.291 571.391 678.205 570.148C678.779 569.363 679.066 568.414 679.066 567.301C679.066 565.426 678.229 564.148 676.553 563.469C675.662 563.105 674.484 562.924 673.02 562.924H666.076V572.012H673.617ZM662.648 549.178H673.74C676.764 549.178 678.914 550.08 680.191 551.885C680.941 552.951 681.316 554.182 681.316 555.576C681.316 557.205 680.854 558.541 679.928 559.584C679.447 560.135 678.756 560.639 677.854 561.096C679.178 561.6 680.168 562.168 680.824 562.801C681.984 563.926 682.564 565.479 682.564 567.459C682.564 569.123 682.043 570.629 681 571.977C679.441 573.992 676.963 575 673.564 575H662.648V549.178Z" fill="black"/>
<path id="MSB" d="M1289.66 469.178H1294.67L1302.09 491.01L1309.45 469.178H1314.41V495H1311.09V479.76C1311.09 479.232 1311.1 478.359 1311.12 477.141C1311.14 475.922 1311.16 474.615 1311.16 473.221L1303.79 495H1300.33L1292.91 473.221V474.012C1292.91 474.645 1292.92 475.611 1292.95 476.912C1292.98 478.201 1293 479.15 1293 479.76V495H1289.66V469.178ZM1322.02 486.668C1322.1 488.133 1322.45 489.322 1323.06 490.236C1324.22 491.947 1326.26 492.803 1329.19 492.803C1330.5 492.803 1331.7 492.615 1332.78 492.24C1334.86 491.514 1335.91 490.213 1335.91 488.338C1335.91 486.932 1335.47 485.93 1334.59 485.332C1333.7 484.746 1332.3 484.236 1330.4 483.803L1326.91 483.012C1324.62 482.496 1323 481.928 1322.05 481.307C1320.41 480.229 1319.59 478.617 1319.59 476.473C1319.59 474.152 1320.4 472.248 1322 470.76C1323.61 469.271 1325.88 468.527 1328.82 468.527C1331.53 468.527 1333.83 469.184 1335.71 470.496C1337.61 471.797 1338.56 473.883 1338.56 476.754H1335.27C1335.1 475.371 1334.72 474.311 1334.15 473.572C1333.08 472.225 1331.27 471.551 1328.72 471.551C1326.65 471.551 1325.17 471.984 1324.27 472.852C1323.37 473.719 1322.92 474.727 1322.92 475.875C1322.92 477.141 1323.44 478.066 1324.5 478.652C1325.19 479.027 1326.75 479.496 1329.19 480.059L1332.81 480.885C1334.56 481.283 1335.91 481.828 1336.86 482.52C1338.5 483.727 1339.32 485.479 1339.32 487.775C1339.32 490.635 1338.27 492.68 1336.19 493.91C1334.11 495.141 1331.7 495.756 1328.95 495.756C1325.73 495.756 1323.22 494.936 1321.4 493.295C1319.59 491.666 1318.7 489.457 1318.73 486.668H1322.02ZM1353.45 480.094C1354.93 480.094 1356.07 479.889 1356.89 479.479C1358.18 478.834 1358.83 477.674 1358.83 475.998C1358.83 474.311 1358.14 473.174 1356.77 472.588C1356 472.26 1354.85 472.096 1353.33 472.096H1347.09V480.094H1353.45ZM1354.63 492.012C1356.77 492.012 1358.3 491.391 1359.21 490.148C1359.79 489.363 1360.08 488.414 1360.08 487.301C1360.08 485.426 1359.24 484.148 1357.56 483.469C1356.67 483.105 1355.49 482.924 1354.03 482.924H1347.09V492.012H1354.63ZM1343.66 469.178H1354.75C1357.77 469.178 1359.92 470.08 1361.2 471.885C1361.95 472.951 1362.33 474.182 1362.33 475.576C1362.33 477.205 1361.86 478.541 1360.94 479.584C1360.46 480.135 1359.77 480.639 1358.86 481.096C1360.19 481.6 1361.18 482.168 1361.83 482.801C1362.99 483.926 1363.57 485.479 1363.57 487.459C1363.57 489.123 1363.05 490.629 1362.01 491.977C1360.45 493.992 1357.97 495 1354.57 495H1343.66V469.178Z" fill="black"/>
<path id="Wire(RT)_BranchCondChecker" d="M1202 169.5H1425.5V172.5H1202V179.66L1187 171L1202 162.34V169.5Z" fill="black"/>
<path id="Wire(RS)_BranchCondChecker" d="M1309 365.16H1324.12C1324.73 361.642 1327.8 358.968 1331.5 358.968C1335.2 358.968 1338.27 361.642 1338.88 365.16H1425.5V368.16H1338.81C1338.04 371.487 1335.06 373.968 1331.5 373.968C1327.94 373.968 1324.96 371.487 1324.19 368.16H1309V375.32L1294 366.66L1309 358V365.16Z" fill="black"/>
<path id="Wire(RS)MSB_BranchCondChecker" d="M1333 456.768H695V392.5H581V399.66L566 391L581 382.34V389.5H696.5H698V390V453.768H1330V367H1333V456.768Z" fill="black"/>
<path id="Wire(RS)Not_BranchCondChecker" d="M1202 365.5H1247.5V368.5H1202V375.66L1187 367L1202 358.34V365.5Z" fill="black"/>
<path id="WireConst1_BranchCondChecker" d="M1103.5 147H1110.66L1102 162L1093.34 147H1100.5V72H1103.5V147Z" fill="black"/>
<path id="WireAdderResult_BranchCondChecker" d="M922 263.5H990V266.5H922V273.66L907 265L922 256.34V263.5Z" fill="black"/>
<path id="WireORAdderResults_BranchCondChecker" d="M626 263.5H650.068C650.557 259.831 653.697 257 657.5 257C661.303 257 664.443 259.831 664.932 263.5H814V266.5H664.729C663.983 269.199 661.77 271.287 659 271.85V338.5H382V345.66L367 337L382 328.34V335.5H656V271.85C653.23 271.287 651.017 269.199 650.271 266.5H626V273.66L611 265L626 256.34V263.5Z" fill="black"/>
<path id="WireBrTypeMSB_BranchCondChecker" d="M581 425.5H644V501H641V428.5H581V435.66L566 427L581 418.34V425.5Z" fill="black"/>
<path id="WireConst0_BranchCondChecker" d="M382 185.5H513V188.5H382V195.66L367 187L382 178.34V185.5Z" fill="black"/>
<path id="WireBEQ_BranchCondChecker" d="M382 263.5H564V266.5H382V273.66L367 265L382 256.34V263.5Z" fill="black"/>
<path id="WireBLTZ_BranchCondChecker" d="M382 408.5H465V411.5H382V418.66L367 410L382 401.34V408.5Z" fill="black"/>
<path id="WireBrType_BranchCondChecker" d="M316.66 440H309.5V501H306.5V440H299.34L308 425L316.66 440Z" fill="black"/>
<path id="WireBrTrue_BranchCondChecker" d="M155 299.5H273V302.5H155V309.66L140 301L155 292.34V299.5Z" fill="black"/>
<g id="NotGate0_BranchCondChecker">
<path id="Buffer" d="M1255.25 368.299L1291.25 389.084L1293.5 390.383L1293.5 343.617L1291.25 344.916L1255.25 365.701L1253 367L1255.25 368.299Z" fill="white" stroke="black" stroke-width="3"/>
<circle id="Not" cx="4" cy="4" r="3" transform="matrix(-1 0 0 1 1254 363)" fill="#D9D9D9" stroke="black" stroke-width="2"/>
</g>
<g id="Adder_BranchCondChecker">
<path id="Body" d="M990 227.583L1187 111V227.583L1133.62 269L1187 310.418V427L990 310.418V227.583Z" fill="white" stroke="black" stroke-width="3"/>
<path id="Adder" d="M1035.94 269.418L1032.02 258.01L1027.85 269.418H1035.94ZM1030.19 254.178H1034.14L1043.51 280H1039.68L1037.06 272.266H1026.85L1024.05 280H1020.47L1030.19 254.178ZM1048.28 270.807C1048.28 272.822 1048.71 274.51 1049.56 275.869C1050.42 277.229 1051.79 277.908 1053.67 277.908C1055.14 277.908 1056.34 277.281 1057.28 276.027C1058.23 274.762 1058.7 272.951 1058.7 270.596C1058.7 268.217 1058.21 266.459 1057.24 265.322C1056.27 264.174 1055.07 263.6 1053.64 263.6C1052.04 263.6 1050.75 264.209 1049.75 265.428C1048.77 266.646 1048.28 268.439 1048.28 270.807ZM1053.04 260.84C1054.48 260.84 1055.69 261.145 1056.66 261.754C1057.22 262.105 1057.86 262.721 1058.58 263.6V254.09H1061.62V280H1058.77V277.381C1058.03 278.541 1057.16 279.379 1056.15 279.895C1055.14 280.41 1053.99 280.668 1052.69 280.668C1050.59 280.668 1048.78 279.789 1047.24 278.031C1045.71 276.262 1044.94 273.912 1044.94 270.982C1044.94 268.24 1045.63 265.867 1047.03 263.863C1048.44 261.848 1050.44 260.84 1053.04 260.84ZM1068.32 270.807C1068.32 272.822 1068.74 274.51 1069.6 275.869C1070.46 277.229 1071.83 277.908 1073.71 277.908C1075.18 277.908 1076.38 277.281 1077.32 276.027C1078.27 274.762 1078.74 272.951 1078.74 270.596C1078.74 268.217 1078.25 266.459 1077.28 265.322C1076.31 264.174 1075.11 263.6 1073.68 263.6C1072.08 263.6 1070.79 264.209 1069.79 265.428C1068.81 266.646 1068.32 268.439 1068.32 270.807ZM1073.08 260.84C1074.52 260.84 1075.73 261.145 1076.7 261.754C1077.26 262.105 1077.9 262.721 1078.62 263.6V254.09H1081.66V280H1078.81V277.381C1078.07 278.541 1077.2 279.379 1076.19 279.895C1075.18 280.41 1074.03 280.668 1072.73 280.668C1070.63 280.668 1068.81 279.789 1067.28 278.031C1065.74 276.262 1064.98 273.912 1064.98 270.982C1064.98 268.24 1065.67 265.867 1067.07 263.863C1068.47 261.848 1070.48 260.84 1073.08 260.84ZM1094.19 260.752C1095.53 260.752 1096.82 261.068 1098.08 261.701C1099.33 262.322 1100.29 263.131 1100.94 264.127C1101.57 265.076 1102 266.184 1102.21 267.449C1102.39 268.316 1102.49 269.699 1102.49 271.598H1088.69C1088.75 273.508 1089.2 275.043 1090.04 276.203C1090.89 277.352 1092.19 277.926 1093.96 277.926C1095.62 277.926 1096.93 277.381 1097.92 276.291C1098.48 275.658 1098.88 274.926 1099.11 274.094H1102.22C1102.14 274.785 1101.87 275.559 1101.4 276.414C1100.94 277.258 1100.43 277.949 1099.85 278.488C1098.89 279.426 1097.7 280.059 1096.28 280.387C1095.52 280.574 1094.66 280.668 1093.7 280.668C1091.36 280.668 1089.37 279.818 1087.74 278.119C1086.11 276.408 1085.3 274.018 1085.3 270.947C1085.3 267.924 1086.12 265.469 1087.76 263.582C1089.4 261.695 1091.54 260.752 1094.19 260.752ZM1099.24 269.084C1099.11 267.713 1098.81 266.617 1098.34 265.797C1097.47 264.273 1096.03 263.512 1094 263.512C1092.54 263.512 1091.33 264.039 1090.34 265.094C1089.36 266.137 1088.84 267.467 1088.78 269.084H1099.24ZM1106.48 261.174H1109.48V264.426C1109.73 263.793 1110.33 263.025 1111.29 262.123C1112.26 261.209 1113.36 260.752 1114.62 260.752C1114.68 260.752 1114.78 260.758 1114.92 260.77C1115.06 260.781 1115.3 260.805 1115.64 260.84V264.18C1115.45 264.145 1115.27 264.121 1115.11 264.109C1114.96 264.098 1114.79 264.092 1114.6 264.092C1113.01 264.092 1111.78 264.607 1110.93 265.639C1110.07 266.658 1109.64 267.836 1109.64 269.172V280H1106.48V261.174Z" fill="black"/>
<g id="C0">
<path id="C" d="M1094.62 177.475C1097.88 177.475 1100.42 178.336 1102.23 180.059C1104.03 181.781 1105.03 183.738 1105.23 185.93H1101.82C1101.44 184.266 1100.66 182.947 1099.5 181.975C1098.35 181.002 1096.74 180.516 1094.65 180.516C1092.11 180.516 1090.05 181.412 1088.48 183.205C1086.92 184.986 1086.14 187.723 1086.14 191.414C1086.14 194.438 1086.85 196.893 1088.25 198.779C1089.67 200.654 1091.78 201.592 1094.58 201.592C1097.16 201.592 1099.12 200.602 1100.47 198.621C1101.18 197.578 1101.72 196.207 1102.07 194.508H1105.48C1105.17 197.227 1104.17 199.506 1102.46 201.346C1100.4 203.561 1097.64 204.668 1094.16 204.668C1091.16 204.668 1088.64 203.76 1086.6 201.943C1083.92 199.541 1082.57 195.832 1082.57 190.816C1082.57 187.008 1083.58 183.885 1085.6 181.447C1087.78 178.799 1090.78 177.475 1094.62 177.475Z" fill="black"/>
<path id="in" d="M1108.79 201.262H1112.01V220H1108.79V201.262ZM1108.79 194.178H1112.01V197.764H1108.79V194.178ZM1116.81 201.174H1119.81V203.846C1120.71 202.744 1121.65 201.953 1122.64 201.473C1123.64 200.992 1124.75 200.752 1125.97 200.752C1128.64 200.752 1130.44 201.684 1131.38 203.547C1131.9 204.566 1132.15 206.025 1132.15 207.924V220H1128.94V208.135C1128.94 206.986 1128.77 206.061 1128.43 205.357C1127.87 204.186 1126.85 203.6 1125.37 203.6C1124.62 203.6 1124 203.676 1123.52 203.828C1122.66 204.086 1121.89 204.602 1121.24 205.375C1120.71 205.996 1120.37 206.641 1120.2 207.309C1120.05 207.965 1119.97 208.908 1119.97 210.139V220H1116.81V201.174Z" fill="black"/>
</g>
</g>
<g id="ORGate_BranchCondChecker">
<path id="ORGate" d="M813 264.5C834.564 293.175 863.943 308.333 893.8 309H914C902.799 274.339 902.797 254.846 914 220H893.8C863.943 220.667 834.564 235.825 813 264.5Z" fill="white" stroke="black" stroke-width="3"/>
</g>
<g id="NotGate1_BranchCondChecker">
<path id="Buffer_2" d="M573.25 266.299L609.25 287.084L611.5 288.383L611.5 241.617L609.25 242.916L573.25 263.701L571 265L573.25 266.299Z" fill="white" stroke="black" stroke-width="3"/>
<circle id="Not_2" cx="4" cy="4" r="3" transform="matrix(-1 0 0 1 572 261)" fill="#D9D9D9" stroke="black" stroke-width="2"/>
</g>
<g id="ANDGate_BranchCondChecker">
<path id="AND Gate" d="M564.5 367.806C560.632 367.293 548.325 365.913 533.524 366.779C515.499 367.835 494.098 372.208 479.618 385.209C473.049 391.107 469.78 397.335 468.146 402.07C467.329 404.441 466.92 406.441 466.714 407.841C466.611 408.54 466.558 409.09 466.531 409.461C466.518 409.646 466.51 409.787 466.506 409.883C466.504 409.932 466.502 409.967 466.501 410C466.501 410.003 466.501 410.007 466.501 410.011C466.501 410.027 466.502 410.049 466.503 410.076C466.506 410.154 466.511 410.279 466.523 410.445C466.548 410.779 466.597 411.282 466.697 411.931C466.898 413.228 467.302 415.104 468.117 417.354C469.745 421.849 473.017 427.864 479.618 433.791C494.106 446.799 515.522 451.17 533.554 452.223C542.535 452.747 550.599 452.443 556.419 452.009C559.327 451.792 561.672 451.543 563.286 451.348C563.754 451.291 564.159 451.238 564.5 451.193V367.806Z" fill="white" stroke="black" stroke-width="3"/>
</g>
<g id="MUX4to1_BranchCondChecker">
<path id="MUX" d="M274.5 204.096V402.903L365.5 465.156V141.843L274.5 204.096Z" fill="white" stroke="black" stroke-width="3"/>
<path id="0_2" d="M353.492 180.219C355.664 180.219 357.234 181.113 358.203 182.902C358.953 184.285 359.328 186.18 359.328 188.586C359.328 190.867 358.988 192.754 358.309 194.246C357.324 196.387 355.715 197.457 353.48 197.457C351.465 197.457 349.965 196.582 348.98 194.832C348.16 193.371 347.75 191.41 347.75 188.949C347.75 187.043 347.996 185.406 348.488 184.039C349.41 181.492 351.078 180.219 353.492 180.219ZM353.469 195.535C354.562 195.535 355.434 195.051 356.082 194.082C356.73 193.113 357.055 191.309 357.055 188.668C357.055 186.762 356.82 185.195 356.352 183.969C355.883 182.734 354.973 182.117 353.621 182.117C352.379 182.117 351.469 182.703 350.891 183.875C350.32 185.039 350.035 186.758 350.035 189.031C350.035 190.742 350.219 192.117 350.586 193.156C351.148 194.742 352.109 195.535 353.469 195.535Z" fill="black"/>
<path id="1_3" d="M349.297 258.117V256.5C350.82 256.352 351.883 256.105 352.484 255.762C353.086 255.41 353.535 254.586 353.832 253.289H355.496V270H353.246V258.117H349.297Z" fill="black"/>
<path id="2" d="M347.75 344C347.828 342.555 348.125 341.297 348.641 340.227C349.164 339.156 350.18 338.184 351.688 337.309L353.938 336.008C354.945 335.422 355.652 334.922 356.059 334.508C356.699 333.859 357.02 333.117 357.02 332.281C357.02 331.305 356.727 330.531 356.141 329.961C355.555 329.383 354.773 329.094 353.797 329.094C352.352 329.094 351.352 329.641 350.797 330.734C350.5 331.32 350.336 332.133 350.305 333.172H348.16C348.184 331.711 348.453 330.52 348.969 329.598C349.883 327.973 351.496 327.16 353.809 327.16C355.73 327.16 357.133 327.68 358.016 328.719C358.906 329.758 359.352 330.914 359.352 332.188C359.352 333.531 358.879 334.68 357.934 335.633C357.387 336.188 356.406 336.859 354.992 337.648L353.387 338.539C352.621 338.961 352.02 339.363 351.582 339.746C350.801 340.426 350.309 341.18 350.105 342.008H359.27V344H347.75Z" fill="black"/>
<path id="3" d="M353.234 417.457C351.25 417.457 349.809 416.914 348.91 415.828C348.02 414.734 347.574 413.406 347.574 411.844H349.777C349.871 412.93 350.074 413.719 350.387 414.211C350.934 415.094 351.922 415.535 353.352 415.535C354.461 415.535 355.352 415.238 356.023 414.645C356.695 414.051 357.031 413.285 357.031 412.348C357.031 411.191 356.676 410.383 355.965 409.922C355.262 409.461 354.281 409.23 353.023 409.23C352.883 409.23 352.738 409.234 352.59 409.242C352.449 409.242 352.305 409.246 352.156 409.254V407.391C352.375 407.414 352.559 407.43 352.707 407.438C352.855 407.445 353.016 407.449 353.188 407.449C353.977 407.449 354.625 407.324 355.133 407.074C356.023 406.637 356.469 405.855 356.469 404.73C356.469 403.895 356.172 403.25 355.578 402.797C354.984 402.344 354.293 402.117 353.504 402.117C352.098 402.117 351.125 402.586 350.586 403.523C350.289 404.039 350.121 404.773 350.082 405.727H347.996C347.996 404.477 348.246 403.414 348.746 402.539C349.605 400.977 351.117 400.195 353.281 400.195C354.992 400.195 356.316 400.578 357.254 401.344C358.191 402.102 358.66 403.203 358.66 404.648C358.66 405.68 358.383 406.516 357.828 407.156C357.484 407.555 357.039 407.867 356.492 408.094C357.375 408.336 358.062 408.805 358.555 409.5C359.055 410.188 359.305 411.031 359.305 412.031C359.305 413.633 358.777 414.938 357.723 415.945C356.668 416.953 355.172 417.457 353.234 417.457Z" fill="black"/>
</g>
</svg>
