<svg width="1418" height="567" viewBox="0 0 1418 567" fill="none" xmlns="http://www.w3.org/2000/svg">
<rect width="1418" height="567" fill="#1E1E1E"/>
<rect id="Background_BranchCondCheck" width="1418" height="567" fill="white"/>
<line id="Line 12" x1="1245.94" y1="183.939" x2="1271.94" y2="157.939" stroke="black" stroke-width="3"/>
<path id="32" d="M1254.06 203.381C1252.41 203.381 1251.21 202.928 1250.46 202.023C1249.72 201.112 1249.35 200.005 1249.35 198.703H1251.18C1251.26 199.608 1251.43 200.266 1251.69 200.676C1252.15 201.411 1252.97 201.779 1254.16 201.779C1255.08 201.779 1255.83 201.532 1256.39 201.037C1256.95 200.542 1257.23 199.904 1257.23 199.123C1257.23 198.16 1256.93 197.486 1256.34 197.102C1255.75 196.717 1254.93 196.525 1253.89 196.525C1253.77 196.525 1253.65 196.529 1253.53 196.535C1253.41 196.535 1253.29 196.538 1253.16 196.545V194.992C1253.35 195.012 1253.5 195.025 1253.62 195.031C1253.75 195.038 1253.88 195.041 1254.02 195.041C1254.68 195.041 1255.22 194.937 1255.64 194.729C1256.39 194.364 1256.76 193.713 1256.76 192.775C1256.76 192.079 1256.51 191.542 1256.02 191.164C1255.52 190.786 1254.94 190.598 1254.29 190.598C1253.12 190.598 1252.3 190.988 1251.86 191.77C1251.61 192.199 1251.47 192.811 1251.44 193.605H1249.7C1249.7 192.564 1249.91 191.678 1250.32 190.949C1251.04 189.647 1252.3 188.996 1254.1 188.996C1255.53 188.996 1256.63 189.315 1257.41 189.953C1258.19 190.585 1258.58 191.503 1258.58 192.707C1258.58 193.566 1258.35 194.263 1257.89 194.797C1257.6 195.129 1257.23 195.389 1256.78 195.578C1257.51 195.78 1258.09 196.171 1258.5 196.75C1258.91 197.323 1259.12 198.026 1259.12 198.859C1259.12 200.194 1258.68 201.281 1257.8 202.121C1256.92 202.961 1255.68 203.381 1254.06 203.381ZM1260.62 203C1260.69 201.796 1260.94 200.747 1261.37 199.855C1261.8 198.964 1262.65 198.153 1263.91 197.424L1265.78 196.34C1266.62 195.852 1267.21 195.435 1267.55 195.09C1268.08 194.549 1268.35 193.931 1268.35 193.234C1268.35 192.421 1268.11 191.776 1267.62 191.301C1267.13 190.819 1266.48 190.578 1265.66 190.578C1264.46 190.578 1263.63 191.034 1263.16 191.945C1262.92 192.434 1262.78 193.111 1262.75 193.977H1260.97C1260.99 192.759 1261.21 191.766 1261.64 190.998C1262.4 189.644 1263.75 188.967 1265.67 188.967C1267.28 188.967 1268.44 189.4 1269.18 190.266C1269.92 191.132 1270.29 192.095 1270.29 193.156C1270.29 194.276 1269.9 195.233 1269.11 196.027C1268.66 196.49 1267.84 197.049 1266.66 197.707L1265.32 198.449C1264.68 198.801 1264.18 199.136 1263.82 199.455C1263.17 200.021 1262.76 200.65 1262.59 201.34H1270.22V203H1260.62Z" fill="black"/>
<line id="Line 13" x1="1245.94" y1="379.939" x2="1271.94" y2="353.939" stroke="black" stroke-width="3"/>
<path id="32_2" d="M1254.06 399.381C1252.41 399.381 1251.21 398.928 1250.46 398.023C1249.72 397.112 1249.35 396.005 1249.35 394.703H1251.18C1251.26 395.608 1251.43 396.266 1251.69 396.676C1252.15 397.411 1252.97 397.779 1254.16 397.779C1255.08 397.779 1255.83 397.532 1256.39 397.037C1256.95 396.542 1257.23 395.904 1257.23 395.123C1257.23 394.16 1256.93 393.486 1256.34 393.102C1255.75 392.717 1254.93 392.525 1253.89 392.525C1253.77 392.525 1253.65 392.529 1253.53 392.535C1253.41 392.535 1253.29 392.538 1253.16 392.545V390.992C1253.35 391.012 1253.5 391.025 1253.62 391.031C1253.75 391.038 1253.88 391.041 1254.02 391.041C1254.68 391.041 1255.22 390.937 1255.64 390.729C1256.39 390.364 1256.76 389.713 1256.76 388.775C1256.76 388.079 1256.51 387.542 1256.02 387.164C1255.52 386.786 1254.94 386.598 1254.29 386.598C1253.12 386.598 1252.3 386.988 1251.86 387.77C1251.61 388.199 1251.47 388.811 1251.44 389.605H1249.7C1249.7 388.564 1249.91 387.678 1250.32 386.949C1251.04 385.647 1252.3 384.996 1254.1 384.996C1255.53 384.996 1256.63 385.315 1257.41 385.953C1258.19 386.585 1258.58 387.503 1258.58 388.707C1258.58 389.566 1258.35 390.263 1257.89 390.797C1257.6 391.129 1257.23 391.389 1256.78 391.578C1257.51 391.78 1258.09 392.171 1258.5 392.75C1258.91 393.323 1259.12 394.026 1259.12 394.859C1259.12 396.194 1258.68 397.281 1257.8 398.121C1256.92 398.961 1255.68 399.381 1254.06 399.381ZM1260.62 399C1260.69 397.796 1260.94 396.747 1261.37 395.855C1261.8 394.964 1262.65 394.153 1263.91 393.424L1265.78 392.34C1266.62 391.852 1267.21 391.435 1267.55 391.09C1268.08 390.549 1268.35 389.931 1268.35 389.234C1268.35 388.421 1268.11 387.776 1267.62 387.301C1267.13 386.819 1266.48 386.578 1265.66 386.578C1264.46 386.578 1263.63 387.034 1263.16 387.945C1262.92 388.434 1262.78 389.111 1262.75 389.977H1260.97C1260.99 388.759 1261.21 387.766 1261.64 386.998C1262.4 385.644 1263.75 384.967 1265.67 384.967C1267.28 384.967 1268.44 385.4 1269.18 386.266C1269.92 387.132 1270.29 388.095 1270.29 389.156C1270.29 390.276 1269.9 391.233 1269.11 392.027C1268.66 392.49 1267.84 393.049 1266.66 393.707L1265.32 394.449C1264.68 394.801 1264.18 395.136 1263.82 395.455C1263.17 396.021 1262.76 396.65 1262.59 397.34H1270.22V399H1260.62Z" fill="black"/>
<line id="Line 15" x1="830.939" y1="277.939" x2="856.939" y2="251.939" stroke="black" stroke-width="3"/>
<path id="32_3" d="M839.062 297.381C837.409 297.381 836.208 296.928 835.459 296.023C834.717 295.112 834.346 294.005 834.346 292.703H836.182C836.26 293.608 836.429 294.266 836.689 294.676C837.145 295.411 837.969 295.779 839.16 295.779C840.085 295.779 840.827 295.532 841.387 295.037C841.947 294.542 842.227 293.904 842.227 293.123C842.227 292.16 841.93 291.486 841.338 291.102C840.752 290.717 839.935 290.525 838.887 290.525C838.77 290.525 838.649 290.529 838.525 290.535C838.408 290.535 838.288 290.538 838.164 290.545V288.992C838.346 289.012 838.499 289.025 838.623 289.031C838.747 289.038 838.88 289.041 839.023 289.041C839.681 289.041 840.221 288.937 840.645 288.729C841.387 288.364 841.758 287.713 841.758 286.775C841.758 286.079 841.51 285.542 841.016 285.164C840.521 284.786 839.945 284.598 839.287 284.598C838.115 284.598 837.305 284.988 836.855 285.77C836.608 286.199 836.468 286.811 836.436 287.605H834.697C834.697 286.564 834.906 285.678 835.322 284.949C836.038 283.647 837.298 282.996 839.102 282.996C840.527 282.996 841.631 283.315 842.412 283.953C843.193 284.585 843.584 285.503 843.584 286.707C843.584 287.566 843.353 288.263 842.891 288.797C842.604 289.129 842.233 289.389 841.777 289.578C842.513 289.78 843.086 290.171 843.496 290.75C843.913 291.323 844.121 292.026 844.121 292.859C844.121 294.194 843.682 295.281 842.803 296.121C841.924 296.961 840.677 297.381 839.062 297.381ZM845.625 297C845.69 295.796 845.938 294.747 846.367 293.855C846.803 292.964 847.65 292.153 848.906 291.424L850.781 290.34C851.621 289.852 852.21 289.435 852.549 289.09C853.083 288.549 853.35 287.931 853.35 287.234C853.35 286.421 853.105 285.776 852.617 285.301C852.129 284.819 851.478 284.578 850.664 284.578C849.46 284.578 848.626 285.034 848.164 285.945C847.917 286.434 847.78 287.111 847.754 287.977H845.967C845.986 286.759 846.211 285.766 846.641 284.998C847.402 283.644 848.747 282.967 850.674 282.967C852.275 282.967 853.444 283.4 854.18 284.266C854.922 285.132 855.293 286.095 855.293 287.156C855.293 288.276 854.899 289.233 854.111 290.027C853.656 290.49 852.839 291.049 851.66 291.707L850.322 292.449C849.684 292.801 849.183 293.136 848.818 293.455C848.167 294.021 847.757 294.65 847.588 295.34H855.225V297H845.625Z" fill="black"/>
<line id="Line 14" x1="593.939" y1="277.939" x2="619.939" y2="251.939" stroke="black" stroke-width="3"/>
<path id="1" d="M600.348 237.098V235.75C601.617 235.626 602.503 235.421 603.004 235.135C603.505 234.842 603.88 234.155 604.127 233.074H605.514V247H603.639V237.098H600.348Z" fill="black"/>
<path id="(RT)" d="M1333.97 155.756C1332.13 159.33 1330.93 161.961 1330.38 163.648C1329.55 166.215 1329.13 169.18 1329.13 172.543C1329.13 175.941 1329.61 179.047 1330.56 181.859C1331.14 183.594 1332.3 186.09 1334.02 189.348H1331.89C1330.18 186.676 1329.12 184.971 1328.71 184.232C1328.3 183.494 1327.86 182.492 1327.38 181.227C1326.72 179.492 1326.26 177.641 1326.01 175.672C1325.88 174.652 1325.81 173.68 1325.81 172.754C1325.81 169.285 1326.36 166.197 1327.45 163.49C1328.14 161.768 1329.58 159.189 1331.77 155.756H1333.97ZM1350.05 168.008C1351.69 168.008 1352.99 167.68 1353.94 167.023C1354.9 166.367 1355.38 165.184 1355.38 163.473C1355.38 161.633 1354.71 160.379 1353.38 159.711C1352.66 159.359 1351.71 159.184 1350.51 159.184H1341.97V168.008H1350.05ZM1338.47 156.178H1350.42C1352.39 156.178 1354.01 156.465 1355.29 157.039C1357.72 158.141 1358.93 160.174 1358.93 163.139C1358.93 164.686 1358.61 165.951 1357.96 166.936C1357.33 167.92 1356.44 168.711 1355.29 169.309C1356.3 169.719 1357.05 170.258 1357.56 170.926C1358.07 171.594 1358.36 172.678 1358.42 174.178L1358.54 177.641C1358.58 178.625 1358.66 179.357 1358.79 179.838C1359 180.658 1359.38 181.186 1359.91 181.42V182H1355.62C1355.51 181.777 1355.41 181.49 1355.34 181.139C1355.27 180.787 1355.21 180.107 1355.17 179.1L1354.96 174.793C1354.88 173.105 1354.25 171.975 1353.08 171.4C1352.41 171.084 1351.36 170.926 1349.93 170.926H1341.97V182H1338.47V156.178ZM1382.22 156.178V159.254H1373.52V182H1369.97V159.254H1361.27V156.178H1382.22ZM1383.94 189.348C1385.81 185.715 1387.01 183.066 1387.55 181.402C1388.37 178.883 1388.78 175.93 1388.78 172.543C1388.78 169.156 1388.3 166.057 1387.35 163.244C1386.77 161.51 1385.61 159.014 1383.89 155.756H1386.02C1387.82 158.639 1388.91 160.42 1389.29 161.1C1389.67 161.768 1390.09 162.693 1390.54 163.877C1391.1 165.342 1391.5 166.789 1391.73 168.219C1391.98 169.648 1392.1 171.025 1392.1 172.35C1392.1 175.818 1391.55 178.912 1390.45 181.631C1389.76 183.377 1388.32 185.949 1386.14 189.348H1383.94Z" fill="black"/>
<path id="(RS)" d="M1332.65 351.756C1330.81 355.33 1329.62 357.961 1329.06 359.648C1328.23 362.215 1327.82 365.18 1327.82 368.543C1327.82 371.941 1328.29 375.047 1329.24 377.859C1329.83 379.594 1330.98 382.09 1332.7 385.348H1330.58C1328.87 382.676 1327.8 380.971 1327.39 380.232C1326.98 379.494 1326.54 378.492 1326.06 377.227C1325.4 375.492 1324.95 373.641 1324.69 371.672C1324.56 370.652 1324.49 369.68 1324.49 368.754C1324.49 365.285 1325.04 362.197 1326.13 359.49C1326.82 357.768 1328.26 355.189 1330.45 351.756H1332.65ZM1348.73 364.008C1350.38 364.008 1351.67 363.68 1352.62 363.023C1353.58 362.367 1354.06 361.184 1354.06 359.473C1354.06 357.633 1353.39 356.379 1352.06 355.711C1351.34 355.359 1350.39 355.184 1349.19 355.184H1340.65V364.008H1348.73ZM1337.15 352.178H1349.1C1351.07 352.178 1352.7 352.465 1353.97 353.039C1356.4 354.141 1357.61 356.174 1357.61 359.139C1357.61 360.686 1357.29 361.951 1356.64 362.936C1356.01 363.92 1355.12 364.711 1353.97 365.309C1354.98 365.719 1355.74 366.258 1356.24 366.926C1356.76 367.594 1357.04 368.678 1357.1 370.178L1357.22 373.641C1357.26 374.625 1357.34 375.357 1357.47 375.838C1357.68 376.658 1358.06 377.186 1358.6 377.42V378H1354.31C1354.19 377.777 1354.1 377.49 1354.03 377.139C1353.96 376.787 1353.9 376.107 1353.85 375.1L1353.64 370.793C1353.56 369.105 1352.93 367.975 1351.76 367.4C1351.09 367.084 1350.04 366.926 1348.61 366.926H1340.65V378H1337.15V352.178ZM1365.03 369.668C1365.11 371.133 1365.46 372.322 1366.07 373.236C1367.23 374.947 1369.27 375.803 1372.2 375.803C1373.51 375.803 1374.71 375.615 1375.79 375.24C1377.87 374.514 1378.92 373.213 1378.92 371.338C1378.92 369.932 1378.48 368.93 1377.6 368.332C1376.71 367.746 1375.31 367.236 1373.41 366.803L1369.92 366.012C1367.63 365.496 1366.01 364.928 1365.06 364.307C1363.42 363.229 1362.6 361.617 1362.6 359.473C1362.6 357.152 1363.41 355.248 1365.01 353.76C1366.62 352.271 1368.89 351.527 1371.83 351.527C1374.54 351.527 1376.84 352.184 1378.72 353.496C1380.62 354.797 1381.57 356.883 1381.57 359.754H1378.28C1378.11 358.371 1377.73 357.311 1377.16 356.572C1376.09 355.225 1374.28 354.551 1371.73 354.551C1369.66 354.551 1368.18 354.984 1367.28 355.852C1366.38 356.719 1365.93 357.727 1365.93 358.875C1365.93 360.141 1366.45 361.066 1367.51 361.652C1368.2 362.027 1369.76 362.496 1372.2 363.059L1375.82 363.885C1377.57 364.283 1378.92 364.828 1379.87 365.52C1381.51 366.727 1382.33 368.479 1382.33 370.775C1382.33 373.635 1381.28 375.68 1379.2 376.91C1377.12 378.141 1374.71 378.756 1371.96 378.756C1368.74 378.756 1366.23 377.936 1364.41 376.295C1362.6 374.666 1361.71 372.457 1361.74 369.668H1365.03ZM1385.26 385.348C1387.12 381.715 1388.33 379.066 1388.87 377.402C1389.69 374.883 1390.1 371.93 1390.1 368.543C1390.1 365.156 1389.62 362.057 1388.67 359.244C1388.09 357.51 1386.93 355.014 1385.21 351.756H1387.34C1389.14 354.639 1390.23 356.42 1390.61 357.1C1390.99 357.768 1391.41 358.693 1391.85 359.877C1392.42 361.342 1392.81 362.789 1393.05 364.219C1393.29 365.648 1393.42 367.025 1393.42 368.35C1393.42 371.818 1392.87 374.912 1391.77 377.631C1391.07 379.377 1389.64 381.949 1387.46 385.348H1385.26Z" fill="black"/>
<path id="BrType" d="M626.387 512.094C627.863 512.094 629.012 511.889 629.832 511.479C631.121 510.834 631.766 509.674 631.766 507.998C631.766 506.311 631.08 505.174 629.709 504.588C628.936 504.26 627.787 504.096 626.264 504.096H620.023V512.094H626.387ZM627.564 524.012C629.709 524.012 631.238 523.391 632.152 522.148C632.727 521.363 633.014 520.414 633.014 519.301C633.014 517.426 632.176 516.148 630.5 515.469C629.609 515.105 628.432 514.924 626.967 514.924H620.023V524.012H627.564ZM616.596 501.178H627.688C630.711 501.178 632.861 502.08 634.139 503.885C634.889 504.951 635.264 506.182 635.264 507.576C635.264 509.205 634.801 510.541 633.875 511.584C633.395 512.135 632.703 512.639 631.801 513.096C633.125 513.6 634.115 514.168 634.771 514.801C635.932 515.926 636.512 517.479 636.512 519.459C636.512 521.123 635.99 522.629 634.947 523.977C633.389 525.992 630.91 527 627.512 527H616.596V501.178ZM640.361 508.174H643.367V511.426C643.613 510.793 644.217 510.025 645.178 509.123C646.139 508.209 647.246 507.752 648.5 507.752C648.559 507.752 648.658 507.758 648.799 507.77C648.939 507.781 649.18 507.805 649.52 507.84V511.18C649.332 511.145 649.156 511.121 648.992 511.109C648.84 511.098 648.67 511.092 648.482 511.092C646.889 511.092 645.664 511.607 644.809 512.639C643.953 513.658 643.525 514.836 643.525 516.172V527H640.361V508.174ZM671.475 501.178V504.254H662.773V527H659.223V504.254H650.521V501.178H671.475ZM684.061 508.174H687.559C687.113 509.381 686.123 512.135 684.588 516.436C683.439 519.67 682.479 522.307 681.705 524.346C679.877 529.15 678.588 532.08 677.838 533.135C677.088 534.189 675.799 534.717 673.971 534.717C673.525 534.717 673.18 534.699 672.934 534.664C672.699 534.629 672.406 534.564 672.055 534.471V531.588C672.605 531.74 673.004 531.834 673.25 531.869C673.496 531.904 673.713 531.922 673.9 531.922C674.486 531.922 674.914 531.822 675.184 531.623C675.465 531.436 675.699 531.201 675.887 530.92C675.945 530.826 676.156 530.346 676.52 529.479C676.883 528.611 677.146 527.967 677.311 527.545L670.35 508.174H673.936L678.98 523.502L684.061 508.174ZM698.246 524.873C699.723 524.873 700.947 524.258 701.92 523.027C702.904 521.785 703.396 519.934 703.396 517.473C703.396 515.973 703.18 514.684 702.746 513.605C701.926 511.531 700.426 510.494 698.246 510.494C696.055 510.494 694.555 511.59 693.746 513.781C693.312 514.953 693.096 516.441 693.096 518.246C693.096 519.699 693.312 520.936 693.746 521.955C694.566 523.9 696.066 524.873 698.246 524.873ZM690.055 508.262H693.131V510.758C693.764 509.902 694.455 509.24 695.205 508.771C696.271 508.068 697.525 507.717 698.967 507.717C701.1 507.717 702.91 508.537 704.398 510.178C705.887 511.807 706.631 514.139 706.631 517.174C706.631 521.275 705.559 524.205 703.414 525.963C702.055 527.076 700.473 527.633 698.668 527.633C697.25 527.633 696.061 527.322 695.1 526.701C694.537 526.35 693.91 525.746 693.219 524.891V534.506H690.055V508.262ZM718.18 507.752C719.516 507.752 720.811 508.068 722.064 508.701C723.318 509.322 724.273 510.131 724.93 511.127C725.562 512.076 725.984 513.184 726.195 514.449C726.383 515.316 726.477 516.699 726.477 518.598H712.678C712.736 520.508 713.188 522.043 714.031 523.203C714.875 524.352 716.182 524.926 717.951 524.926C719.604 524.926 720.922 524.381 721.906 523.291C722.469 522.658 722.867 521.926 723.102 521.094H726.213C726.131 521.785 725.855 522.559 725.387 523.414C724.93 524.258 724.414 524.949 723.84 525.488C722.879 526.426 721.689 527.059 720.271 527.387C719.51 527.574 718.648 527.668 717.688 527.668C715.344 527.668 713.357 526.818 711.729 525.119C710.1 523.408 709.285 521.018 709.285 517.947C709.285 514.924 710.105 512.469 711.746 510.582C713.387 508.695 715.531 507.752 718.18 507.752ZM723.225 516.084C723.096 514.713 722.797 513.617 722.328 512.797C721.461 511.273 720.014 510.512 717.986 510.512C716.533 510.512 715.314 511.039 714.33 512.094C713.346 513.137 712.824 514.467 712.766 516.084H723.225Z" fill="black"/>
<path id="1_2" d="M986.426 47.1758V44.75C988.711 44.5273 990.305 44.1582 991.207 43.6426C992.109 43.1152 992.783 41.8789 993.229 39.9336H995.725V65H992.35V47.1758H986.426Z" fill="black"/>
<path id="BrTrue" d="M36.0762 274.094C37.5527 274.094 38.7012 273.889 39.5215 273.479C40.8105 272.834 41.4551 271.674 41.4551 269.998C41.4551 268.311 40.7695 267.174 39.3984 266.588C38.625 266.26 37.4766 266.096 35.9531 266.096H29.7129V274.094H36.0762ZM37.2539 286.012C39.3984 286.012 40.9277 285.391 41.8418 284.148C42.416 283.363 42.7031 282.414 42.7031 281.301C42.7031 279.426 41.8652 278.148 40.1895 277.469C39.2988 277.105 38.1211 276.924 36.6562 276.924H29.7129V286.012H37.2539ZM26.2852 263.178H37.377C40.4004 263.178 42.5508 264.08 43.8281 265.885C44.5781 266.951 44.9531 268.182 44.9531 269.576C44.9531 271.205 44.4902 272.541 43.5645 273.584C43.084 274.135 42.3926 274.639 41.4902 275.096C42.8145 275.6 43.8047 276.168 44.4609 276.801C45.6211 277.926 46.2012 279.479 46.2012 281.459C46.2012 283.123 45.6797 284.629 44.6367 285.977C43.0781 287.992 40.5996 289 37.2012 289H26.2852V263.178ZM50.0508 270.174H53.0566V273.426C53.3027 272.793 53.9062 272.025 54.8672 271.123C55.8281 270.209 56.9355 269.752 58.1895 269.752C58.248 269.752 58.3477 269.758 58.4883 269.77C58.6289 269.781 58.8691 269.805 59.209 269.84V273.18C59.0215 273.145 58.8457 273.121 58.6816 273.109C58.5293 273.098 58.3594 273.092 58.1719 273.092C56.5781 273.092 55.3535 273.607 54.498 274.639C53.6426 275.658 53.2148 276.836 53.2148 278.172V289H50.0508V270.174ZM81.1641 263.178V266.254H72.4629V289H68.9121V266.254H60.2109V263.178H81.1641ZM82.7109 270.174H85.7168V273.426C85.9629 272.793 86.5664 272.025 87.5273 271.123C88.4883 270.209 89.5957 269.752 90.8496 269.752C90.9082 269.752 91.0078 269.758 91.1484 269.77C91.2891 269.781 91.5293 269.805 91.8691 269.84V273.18C91.6816 273.145 91.5059 273.121 91.3418 273.109C91.1895 273.098 91.0195 273.092 90.832 273.092C89.2383 273.092 88.0137 273.607 87.1582 274.639C86.3027 275.658 85.875 276.836 85.875 278.172V289H82.7109V270.174ZM97.7754 270.174V282.672C97.7754 283.633 97.9277 284.418 98.2324 285.027C98.7949 286.152 99.8438 286.715 101.379 286.715C103.582 286.715 105.082 285.73 105.879 283.762C106.312 282.707 106.529 281.26 106.529 279.42V270.174H109.693V289H106.705L106.74 286.223C106.33 286.938 105.82 287.541 105.211 288.033C104.004 289.018 102.539 289.51 100.816 289.51C98.1328 289.51 96.3047 288.613 95.332 286.82C94.8047 285.859 94.541 284.576 94.541 282.971V270.174H97.7754ZM122.49 269.752C123.826 269.752 125.121 270.068 126.375 270.701C127.629 271.322 128.584 272.131 129.24 273.127C129.873 274.076 130.295 275.184 130.506 276.449C130.693 277.316 130.787 278.699 130.787 280.598H116.988C117.047 282.508 117.498 284.043 118.342 285.203C119.186 286.352 120.492 286.926 122.262 286.926C123.914 286.926 125.232 286.381 126.217 285.291C126.779 284.658 127.178 283.926 127.412 283.094H130.523C130.441 283.785 130.166 284.559 129.697 285.414C129.24 286.258 128.725 286.949 128.15 287.488C127.189 288.426 126 289.059 124.582 289.387C123.82 289.574 122.959 289.668 121.998 289.668C119.654 289.668 117.668 288.818 116.039 287.119C114.41 285.408 113.596 283.018 113.596 279.947C113.596 276.924 114.416 274.469 116.057 272.582C117.697 270.695 119.842 269.752 122.49 269.752ZM127.535 278.084C127.406 276.713 127.107 275.617 126.639 274.797C125.771 273.273 124.324 272.512 122.297 272.512C120.844 272.512 119.625 273.039 118.641 274.094C117.656 275.137 117.135 276.467 117.076 278.084H127.535Z" fill="black"/>
<path id="Wire(RT)_BranchCondChecker" d="M1095 169.5H1318.5V172.5H1095V179.66L1080 171L1095 162.34V169.5Z" fill="black"/>
<path id="Wire(RS)_BranchCondChecker" d="M1202 365.5H1318.52V368.5H1202V375.66L1187 367L1202 358.34V365.5Z" fill="black"/>
<path id="Wire(RS)Not_BranchCondChecker" d="M1095 365.5H1140.5V368.5H1095V375.66L1080 367L1095 358.34V365.5Z" fill="black"/>
<path id="WireBrType_BranchCondChecker" d="M519 291H671V493.5H668V294H519V301.16L504 292.5L519 283.84V291Z" fill="black"/>
<path id="WireConst1_BranchCondChecker" d="M996.5 147H1003.66L995 162L986.34 147H993.5V72H996.5V147Z" fill="black"/>
<path id="WireAdderResult_BranchCondChecker" d="M815 263.5H883V266.5H815V273.66L800 265L815 256.34V263.5Z" fill="black"/>
<path id="WireORAdderResults_BranchCondChecker" d="M519 263.5H707V266.5H519V273.66L504 265L519 256.34V263.5Z" fill="black"/>
<path id="WireXOR_BranchCondChecker" d="M313 279H399V282H313V289.16L298 280.5L313 271.84V279Z" fill="black"/>
<path id="WireXNOR_BranchCondChecker" d="M152 278.5H250V281.5H152V288.66L137 280L152 271.34V278.5Z" fill="black"/>
<g id="NotGate0_BranchCondChecker">
<path id="Buffer" d="M1148.25 368.299L1184.25 389.084L1186.5 390.383L1186.5 343.617L1184.25 344.916L1148.25 365.701L1146 367L1148.25 368.299Z" fill="white" stroke="black" stroke-width="3"/>
<circle id="Not" cx="4" cy="4" r="3" transform="matrix(-1 0 0 1 1147 363)" fill="#D9D9D9" stroke="black" stroke-width="2"/>
</g>
<g id="Adder_BranchCondChecker">
<path id="Body" d="M883 227.583L1080 111V227.583L1026.62 269L1080 310.418V427L883 310.418V227.583Z" fill="white" stroke="black" stroke-width="3"/>
<path id="Adder" d="M928.938 269.418L925.018 258.01L920.852 269.418H928.938ZM923.189 254.178H927.145L936.514 280H932.682L930.062 272.266H919.85L917.055 280H913.469L923.189 254.178ZM941.277 270.807C941.277 272.822 941.705 274.51 942.561 275.869C943.416 277.229 944.787 277.908 946.674 277.908C948.139 277.908 949.34 277.281 950.277 276.027C951.227 274.762 951.701 272.951 951.701 270.596C951.701 268.217 951.215 266.459 950.242 265.322C949.27 264.174 948.068 263.6 946.639 263.6C945.045 263.6 943.75 264.209 942.754 265.428C941.77 266.646 941.277 268.439 941.277 270.807ZM946.041 260.84C947.482 260.84 948.689 261.145 949.662 261.754C950.225 262.105 950.863 262.721 951.578 263.6V254.09H954.619V280H951.771V277.381C951.033 278.541 950.16 279.379 949.152 279.895C948.145 280.41 946.99 280.668 945.689 280.668C943.592 280.668 941.775 279.789 940.24 278.031C938.705 276.262 937.938 273.912 937.938 270.982C937.938 268.24 938.635 265.867 940.029 263.863C941.436 261.848 943.439 260.84 946.041 260.84ZM961.316 270.807C961.316 272.822 961.744 274.51 962.6 275.869C963.455 277.229 964.826 277.908 966.713 277.908C968.178 277.908 969.379 277.281 970.316 276.027C971.266 274.762 971.74 272.951 971.74 270.596C971.74 268.217 971.254 266.459 970.281 265.322C969.309 264.174 968.107 263.6 966.678 263.6C965.084 263.6 963.789 264.209 962.793 265.428C961.809 266.646 961.316 268.439 961.316 270.807ZM966.08 260.84C967.521 260.84 968.729 261.145 969.701 261.754C970.264 262.105 970.902 262.721 971.617 263.6V254.09H974.658V280H971.811V277.381C971.072 278.541 970.199 279.379 969.191 279.895C968.184 280.41 967.029 280.668 965.729 280.668C963.631 280.668 961.814 279.789 960.279 278.031C958.744 276.262 957.977 273.912 957.977 270.982C957.977 268.24 958.674 265.867 960.068 263.863C961.475 261.848 963.479 260.84 966.08 260.84ZM987.191 260.752C988.527 260.752 989.822 261.068 991.076 261.701C992.33 262.322 993.285 263.131 993.941 264.127C994.574 265.076 994.996 266.184 995.207 267.449C995.395 268.316 995.488 269.699 995.488 271.598H981.689C981.748 273.508 982.199 275.043 983.043 276.203C983.887 277.352 985.193 277.926 986.963 277.926C988.615 277.926 989.934 277.381 990.918 276.291C991.48 275.658 991.879 274.926 992.113 274.094H995.225C995.143 274.785 994.867 275.559 994.398 276.414C993.941 277.258 993.426 277.949 992.852 278.488C991.891 279.426 990.701 280.059 989.283 280.387C988.521 280.574 987.66 280.668 986.699 280.668C984.355 280.668 982.369 279.818 980.74 278.119C979.111 276.408 978.297 274.018 978.297 270.947C978.297 267.924 979.117 265.469 980.758 263.582C982.398 261.695 984.543 260.752 987.191 260.752ZM992.236 269.084C992.107 267.713 991.809 266.617 991.34 265.797C990.473 264.273 989.025 263.512 986.998 263.512C985.545 263.512 984.326 264.039 983.342 265.094C982.357 266.137 981.836 267.467 981.777 269.084H992.236ZM999.479 261.174H1002.48V264.426C1002.73 263.793 1003.33 263.025 1004.29 262.123C1005.26 261.209 1006.36 260.752 1007.62 260.752C1007.68 260.752 1007.78 260.758 1007.92 260.77C1008.06 260.781 1008.3 260.805 1008.64 260.84V264.18C1008.45 264.145 1008.27 264.121 1008.11 264.109C1007.96 264.098 1007.79 264.092 1007.6 264.092C1006.01 264.092 1004.78 264.607 1003.93 265.639C1003.07 266.658 1002.64 267.836 1002.64 269.172V280H999.479V261.174Z" fill="black"/>
<g id="C0">
<path id="C" d="M987.615 177.475C990.885 177.475 993.422 178.336 995.227 180.059C997.031 181.781 998.033 183.738 998.232 185.93H994.822C994.436 184.266 993.662 182.947 992.502 181.975C991.354 181.002 989.736 180.516 987.65 180.516C985.107 180.516 983.051 181.412 981.48 183.205C979.922 184.986 979.143 187.723 979.143 191.414C979.143 194.438 979.846 196.893 981.252 198.779C982.67 200.654 984.779 201.592 987.58 201.592C990.158 201.592 992.121 200.602 993.469 198.621C994.184 197.578 994.717 196.207 995.068 194.508H998.479C998.174 197.227 997.166 199.506 995.455 201.346C993.404 203.561 990.639 204.668 987.158 204.668C984.158 204.668 981.639 203.76 979.6 201.943C976.916 199.541 975.574 195.832 975.574 190.816C975.574 187.008 976.582 183.885 978.598 181.447C980.777 178.799 983.783 177.475 987.615 177.475Z" fill="black"/>
<path id="in" d="M1001.79 201.262H1005.01V220H1001.79V201.262ZM1001.79 194.178H1005.01V197.764H1001.79V194.178ZM1009.81 201.174H1012.81V203.846C1013.71 202.744 1014.65 201.953 1015.64 201.473C1016.64 200.992 1017.75 200.752 1018.97 200.752C1021.64 200.752 1023.44 201.684 1024.38 203.547C1024.9 204.566 1025.15 206.025 1025.15 207.924V220H1021.94V208.135C1021.94 206.986 1021.77 206.061 1021.43 205.357C1020.87 204.186 1019.85 203.6 1018.37 203.6C1017.62 203.6 1017 203.676 1016.52 203.828C1015.66 204.086 1014.89 204.602 1014.24 205.375C1013.71 205.996 1013.37 206.641 1013.2 207.309C1013.05 207.965 1012.97 208.908 1012.97 210.139V220H1009.81V201.174Z" fill="black"/>
</g>
</g>
<g id="ORGate_BranchCondChecker">
<path id="ORGate" d="M706 264.5C727.564 293.175 756.943 308.333 786.8 309H807C795.799 274.339 795.797 254.846 807 220H786.8C756.943 220.667 727.564 235.825 706 264.5Z" fill="white" stroke="black" stroke-width="3"/>
</g>
<g id="XORGate_BranchCondChecker">
<g id="ORGate_2">
<path id="ORGate_3" d="M399 280.5C420.564 309.175 449.943 324.333 479.8 325H500C488.799 290.339 488.797 270.846 500 236H479.8C449.943 236.667 420.564 251.825 399 280.5Z" fill="white" stroke="black" stroke-width="3"/>
</g>
<path id="XOR" d="M510 236C499.535 270.757 499.396 290.243 510 325" stroke="black" stroke-width="3"/>
</g>
<g id="NotGate1_BranchCondChecker">
<path id="Buffer_2" d="M258.25 281.299L294.25 302.084L296.5 303.383L296.5 256.617L294.25 257.916L258.25 278.701L256 280L258.25 281.299Z" fill="white" stroke="black" stroke-width="3"/>
<circle id="Not_2" cx="4" cy="4" r="3" transform="matrix(-1 0 0 1 257 276)" fill="#D9D9D9" stroke="black" stroke-width="2"/>
</g>
</svg>
