<svg width="3099" height="1605" viewBox="0 0 3099 1605" fill="none" xmlns="http://www.w3.org/2000/svg">
<rect width="3099" height="1605" fill="#1E1E1E"/>
<rect id="Background_CPU" width="3099" height="1605" fill="white"/>
<path id="WireNextPC_CPU" d="M482 174V177H182V473.5H233V466.34L248 475L233 483.66V476.5H179V174H482Z" fill="black"/>
<path id="WirePC_CPU" d="M830 175.5H871V308H380V467.149C383.103 467.779 385.509 470.326 385.932 473.5H539V466.34L554 475L539 483.66V476.5H385.729C384.853 479.671 381.949 482 378.5 482C375.051 482 372.147 479.671 371.271 476.5H324V473.5H371.068C371.491 470.326 373.897 467.779 377 467.149V305H868V178.5H830V185.66L815 177L830 168.34V175.5Z" fill="black"/>
<path id="WireIncrPC_CPU" d="M482 115H114V931H2706V654.5H2763V647.34L2778 656L2763 664.66V657.5H2709V933H2708.5V934H111V112H482V115Z" fill="black"/>
<path id="Wire(RS)_CPU" d="M830 104.5H1451V394.149C1454.1 394.779 1456.51 397.326 1456.93 400.5H1929V393.34L1944 402L1929 410.66V403.5H1456.73C1455.85 406.671 1452.95 409 1449.5 409C1446.05 409 1443.15 406.671 1442.27 403.5H1407V400.5H1442.07C1442.49 397.326 1444.9 394.779 1448 394.149V107.5H830V114.66L815 106L830 97.3398V104.5Z" fill="black"/>
<path id="Wire(RT)_CPU" d="M830 74.5H1485V567.149C1488.1 567.779 1490.51 570.326 1490.93 573.5H1722V566.34L1737 575L1722 583.66V576.5H1490.73C1489.98 579.199 1487.77 581.287 1485 581.85V743H2301V565.5H2377V558.34L2392 567L2377 575.66V568.5H2304V746H1482V581.85C1479.23 581.287 1477.02 579.199 1476.27 576.5H1407V573.5H1476.07C1476.49 570.326 1478.9 567.779 1482 567.149V77.5H830V84.6602L815 76L830 67.3398V74.5Z" fill="black"/>
<path id="WireY_CPU" d="M1944 603L1929 611.66V604.5H1831V601.5H1929V594.34L1944 603Z" fill="black"/>
<path id="WireDataOut_CPU" d="M2778 507L2763 515.66V508.5H2580V505.5H2763V498.34L2778 507Z" fill="black"/>
<path id="WireALUout_CPU" d="M2392 503L2377 511.66V504.5H2219.73C2218.98 507.199 2216.77 509.287 2214 509.85V651H2646V579.5H2763V572.34L2778 581L2763 589.66V582.5H2649V654H2211V509.85C2208.23 509.287 2206.02 507.199 2205.27 504.5H2141V501.5H2205.07C2205.56 497.831 2208.7 495 2212.5 495C2216.3 495 2219.44 497.831 2219.93 501.5H2377V494.34L2392 503Z" fill="black"/>
<path id="WireRegIn_CPU" d="M2983 837H1147V619.5H1207V612.34L1222 621L1207 629.66V622.5H1150V834H2980V610H2872V607H2983V837Z" fill="black"/>
<path id="WireMUX0out_CPU" d="M1222.5 566L1207.5 574.66V567.5H1122V564.5H1207.5V557.34L1222.5 566Z" fill="black"/>
<path id="WireInst_CPU" d="M929 475H743V472H929V475Z" fill="black"/>
<path id="WireSEout_CPU" d="M1737 631L1722 639.66V632.5H1604V629.5H1722V622.34L1737 631Z" fill="black"/>
<path id="WireImm_CPU" d="M890 784H1570.5V678H1563.34L1572 663L1580.66 678H1573.5V787H887V474H890V784Z" fill="black"/>
<path id="WireRD_CPU" d="M929 529.5H1013V522.34L1028 531L1013 539.66V532.5H926V475H929V529.5Z" fill="black"/>
<path id="WireOP_CPU" d="M816.5 466C820.642 466 824 469.358 824 473.5C824 477.128 821.423 480.155 818 480.85V1435.5H895V1428.34L910 1437L895 1445.66V1438.5H815V480.85C811.577 480.155 809 477.128 809 473.5C809 469.358 812.358 466 816.5 466Z" fill="black"/>
<path id="WireFN_CPU" d="M838.5 466C842.642 466 846 469.358 846 473.5C846 477.474 842.909 480.724 839 480.981V1355.5H893V1348.34L908 1357L893 1365.66V1358.5H836V480.571C833.087 479.542 831 476.765 831 473.5C831 469.358 834.358 466 838.5 466Z" fill="black"/>
<path id="WireJTA_CPU" d="M830 144.5H890V466.149C893.423 466.844 896 469.872 896 473.5C896 477.642 892.642 481 888.5 481C884.358 481 881 477.642 881 473.5C881 469.872 883.577 466.844 887 466.149V147.5H830V154.66L815 146L830 137.34V144.5Z" fill="black"/>
<path id="WireRS_CPU" d="M1222.5 356L1207.5 364.66V357.5H908V466.149C911.423 466.844 914 469.872 914 473.5C914 477.642 910.642 481 906.5 481C902.358 481 899 477.642 899 473.5C899 469.872 901.577 466.844 905 466.149V354.5H1207.5V347.34L1222.5 356Z" fill="black"/>
<path id="WireRT_CPU" d="M1224 390L1209 398.66V391.5H985V456.5H1013V449.34L1028 458L1013 466.66V459.5H982V391.5H929V466.149C932.423 466.844 935 469.872 935 473.5C935 477.642 931.642 481 927.5 481C923.358 481 920 477.642 920 473.5C920 469.872 922.577 466.844 926 466.149V388.5H1209V381.34L1224 390Z" fill="black"/>
<path id="Wire31_CPU" d="M1028 606L1013 614.66V607.5H954V604.5H1013V597.34L1028 606Z" fill="black"/>
<g id="WireBrJump_CPU">
<path d="M524.5 1124.5H521.5V1121.51H524.5V1124.5Z" fill="black"/>
<path d="M524.5 1115.54H521.5V1109.57H524.5V1115.54Z" fill="black"/>
<path d="M524.5 1103.6H521.5V1097.63H524.5V1103.6Z" fill="black"/>
<path d="M524.5 1091.66H521.5V1085.69H524.5V1091.66Z" fill="black"/>
<path d="M524.5 1079.72H521.5V1073.75H524.5V1079.72Z" fill="black"/>
<path d="M524.5 1067.78H521.5V1061.81H524.5V1067.78Z" fill="black"/>
<path d="M524.5 1055.84H521.5V1049.87H524.5V1055.84Z" fill="black"/>
<path d="M524.5 1043.89H521.5V1037.92H524.5V1043.89Z" fill="black"/>
<path d="M524.5 1031.95H521.5V1025.98H524.5V1031.95Z" fill="black"/>
<path d="M524.5 1020.01H521.5V1014.04H524.5V1020.01Z" fill="black"/>
<path d="M524.5 1008.07H521.5V1002.1H524.5V1008.07Z" fill="black"/>
<path d="M524.5 996.128H521.5V990.157H524.5V996.128Z" fill="black"/>
<path d="M524.5 984.187H521.5V978.216H524.5V984.187Z" fill="black"/>
<path d="M524.5 972.245H521.5V966.274H524.5V972.245Z" fill="black"/>
<path d="M524.5 960.304H521.5V954.333H524.5V960.304Z" fill="black"/>
<path d="M524.5 948.362H521.5V942.392H524.5V948.362Z" fill="black"/>
<path d="M524.5 936.421H521.5V930.449H524.5V936.421Z" fill="black"/>
<path d="M524.5 924.479H521.5V918.508H524.5V924.479Z" fill="black"/>
<path d="M524.5 912.537H521.5V906.566H524.5V912.537Z" fill="black"/>
<path d="M524.5 900.596H521.5V894.625H524.5V900.596Z" fill="black"/>
<path d="M524.5 888.654H521.5V882.684H524.5V888.654Z" fill="black"/>
<path d="M524.5 876.713H521.5V870.742H524.5V876.713Z" fill="black"/>
<path d="M524.5 864.771H521.5V858.8H524.5V864.771Z" fill="black"/>
<path d="M524.5 852.829H521.5V846.858H524.5V852.829Z" fill="black"/>
<path d="M524.5 840.888H521.5V834.917H524.5V840.888Z" fill="black"/>
<path d="M524.5 828.946H521.5V822.976H524.5V828.946Z" fill="black"/>
<path d="M524.5 817.005H521.5V811.034H524.5V817.005Z" fill="black"/>
<path d="M524.5 805.063H521.5V799.093H524.5V805.063Z" fill="black"/>
<path d="M524.5 793.122H521.5V787.151H524.5V793.122Z" fill="black"/>
<path d="M524.5 781.181H521.5V775.21H524.5V781.181Z" fill="black"/>
<path d="M524.5 769.239H521.5V763.268H524.5V769.239Z" fill="black"/>
<path d="M524.5 757.297H521.5V751.326H524.5V757.297Z" fill="black"/>
<path d="M524.5 745.355H521.5V739.385H524.5V745.355Z" fill="black"/>
<path d="M524.5 733.414H521.5V727.443H524.5V733.414Z" fill="black"/>
<path d="M524.5 721.473H521.5V715.502H524.5V721.473Z" fill="black"/>
<path d="M524.5 709.531H521.5V703.561H524.5V709.531Z" fill="black"/>
<path d="M524.5 697.59H521.5V691.619H524.5V697.59Z" fill="black"/>
<path d="M524.5 685.648H521.5V679.678H524.5V685.648Z" fill="black"/>
<path d="M524.5 673.707H521.5V667.735H524.5V673.707Z" fill="black"/>
<path d="M524.5 661.765H521.5V655.794H524.5V661.765Z" fill="black"/>
<path d="M524.5 649.823H521.5V643.853H524.5V649.823Z" fill="black"/>
<path d="M524.5 637.882H521.5V631.911H524.5V637.882Z" fill="black"/>
<path d="M524.5 625.94H521.5V619.97H524.5V625.94Z" fill="black"/>
<path d="M524.5 613.999H521.5V608.028H524.5V613.999Z" fill="black"/>
<path d="M524.5 602.058H521.5V596.087H524.5V602.058Z" fill="black"/>
<path d="M524.5 590.116H521.5V584.146H524.5V590.116Z" fill="black"/>
<path d="M524.5 578.175H521.5V572.203H524.5V578.175Z" fill="black"/>
<path d="M524.5 566.232H521.5V560.262H524.5V566.232Z" fill="black"/>
<path d="M524.5 554.291H521.5V548.32H524.5V554.291Z" fill="black"/>
<path d="M524.5 542.35H521.5V536.379H524.5V542.35Z" fill="black"/>
<path d="M524.5 530.408H521.5V524.438H524.5V530.408Z" fill="black"/>
<path d="M524.5 518.467H521.5V512.496H524.5V518.467Z" fill="black"/>
<path d="M524.5 506.525H521.5V500.555H524.5V506.525Z" fill="black"/>
<path d="M524.5 494.584H521.5V488.613H524.5V494.584Z" fill="black"/>
<path d="M524.5 482.643H521.5V476.671H524.5V482.643Z" fill="black"/>
<path d="M524.5 470.7H521.5V464.729H524.5V470.7Z" fill="black"/>
<path d="M524.5 458.759H521.5V452.788H524.5V458.759Z" fill="black"/>
<path d="M524.5 446.817H521.5V440.847H524.5V446.817Z" fill="black"/>
<path d="M524.5 434.876H521.5V428.905H524.5V434.876Z" fill="black"/>
<path d="M524.5 422.935H521.5V416.964H524.5V422.935Z" fill="black"/>
<path d="M524.5 410.993H521.5V405.022H524.5V410.993Z" fill="black"/>
<path d="M524.5 399.052H521.5V393.081H524.5V399.052Z" fill="black"/>
<path d="M524.5 387.11H521.5V381.139H524.5V387.11Z" fill="black"/>
<path d="M524.5 375.168H521.5V369.197H524.5V375.168Z" fill="black"/>
<path d="M524.5 363.227H521.5V357.256H524.5V363.227Z" fill="black"/>
<path d="M524.5 351.285H521.5V345.314H524.5V351.285Z" fill="black"/>
<path d="M524.5 339.344H521.5V333.373H524.5V339.344Z" fill="black"/>
<path d="M524.5 327.402H521.5V321.432H524.5V327.402Z" fill="black"/>
<path d="M524.5 315.461H521.5V309.49H524.5V315.461Z" fill="black"/>
<path d="M524.5 303.52H521.5V297.549H524.5V303.52Z" fill="black"/>
<path d="M524.5 291.578H521.5V285.606H524.5V291.578Z" fill="black"/>
<path d="M524.5 279.636H521.5V273.665H524.5V279.636Z" fill="black"/>
<path d="M524.5 267.694H521.5V261.724H524.5V267.694Z" fill="black"/>
<path d="M524.5 255.753H521.5V249.782H524.5V255.753Z" fill="black"/>
<path d="M524.5 243.812H521.5V237.841H524.5V243.812Z" fill="black"/>
<path d="M524.5 231.87H521.5V225.899H524.5V231.87Z" fill="black"/>
<path d="M531.66 220H514.34L523 205L531.66 220Z" fill="black"/>
</g>
<g id="WireRegDst_CPU">
<path d="M1077.5 1125H1074.5V1121.99H1077.5V1125Z" fill="black"/>
<path d="M1077.5 1115.96H1074.5V1109.93H1077.5V1115.96Z" fill="black"/>
<path d="M1077.5 1103.9H1074.5V1097.87H1077.5V1103.9Z" fill="black"/>
<path d="M1077.5 1091.84H1074.5V1085.81H1077.5V1091.84Z" fill="black"/>
<path d="M1077.5 1079.79H1074.5V1073.76H1077.5V1079.79Z" fill="black"/>
<path d="M1077.5 1067.73H1074.5V1061.7H1077.5V1067.73Z" fill="black"/>
<path d="M1077.5 1055.67H1074.5V1049.64H1077.5V1055.67Z" fill="black"/>
<path d="M1077.5 1043.61H1074.5V1037.59H1077.5V1043.61Z" fill="black"/>
<path d="M1077.5 1031.56H1074.5V1025.53H1077.5V1031.56Z" fill="black"/>
<path d="M1077.5 1019.5H1074.5V1013.47H1077.5V1019.5Z" fill="black"/>
<path d="M1077.5 1007.44H1074.5V1001.41H1077.5V1007.44Z" fill="black"/>
<path d="M1077.5 995.386H1074.5V989.357H1077.5V995.386Z" fill="black"/>
<path d="M1077.5 983.328H1074.5V977.3H1077.5V983.328Z" fill="black"/>
<path d="M1077.5 971.271H1074.5V965.243H1077.5V971.271Z" fill="black"/>
<path d="M1077.5 959.214H1074.5V953.186H1077.5V959.214Z" fill="black"/>
<path d="M1077.5 947.157H1074.5V941.129H1077.5V947.157Z" fill="black"/>
<path d="M1077.5 935.1H1074.5V929.071H1077.5V935.1Z" fill="black"/>
<path d="M1077.5 923.043H1074.5V917.015H1077.5V923.043Z" fill="black"/>
<path d="M1077.5 910.985H1074.5V904.957H1077.5V910.985Z" fill="black"/>
<path d="M1077.5 898.929H1074.5V892.9H1077.5V898.929Z" fill="black"/>
<path d="M1077.5 886.871H1074.5V880.843H1077.5V886.871Z" fill="black"/>
<path d="M1077.5 874.814H1074.5V868.786H1077.5V874.814Z" fill="black"/>
<path d="M1077.5 862.757H1074.5V856.729H1077.5V862.757Z" fill="black"/>
<path d="M1077.5 850.7H1074.5V844.672H1077.5V850.7Z" fill="black"/>
<path d="M1077.5 838.643H1074.5V832.614H1077.5V838.643Z" fill="black"/>
<path d="M1077.5 826.586H1074.5V820.558H1077.5V826.586Z" fill="black"/>
<path d="M1077.5 814.528H1074.5V808.5H1077.5V814.528Z" fill="black"/>
<path d="M1077.5 802.472H1074.5V796.443H1077.5V802.472Z" fill="black"/>
<path d="M1077.5 790.414H1074.5V784.386H1077.5V790.414Z" fill="black"/>
<path d="M1077.5 778.357H1074.5V772.329H1077.5V778.357Z" fill="black"/>
<path d="M1077.5 766.3H1074.5V760.271H1077.5V766.3Z" fill="black"/>
<path d="M1077.5 754.243H1074.5V748.215H1077.5V754.243Z" fill="black"/>
<path d="M1077.5 742.186H1074.5V736.157H1077.5V742.186Z" fill="black"/>
<path d="M1077.5 730.129H1074.5V724.101H1077.5V730.129Z" fill="black"/>
<path d="M1084.66 718H1077.5V718.071H1074.5V718H1067.34L1076 703L1084.66 718Z" fill="black"/>
</g>
<g id="WireRegWrite_CPU">
<path d="M1317.5 1125H1314.5V1122.03H1317.5V1125Z" fill="black"/>
<path d="M1317.5 1116.08H1314.5V1110.13H1317.5V1116.08Z" fill="black"/>
<path d="M1317.5 1104.18H1314.5V1098.24H1317.5V1104.18Z" fill="black"/>
<path d="M1317.5 1092.29H1314.5V1086.34H1317.5V1092.29Z" fill="black"/>
<path d="M1317.5 1080.39H1314.5V1074.45H1317.5V1080.39Z" fill="black"/>
<path d="M1317.5 1068.5H1314.5V1062.55H1317.5V1068.5Z" fill="black"/>
<path d="M1317.5 1056.61H1314.5V1050.66H1317.5V1056.61Z" fill="black"/>
<path d="M1317.5 1044.71H1314.5V1038.76H1317.5V1044.71Z" fill="black"/>
<path d="M1317.5 1032.82H1314.5V1026.87H1317.5V1032.82Z" fill="black"/>
<path d="M1317.5 1020.92H1314.5V1014.97H1317.5V1020.92Z" fill="black"/>
<path d="M1317.5 1009.03H1314.5V1003.08H1317.5V1009.03Z" fill="black"/>
<path d="M1317.5 997.132H1314.5V991.185H1317.5V997.132Z" fill="black"/>
<path d="M1317.5 985.236H1314.5V979.289H1317.5V985.236Z" fill="black"/>
<path d="M1317.5 973.342H1314.5V967.395H1317.5V973.342Z" fill="black"/>
<path d="M1317.5 961.447H1314.5V955.5H1317.5V961.447Z" fill="black"/>
<path d="M1317.5 949.553H1314.5V943.605H1317.5V949.553Z" fill="black"/>
<path d="M1317.5 937.658H1314.5V931.71H1317.5V937.658Z" fill="black"/>
<path d="M1317.5 925.763H1314.5V919.815H1317.5V925.763Z" fill="black"/>
<path d="M1317.5 913.868H1314.5V907.921H1317.5V913.868Z" fill="black"/>
<path d="M1317.5 901.974H1314.5V896.026H1317.5V901.974Z" fill="black"/>
<path d="M1317.5 890.079H1314.5V884.132H1317.5V890.079Z" fill="black"/>
<path d="M1317.5 878.185H1314.5V872.236H1317.5V878.185Z" fill="black"/>
<path d="M1317.5 866.289H1314.5V860.342H1317.5V866.289Z" fill="black"/>
<path d="M1317.5 854.395H1314.5V848.447H1317.5V854.395Z" fill="black"/>
<path d="M1317.5 842.5H1314.5V836.553H1317.5V842.5Z" fill="black"/>
<path d="M1317.5 830.605H1314.5V824.658H1317.5V830.605Z" fill="black"/>
<path d="M1317.5 818.711H1314.5V812.763H1317.5V818.711Z" fill="black"/>
<path d="M1317.5 806.815H1314.5V800.868H1317.5V806.815Z" fill="black"/>
<path d="M1317.5 794.921H1314.5V788.974H1317.5V794.921Z" fill="black"/>
<path d="M1317.5 783.026H1314.5V777.079H1317.5V783.026Z" fill="black"/>
<path d="M1317.5 771.132H1314.5V765.185H1317.5V771.132Z" fill="black"/>
<path d="M1317.5 759.237H1314.5V753.29H1317.5V759.237Z" fill="black"/>
<path d="M1317.5 747.342H1314.5V741.395H1317.5V747.342Z" fill="black"/>
<path d="M1317.5 735.447H1314.5V729.5H1317.5V735.447Z" fill="black"/>
<path d="M1317.5 723.553H1314.5V717.605H1317.5V723.553Z" fill="black"/>
<path d="M1317.5 711.658H1314.5V705.711H1317.5V711.658Z" fill="black"/>
<path d="M1317.5 699.764H1314.5V693.816H1317.5V699.764Z" fill="black"/>
<path d="M1324.66 688H1307.34L1316 673L1324.66 688Z" fill="black"/>
</g>
<g id="WireALUSrc_CPU">
<path d="M1785.5 1125H1782.5V1122.03H1785.5V1125Z" fill="black"/>
<path d="M1785.5 1116.08H1782.5V1110.13H1785.5V1116.08Z" fill="black"/>
<path d="M1785.5 1104.18H1782.5V1098.23H1785.5V1104.18Z" fill="black"/>
<path d="M1785.5 1092.28H1782.5V1086.33H1785.5V1092.28Z" fill="black"/>
<path d="M1785.5 1080.38H1782.5V1074.44H1785.5V1080.38Z" fill="black"/>
<path d="M1785.5 1068.49H1782.5V1062.54H1785.5V1068.49Z" fill="black"/>
<path d="M1785.5 1056.59H1782.5V1050.64H1785.5V1056.59Z" fill="black"/>
<path d="M1785.5 1044.69H1782.5V1038.74H1785.5V1044.69Z" fill="black"/>
<path d="M1785.5 1032.79H1782.5V1026.85H1785.5V1032.79Z" fill="black"/>
<path d="M1785.5 1020.9H1782.5V1014.95H1785.5V1020.9Z" fill="black"/>
<path d="M1785.5 1009H1782.5V1003.05H1785.5V1009Z" fill="black"/>
<path d="M1785.5 997.103H1782.5V991.154H1785.5V997.103Z" fill="black"/>
<path d="M1785.5 985.205H1782.5V979.257H1785.5V985.205Z" fill="black"/>
<path d="M1785.5 973.308H1782.5V967.359H1785.5V973.308Z" fill="black"/>
<path d="M1785.5 961.41H1782.5V955.462H1785.5V961.41Z" fill="black"/>
<path d="M1785.5 949.513H1782.5V943.564H1785.5V949.513Z" fill="black"/>
<path d="M1785.5 937.615H1782.5V931.667H1785.5V937.615Z" fill="black"/>
<path d="M1785.5 925.718H1782.5V919.77H1785.5V925.718Z" fill="black"/>
<path d="M1785.5 913.82H1782.5V907.872H1785.5V913.82Z" fill="black"/>
<path d="M1785.5 901.923H1782.5V895.975H1785.5V901.923Z" fill="black"/>
<path d="M1785.5 890.025H1782.5V884.077H1785.5V890.025Z" fill="black"/>
<path d="M1785.5 878.128H1782.5V872.18H1785.5V878.128Z" fill="black"/>
<path d="M1785.5 866.23H1782.5V860.282H1785.5V866.23Z" fill="black"/>
<path d="M1785.5 854.333H1782.5V848.385H1785.5V854.333Z" fill="black"/>
<path d="M1785.5 842.436H1782.5V836.487H1785.5V842.436Z" fill="black"/>
<path d="M1785.5 830.538H1782.5V824.59H1785.5V830.538Z" fill="black"/>
<path d="M1785.5 818.641H1782.5V812.692H1785.5V818.641Z" fill="black"/>
<path d="M1785.5 806.743H1782.5V800.795H1785.5V806.743Z" fill="black"/>
<path d="M1785.5 794.846H1782.5V788.897H1785.5V794.846Z" fill="black"/>
<path d="M1785.5 782.948H1782.5V777H1785.5V782.948Z" fill="black"/>
<path d="M1785.5 771.051H1782.5V765.103H1785.5V771.051Z" fill="black"/>
<path d="M1785.5 759.153H1782.5V753.205H1785.5V759.153Z" fill="black"/>
<path d="M1785.5 747.256H1782.5V741.308H1785.5V747.256Z" fill="black"/>
<path d="M1785.5 735.358H1782.5V729.41H1785.5V735.358Z" fill="black"/>
<path d="M1785.5 723.461H1782.5V717.513H1785.5V723.461Z" fill="black"/>
<path d="M1785.5 711.563H1782.5V705.615H1785.5V711.563Z" fill="black"/>
<path d="M1785.5 699.666H1782.5V693.718H1785.5V699.666Z" fill="black"/>
<path d="M1785.5 687.769H1782.5V681.82H1785.5V687.769Z" fill="black"/>
<path d="M1792.66 676H1775.34L1784 661L1792.66 676Z" fill="black"/>
</g>
<g id="WireDataRead_CPU">
<path d="M2443.5 1125H2440.5V1122.02H2443.5V1125Z" fill="black"/>
<path d="M2443.5 1116.07H2440.5V1110.11H2443.5V1116.07Z" fill="black"/>
<path d="M2443.5 1104.16H2440.5V1098.2H2443.5V1104.16Z" fill="black"/>
<path d="M2443.5 1092.25H2440.5V1086.3H2443.5V1092.25Z" fill="black"/>
<path d="M2443.5 1080.34H2440.5V1074.39H2443.5V1080.34Z" fill="black"/>
<path d="M2443.5 1068.43H2440.5V1062.48H2443.5V1068.43Z" fill="black"/>
<path d="M2443.5 1056.52H2440.5V1050.57H2443.5V1056.52Z" fill="black"/>
<path d="M2443.5 1044.61H2440.5V1038.66H2443.5V1044.61Z" fill="black"/>
<path d="M2443.5 1032.7H2440.5V1026.75H2443.5V1032.7Z" fill="black"/>
<path d="M2443.5 1020.8H2440.5V1014.84H2443.5V1020.8Z" fill="black"/>
<path d="M2443.5 1008.89H2440.5V1002.93H2443.5V1008.89Z" fill="black"/>
<path d="M2443.5 996.978H2440.5V991.022H2443.5V996.978Z" fill="black"/>
<path d="M2443.5 985.068H2440.5V979.113H2443.5V985.068Z" fill="black"/>
<path d="M2443.5 973.159H2440.5V967.204H2443.5V973.159Z" fill="black"/>
<path d="M2443.5 961.25H2440.5V955.296H2443.5V961.25Z" fill="black"/>
<path d="M2443.5 949.341H2440.5V943.387H2443.5V949.341Z" fill="black"/>
<path d="M2443.5 937.432H2440.5V931.478H2443.5V937.432Z" fill="black"/>
<path d="M2443.5 925.522H2440.5V919.568H2443.5V925.522Z" fill="black"/>
<path d="M2443.5 913.613H2440.5V907.659H2443.5V913.613Z" fill="black"/>
<path d="M2443.5 901.704H2440.5V895.75H2443.5V901.704Z" fill="black"/>
<path d="M2443.5 889.796H2440.5V883.841H2443.5V889.796Z" fill="black"/>
<path d="M2443.5 877.887H2440.5V871.932H2443.5V877.887Z" fill="black"/>
<path d="M2443.5 865.978H2440.5V860.022H2443.5V865.978Z" fill="black"/>
<path d="M2443.5 854.068H2440.5V848.113H2443.5V854.068Z" fill="black"/>
<path d="M2443.5 842.159H2440.5V836.204H2443.5V842.159Z" fill="black"/>
<path d="M2443.5 830.25H2440.5V824.295H2443.5V830.25Z" fill="black"/>
<path d="M2443.5 818.341H2440.5V812.387H2443.5V818.341Z" fill="black"/>
<path d="M2443.5 806.432H2440.5V800.478H2443.5V806.432Z" fill="black"/>
<path d="M2443.5 794.522H2440.5V788.568H2443.5V794.522Z" fill="black"/>
<path d="M2443.5 782.613H2440.5V776.659H2443.5V782.613Z" fill="black"/>
<path d="M2443.5 770.704H2440.5V764.75H2443.5V770.704Z" fill="black"/>
<path d="M2443.5 758.795H2440.5V752.841H2443.5V758.795Z" fill="black"/>
<path d="M2443.5 746.886H2440.5V740.932H2443.5V746.886Z" fill="black"/>
<path d="M2443.5 734.977H2440.5V729.022H2443.5V734.977Z" fill="black"/>
<path d="M2443.5 723.068H2440.5V717.113H2443.5V723.068Z" fill="black"/>
<path d="M2443.5 711.159H2440.5V705.204H2443.5V711.159Z" fill="black"/>
<path d="M2443.5 699.25H2440.5V693.295H2443.5V699.25Z" fill="black"/>
<path d="M2443.5 687.341H2440.5V681.386H2443.5V687.341Z" fill="black"/>
<path d="M2443.5 675.432H2440.5V669.477H2443.5V675.432Z" fill="black"/>
<path d="M2443.5 663.522H2440.5V657.567H2443.5V663.522Z" fill="black"/>
<path d="M2443.5 651.613H2440.5V645.658H2443.5V651.613Z" fill="black"/>
<path d="M2443.5 639.704H2440.5V633.749H2443.5V639.704Z" fill="black"/>
<path d="M2443.5 627.795H2440.5V621.841H2443.5V627.795Z" fill="black"/>
<path d="M2450.66 616H2433.34L2442 601L2450.66 616Z" fill="black"/>
</g>
<g id="WireDataWrite_CPU">
<path d="M2529.5 1125H2526.5V1122.02H2529.5V1125Z" fill="black"/>
<path d="M2529.5 1116.07H2526.5V1110.11H2529.5V1116.07Z" fill="black"/>
<path d="M2529.5 1104.16H2526.5V1098.2H2529.5V1104.16Z" fill="black"/>
<path d="M2529.5 1092.25H2526.5V1086.3H2529.5V1092.25Z" fill="black"/>
<path d="M2529.5 1080.34H2526.5V1074.39H2529.5V1080.34Z" fill="black"/>
<path d="M2529.5 1068.43H2526.5V1062.48H2529.5V1068.43Z" fill="black"/>
<path d="M2529.5 1056.52H2526.5V1050.57H2529.5V1056.52Z" fill="black"/>
<path d="M2529.5 1044.61H2526.5V1038.66H2529.5V1044.61Z" fill="black"/>
<path d="M2529.5 1032.7H2526.5V1026.75H2529.5V1032.7Z" fill="black"/>
<path d="M2529.5 1020.8H2526.5V1014.84H2529.5V1020.8Z" fill="black"/>
<path d="M2529.5 1008.89H2526.5V1002.93H2529.5V1008.89Z" fill="black"/>
<path d="M2529.5 996.978H2526.5V991.022H2529.5V996.978Z" fill="black"/>
<path d="M2529.5 985.068H2526.5V979.113H2529.5V985.068Z" fill="black"/>
<path d="M2529.5 973.159H2526.5V967.204H2529.5V973.159Z" fill="black"/>
<path d="M2529.5 961.25H2526.5V955.296H2529.5V961.25Z" fill="black"/>
<path d="M2529.5 949.341H2526.5V943.387H2529.5V949.341Z" fill="black"/>
<path d="M2529.5 937.432H2526.5V931.478H2529.5V937.432Z" fill="black"/>
<path d="M2529.5 925.522H2526.5V919.568H2529.5V925.522Z" fill="black"/>
<path d="M2529.5 913.613H2526.5V907.659H2529.5V913.613Z" fill="black"/>
<path d="M2529.5 901.704H2526.5V895.75H2529.5V901.704Z" fill="black"/>
<path d="M2529.5 889.796H2526.5V883.841H2529.5V889.796Z" fill="black"/>
<path d="M2529.5 877.887H2526.5V871.932H2529.5V877.887Z" fill="black"/>
<path d="M2529.5 865.978H2526.5V860.022H2529.5V865.978Z" fill="black"/>
<path d="M2529.5 854.068H2526.5V848.113H2529.5V854.068Z" fill="black"/>
<path d="M2529.5 842.159H2526.5V836.204H2529.5V842.159Z" fill="black"/>
<path d="M2529.5 830.25H2526.5V824.295H2529.5V830.25Z" fill="black"/>
<path d="M2529.5 818.341H2526.5V812.387H2529.5V818.341Z" fill="black"/>
<path d="M2529.5 806.432H2526.5V800.478H2529.5V806.432Z" fill="black"/>
<path d="M2529.5 794.522H2526.5V788.568H2529.5V794.522Z" fill="black"/>
<path d="M2529.5 782.613H2526.5V776.659H2529.5V782.613Z" fill="black"/>
<path d="M2529.5 770.704H2526.5V764.75H2529.5V770.704Z" fill="black"/>
<path d="M2529.5 758.795H2526.5V752.841H2529.5V758.795Z" fill="black"/>
<path d="M2529.5 746.886H2526.5V740.932H2529.5V746.886Z" fill="black"/>
<path d="M2529.5 734.977H2526.5V729.022H2529.5V734.977Z" fill="black"/>
<path d="M2529.5 723.068H2526.5V717.113H2529.5V723.068Z" fill="black"/>
<path d="M2529.5 711.159H2526.5V705.204H2529.5V711.159Z" fill="black"/>
<path d="M2529.5 699.25H2526.5V693.295H2529.5V699.25Z" fill="black"/>
<path d="M2529.5 687.341H2526.5V681.386H2529.5V687.341Z" fill="black"/>
<path d="M2529.5 675.432H2526.5V669.477H2529.5V675.432Z" fill="black"/>
<path d="M2529.5 663.522H2526.5V657.567H2529.5V663.522Z" fill="black"/>
<path d="M2529.5 651.613H2526.5V645.658H2529.5V651.613Z" fill="black"/>
<path d="M2529.5 639.704H2526.5V633.749H2529.5V639.704Z" fill="black"/>
<path d="M2529.5 627.795H2526.5V621.841H2529.5V627.795Z" fill="black"/>
<path d="M2536.66 616H2519.34L2528 601L2536.66 616Z" fill="black"/>
</g>
<g id="WireRegInSrc_CPU">
<path d="M2826.5 1125H2823.5V1121.99H2826.5V1125Z" fill="black"/>
<path d="M2826.5 1115.98H2823.5V1109.96H2826.5V1115.98Z" fill="black"/>
<path d="M2826.5 1103.94H2823.5V1097.93H2826.5V1103.94Z" fill="black"/>
<path d="M2826.5 1091.91H2823.5V1085.9H2826.5V1091.91Z" fill="black"/>
<path d="M2826.5 1079.88H2823.5V1073.86H2826.5V1079.88Z" fill="black"/>
<path d="M2826.5 1067.85H2823.5V1061.83H2826.5V1067.85Z" fill="black"/>
<path d="M2826.5 1055.81H2823.5V1049.8H2826.5V1055.81Z" fill="black"/>
<path d="M2826.5 1043.78H2823.5V1037.77H2826.5V1043.78Z" fill="black"/>
<path d="M2826.5 1031.75H2823.5V1025.73H2826.5V1031.75Z" fill="black"/>
<path d="M2826.5 1019.72H2823.5V1013.7H2826.5V1019.72Z" fill="black"/>
<path d="M2826.5 1007.69H2823.5V1001.67H2826.5V1007.69Z" fill="black"/>
<path d="M2826.5 995.653H2823.5V989.637H2826.5V995.653Z" fill="black"/>
<path d="M2826.5 983.621H2823.5V977.604H2826.5V983.621Z" fill="black"/>
<path d="M2826.5 971.589H2823.5V965.572H2826.5V971.589Z" fill="black"/>
<path d="M2826.5 959.557H2823.5V953.54H2826.5V959.557Z" fill="black"/>
<path d="M2826.5 947.524H2823.5V941.508H2826.5V947.524Z" fill="black"/>
<path d="M2826.5 935.492H2823.5V929.476H2826.5V935.492Z" fill="black"/>
<path d="M2826.5 923.46H2823.5V917.443H2826.5V923.46Z" fill="black"/>
<path d="M2826.5 911.428H2823.5V905.411H2826.5V911.428Z" fill="black"/>
<path d="M2826.5 899.396H2823.5V893.379H2826.5V899.396Z" fill="black"/>
<path d="M2826.5 887.363H2823.5V881.347H2826.5V887.363Z" fill="black"/>
<path d="M2826.5 875.331H2823.5V869.314H2826.5V875.331Z" fill="black"/>
<path d="M2826.5 863.299H2823.5V857.282H2826.5V863.299Z" fill="black"/>
<path d="M2826.5 851.266H2823.5V845.25H2826.5V851.266Z" fill="black"/>
<path d="M2826.5 839.233H2823.5V833.218H2826.5V839.233Z" fill="black"/>
<path d="M2826.5 827.201H2823.5V821.186H2826.5V827.201Z" fill="black"/>
<path d="M2826.5 815.169H2823.5V809.153H2826.5V815.169Z" fill="black"/>
<path d="M2826.5 803.137H2823.5V797.121H2826.5V803.137Z" fill="black"/>
<path d="M2826.5 791.104H2823.5V785.089H2826.5V791.104Z" fill="black"/>
<path d="M2826.5 779.072H2823.5V773.057H2826.5V779.072Z" fill="black"/>
<path d="M2833.66 767H2826.5V767.04H2823.5V767H2816.34L2825 752L2833.66 767Z" fill="black"/>
</g>
<g id="WireCUout_CPU">
<path d="M1030 1288H1027V1285.04H1030V1288Z" fill="black"/>
<path d="M1030 1279.11H1027V1273.18H1030V1279.11Z" fill="black"/>
<path d="M1030 1267.25H1027V1261.32H1030V1267.25Z" fill="black"/>
<path d="M1030 1255.39H1027V1249.46H1030V1255.39Z" fill="black"/>
<path d="M1030 1243.54H1027V1237.61H1030V1243.54Z" fill="black"/>
<path d="M1030 1231.68H1027V1225.75H1030V1231.68Z" fill="black"/>
<path d="M1030 1219.82H1027V1213.89H1030V1219.82Z" fill="black"/>
<path d="M1030 1207.96H1027V1202.04H1030V1207.96Z" fill="black"/>
<path d="M1030 1196.11H1027V1190.18H1030V1196.11Z" fill="black"/>
<path d="M1030 1184.25H1027V1178.32H1030V1184.25Z" fill="black"/>
<path d="M1030 1172.39H1027V1166.46H1030V1172.39Z" fill="black"/>
<path d="M1030 1160.54H1027V1154.61H1030V1160.54Z" fill="black"/>
<path d="M1030 1148.68H1027V1142.75H1030V1148.68Z" fill="black"/>
<path d="M1030 1136.82H1027V1130.89H1030V1136.82Z" fill="black"/>
<path d="M524.499 1125H521.5V1122H524.499V1125Z" fill="black"/>
<path d="M536.497 1125H530.498V1122H536.497V1125Z" fill="black"/>
<path d="M548.494 1125H542.495V1122H548.494V1125Z" fill="black"/>
<path d="M560.491 1125H554.493V1122H560.491V1125Z" fill="black"/>
<path d="M572.489 1125H566.49V1122H572.489V1125Z" fill="black"/>
<path d="M584.486 1125H578.487V1122H584.486V1125Z" fill="black"/>
<path d="M596.483 1125H590.485V1122H596.483V1125Z" fill="black"/>
<path d="M608.481 1125H602.482V1122H608.481V1125Z" fill="black"/>
<path d="M620.479 1125H614.479V1122H620.479V1125Z" fill="black"/>
<path d="M632.476 1125H626.478V1122H632.476V1125Z" fill="black"/>
<path d="M644.474 1125H638.475V1122H644.474V1125Z" fill="black"/>
<path d="M656.471 1125H650.472V1122H656.471V1125Z" fill="black"/>
<path d="M668.468 1125H662.47V1122H668.468V1125Z" fill="black"/>
<path d="M680.466 1125H674.467V1122H680.466V1125Z" fill="black"/>
<path d="M692.463 1125H686.464V1122H692.463V1125Z" fill="black"/>
<path d="M704.46 1125H698.462V1122H704.46V1125Z" fill="black"/>
<path d="M716.458 1125H710.459V1122H716.458V1125Z" fill="black"/>
<path d="M728.455 1125H722.456V1122H728.455V1125Z" fill="black"/>
<path d="M740.452 1125H734.454V1122H740.452V1125Z" fill="black"/>
<path d="M752.45 1125H746.451V1122H752.45V1125Z" fill="black"/>
<path d="M764.447 1125H758.448V1122H764.447V1125Z" fill="black"/>
<path d="M776.444 1125H770.446V1122H776.444V1125Z" fill="black"/>
<path d="M788.442 1125H782.443V1122H788.442V1125Z" fill="black"/>
<path d="M800.439 1125H794.44V1122H800.439V1125Z" fill="black"/>
<path d="M812.437 1125H806.438V1122H812.437V1125Z" fill="black"/>
<path d="M824.435 1125H818.436V1122H824.435V1125Z" fill="black"/>
<path d="M836.432 1125H830.433V1122H836.432V1125Z" fill="black"/>
<path d="M848.429 1125H842.431V1122H848.429V1125Z" fill="black"/>
<path d="M860.427 1125H854.428V1122H860.427V1125Z" fill="black"/>
<path d="M872.424 1125H866.425V1122H872.424V1125Z" fill="black"/>
<path d="M884.421 1125H878.423V1122H884.421V1125Z" fill="black"/>
<path d="M896.419 1125H890.42V1122H896.419V1125Z" fill="black"/>
<path d="M908.416 1125H902.417V1122H908.416V1125Z" fill="black"/>
<path d="M920.413 1125H914.415V1122H920.413V1125Z" fill="black"/>
<path d="M932.411 1125H926.412V1122H932.411V1125Z" fill="black"/>
<path d="M944.408 1125H938.409V1122H944.408V1125Z" fill="black"/>
<path d="M956.405 1125H950.406V1122H956.405V1125Z" fill="black"/>
<path d="M968.402 1125H962.404V1122H968.402V1125Z" fill="black"/>
<path d="M980.4 1125H974.401V1122H980.4V1125Z" fill="black"/>
<path d="M992.397 1125H986.398V1122H992.397V1125Z" fill="black"/>
<path d="M1004.39 1125H998.396V1122H1004.39V1125Z" fill="black"/>
<path d="M1016.39 1125H1010.39V1122H1016.39V1125Z" fill="black"/>
<path d="M1030 1122V1124.96H1028.39V1125H1022.39V1122H1030Z" fill="black"/>
<path d="M1040.39 1125H1034.39V1122H1040.39V1125Z" fill="black"/>
<path d="M1052.38 1125H1046.39V1122H1052.38V1125Z" fill="black"/>
<path d="M1064.38 1125H1058.38V1122H1064.38V1125Z" fill="black"/>
<path d="M1076.38 1125H1070.38V1122H1076.38V1125Z" fill="black"/>
<path d="M1088.38 1125H1082.38V1122H1088.38V1125Z" fill="black"/>
<path d="M1100.37 1125H1094.38V1122H1100.37V1125Z" fill="black"/>
<path d="M1112.37 1125H1106.37V1122H1112.37V1125Z" fill="black"/>
<path d="M1124.37 1125H1118.37V1122H1124.37V1125Z" fill="black"/>
<path d="M1136.37 1125H1130.37V1122H1136.37V1125Z" fill="black"/>
<path d="M1148.36 1125H1142.37V1122H1148.36V1125Z" fill="black"/>
<path d="M1160.36 1125H1154.36V1122H1160.36V1125Z" fill="black"/>
<path d="M1172.36 1125H1166.36V1122H1172.36V1125Z" fill="black"/>
<path d="M1184.36 1125H1178.36V1122H1184.36V1125Z" fill="black"/>
<path d="M1196.35 1125H1190.36V1122H1196.35V1125Z" fill="black"/>
<path d="M1208.35 1125H1202.35V1122H1208.35V1125Z" fill="black"/>
<path d="M1220.35 1125H1214.35V1122H1220.35V1125Z" fill="black"/>
<path d="M1232.35 1125H1226.35V1122H1232.35V1125Z" fill="black"/>
<path d="M1244.34 1125H1238.34V1122H1244.34V1125Z" fill="black"/>
<path d="M1256.34 1125H1250.34V1122H1256.34V1125Z" fill="black"/>
<path d="M1268.34 1125H1262.34V1122H1268.34V1125Z" fill="black"/>
<path d="M1280.34 1125H1274.34V1122H1280.34V1125Z" fill="black"/>
<path d="M1292.33 1125H1286.33V1122H1292.33V1125Z" fill="black"/>
<path d="M1304.33 1125H1298.33V1122H1304.33V1125Z" fill="black"/>
<path d="M1316.33 1125H1310.33V1122H1316.33V1125Z" fill="black"/>
<path d="M1328.33 1125H1322.33V1122H1328.33V1125Z" fill="black"/>
<path d="M1340.32 1125H1334.32V1122H1340.32V1125Z" fill="black"/>
<path d="M1352.32 1125H1346.32V1122H1352.32V1125Z" fill="black"/>
<path d="M1364.32 1125H1358.32V1122H1364.32V1125Z" fill="black"/>
<path d="M1376.32 1125H1370.32V1122H1376.32V1125Z" fill="black"/>
<path d="M1388.31 1125H1382.31V1122H1388.31V1125Z" fill="black"/>
<path d="M1400.31 1125H1394.31V1122H1400.31V1125Z" fill="black"/>
<path d="M1412.31 1125H1406.31V1122H1412.31V1125Z" fill="black"/>
<path d="M1424.3 1125H1418.31V1122H1424.3V1125Z" fill="black"/>
<path d="M1436.3 1125H1430.3V1122H1436.3V1125Z" fill="black"/>
<path d="M1448.3 1125H1442.3V1122H1448.3V1125Z" fill="black"/>
<path d="M1460.3 1125H1454.3V1122H1460.3V1125Z" fill="black"/>
<path d="M1472.29 1125H1466.3V1122H1472.29V1125Z" fill="black"/>
<path d="M1484.29 1125H1478.29V1122H1484.29V1125Z" fill="black"/>
<path d="M1496.29 1125H1490.29V1122H1496.29V1125Z" fill="black"/>
<path d="M1508.29 1125H1502.29V1122H1508.29V1125Z" fill="black"/>
<path d="M1520.28 1125H1514.29V1122H1520.28V1125Z" fill="black"/>
<path d="M1532.28 1125H1526.28V1122H1532.28V1125Z" fill="black"/>
<path d="M1544.28 1125H1538.28V1122H1544.28V1125Z" fill="black"/>
<path d="M1556.28 1125H1550.28V1122H1556.28V1125Z" fill="black"/>
<path d="M1568.27 1125H1562.28V1122H1568.27V1125Z" fill="black"/>
<path d="M1580.27 1125H1574.27V1122H1580.27V1125Z" fill="black"/>
<path d="M1592.27 1125H1586.27V1122H1592.27V1125Z" fill="black"/>
<path d="M1604.27 1125H1598.27V1122H1604.27V1125Z" fill="black"/>
<path d="M1616.26 1125H1610.26V1122H1616.26V1125Z" fill="black"/>
<path d="M1628.26 1125H1622.26V1122H1628.26V1125Z" fill="black"/>
<path d="M1640.26 1125H1634.26V1122H1640.26V1125Z" fill="black"/>
<path d="M1652.25 1125H1646.26V1122H1652.25V1125Z" fill="black"/>
<path d="M1664.25 1125H1658.25V1122H1664.25V1125Z" fill="black"/>
<path d="M1676.25 1125H1670.25V1122H1676.25V1125Z" fill="black"/>
<path d="M1688.25 1125H1682.25V1122H1688.25V1125Z" fill="black"/>
<path d="M1700.24 1125H1694.25V1122H1700.24V1125Z" fill="black"/>
<path d="M1712.24 1125H1706.24V1122H1712.24V1125Z" fill="black"/>
<path d="M1724.24 1125H1718.24V1122H1724.24V1125Z" fill="black"/>
<path d="M1736.24 1125H1730.24V1122H1736.24V1125Z" fill="black"/>
<path d="M1748.23 1125H1742.24V1122H1748.23V1125Z" fill="black"/>
<path d="M1760.23 1125H1754.23V1122H1760.23V1125Z" fill="black"/>
<path d="M1772.23 1125H1766.23V1122H1772.23V1125Z" fill="black"/>
<path d="M1784.23 1125H1778.23V1122H1784.23V1125Z" fill="black"/>
<path d="M1796.22 1125H1790.22V1122H1796.22V1125Z" fill="black"/>
<path d="M1808.22 1125H1802.22V1122H1808.22V1125Z" fill="black"/>
<path d="M1820.22 1125H1814.22V1122H1820.22V1125Z" fill="black"/>
<path d="M1832.21 1125H1826.22V1122H1832.21V1125Z" fill="black"/>
<path d="M1844.21 1125H1838.21V1122H1844.21V1125Z" fill="black"/>
<path d="M1856.21 1125H1850.21V1122H1856.21V1125Z" fill="black"/>
<path d="M1868.21 1125H1862.21V1122H1868.21V1125Z" fill="black"/>
<path d="M1880.2 1125H1874.21V1122H1880.2V1125Z" fill="black"/>
<path d="M1892.2 1125H1886.2V1122H1892.2V1125Z" fill="black"/>
<path d="M1904.2 1125H1898.2V1122H1904.2V1125Z" fill="black"/>
<path d="M1916.2 1125H1910.2V1122H1916.2V1125Z" fill="black"/>
<path d="M1928.19 1125H1922.2V1122H1928.19V1125Z" fill="black"/>
<path d="M1940.19 1125H1934.19V1122H1940.19V1125Z" fill="black"/>
<path d="M1952.19 1125H1946.19V1122H1952.19V1125Z" fill="black"/>
<path d="M1964.19 1125H1958.19V1122H1964.19V1125Z" fill="black"/>
<path d="M1976.18 1125H1970.18V1122H1976.18V1125Z" fill="black"/>
<path d="M1988.18 1125H1982.18V1122H1988.18V1125Z" fill="black"/>
<path d="M2000.18 1125H1994.18V1122H2000.18V1125Z" fill="black"/>
<path d="M2012.17 1125H2006.18V1122H2012.17V1125Z" fill="black"/>
<path d="M2024.17 1125H2018.17V1122H2024.17V1125Z" fill="black"/>
<path d="M2036.17 1125H2030.17V1122H2036.17V1125Z" fill="black"/>
<path d="M2048.17 1125H2042.17V1122H2048.17V1125Z" fill="black"/>
<path d="M2060.16 1125H2054.17V1122H2060.16V1125Z" fill="black"/>
<path d="M2072.16 1125H2066.16V1122H2072.16V1125Z" fill="black"/>
<path d="M2084.16 1125H2078.16V1122H2084.16V1125Z" fill="black"/>
<path d="M2096.16 1125H2090.16V1122H2096.16V1125Z" fill="black"/>
<path d="M2108.15 1125H2102.15V1122H2108.15V1125Z" fill="black"/>
<path d="M2120.15 1125H2114.15V1122H2120.15V1125Z" fill="black"/>
<path d="M2132.15 1125H2126.15V1122H2132.15V1125Z" fill="black"/>
<path d="M2144.15 1125H2138.15V1122H2144.15V1125Z" fill="black"/>
<path d="M2156.14 1125H2150.14V1122H2156.14V1125Z" fill="black"/>
<path d="M2168.14 1125H2162.14V1122H2168.14V1125Z" fill="black"/>
<path d="M2180.14 1125H2174.14V1122H2180.14V1125Z" fill="black"/>
<path d="M2192.13 1125H2186.14V1122H2192.13V1125Z" fill="black"/>
<path d="M2204.13 1125H2198.13V1122H2204.13V1125Z" fill="black"/>
<path d="M2216.13 1125H2210.13V1122H2216.13V1125Z" fill="black"/>
<path d="M2228.13 1125H2222.13V1122H2228.13V1125Z" fill="black"/>
<path d="M2240.12 1125H2234.12V1122H2240.12V1125Z" fill="black"/>
<path d="M2252.12 1125H2246.12V1122H2252.12V1125Z" fill="black"/>
<path d="M2264.12 1125H2258.12V1122H2264.12V1125Z" fill="black"/>
<path d="M2276.12 1125H2270.12V1122H2276.12V1125Z" fill="black"/>
<path d="M2288.11 1125H2282.11V1122H2288.11V1125Z" fill="black"/>
<path d="M2300.11 1125H2294.11V1122H2300.11V1125Z" fill="black"/>
<path d="M2312.11 1125H2306.11V1122H2312.11V1125Z" fill="black"/>
<path d="M2324.1 1125H2318.11V1122H2324.1V1125Z" fill="black"/>
<path d="M2336.1 1125H2330.1V1122H2336.1V1125Z" fill="black"/>
<path d="M2348.1 1125H2342.1V1122H2348.1V1125Z" fill="black"/>
<path d="M2360.1 1125H2354.1V1122H2360.1V1125Z" fill="black"/>
<path d="M2372.09 1125H2366.1V1122H2372.09V1125Z" fill="black"/>
<path d="M2384.09 1125H2378.09V1122H2384.09V1125Z" fill="black"/>
<path d="M2396.09 1125H2390.09V1122H2396.09V1125Z" fill="black"/>
<path d="M2408.09 1125H2402.09V1122H2408.09V1125Z" fill="black"/>
<path d="M2420.08 1125H2414.08V1122H2420.08V1125Z" fill="black"/>
<path d="M2432.08 1125H2426.08V1122H2432.08V1125Z" fill="black"/>
<path d="M2444.08 1125H2438.08V1122H2444.08V1125Z" fill="black"/>
<path d="M2456.08 1125H2450.08V1122H2456.08V1125Z" fill="black"/>
<path d="M2468.07 1125H2462.07V1122H2468.07V1125Z" fill="black"/>
<path d="M2480.07 1125H2474.07V1122H2480.07V1125Z" fill="black"/>
<path d="M2492.07 1125H2486.07V1122H2492.07V1125Z" fill="black"/>
<path d="M2504.06 1125H2498.07V1122H2504.06V1125Z" fill="black"/>
<path d="M2516.06 1125H2510.06V1122H2516.06V1125Z" fill="black"/>
<path d="M2528.06 1125H2522.06V1122H2528.06V1125Z" fill="black"/>
<path d="M2540.06 1125H2534.06V1122H2540.06V1125Z" fill="black"/>
<path d="M2552.05 1125H2546.06V1122H2552.05V1125Z" fill="black"/>
<path d="M2564.05 1125H2558.05V1122H2564.05V1125Z" fill="black"/>
<path d="M2576.05 1125H2570.05V1122H2576.05V1125Z" fill="black"/>
<path d="M2588.05 1125H2582.05V1122H2588.05V1125Z" fill="black"/>
<path d="M2600.04 1125H2594.04V1122H2600.04V1125Z" fill="black"/>
<path d="M2612.04 1125H2606.04V1122H2612.04V1125Z" fill="black"/>
<path d="M2624.04 1125H2618.04V1122H2624.04V1125Z" fill="black"/>
<path d="M2636.04 1125H2630.04V1122H2636.04V1125Z" fill="black"/>
<path d="M2648.03 1125H2642.04V1122H2648.03V1125Z" fill="black"/>
<path d="M2660.03 1125H2654.03V1122H2660.03V1125Z" fill="black"/>
<path d="M2672.03 1125H2666.03V1122H2672.03V1125Z" fill="black"/>
<path d="M2684.03 1125H2678.03V1122H2684.03V1125Z" fill="black"/>
<path d="M2696.02 1125H2690.03V1122H2696.02V1125Z" fill="black"/>
<path d="M2708.02 1125H2702.02V1122H2708.02V1125Z" fill="black"/>
<path d="M2720.02 1125H2714.02V1122H2720.02V1125Z" fill="black"/>
<path d="M2732.02 1125H2726.02V1122H2732.02V1125Z" fill="black"/>
<path d="M2744.01 1125H2738.02V1122H2744.01V1125Z" fill="black"/>
<path d="M2756.01 1125H2750.01V1122H2756.01V1125Z" fill="black"/>
<path d="M2768.01 1125H2762.01V1122H2768.01V1125Z" fill="black"/>
<path d="M2780.01 1125H2774.01V1122H2780.01V1125Z" fill="black"/>
<path d="M2792 1125H2786.01V1122H2792V1125Z" fill="black"/>
<path d="M2804 1125H2798V1122H2804V1125Z" fill="black"/>
<path d="M2816 1125H2810V1122H2816V1125Z" fill="black"/>
<path d="M2825 1125H2822V1122H2825V1125Z" fill="black"/>
</g>
<g id="WireALUFunc_CPU">
<path d="M2048.5 1125H2045.5V1122.01H2048.5V1125Z" fill="black"/>
<path d="M2048.5 1116.03H2045.5V1110.06H2048.5V1116.03Z" fill="black"/>
<path d="M2048.5 1104.08H2045.5V1098.1H2048.5V1104.08Z" fill="black"/>
<path d="M2048.5 1092.12H2045.5V1086.15H2048.5V1092.12Z" fill="black"/>
<path d="M2048.5 1080.17H2045.5V1074.19H2048.5V1080.17Z" fill="black"/>
<path d="M2048.5 1068.22H2045.5V1062.24H2048.5V1068.22Z" fill="black"/>
<path d="M2048.5 1056.26H2045.5V1050.28H2048.5V1056.26Z" fill="black"/>
<path d="M2048.5 1044.31H2045.5V1038.33H2048.5V1044.31Z" fill="black"/>
<path d="M2048.5 1032.35H2045.5V1026.38H2048.5V1032.35Z" fill="black"/>
<path d="M2048.5 1020.4H2045.5V1014.42H2048.5V1020.4Z" fill="black"/>
<path d="M2048.5 1008.44H2045.5V1002.47H2048.5V1008.44Z" fill="black"/>
<path d="M2048.5 996.488H2045.5V990.512H2048.5V996.488Z" fill="black"/>
<path d="M2048.5 984.534H2045.5V978.557H2048.5V984.534Z" fill="black"/>
<path d="M2048.5 972.579H2045.5V966.603H2048.5V972.579Z" fill="black"/>
<path d="M2048.5 960.625H2045.5V954.647H2048.5V960.625Z" fill="black"/>
<path d="M2048.5 948.67H2045.5V942.693H2048.5V948.67Z" fill="black"/>
<path d="M2048.5 936.716H2045.5V930.738H2048.5V936.716Z" fill="black"/>
<path d="M2048.5 924.762H2045.5V918.784H2048.5V924.762Z" fill="black"/>
<path d="M2048.5 912.807H2045.5V906.829H2048.5V912.807Z" fill="black"/>
<path d="M2048.5 900.853H2045.5V894.875H2048.5V900.853Z" fill="black"/>
<path d="M2048.5 888.897H2045.5V882.92H2048.5V888.897Z" fill="black"/>
<path d="M2048.5 876.943H2045.5V870.966H2048.5V876.943Z" fill="black"/>
<path d="M2048.5 864.988H2045.5V859.011H2048.5V864.988Z" fill="black"/>
<path d="M2048.5 853.034H2045.5V847.057H2048.5V853.034Z" fill="black"/>
<path d="M2048.5 841.079H2045.5V835.103H2048.5V841.079Z" fill="black"/>
<path d="M2048.5 829.125H2045.5V823.147H2048.5V829.125Z" fill="black"/>
<path d="M2048.5 817.17H2045.5V811.193H2048.5V817.17Z" fill="black"/>
<path d="M2048.5 805.216H2045.5V799.238H2048.5V805.216Z" fill="black"/>
<path d="M2048.5 793.262H2045.5V787.284H2048.5V793.262Z" fill="black"/>
<path d="M2048.5 781.307H2045.5V775.329H2048.5V781.307Z" fill="black"/>
<path d="M2048.5 769.353H2045.5V763.375H2048.5V769.353Z" fill="black"/>
<path d="M2048.5 757.397H2045.5V751.421H2048.5V757.397Z" fill="black"/>
<path d="M2048.5 745.443H2045.5V739.466H2048.5V745.443Z" fill="black"/>
<path d="M2048.5 733.488H2045.5V727.512H2048.5V733.488Z" fill="black"/>
<path d="M2048.5 721.534H2045.5V715.557H2048.5V721.534Z" fill="black"/>
<path d="M2048.5 709.58H2045.5V703.603H2048.5V709.58Z" fill="black"/>
<path d="M2048.5 697.625H2045.5V691.647H2048.5V697.625Z" fill="black"/>
<path d="M2048.5 685.671H2045.5V679.693H2048.5V685.671Z" fill="black"/>
<path d="M2048.5 673.716H2045.5V667.738H2048.5V673.716Z" fill="black"/>
<path d="M2048.5 661.762H2045.5V655.784H2048.5V661.762Z" fill="black"/>
<path d="M2048.5 649.807H2045.5V643.83H2048.5V649.807Z" fill="black"/>
<path d="M2048.5 637.853H2045.5V631.875H2048.5V637.853Z" fill="black"/>
<path d="M2048.5 625.897H2045.5V619.921H2048.5V625.897Z" fill="black"/>
<path d="M2055.66 614H2038.34L2047 599L2055.66 614Z" fill="black"/>
</g>
<path id="WireOvfl_CPU" d="M2065.66 309H2058.5V412H2055.5V309H2048.34L2057 294L2065.66 309Z" fill="black"/>
<g id="SE_CPU">
<circle id="Ellipse 5" cx="1572" cy="631" r="30.5" fill="white" stroke="black" stroke-width="3"/>
<path id="SE" d="M1558.84 632.445C1558.9 633.422 1559.13 634.215 1559.54 634.824C1560.31 635.965 1561.67 636.535 1563.62 636.535C1564.5 636.535 1565.3 636.41 1566.02 636.16C1567.41 635.676 1568.1 634.809 1568.1 633.559C1568.1 632.621 1567.81 631.953 1567.22 631.555C1566.63 631.164 1565.7 630.824 1564.43 630.535L1562.1 630.008C1560.58 629.664 1559.5 629.285 1558.87 628.871C1557.77 628.152 1557.23 627.078 1557.23 625.648C1557.23 624.102 1557.76 622.832 1558.83 621.84C1559.9 620.848 1561.42 620.352 1563.38 620.352C1565.18 620.352 1566.71 620.789 1567.97 621.664C1569.24 622.531 1569.87 623.922 1569.87 625.836H1567.68C1567.56 624.914 1567.31 624.207 1566.93 623.715C1566.22 622.816 1565.01 622.367 1563.31 622.367C1561.93 622.367 1560.95 622.656 1560.34 623.234C1559.74 623.812 1559.44 624.484 1559.44 625.25C1559.44 626.094 1559.79 626.711 1560.5 627.102C1560.96 627.352 1562 627.664 1563.62 628.039L1566.04 628.59C1567.2 628.855 1568.1 629.219 1568.73 629.68C1569.83 630.484 1570.38 631.652 1570.38 633.184C1570.38 635.09 1569.68 636.453 1568.29 637.273C1566.91 638.094 1565.3 638.504 1563.46 638.504C1561.32 638.504 1559.64 637.957 1558.43 636.863C1557.22 635.777 1556.63 634.305 1556.65 632.445H1558.84ZM1573.55 620.785H1586.1V622.895H1575.82V628.121H1585.33V630.113H1575.82V635.949H1586.28V638H1573.55V620.785Z" fill="black"/>
</g>
<g id="ALU_CPU">
<g id="Adder_ALU">
<path id="Body" d="M2141 461.583L1944 345V461.583L1997.38 503L1944 544.418V661L2141 544.418V461.583Z" fill="white" stroke="black" stroke-width="3"/>
<path id="ALU" d="M2043.96 503.418L2040.04 492.01L2035.88 503.418H2043.96ZM2038.21 488.178H2042.17L2051.54 514H2047.71L2045.09 506.266H2034.88L2032.08 514H2028.49L2038.21 488.178ZM2054.72 488.178H2058.22V510.924H2071.3V514H2054.72V488.178ZM2078.56 488.178V504.139C2078.56 506.014 2078.91 507.572 2079.61 508.814C2080.65 510.689 2082.41 511.627 2084.88 511.627C2087.85 511.627 2089.87 510.613 2090.93 508.586C2091.51 507.484 2091.79 506.002 2091.79 504.139V488.178H2095.34V502.68C2095.34 505.855 2094.92 508.299 2094.06 510.01C2092.49 513.127 2089.53 514.686 2085.17 514.686C2080.81 514.686 2077.85 513.127 2076.29 510.01C2075.43 508.299 2075.01 505.855 2075.01 502.68V488.178H2078.56Z" fill="black"/>
<g id="C0">
<path id="Ovfl" d="M2037.42 422.316C2040.46 422.316 2042.71 423.293 2044.17 425.246C2045.31 426.77 2045.88 428.719 2045.88 431.094C2045.88 433.664 2045.23 435.801 2043.92 437.504C2042.39 439.504 2040.21 440.504 2037.37 440.504C2034.72 440.504 2032.64 439.629 2031.12 437.879C2029.77 436.191 2029.1 434.059 2029.1 431.48C2029.1 429.152 2029.68 427.16 2030.83 425.504C2032.32 423.379 2034.51 422.316 2037.42 422.316ZM2037.65 438.418C2039.71 438.418 2041.19 437.684 2042.11 436.215C2043.03 434.738 2043.49 433.043 2043.49 431.129C2043.49 429.105 2042.96 427.477 2041.89 426.242C2040.84 425.008 2039.39 424.391 2037.56 424.391C2035.78 424.391 2034.32 425.004 2033.2 426.23C2032.07 427.449 2031.51 429.25 2031.51 431.633C2031.51 433.539 2031.99 435.148 2032.95 436.461C2033.92 437.766 2035.49 438.418 2037.65 438.418ZM2049.42 427.449L2052.77 437.668L2056.27 427.449H2058.58L2053.85 440H2051.6L2046.97 427.449H2049.42ZM2069.2 440H2067.09V422.785H2069.2V440ZM2063 440H2060.91V429.172H2059.17V427.508H2060.91V425.281C2060.91 424.352 2061.2 423.664 2061.77 423.219C2062.35 422.766 2063.12 422.539 2064.08 422.539C2064.27 422.539 2064.43 422.547 2064.58 422.562C2064.74 422.57 2064.91 422.59 2065.11 422.621V424.508C2064.89 424.492 2064.73 424.484 2064.63 424.484C2064.54 424.477 2064.45 424.473 2064.36 424.473C2063.77 424.473 2063.37 424.645 2063.18 424.988C2063.06 425.184 2063 425.504 2063 425.949V427.508H2065.11V429.172H2063V440Z" fill="black"/>
</g>
<g id="C4">
<path id="Func" d="M2025.36 561.785H2037.3V563.895H2027.69V569.121H2036.14V571.172H2027.69V579H2025.36V561.785ZM2041.63 566.449V574.781C2041.63 575.422 2041.73 575.945 2041.94 576.352C2042.31 577.102 2043.01 577.477 2044.04 577.477C2045.5 577.477 2046.5 576.82 2047.04 575.508C2047.32 574.805 2047.47 573.84 2047.47 572.613V566.449H2049.58V579H2047.59L2047.61 577.148C2047.34 577.625 2047 578.027 2046.59 578.355C2045.79 579.012 2044.81 579.34 2043.66 579.34C2041.87 579.34 2040.65 578.742 2040 577.547C2039.65 576.906 2039.48 576.051 2039.48 574.98V566.449H2041.63ZM2052.88 566.449H2054.89V568.23C2055.48 567.496 2056.11 566.969 2056.77 566.648C2057.44 566.328 2058.18 566.168 2058.99 566.168C2060.77 566.168 2061.97 566.789 2062.6 568.031C2062.94 568.711 2063.11 569.684 2063.11 570.949V579H2060.97V571.09C2060.97 570.324 2060.86 569.707 2060.63 569.238C2060.25 568.457 2059.57 568.066 2058.59 568.066C2058.09 568.066 2057.68 568.117 2057.36 568.219C2056.78 568.391 2056.27 568.734 2055.84 569.25C2055.48 569.664 2055.25 570.094 2055.14 570.539C2055.04 570.977 2054.99 571.605 2054.99 572.426V579H2052.88V566.449ZM2071.08 566.086C2072.5 566.086 2073.64 566.43 2074.53 567.117C2075.42 567.805 2075.95 568.988 2076.13 570.668H2074.08C2073.96 569.895 2073.67 569.254 2073.23 568.746C2072.78 568.23 2072.07 567.973 2071.08 567.973C2069.74 567.973 2068.78 568.629 2068.2 569.941C2067.82 570.793 2067.64 571.844 2067.64 573.094C2067.64 574.352 2067.9 575.41 2068.43 576.27C2068.96 577.129 2069.8 577.559 2070.94 577.559C2071.82 577.559 2072.51 577.293 2073.02 576.762C2073.53 576.223 2073.89 575.488 2074.08 574.559H2076.13C2075.9 576.223 2075.31 577.441 2074.38 578.215C2073.44 578.98 2072.24 579.363 2070.78 579.363C2069.14 579.363 2067.83 578.766 2066.85 577.57C2065.88 576.367 2065.39 574.867 2065.39 573.07C2065.39 570.867 2065.92 569.152 2066.99 567.926C2068.06 566.699 2069.43 566.086 2071.08 566.086Z" fill="black"/>
</g>
</g>
</g>
<g id="MUX2to1_CPU">
<g id="Union">
<mask id="path-38-inside-1_0_1" fill="white">
<path d="M1831 560.5L1737 533V673L1831 645.5V560.5Z"/>
</mask>
<path d="M1831 560.5L1737 533V673L1831 645.5V560.5Z" fill="white"/>
<path d="M1831 560.5L1831.84 557.621L1834 558.252V560.5H1831ZM1737 533H1734V528.997L1737.84 530.121L1737 533ZM1737 673L1737.84 675.879L1734 677.003V673H1737ZM1831 645.5H1834V647.748L1831.84 648.379L1831 645.5ZM1831 560.5L1830.16 563.379L1736.16 535.879L1737 533L1737.84 530.121L1831.84 557.621L1831 560.5ZM1737 533H1740V673H1737H1734V533H1737ZM1737 673L1736.16 670.121L1830.16 642.621L1831 645.5L1831.84 648.379L1737.84 675.879L1737 673ZM1831 645.5H1828V560.5H1831H1834V645.5H1831Z" fill="black" mask="url(#path-38-inside-1_0_1)"/>
</g>
<path id="0" d="M1750.49 566.219C1752.66 566.219 1754.23 567.113 1755.2 568.902C1755.95 570.285 1756.33 572.18 1756.33 574.586C1756.33 576.867 1755.99 578.754 1755.31 580.246C1754.32 582.387 1752.71 583.457 1750.48 583.457C1748.46 583.457 1746.96 582.582 1745.98 580.832C1745.16 579.371 1744.75 577.41 1744.75 574.949C1744.75 573.043 1745 571.406 1745.49 570.039C1746.41 567.492 1748.08 566.219 1750.49 566.219ZM1750.47 581.535C1751.56 581.535 1752.43 581.051 1753.08 580.082C1753.73 579.113 1754.05 577.309 1754.05 574.668C1754.05 572.762 1753.82 571.195 1753.35 569.969C1752.88 568.734 1751.97 568.117 1750.62 568.117C1749.38 568.117 1748.47 568.703 1747.89 569.875C1747.32 571.039 1747.04 572.758 1747.04 575.031C1747.04 576.742 1747.22 578.117 1747.59 579.156C1748.15 580.742 1749.11 581.535 1750.47 581.535Z" fill="black"/>
<path id="1" d="M1746.3 624.117V622.5C1747.82 622.352 1748.88 622.105 1749.48 621.762C1750.09 621.41 1750.54 620.586 1750.83 619.289H1752.5V636H1750.25V624.117H1746.3Z" fill="black"/>
</g>
<g id="MUX4to10_CPU">
<path id="MUX" d="M1120.5 471.096V669.903L1029.5 732.156V408.843L1120.5 471.096Z" fill="white" stroke="black" stroke-width="3"/>
<path id="0_2" d="M1039.49 449.219C1041.66 449.219 1043.23 450.113 1044.2 451.902C1044.95 453.285 1045.33 455.18 1045.33 457.586C1045.33 459.867 1044.99 461.754 1044.31 463.246C1043.32 465.387 1041.71 466.457 1039.48 466.457C1037.46 466.457 1035.96 465.582 1034.98 463.832C1034.16 462.371 1033.75 460.41 1033.75 457.949C1033.75 456.043 1034 454.406 1034.49 453.039C1035.41 450.492 1037.08 449.219 1039.49 449.219ZM1039.47 464.535C1040.56 464.535 1041.43 464.051 1042.08 463.082C1042.73 462.113 1043.05 460.309 1043.05 457.668C1043.05 455.762 1042.82 454.195 1042.35 452.969C1041.88 451.734 1040.97 451.117 1039.62 451.117C1038.38 451.117 1037.47 451.703 1036.89 452.875C1036.32 454.039 1036.04 455.758 1036.04 458.031C1036.04 459.742 1036.22 461.117 1036.59 462.156C1037.15 463.742 1038.11 464.535 1039.47 464.535Z" fill="black"/>
<path id="1_2" d="M1035.3 527.117V525.5C1036.82 525.352 1037.88 525.105 1038.48 524.762C1039.09 524.41 1039.54 523.586 1039.83 522.289H1041.5V539H1039.25V527.117H1035.3Z" fill="black"/>
<path id="2" d="M1033.75 613C1033.83 611.555 1034.12 610.297 1034.64 609.227C1035.16 608.156 1036.18 607.184 1037.69 606.309L1039.94 605.008C1040.95 604.422 1041.65 603.922 1042.06 603.508C1042.7 602.859 1043.02 602.117 1043.02 601.281C1043.02 600.305 1042.73 599.531 1042.14 598.961C1041.55 598.383 1040.77 598.094 1039.8 598.094C1038.35 598.094 1037.35 598.641 1036.8 599.734C1036.5 600.32 1036.34 601.133 1036.3 602.172H1034.16C1034.18 600.711 1034.45 599.52 1034.97 598.598C1035.88 596.973 1037.5 596.16 1039.81 596.16C1041.73 596.16 1043.13 596.68 1044.02 597.719C1044.91 598.758 1045.35 599.914 1045.35 601.188C1045.35 602.531 1044.88 603.68 1043.93 604.633C1043.39 605.188 1042.41 605.859 1040.99 606.648L1039.39 607.539C1038.62 607.961 1038.02 608.363 1037.58 608.746C1036.8 609.426 1036.31 610.18 1036.11 611.008H1045.27V613H1033.75Z" fill="black"/>
<path id="3" d="M1039.23 686.457C1037.25 686.457 1035.81 685.914 1034.91 684.828C1034.02 683.734 1033.57 682.406 1033.57 680.844H1035.78C1035.87 681.93 1036.07 682.719 1036.39 683.211C1036.93 684.094 1037.92 684.535 1039.35 684.535C1040.46 684.535 1041.35 684.238 1042.02 683.645C1042.7 683.051 1043.03 682.285 1043.03 681.348C1043.03 680.191 1042.68 679.383 1041.96 678.922C1041.26 678.461 1040.28 678.23 1039.02 678.23C1038.88 678.23 1038.74 678.234 1038.59 678.242C1038.45 678.242 1038.3 678.246 1038.16 678.254V676.391C1038.38 676.414 1038.56 676.43 1038.71 676.438C1038.86 676.445 1039.02 676.449 1039.19 676.449C1039.98 676.449 1040.62 676.324 1041.13 676.074C1042.02 675.637 1042.47 674.855 1042.47 673.73C1042.47 672.895 1042.17 672.25 1041.58 671.797C1040.98 671.344 1040.29 671.117 1039.5 671.117C1038.1 671.117 1037.12 671.586 1036.59 672.523C1036.29 673.039 1036.12 673.773 1036.08 674.727H1034C1034 673.477 1034.25 672.414 1034.75 671.539C1035.61 669.977 1037.12 669.195 1039.28 669.195C1040.99 669.195 1042.32 669.578 1043.25 670.344C1044.19 671.102 1044.66 672.203 1044.66 673.648C1044.66 674.68 1044.38 675.516 1043.83 676.156C1043.48 676.555 1043.04 676.867 1042.49 677.094C1043.38 677.336 1044.06 677.805 1044.55 678.5C1045.05 679.188 1045.3 680.031 1045.3 681.031C1045.3 682.633 1044.78 683.938 1043.72 684.945C1042.67 685.953 1041.17 686.457 1039.23 686.457Z" fill="black"/>
</g>
<g id="MUX4to11_CPU">
<path id="MUX_2" d="M2870.5 521.096V719.903L2779.5 782.156V458.843L2870.5 521.096Z" fill="white" stroke="black" stroke-width="3"/>
<path id="0_3" d="M2789.49 499.219C2791.66 499.219 2793.23 500.113 2794.2 501.902C2794.95 503.285 2795.33 505.18 2795.33 507.586C2795.33 509.867 2794.99 511.754 2794.31 513.246C2793.32 515.387 2791.71 516.457 2789.48 516.457C2787.46 516.457 2785.96 515.582 2784.98 513.832C2784.16 512.371 2783.75 510.41 2783.75 507.949C2783.75 506.043 2784 504.406 2784.49 503.039C2785.41 500.492 2787.08 499.219 2789.49 499.219ZM2789.47 514.535C2790.56 514.535 2791.43 514.051 2792.08 513.082C2792.73 512.113 2793.05 510.309 2793.05 507.668C2793.05 505.762 2792.82 504.195 2792.35 502.969C2791.88 501.734 2790.97 501.117 2789.62 501.117C2788.38 501.117 2787.47 501.703 2786.89 502.875C2786.32 504.039 2786.04 505.758 2786.04 508.031C2786.04 509.742 2786.22 511.117 2786.59 512.156C2787.15 513.742 2788.11 514.535 2789.47 514.535Z" fill="black"/>
<path id="1_3" d="M2785.3 577.117V575.5C2786.82 575.352 2787.88 575.105 2788.48 574.762C2789.09 574.41 2789.54 573.586 2789.83 572.289H2791.5V589H2789.25V577.117H2785.3Z" fill="black"/>
<path id="2_2" d="M2783.75 663C2783.83 661.555 2784.12 660.297 2784.64 659.227C2785.16 658.156 2786.18 657.184 2787.69 656.309L2789.94 655.008C2790.95 654.422 2791.65 653.922 2792.06 653.508C2792.7 652.859 2793.02 652.117 2793.02 651.281C2793.02 650.305 2792.73 649.531 2792.14 648.961C2791.55 648.383 2790.77 648.094 2789.8 648.094C2788.35 648.094 2787.35 648.641 2786.8 649.734C2786.5 650.32 2786.34 651.133 2786.3 652.172H2784.16C2784.18 650.711 2784.45 649.52 2784.97 648.598C2785.88 646.973 2787.5 646.16 2789.81 646.16C2791.73 646.16 2793.13 646.68 2794.02 647.719C2794.91 648.758 2795.35 649.914 2795.35 651.188C2795.35 652.531 2794.88 653.68 2793.93 654.633C2793.39 655.188 2792.41 655.859 2790.99 656.648L2789.39 657.539C2788.62 657.961 2788.02 658.363 2787.58 658.746C2786.8 659.426 2786.31 660.18 2786.11 661.008H2795.27V663H2783.75Z" fill="black"/>
<path id="3_2" d="M2789.23 736.457C2787.25 736.457 2785.81 735.914 2784.91 734.828C2784.02 733.734 2783.57 732.406 2783.57 730.844H2785.78C2785.87 731.93 2786.07 732.719 2786.39 733.211C2786.93 734.094 2787.92 734.535 2789.35 734.535C2790.46 734.535 2791.35 734.238 2792.02 733.645C2792.7 733.051 2793.03 732.285 2793.03 731.348C2793.03 730.191 2792.68 729.383 2791.96 728.922C2791.26 728.461 2790.28 728.23 2789.02 728.23C2788.88 728.23 2788.74 728.234 2788.59 728.242C2788.45 728.242 2788.3 728.246 2788.16 728.254V726.391C2788.38 726.414 2788.56 726.43 2788.71 726.438C2788.86 726.445 2789.02 726.449 2789.19 726.449C2789.98 726.449 2790.62 726.324 2791.13 726.074C2792.02 725.637 2792.47 724.855 2792.47 723.73C2792.47 722.895 2792.17 722.25 2791.58 721.797C2790.98 721.344 2790.29 721.117 2789.5 721.117C2788.1 721.117 2787.12 721.586 2786.59 722.523C2786.29 723.039 2786.12 723.773 2786.08 724.727H2784C2784 723.477 2784.25 722.414 2784.75 721.539C2785.61 719.977 2787.12 719.195 2789.28 719.195C2790.99 719.195 2792.32 719.578 2793.25 720.344C2794.19 721.102 2794.66 722.203 2794.66 723.648C2794.66 724.68 2794.38 725.516 2793.83 726.156C2793.48 726.555 2793.04 726.867 2792.49 727.094C2793.38 727.336 2794.06 727.805 2794.55 728.5C2795.05 729.188 2795.3 730.031 2795.3 731.031C2795.3 732.633 2794.78 733.938 2793.72 734.945C2792.67 735.953 2791.17 736.457 2789.23 736.457Z" fill="black"/>
</g>
<g id="NextAddr_CPU">
<rect id="Rectangle 1" x="483.5" y="63.5" width="330" height="140" fill="white" stroke="black" stroke-width="3"/>
<path id="Next Addr" d="M571.641 119.178H575.771L588.814 140.096V119.178H592.137V145H588.217L574.98 124.1V145H571.641V119.178ZM605.074 125.752C606.41 125.752 607.705 126.068 608.959 126.701C610.213 127.322 611.168 128.131 611.824 129.127C612.457 130.076 612.879 131.184 613.09 132.449C613.277 133.316 613.371 134.699 613.371 136.598H599.572C599.631 138.508 600.082 140.043 600.926 141.203C601.77 142.352 603.076 142.926 604.846 142.926C606.498 142.926 607.816 142.381 608.801 141.291C609.363 140.658 609.762 139.926 609.996 139.094H613.107C613.025 139.785 612.75 140.559 612.281 141.414C611.824 142.258 611.309 142.949 610.734 143.488C609.773 144.426 608.584 145.059 607.166 145.387C606.404 145.574 605.543 145.668 604.582 145.668C602.238 145.668 600.252 144.818 598.623 143.119C596.994 141.408 596.18 139.018 596.18 135.947C596.18 132.924 597 130.469 598.641 128.582C600.281 126.695 602.426 125.752 605.074 125.752ZM610.119 134.084C609.99 132.713 609.691 131.617 609.223 130.797C608.355 129.273 606.908 128.512 604.881 128.512C603.428 128.512 602.209 129.039 601.225 130.094C600.24 131.137 599.719 132.467 599.66 134.084H610.119ZM615.48 126.174H619.576L623.9 132.801L628.277 126.174L632.127 126.262L625.781 135.35L632.408 145H628.365L623.689 137.934L619.154 145H615.146L621.773 135.35L615.48 126.174ZM635.906 120.918H639.105V126.174H642.111V128.758H639.105V141.045C639.105 141.701 639.328 142.141 639.773 142.363C640.02 142.492 640.43 142.557 641.004 142.557C641.156 142.557 641.32 142.557 641.496 142.557C641.672 142.545 641.877 142.527 642.111 142.504V145C641.748 145.105 641.367 145.182 640.969 145.229C640.582 145.275 640.16 145.299 639.703 145.299C638.227 145.299 637.225 144.924 636.697 144.174C636.17 143.412 635.906 142.428 635.906 141.221V128.758H633.357V126.174H635.906V120.918ZM667.02 134.418L663.1 123.01L658.934 134.418H667.02ZM661.271 119.178H665.227L674.596 145H670.764L668.145 137.266H657.932L655.137 145H651.551L661.271 119.178ZM679.359 135.807C679.359 137.822 679.787 139.51 680.643 140.869C681.498 142.229 682.869 142.908 684.756 142.908C686.221 142.908 687.422 142.281 688.359 141.027C689.309 139.762 689.783 137.951 689.783 135.596C689.783 133.217 689.297 131.459 688.324 130.322C687.352 129.174 686.15 128.6 684.721 128.6C683.127 128.6 681.832 129.209 680.836 130.428C679.852 131.646 679.359 133.439 679.359 135.807ZM684.123 125.84C685.564 125.84 686.771 126.145 687.744 126.754C688.307 127.105 688.945 127.721 689.66 128.6V119.09H692.701V145H689.854V142.381C689.115 143.541 688.242 144.379 687.234 144.895C686.227 145.41 685.072 145.668 683.771 145.668C681.674 145.668 679.857 144.789 678.322 143.031C676.787 141.262 676.02 138.912 676.02 135.982C676.02 133.24 676.717 130.867 678.111 128.863C679.518 126.848 681.521 125.84 684.123 125.84ZM699.398 135.807C699.398 137.822 699.826 139.51 700.682 140.869C701.537 142.229 702.908 142.908 704.795 142.908C706.26 142.908 707.461 142.281 708.398 141.027C709.348 139.762 709.822 137.951 709.822 135.596C709.822 133.217 709.336 131.459 708.363 130.322C707.391 129.174 706.189 128.6 704.76 128.6C703.166 128.6 701.871 129.209 700.875 130.428C699.891 131.646 699.398 133.439 699.398 135.807ZM704.162 125.84C705.604 125.84 706.811 126.145 707.783 126.754C708.346 127.105 708.984 127.721 709.699 128.6V119.09H712.74V145H709.893V142.381C709.154 143.541 708.281 144.379 707.273 144.895C706.266 145.41 705.111 145.668 703.811 145.668C701.713 145.668 699.896 144.789 698.361 143.031C696.826 141.262 696.059 138.912 696.059 135.982C696.059 133.24 696.756 130.867 698.15 128.863C699.557 126.848 701.561 125.84 704.162 125.84ZM717.521 126.174H720.527V129.426C720.773 128.793 721.377 128.025 722.338 127.123C723.299 126.209 724.406 125.752 725.66 125.752C725.719 125.752 725.818 125.758 725.959 125.77C726.1 125.781 726.34 125.805 726.68 125.84V129.18C726.492 129.145 726.316 129.121 726.152 129.109C726 129.098 725.83 129.092 725.643 129.092C724.049 129.092 722.824 129.607 721.969 130.639C721.113 131.658 720.686 132.836 720.686 134.172V145H717.521V126.174Z" fill="black"/>
</g>
<g id="InstrCache_CPU">
<rect id="Rectangle 2" x="555.5" y="389.5" width="186" height="186" fill="white" stroke="black" stroke-width="3"/>
<path id="Instr Cache" d="M616.5 447.178H620.033V473H616.5V447.178ZM625.307 454.174H628.312V456.846C629.203 455.744 630.146 454.953 631.143 454.473C632.139 453.992 633.246 453.752 634.465 453.752C637.137 453.752 638.941 454.684 639.879 456.547C640.395 457.566 640.652 459.025 640.652 460.924V473H637.436V461.135C637.436 459.986 637.266 459.061 636.926 458.357C636.363 457.186 635.344 456.6 633.867 456.6C633.117 456.6 632.502 456.676 632.021 456.828C631.154 457.086 630.393 457.602 629.736 458.375C629.209 458.996 628.863 459.641 628.699 460.309C628.547 460.965 628.471 461.908 628.471 463.139V473H625.307V454.174ZM647.227 467.094C647.32 468.148 647.584 468.957 648.018 469.52C648.814 470.539 650.197 471.049 652.166 471.049C653.338 471.049 654.369 470.797 655.26 470.293C656.15 469.777 656.596 468.986 656.596 467.92C656.596 467.111 656.238 466.496 655.523 466.074C655.066 465.816 654.164 465.518 652.816 465.178L650.303 464.545C648.697 464.146 647.514 463.701 646.752 463.209C645.393 462.354 644.713 461.17 644.713 459.658C644.713 457.877 645.352 456.436 646.629 455.334C647.918 454.232 649.646 453.682 651.814 453.682C654.65 453.682 656.695 454.514 657.949 456.178C658.734 457.232 659.115 458.369 659.092 459.588H656.104C656.045 458.873 655.793 458.223 655.348 457.637C654.621 456.805 653.361 456.389 651.568 456.389C650.373 456.389 649.465 456.617 648.844 457.074C648.234 457.531 647.93 458.135 647.93 458.885C647.93 459.705 648.334 460.361 649.143 460.854C649.611 461.146 650.303 461.404 651.217 461.627L653.309 462.137C655.582 462.688 657.105 463.221 657.879 463.736C659.109 464.545 659.725 465.816 659.725 467.551C659.725 469.227 659.086 470.674 657.809 471.893C656.543 473.111 654.609 473.721 652.008 473.721C649.207 473.721 647.221 473.088 646.049 471.822C644.889 470.545 644.268 468.969 644.186 467.094H647.227ZM663.979 448.918H667.178V454.174H670.184V456.758H667.178V469.045C667.178 469.701 667.4 470.141 667.846 470.363C668.092 470.492 668.502 470.557 669.076 470.557C669.229 470.557 669.393 470.557 669.568 470.557C669.744 470.545 669.949 470.527 670.184 470.504V473C669.82 473.105 669.439 473.182 669.041 473.229C668.654 473.275 668.232 473.299 667.775 473.299C666.299 473.299 665.297 472.924 664.77 472.174C664.242 471.412 663.979 470.428 663.979 469.221V456.758H661.43V454.174H663.979V448.918ZM673.453 454.174H676.459V457.426C676.705 456.793 677.309 456.025 678.27 455.123C679.23 454.209 680.338 453.752 681.592 453.752C681.65 453.752 681.75 453.758 681.891 453.77C682.031 453.781 682.271 453.805 682.611 453.84V457.18C682.424 457.145 682.248 457.121 682.084 457.109C681.932 457.098 681.762 457.092 681.574 457.092C679.98 457.092 678.756 457.607 677.9 458.639C677.045 459.658 676.617 460.836 676.617 462.172V473H673.453V454.174ZM609.557 487.475C612.826 487.475 615.363 488.336 617.168 490.059C618.973 491.781 619.975 493.738 620.174 495.93H616.764C616.377 494.266 615.604 492.947 614.443 491.975C613.295 491.002 611.678 490.516 609.592 490.516C607.049 490.516 604.992 491.412 603.422 493.205C601.863 494.986 601.084 497.723 601.084 501.414C601.084 504.438 601.787 506.893 603.193 508.779C604.611 510.654 606.721 511.592 609.521 511.592C612.1 511.592 614.062 510.602 615.41 508.621C616.125 507.578 616.658 506.207 617.01 504.508H620.42C620.115 507.227 619.107 509.506 617.396 511.346C615.346 513.561 612.58 514.668 609.1 514.668C606.1 514.668 603.58 513.76 601.541 511.943C598.857 509.541 597.516 505.832 597.516 500.816C597.516 497.008 598.523 493.885 600.539 491.447C602.719 488.799 605.725 487.475 609.557 487.475ZM626.695 508.99C626.695 509.904 627.029 510.625 627.697 511.152C628.365 511.68 629.156 511.943 630.07 511.943C631.184 511.943 632.262 511.686 633.305 511.17C635.062 510.314 635.941 508.914 635.941 506.969V504.42C635.555 504.666 635.057 504.871 634.447 505.035C633.838 505.199 633.24 505.316 632.654 505.387L630.738 505.633C629.59 505.785 628.729 506.025 628.154 506.354C627.182 506.904 626.695 507.783 626.695 508.99ZM634.359 502.592C635.086 502.498 635.572 502.193 635.818 501.678C635.959 501.396 636.029 500.992 636.029 500.465C636.029 499.387 635.643 498.607 634.869 498.127C634.107 497.635 633.012 497.389 631.582 497.389C629.93 497.389 628.758 497.834 628.066 498.725C627.68 499.217 627.428 499.949 627.311 500.922H624.357C624.416 498.602 625.166 496.99 626.607 496.088C628.061 495.174 629.742 494.717 631.652 494.717C633.867 494.717 635.666 495.139 637.049 495.982C638.42 496.826 639.105 498.139 639.105 499.92V510.766C639.105 511.094 639.17 511.357 639.299 511.557C639.439 511.756 639.727 511.855 640.16 511.855C640.301 511.855 640.459 511.85 640.635 511.838C640.811 511.814 640.998 511.785 641.197 511.75V514.088C640.705 514.229 640.33 514.316 640.072 514.352C639.814 514.387 639.463 514.404 639.018 514.404C637.928 514.404 637.137 514.018 636.645 513.244C636.387 512.834 636.205 512.254 636.1 511.504C635.455 512.348 634.529 513.08 633.322 513.701C632.115 514.322 630.785 514.633 629.332 514.633C627.586 514.633 626.156 514.105 625.043 513.051C623.941 511.984 623.391 510.654 623.391 509.061C623.391 507.314 623.936 505.961 625.025 505C626.115 504.039 627.545 503.447 629.314 503.225L634.359 502.592ZM651.568 494.629C653.689 494.629 655.412 495.145 656.736 496.176C658.072 497.207 658.875 498.982 659.145 501.502H656.068C655.881 500.342 655.453 499.381 654.785 498.619C654.117 497.846 653.045 497.459 651.568 497.459C649.553 497.459 648.111 498.443 647.244 500.412C646.682 501.689 646.4 503.266 646.4 505.141C646.4 507.027 646.799 508.615 647.596 509.904C648.393 511.193 649.646 511.838 651.357 511.838C652.67 511.838 653.707 511.439 654.469 510.643C655.242 509.834 655.775 508.732 656.068 507.338H659.145C658.793 509.834 657.914 511.662 656.508 512.822C655.102 513.971 653.303 514.545 651.111 514.545C648.65 514.545 646.688 513.648 645.223 511.855C643.758 510.051 643.025 507.801 643.025 505.105C643.025 501.801 643.828 499.229 645.434 497.389C647.039 495.549 649.084 494.629 651.568 494.629ZM662.309 488.09H665.473V497.723C666.223 496.773 666.896 496.105 667.494 495.719C668.514 495.051 669.785 494.717 671.309 494.717C674.039 494.717 675.891 495.672 676.863 497.582C677.391 498.625 677.654 500.072 677.654 501.924V514H674.402V502.135C674.402 500.752 674.227 499.738 673.875 499.094C673.301 498.062 672.223 497.547 670.641 497.547C669.328 497.547 668.139 497.998 667.072 498.9C666.006 499.803 665.473 501.508 665.473 504.016V514H662.309V488.09ZM690.188 494.752C691.523 494.752 692.818 495.068 694.072 495.701C695.326 496.322 696.281 497.131 696.938 498.127C697.57 499.076 697.992 500.184 698.203 501.449C698.391 502.316 698.484 503.699 698.484 505.598H684.686C684.744 507.508 685.195 509.043 686.039 510.203C686.883 511.352 688.189 511.926 689.959 511.926C691.611 511.926 692.93 511.381 693.914 510.291C694.477 509.658 694.875 508.926 695.109 508.094H698.221C698.139 508.785 697.863 509.559 697.395 510.414C696.938 511.258 696.422 511.949 695.848 512.488C694.887 513.426 693.697 514.059 692.279 514.387C691.518 514.574 690.656 514.668 689.695 514.668C687.352 514.668 685.365 513.818 683.736 512.119C682.107 510.408 681.293 508.018 681.293 504.947C681.293 501.924 682.113 499.469 683.754 497.582C685.395 495.695 687.539 494.752 690.188 494.752ZM695.232 503.084C695.104 501.713 694.805 500.617 694.336 499.797C693.469 498.273 692.021 497.512 689.994 497.512C688.541 497.512 687.322 498.039 686.338 499.094C685.354 500.137 684.832 501.467 684.773 503.084H695.232Z" fill="black"/>
</g>
<g id="PC_CPU">
<rect id="Rectangle 3" x="249.5" y="348.5" width="73" height="253" fill="white" stroke="black" stroke-width="3"/>
<path id="PC" d="M264.062 457.178H275.682C277.979 457.178 279.83 457.828 281.236 459.129C282.643 460.418 283.346 462.234 283.346 464.578C283.346 466.594 282.719 468.352 281.465 469.852C280.211 471.34 278.283 472.084 275.682 472.084H267.561V483H264.062V457.178ZM279.812 464.596C279.812 462.697 279.109 461.408 277.703 460.729C276.93 460.365 275.869 460.184 274.521 460.184H267.561V469.131H274.521C276.092 469.131 277.363 468.797 278.336 468.129C279.32 467.461 279.812 466.283 279.812 464.596ZM298.621 456.475C301.891 456.475 304.428 457.336 306.232 459.059C308.037 460.781 309.039 462.738 309.238 464.93H305.828C305.441 463.266 304.668 461.947 303.508 460.975C302.359 460.002 300.742 459.516 298.656 459.516C296.113 459.516 294.057 460.412 292.486 462.205C290.928 463.986 290.148 466.723 290.148 470.414C290.148 473.438 290.852 475.893 292.258 477.779C293.676 479.654 295.785 480.592 298.586 480.592C301.164 480.592 303.127 479.602 304.475 477.621C305.189 476.578 305.723 475.207 306.074 473.508H309.484C309.18 476.227 308.172 478.506 306.461 480.346C304.41 482.561 301.645 483.668 298.164 483.668C295.164 483.668 292.645 482.76 290.605 480.943C287.922 478.541 286.58 474.832 286.58 469.816C286.58 466.008 287.588 462.885 289.604 460.447C291.783 457.799 294.789 456.475 298.621 456.475Z" fill="black"/>
</g>
<g id="RegFile_CPU">
<rect id="Rectangle 4" x="1223.5" y="304.5" width="182" height="367" fill="white" stroke="black" stroke-width="3"/>
<path id="Reg File" d="M1294.7 451.008C1296.34 451.008 1297.64 450.68 1298.59 450.023C1299.55 449.367 1300.03 448.184 1300.03 446.473C1300.03 444.633 1299.36 443.379 1298.02 442.711C1297.31 442.359 1296.35 442.184 1295.16 442.184H1286.62V451.008H1294.7ZM1283.12 439.178H1295.07C1297.04 439.178 1298.66 439.465 1299.94 440.039C1302.37 441.141 1303.58 443.174 1303.58 446.139C1303.58 447.686 1303.26 448.951 1302.61 449.936C1301.98 450.92 1301.09 451.711 1299.94 452.309C1300.95 452.719 1301.7 453.258 1302.21 453.926C1302.72 454.594 1303.01 455.678 1303.07 457.178L1303.19 460.641C1303.23 461.625 1303.31 462.357 1303.44 462.838C1303.65 463.658 1304.02 464.186 1304.56 464.42V465H1300.27C1300.16 464.777 1300.06 464.49 1299.99 464.139C1299.92 463.787 1299.86 463.107 1299.82 462.1L1299.61 457.793C1299.52 456.105 1298.9 454.975 1297.72 454.4C1297.06 454.084 1296.01 453.926 1294.58 453.926H1286.62V465H1283.12V439.178ZM1316.13 445.752C1317.46 445.752 1318.76 446.068 1320.01 446.701C1321.27 447.322 1322.22 448.131 1322.88 449.127C1323.51 450.076 1323.93 451.184 1324.14 452.449C1324.33 453.316 1324.43 454.699 1324.43 456.598H1310.63C1310.69 458.508 1311.14 460.043 1311.98 461.203C1312.82 462.352 1314.13 462.926 1315.9 462.926C1317.55 462.926 1318.87 462.381 1319.86 461.291C1320.42 460.658 1320.82 459.926 1321.05 459.094H1324.16C1324.08 459.785 1323.8 460.559 1323.34 461.414C1322.88 462.258 1322.36 462.949 1321.79 463.488C1320.83 464.426 1319.64 465.059 1318.22 465.387C1317.46 465.574 1316.6 465.668 1315.64 465.668C1313.29 465.668 1311.31 464.818 1309.68 463.119C1308.05 461.408 1307.23 459.018 1307.23 455.947C1307.23 452.924 1308.05 450.469 1309.7 448.582C1311.34 446.695 1313.48 445.752 1316.13 445.752ZM1321.17 454.084C1321.04 452.713 1320.75 451.617 1320.28 450.797C1319.41 449.273 1317.96 448.512 1315.94 448.512C1314.48 448.512 1313.26 449.039 1312.28 450.094C1311.29 451.137 1310.77 452.467 1310.71 454.084H1321.17ZM1334.97 445.84C1336.45 445.84 1337.74 446.203 1338.84 446.93C1339.44 447.34 1340.05 447.938 1340.67 448.723V446.35H1343.59V463.471C1343.59 465.861 1343.23 467.748 1342.53 469.131C1341.22 471.686 1338.74 472.963 1335.1 472.963C1333.07 472.963 1331.36 472.506 1329.98 471.592C1328.6 470.689 1327.82 469.271 1327.66 467.338H1330.88C1331.03 468.182 1331.33 468.832 1331.79 469.289C1332.51 469.992 1333.63 470.344 1335.17 470.344C1337.59 470.344 1339.18 469.488 1339.93 467.777C1340.38 466.77 1340.58 464.971 1340.54 462.381C1339.91 463.342 1339.15 464.057 1338.26 464.525C1337.37 464.994 1336.19 465.229 1334.73 465.229C1332.69 465.229 1330.9 464.508 1329.37 463.066C1327.84 461.613 1327.08 459.217 1327.08 455.877C1327.08 452.725 1327.85 450.264 1329.38 448.494C1330.93 446.725 1332.79 445.84 1334.97 445.84ZM1340.67 455.508C1340.67 453.176 1340.19 451.447 1339.23 450.322C1338.27 449.197 1337.04 448.635 1335.55 448.635C1333.33 448.635 1331.8 449.678 1330.98 451.764C1330.55 452.877 1330.33 454.336 1330.33 456.141C1330.33 458.262 1330.76 459.879 1331.62 460.992C1332.48 462.094 1333.64 462.645 1335.1 462.645C1337.37 462.645 1338.97 461.619 1339.89 459.568C1340.41 458.408 1340.67 457.055 1340.67 455.508ZM1287.04 480.178H1304.95V483.342H1290.54V491.182H1303.21V494.258H1290.54V506H1287.04V480.178ZM1308.29 487.262H1311.51V506H1308.29V487.262ZM1308.29 480.178H1311.51V483.764H1308.29V480.178ZM1316.39 480.178H1319.56V506H1316.39V480.178ZM1332.16 486.752C1333.5 486.752 1334.79 487.068 1336.04 487.701C1337.3 488.322 1338.25 489.131 1338.91 490.127C1339.54 491.076 1339.96 492.184 1340.18 493.449C1340.36 494.316 1340.46 495.699 1340.46 497.598H1326.66C1326.72 499.508 1327.17 501.043 1328.01 502.203C1328.86 503.352 1330.16 503.926 1331.93 503.926C1333.58 503.926 1334.9 503.381 1335.89 502.291C1336.45 501.658 1336.85 500.926 1337.08 500.094H1340.19C1340.11 500.785 1339.84 501.559 1339.37 502.414C1338.91 503.258 1338.39 503.949 1337.82 504.488C1336.86 505.426 1335.67 506.059 1334.25 506.387C1333.49 506.574 1332.63 506.668 1331.67 506.668C1329.32 506.668 1327.34 505.818 1325.71 504.119C1324.08 502.408 1323.27 500.018 1323.27 496.947C1323.27 493.924 1324.09 491.469 1325.73 489.582C1327.37 487.695 1329.51 486.752 1332.16 486.752ZM1337.21 495.084C1337.08 493.713 1336.78 492.617 1336.31 491.797C1335.44 490.273 1333.99 489.512 1331.97 489.512C1330.51 489.512 1329.29 490.039 1328.31 491.094C1327.33 492.137 1326.8 493.467 1326.75 495.084H1337.21Z" fill="black"/>
</g>
<g id="DataCache_CPU">
<rect id="Rectangle 5" x="2393.5" y="413.5" width="186" height="186" fill="white" stroke="black" stroke-width="3"/>
<path id="Data Cache" d="M2460.6 491.012C2461.78 491.012 2462.76 490.889 2463.52 490.643C2464.88 490.186 2465.99 489.307 2466.86 488.006C2467.55 486.963 2468.05 485.627 2468.35 483.998C2468.53 483.025 2468.62 482.123 2468.62 481.291C2468.62 478.092 2467.98 475.607 2466.7 473.838C2465.43 472.068 2463.39 471.184 2460.56 471.184H2454.36V491.012H2460.6ZM2450.84 468.178H2461.3C2464.85 468.178 2467.61 469.438 2469.56 471.957C2471.31 474.23 2472.18 477.143 2472.18 480.693C2472.18 483.436 2471.67 485.914 2470.64 488.129C2468.82 492.043 2465.7 494 2461.27 494H2450.84V468.178ZM2478.71 488.99C2478.71 489.904 2479.04 490.625 2479.71 491.152C2480.38 491.68 2481.17 491.943 2482.08 491.943C2483.19 491.943 2484.27 491.686 2485.31 491.17C2487.07 490.314 2487.95 488.914 2487.95 486.969V484.42C2487.56 484.666 2487.07 484.871 2486.46 485.035C2485.85 485.199 2485.25 485.316 2484.66 485.387L2482.75 485.633C2481.6 485.785 2480.74 486.025 2480.16 486.354C2479.19 486.904 2478.71 487.783 2478.71 488.99ZM2486.37 482.592C2487.1 482.498 2487.58 482.193 2487.83 481.678C2487.97 481.396 2488.04 480.992 2488.04 480.465C2488.04 479.387 2487.65 478.607 2486.88 478.127C2486.12 477.635 2485.02 477.389 2483.59 477.389C2481.94 477.389 2480.77 477.834 2480.08 478.725C2479.69 479.217 2479.44 479.949 2479.32 480.922H2476.37C2476.43 478.602 2477.18 476.99 2478.62 476.088C2480.07 475.174 2481.75 474.717 2483.66 474.717C2485.88 474.717 2487.68 475.139 2489.06 475.982C2490.43 476.826 2491.12 478.139 2491.12 479.92V490.766C2491.12 491.094 2491.18 491.357 2491.31 491.557C2491.45 491.756 2491.74 491.855 2492.17 491.855C2492.31 491.855 2492.47 491.85 2492.64 491.838C2492.82 491.814 2493.01 491.785 2493.21 491.75V494.088C2492.71 494.229 2492.34 494.316 2492.08 494.352C2491.82 494.387 2491.47 494.404 2491.03 494.404C2489.94 494.404 2489.15 494.018 2488.65 493.244C2488.4 492.834 2488.21 492.254 2488.11 491.504C2487.46 492.348 2486.54 493.08 2485.33 493.701C2484.12 494.322 2482.79 494.633 2481.34 494.633C2479.6 494.633 2478.17 494.105 2477.05 493.051C2475.95 491.984 2475.4 490.654 2475.4 489.061C2475.4 487.314 2475.95 485.961 2477.04 485C2478.12 484.039 2479.55 483.447 2481.32 483.225L2486.37 482.592ZM2496.95 469.918H2500.15V475.174H2503.16V477.758H2500.15V490.045C2500.15 490.701 2500.37 491.141 2500.82 491.363C2501.06 491.492 2501.47 491.557 2502.05 491.557C2502.2 491.557 2502.37 491.557 2502.54 491.557C2502.72 491.545 2502.92 491.527 2503.16 491.504V494C2502.79 494.105 2502.41 494.182 2502.01 494.229C2501.63 494.275 2501.21 494.299 2500.75 494.299C2499.27 494.299 2498.27 493.924 2497.74 493.174C2497.21 492.412 2496.95 491.428 2496.95 490.221V477.758H2494.4V475.174H2496.95V469.918ZM2508.76 488.99C2508.76 489.904 2509.1 490.625 2509.77 491.152C2510.43 491.68 2511.22 491.943 2512.14 491.943C2513.25 491.943 2514.33 491.686 2515.37 491.17C2517.13 490.314 2518.01 488.914 2518.01 486.969V484.42C2517.62 484.666 2517.12 484.871 2516.52 485.035C2515.91 485.199 2515.31 485.316 2514.72 485.387L2512.81 485.633C2511.66 485.785 2510.8 486.025 2510.22 486.354C2509.25 486.904 2508.76 487.783 2508.76 488.99ZM2516.43 482.592C2517.15 482.498 2517.64 482.193 2517.89 481.678C2518.03 481.396 2518.1 480.992 2518.1 480.465C2518.1 479.387 2517.71 478.607 2516.94 478.127C2516.18 477.635 2515.08 477.389 2513.65 477.389C2512 477.389 2510.83 477.834 2510.13 478.725C2509.75 479.217 2509.5 479.949 2509.38 480.922H2506.43C2506.48 478.602 2507.23 476.99 2508.68 476.088C2510.13 475.174 2511.81 474.717 2513.72 474.717C2515.94 474.717 2517.73 475.139 2519.12 475.982C2520.49 476.826 2521.17 478.139 2521.17 479.92V490.766C2521.17 491.094 2521.24 491.357 2521.37 491.557C2521.51 491.756 2521.79 491.855 2522.23 491.855C2522.37 491.855 2522.53 491.85 2522.7 491.838C2522.88 491.814 2523.07 491.785 2523.27 491.75V494.088C2522.77 494.229 2522.4 494.316 2522.14 494.352C2521.88 494.387 2521.53 494.404 2521.09 494.404C2520 494.404 2519.21 494.018 2518.71 493.244C2518.46 492.834 2518.27 492.254 2518.17 491.504C2517.52 492.348 2516.6 493.08 2515.39 493.701C2514.18 494.322 2512.85 494.633 2511.4 494.633C2509.65 494.633 2508.22 494.105 2507.11 493.051C2506.01 491.984 2505.46 490.654 2505.46 489.061C2505.46 487.314 2506 485.961 2507.09 485C2508.18 484.039 2509.61 483.447 2511.38 483.225L2516.43 482.592ZM2447.56 508.475C2450.83 508.475 2453.36 509.336 2455.17 511.059C2456.97 512.781 2457.97 514.738 2458.17 516.93H2454.76C2454.38 515.266 2453.6 513.947 2452.44 512.975C2451.29 512.002 2449.68 511.516 2447.59 511.516C2445.05 511.516 2442.99 512.412 2441.42 514.205C2439.86 515.986 2439.08 518.723 2439.08 522.414C2439.08 525.438 2439.79 527.893 2441.19 529.779C2442.61 531.654 2444.72 532.592 2447.52 532.592C2450.1 532.592 2452.06 531.602 2453.41 529.621C2454.12 528.578 2454.66 527.207 2455.01 525.508H2458.42C2458.12 528.227 2457.11 530.506 2455.4 532.346C2453.35 534.561 2450.58 535.668 2447.1 535.668C2444.1 535.668 2441.58 534.76 2439.54 532.943C2436.86 530.541 2435.52 526.832 2435.52 521.816C2435.52 518.008 2436.52 514.885 2438.54 512.447C2440.72 509.799 2443.72 508.475 2447.56 508.475ZM2464.7 529.99C2464.7 530.904 2465.03 531.625 2465.7 532.152C2466.37 532.68 2467.16 532.943 2468.07 532.943C2469.18 532.943 2470.26 532.686 2471.3 532.17C2473.06 531.314 2473.94 529.914 2473.94 527.969V525.42C2473.55 525.666 2473.06 525.871 2472.45 526.035C2471.84 526.199 2471.24 526.316 2470.65 526.387L2468.74 526.633C2467.59 526.785 2466.73 527.025 2466.15 527.354C2465.18 527.904 2464.7 528.783 2464.7 529.99ZM2472.36 523.592C2473.09 523.498 2473.57 523.193 2473.82 522.678C2473.96 522.396 2474.03 521.992 2474.03 521.465C2474.03 520.387 2473.64 519.607 2472.87 519.127C2472.11 518.635 2471.01 518.389 2469.58 518.389C2467.93 518.389 2466.76 518.834 2466.07 519.725C2465.68 520.217 2465.43 520.949 2465.31 521.922H2462.36C2462.42 519.602 2463.17 517.99 2464.61 517.088C2466.06 516.174 2467.74 515.717 2469.65 515.717C2471.87 515.717 2473.67 516.139 2475.05 516.982C2476.42 517.826 2477.11 519.139 2477.11 520.92V531.766C2477.11 532.094 2477.17 532.357 2477.3 532.557C2477.44 532.756 2477.73 532.855 2478.16 532.855C2478.3 532.855 2478.46 532.85 2478.63 532.838C2478.81 532.814 2479 532.785 2479.2 532.75V535.088C2478.71 535.229 2478.33 535.316 2478.07 535.352C2477.81 535.387 2477.46 535.404 2477.02 535.404C2475.93 535.404 2475.14 535.018 2474.64 534.244C2474.39 533.834 2474.21 533.254 2474.1 532.504C2473.46 533.348 2472.53 534.08 2471.32 534.701C2470.12 535.322 2468.79 535.633 2467.33 535.633C2465.59 535.633 2464.16 535.105 2463.04 534.051C2461.94 532.984 2461.39 531.654 2461.39 530.061C2461.39 528.314 2461.94 526.961 2463.03 526C2464.12 525.039 2465.54 524.447 2467.31 524.225L2472.36 523.592ZM2489.57 515.629C2491.69 515.629 2493.41 516.145 2494.74 517.176C2496.07 518.207 2496.88 519.982 2497.14 522.502H2494.07C2493.88 521.342 2493.45 520.381 2492.79 519.619C2492.12 518.846 2491.04 518.459 2489.57 518.459C2487.55 518.459 2486.11 519.443 2485.24 521.412C2484.68 522.689 2484.4 524.266 2484.4 526.141C2484.4 528.027 2484.8 529.615 2485.6 530.904C2486.39 532.193 2487.65 532.838 2489.36 532.838C2490.67 532.838 2491.71 532.439 2492.47 531.643C2493.24 530.834 2493.78 529.732 2494.07 528.338H2497.14C2496.79 530.834 2495.91 532.662 2494.51 533.822C2493.1 534.971 2491.3 535.545 2489.11 535.545C2486.65 535.545 2484.69 534.648 2483.22 532.855C2481.76 531.051 2481.03 528.801 2481.03 526.105C2481.03 522.801 2481.83 520.229 2483.43 518.389C2485.04 516.549 2487.08 515.629 2489.57 515.629ZM2500.31 509.09H2503.47V518.723C2504.22 517.773 2504.9 517.105 2505.49 516.719C2506.51 516.051 2507.79 515.717 2509.31 515.717C2512.04 515.717 2513.89 516.672 2514.86 518.582C2515.39 519.625 2515.65 521.072 2515.65 522.924V535H2512.4V523.135C2512.4 521.752 2512.23 520.738 2511.88 520.094C2511.3 519.062 2510.22 518.547 2508.64 518.547C2507.33 518.547 2506.14 518.998 2505.07 519.9C2504.01 520.803 2503.47 522.508 2503.47 525.016V535H2500.31V509.09ZM2528.19 515.752C2529.52 515.752 2530.82 516.068 2532.07 516.701C2533.33 517.322 2534.28 518.131 2534.94 519.127C2535.57 520.076 2535.99 521.184 2536.2 522.449C2536.39 523.316 2536.48 524.699 2536.48 526.598H2522.69C2522.74 528.508 2523.2 530.043 2524.04 531.203C2524.88 532.352 2526.19 532.926 2527.96 532.926C2529.61 532.926 2530.93 532.381 2531.91 531.291C2532.48 530.658 2532.88 529.926 2533.11 529.094H2536.22C2536.14 529.785 2535.86 530.559 2535.39 531.414C2534.94 532.258 2534.42 532.949 2533.85 533.488C2532.89 534.426 2531.7 535.059 2530.28 535.387C2529.52 535.574 2528.66 535.668 2527.7 535.668C2525.35 535.668 2523.37 534.818 2521.74 533.119C2520.11 531.408 2519.29 529.018 2519.29 525.947C2519.29 522.924 2520.11 520.469 2521.75 518.582C2523.39 516.695 2525.54 515.752 2528.19 515.752ZM2533.23 524.084C2533.1 522.713 2532.8 521.617 2532.34 520.797C2531.47 519.273 2530.02 518.512 2527.99 518.512C2526.54 518.512 2525.32 519.039 2524.34 520.094C2523.35 521.137 2522.83 522.467 2522.77 524.084H2533.23Z" fill="black"/>
</g>
<g id="ControlUnit_CPU">
<rect id="Rectangle 6" x="911.5" y="1289.5" width="237" height="237" fill="white" stroke="black" stroke-width="3"/>
<path id="Control Unit" d="M985.545 1363.47C988.814 1363.47 991.352 1364.34 993.156 1366.06C994.961 1367.78 995.963 1369.74 996.162 1371.93H992.752C992.365 1370.27 991.592 1368.95 990.432 1367.97C989.283 1367 987.666 1366.52 985.58 1366.52C983.037 1366.52 980.98 1367.41 979.41 1369.21C977.852 1370.99 977.072 1373.72 977.072 1377.41C977.072 1380.44 977.775 1382.89 979.182 1384.78C980.6 1386.65 982.709 1387.59 985.51 1387.59C988.088 1387.59 990.051 1386.6 991.398 1384.62C992.113 1383.58 992.646 1382.21 992.998 1380.51H996.408C996.104 1383.23 995.096 1385.51 993.385 1387.35C991.334 1389.56 988.568 1390.67 985.088 1390.67C982.088 1390.67 979.568 1389.76 977.529 1387.94C974.846 1385.54 973.504 1381.83 973.504 1376.82C973.504 1373.01 974.512 1369.88 976.527 1367.45C978.707 1364.8 981.713 1363.47 985.545 1363.47ZM1007.73 1387.96C1009.83 1387.96 1011.26 1387.17 1012.04 1385.59C1012.82 1383.99 1013.21 1382.22 1013.21 1380.28C1013.21 1378.52 1012.93 1377.09 1012.37 1375.99C1011.48 1374.26 1009.94 1373.39 1007.76 1373.39C1005.83 1373.39 1004.42 1374.13 1003.54 1375.6C1002.67 1377.08 1002.23 1378.86 1002.23 1380.95C1002.23 1382.95 1002.67 1384.62 1003.54 1385.96C1004.42 1387.29 1005.82 1387.96 1007.73 1387.96ZM1007.85 1370.63C1010.28 1370.63 1012.33 1371.44 1014 1373.05C1015.68 1374.67 1016.52 1377.05 1016.52 1380.19C1016.52 1383.23 1015.78 1385.73 1014.3 1387.71C1012.83 1389.7 1010.54 1390.69 1007.43 1390.69C1004.84 1390.69 1002.78 1389.81 1001.26 1388.07C999.736 1386.31 998.975 1383.95 998.975 1381C998.975 1377.84 999.777 1375.32 1001.38 1373.44C1002.99 1371.57 1005.14 1370.63 1007.85 1370.63ZM1020.3 1371.17H1023.3V1373.85C1024.19 1372.74 1025.14 1371.95 1026.13 1371.47C1027.13 1370.99 1028.24 1370.75 1029.46 1370.75C1032.13 1370.75 1033.93 1371.68 1034.87 1373.55C1035.38 1374.57 1035.64 1376.03 1035.64 1377.92V1390H1032.43V1378.13C1032.43 1376.99 1032.26 1376.06 1031.92 1375.36C1031.35 1374.19 1030.33 1373.6 1028.86 1373.6C1028.11 1373.6 1027.49 1373.68 1027.01 1373.83C1026.14 1374.09 1025.38 1374.6 1024.73 1375.38C1024.2 1376 1023.85 1376.64 1023.69 1377.31C1023.54 1377.96 1023.46 1378.91 1023.46 1380.14V1390H1020.3V1371.17ZM1040.97 1365.92H1044.17V1371.17H1047.17V1373.76H1044.17V1386.04C1044.17 1386.7 1044.39 1387.14 1044.84 1387.36C1045.08 1387.49 1045.49 1387.56 1046.07 1387.56C1046.22 1387.56 1046.38 1387.56 1046.56 1387.56C1046.73 1387.54 1046.94 1387.53 1047.17 1387.5V1390C1046.81 1390.11 1046.43 1390.18 1046.03 1390.23C1045.64 1390.28 1045.22 1390.3 1044.77 1390.3C1043.29 1390.3 1042.29 1389.92 1041.76 1389.17C1041.23 1388.41 1040.97 1387.43 1040.97 1386.22V1373.76H1038.42V1371.17H1040.97V1365.92ZM1050.44 1371.17H1053.45V1374.43C1053.7 1373.79 1054.3 1373.03 1055.26 1372.12C1056.22 1371.21 1057.33 1370.75 1058.58 1370.75C1058.64 1370.75 1058.74 1370.76 1058.88 1370.77C1059.02 1370.78 1059.26 1370.8 1059.6 1370.84V1374.18C1059.41 1374.14 1059.24 1374.12 1059.07 1374.11C1058.92 1374.1 1058.75 1374.09 1058.56 1374.09C1056.97 1374.09 1055.75 1374.61 1054.89 1375.64C1054.04 1376.66 1053.61 1377.84 1053.61 1379.17V1390H1050.44V1371.17ZM1069.81 1387.96C1071.91 1387.96 1073.35 1387.17 1074.12 1385.59C1074.91 1383.99 1075.3 1382.22 1075.3 1380.28C1075.3 1378.52 1075.02 1377.09 1074.46 1375.99C1073.56 1374.26 1072.03 1373.39 1069.85 1373.39C1067.92 1373.39 1066.51 1374.13 1065.63 1375.6C1064.75 1377.08 1064.31 1378.86 1064.31 1380.95C1064.31 1382.95 1064.75 1384.62 1065.63 1385.96C1066.51 1387.29 1067.9 1387.96 1069.81 1387.96ZM1069.94 1370.63C1072.36 1370.63 1074.41 1371.44 1076.09 1373.05C1077.77 1374.67 1078.6 1377.05 1078.6 1380.19C1078.6 1383.23 1077.87 1385.73 1076.39 1387.71C1074.91 1389.7 1072.62 1390.69 1069.52 1390.69C1066.93 1390.69 1064.87 1389.81 1063.35 1388.07C1061.82 1386.31 1061.06 1383.95 1061.06 1381C1061.06 1377.84 1061.86 1375.32 1063.47 1373.44C1065.07 1371.57 1067.23 1370.63 1069.94 1370.63ZM1082.47 1364.18H1085.63V1390H1082.47V1364.18ZM1004.49 1405.18V1421.14C1004.49 1423.01 1004.85 1424.57 1005.55 1425.81C1006.59 1427.69 1008.35 1428.63 1010.82 1428.63C1013.79 1428.63 1015.8 1427.61 1016.87 1425.59C1017.44 1424.48 1017.73 1423 1017.73 1421.14V1405.18H1021.28V1419.68C1021.28 1422.86 1020.85 1425.3 1020 1427.01C1018.43 1430.13 1015.46 1431.69 1011.1 1431.69C1006.74 1431.69 1003.79 1430.13 1002.23 1427.01C1001.37 1425.3 1000.94 1422.86 1000.94 1419.68V1405.18H1004.49ZM1026.29 1412.17H1029.3V1414.85C1030.19 1413.74 1031.13 1412.95 1032.13 1412.47C1033.12 1411.99 1034.23 1411.75 1035.45 1411.75C1038.12 1411.75 1039.93 1412.68 1040.86 1414.55C1041.38 1415.57 1041.64 1417.03 1041.64 1418.92V1431H1038.42V1419.13C1038.42 1417.99 1038.25 1417.06 1037.91 1416.36C1037.35 1415.19 1036.33 1414.6 1034.85 1414.6C1034.1 1414.6 1033.49 1414.68 1033.01 1414.83C1032.14 1415.09 1031.38 1415.6 1030.72 1416.38C1030.19 1417 1029.85 1417.64 1029.68 1418.31C1029.53 1418.96 1029.46 1419.91 1029.46 1421.14V1431H1026.29V1412.17ZM1046.33 1412.26H1049.55V1431H1046.33V1412.26ZM1046.33 1405.18H1049.55V1408.76H1046.33V1405.18ZM1054.98 1406.92H1058.18V1412.17H1061.18V1414.76H1058.18V1427.04C1058.18 1427.7 1058.4 1428.14 1058.85 1428.36C1059.09 1428.49 1059.5 1428.56 1060.08 1428.56C1060.23 1428.56 1060.39 1428.56 1060.57 1428.56C1060.74 1428.54 1060.95 1428.53 1061.18 1428.5V1431C1060.82 1431.11 1060.44 1431.18 1060.04 1431.23C1059.65 1431.28 1059.23 1431.3 1058.78 1431.3C1057.3 1431.3 1056.3 1430.92 1055.77 1430.17C1055.24 1429.41 1054.98 1428.43 1054.98 1427.22V1414.76H1052.43V1412.17H1054.98V1406.92Z" fill="black"/>
</g>
</svg>
