<svg width="1172" height="1340" viewBox="0 0 1172 1340" fill="none" xmlns="http://www.w3.org/2000/svg">
<rect width="1172" height="1340" fill="#1E1E1E"/>
<rect id="Background_Decoder3to8" width="1172" height="1340" fill="white"/>
<g id="A0">
<path id="A" d="M391.99 76.418L388.07 65.0098L383.904 76.418H391.99ZM386.242 61.1777H390.197L399.566 87H395.734L393.115 79.2656H382.902L380.107 87H376.521L386.242 61.1777Z" fill="black"/>
<path id="0" d="M406.719 82.8281C409.977 82.8281 412.332 84.1699 413.785 86.8535C414.91 88.9277 415.473 91.7695 415.473 95.3789C415.473 98.8008 414.963 101.631 413.943 103.869C412.467 107.08 410.053 108.686 406.701 108.686C403.678 108.686 401.428 107.373 399.951 104.748C398.721 102.557 398.105 99.6152 398.105 95.9238C398.105 93.0645 398.475 90.6094 399.213 88.5586C400.596 84.7383 403.098 82.8281 406.719 82.8281ZM406.684 105.803C408.324 105.803 409.631 105.076 410.604 103.623C411.576 102.17 412.062 99.4629 412.062 95.502C412.062 92.6426 411.711 90.293 411.008 88.4531C410.305 86.6016 408.939 85.6758 406.912 85.6758C405.049 85.6758 403.684 86.5547 402.816 88.3125C401.961 90.0586 401.533 92.6367 401.533 96.0469C401.533 98.6133 401.809 100.676 402.359 102.234C403.203 104.613 404.645 105.803 406.684 105.803Z" fill="black"/>
</g>
<g id="A1">
<path id="A_2" d="M233.99 76.418L230.07 65.0098L225.904 76.418H233.99ZM228.242 61.1777H232.197L241.566 87H237.734L235.115 79.2656H224.902L222.107 87H218.521L228.242 61.1777Z" fill="black"/>
<path id="1" d="M242.426 90.1758V87.75C244.711 87.5273 246.305 87.1582 247.207 86.6426C248.109 86.1152 248.783 84.8789 249.229 82.9336H251.725V108H248.35V90.1758H242.426Z" fill="black"/>
</g>
<g id="A2">
<path id="A_3" d="M75.9902 76.418L72.0703 65.0098L67.9043 76.418H75.9902ZM70.2422 61.1777H74.1973L83.5664 87H79.7344L77.1152 79.2656H66.9023L64.1074 87H60.5215L70.2422 61.1777Z" fill="black"/>
<path id="2" d="M82.1055 108C82.2227 105.832 82.668 103.945 83.4414 102.34C84.2266 100.734 85.75 99.2754 88.0117 97.9629L91.3867 96.0117C92.8984 95.1328 93.959 94.3828 94.5684 93.7617C95.5293 92.7891 96.0098 91.6758 96.0098 90.4219C96.0098 88.957 95.5703 87.7969 94.6914 86.9414C93.8125 86.0742 92.6406 85.6406 91.1758 85.6406C89.0078 85.6406 87.5078 86.4609 86.6758 88.1016C86.2305 88.9805 85.9844 90.1992 85.9375 91.7578H82.7207C82.7559 89.5664 83.1602 87.7793 83.9336 86.3965C85.3047 83.959 87.7246 82.7402 91.1934 82.7402C94.0762 82.7402 96.1797 83.5195 97.5039 85.0781C98.8398 86.6367 99.5078 88.3711 99.5078 90.2812C99.5078 92.2969 98.7988 94.0195 97.3809 95.4492C96.5605 96.2812 95.0898 97.2891 92.9688 98.4727L90.5605 99.8086C89.4121 100.441 88.5098 101.045 87.8535 101.619C86.6816 102.639 85.9434 103.77 85.6387 105.012H99.3848V108H82.1055Z" fill="black"/>
</g>
<g id="E">
<path id="E_2" d="M647.07 64.1777H665.896V67.3418H650.48V75.1816H664.736V78.1699H650.48V86.9238H666.16V90H647.07V64.1777Z" fill="black"/>
</g>
<g id="D0">
<path id="D" d="M1094.65 299.012C1095.83 299.012 1096.8 298.889 1097.57 298.643C1098.93 298.186 1100.04 297.307 1100.91 296.006C1101.6 294.963 1102.1 293.627 1102.4 291.998C1102.58 291.025 1102.66 290.123 1102.66 289.291C1102.66 286.092 1102.03 283.607 1100.75 281.838C1099.48 280.068 1097.44 279.184 1094.61 279.184H1088.41V299.012H1094.65ZM1084.89 276.178H1095.35C1098.9 276.178 1101.66 277.438 1103.61 279.957C1105.36 282.23 1106.23 285.143 1106.23 288.693C1106.23 291.436 1105.72 293.914 1104.69 296.129C1102.87 300.043 1099.75 302 1095.32 302H1084.89V276.178Z" fill="black"/>
<path id="0_2" d="M1113.72 297.828C1116.98 297.828 1119.33 299.17 1120.79 301.854C1121.91 303.928 1122.47 306.77 1122.47 310.379C1122.47 313.801 1121.96 316.631 1120.94 318.869C1119.47 322.08 1117.05 323.686 1113.7 323.686C1110.68 323.686 1108.43 322.373 1106.95 319.748C1105.72 317.557 1105.11 314.615 1105.11 310.924C1105.11 308.064 1105.47 305.609 1106.21 303.559C1107.6 299.738 1110.1 297.828 1113.72 297.828ZM1113.68 320.803C1115.32 320.803 1116.63 320.076 1117.6 318.623C1118.58 317.17 1119.06 314.463 1119.06 310.502C1119.06 307.643 1118.71 305.293 1118.01 303.453C1117.3 301.602 1115.94 300.676 1113.91 300.676C1112.05 300.676 1110.68 301.555 1109.82 303.312C1108.96 305.059 1108.53 307.637 1108.53 311.047C1108.53 313.613 1108.81 315.676 1109.36 317.234C1110.2 319.613 1111.64 320.803 1113.68 320.803Z" fill="black"/>
</g>
<g id="D1">
<path id="D_2" d="M1094.65 433.012C1095.83 433.012 1096.8 432.889 1097.57 432.643C1098.93 432.186 1100.04 431.307 1100.91 430.006C1101.6 428.963 1102.1 427.627 1102.4 425.998C1102.58 425.025 1102.66 424.123 1102.66 423.291C1102.66 420.092 1102.03 417.607 1100.75 415.838C1099.48 414.068 1097.44 413.184 1094.61 413.184H1088.41V433.012H1094.65ZM1084.89 410.178H1095.35C1098.9 410.178 1101.66 411.438 1103.61 413.957C1105.36 416.23 1106.23 419.143 1106.23 422.693C1106.23 425.436 1105.72 427.914 1104.69 430.129C1102.87 434.043 1099.75 436 1095.32 436H1084.89V410.178Z" fill="black"/>
<path id="1_2" d="M1107.43 439.176V436.75C1109.71 436.527 1111.3 436.158 1112.21 435.643C1113.11 435.115 1113.78 433.879 1114.23 431.934H1116.72V457H1113.35V439.176H1107.43Z" fill="black"/>
</g>
<g id="D2">
<path id="D_3" d="M1091.65 572.012C1092.83 572.012 1093.8 571.889 1094.57 571.643C1095.93 571.186 1097.04 570.307 1097.91 569.006C1098.6 567.963 1099.1 566.627 1099.4 564.998C1099.58 564.025 1099.66 563.123 1099.66 562.291C1099.66 559.092 1099.03 556.607 1097.75 554.838C1096.48 553.068 1094.44 552.184 1091.61 552.184H1085.41V572.012H1091.65ZM1081.89 549.178H1092.35C1095.9 549.178 1098.66 550.438 1100.61 552.957C1102.36 555.23 1103.23 558.143 1103.23 561.693C1103.23 564.436 1102.72 566.914 1101.69 569.129C1099.87 573.043 1096.75 575 1092.32 575H1081.89V549.178Z" fill="black"/>
<path id="2_2" d="M1102.11 596C1102.22 593.832 1102.67 591.945 1103.44 590.34C1104.23 588.734 1105.75 587.275 1108.01 585.963L1111.39 584.012C1112.9 583.133 1113.96 582.383 1114.57 581.762C1115.53 580.789 1116.01 579.676 1116.01 578.422C1116.01 576.957 1115.57 575.797 1114.69 574.941C1113.81 574.074 1112.64 573.641 1111.18 573.641C1109.01 573.641 1107.51 574.461 1106.68 576.102C1106.23 576.98 1105.98 578.199 1105.94 579.758H1102.72C1102.76 577.566 1103.16 575.779 1103.93 574.396C1105.3 571.959 1107.72 570.74 1111.19 570.74C1114.08 570.74 1116.18 571.52 1117.5 573.078C1118.84 574.637 1119.51 576.371 1119.51 578.281C1119.51 580.297 1118.8 582.02 1117.38 583.449C1116.56 584.281 1115.09 585.289 1112.97 586.473L1110.56 587.809C1109.41 588.441 1108.51 589.045 1107.85 589.619C1106.68 590.639 1105.94 591.77 1105.64 593.012H1119.38V596H1102.11Z" fill="black"/>
</g>
<g id="D3">
<path id="D_4" d="M1091.65 706.012C1092.83 706.012 1093.8 705.889 1094.57 705.643C1095.93 705.186 1097.04 704.307 1097.91 703.006C1098.6 701.963 1099.1 700.627 1099.4 698.998C1099.58 698.025 1099.66 697.123 1099.66 696.291C1099.66 693.092 1099.03 690.607 1097.75 688.838C1096.48 687.068 1094.44 686.184 1091.61 686.184H1085.41V706.012H1091.65ZM1081.89 683.178H1092.35C1095.9 683.178 1098.66 684.438 1100.61 686.957C1102.36 689.23 1103.23 692.143 1103.23 695.693C1103.23 698.436 1102.72 700.914 1101.69 703.129C1099.87 707.043 1096.75 709 1092.32 709H1081.89V683.178Z" fill="black"/>
<path id="3" d="M1110.33 730.686C1107.36 730.686 1105.19 729.871 1103.85 728.242C1102.51 726.602 1101.84 724.609 1101.84 722.266H1105.15C1105.29 723.895 1105.59 725.078 1106.06 725.816C1106.88 727.141 1108.36 727.803 1110.51 727.803C1112.17 727.803 1113.51 727.357 1114.52 726.467C1115.52 725.576 1116.03 724.428 1116.03 723.021C1116.03 721.287 1115.49 720.074 1114.43 719.383C1113.37 718.691 1111.9 718.346 1110.02 718.346C1109.8 718.346 1109.59 718.352 1109.37 718.363C1109.15 718.363 1108.94 718.369 1108.71 718.381V715.586C1109.04 715.621 1109.32 715.645 1109.54 715.656C1109.76 715.668 1110 715.674 1110.26 715.674C1111.45 715.674 1112.42 715.486 1113.18 715.111C1114.52 714.455 1115.18 713.283 1115.18 711.596C1115.18 710.342 1114.74 709.375 1113.85 708.695C1112.96 708.016 1111.92 707.676 1110.74 707.676C1108.63 707.676 1107.17 708.379 1106.36 709.785C1105.91 710.559 1105.66 711.66 1105.6 713.09H1102.47C1102.47 711.215 1102.85 709.621 1103.6 708.309C1104.89 705.965 1107.16 704.793 1110.4 704.793C1112.97 704.793 1114.96 705.367 1116.36 706.516C1117.77 707.652 1118.47 709.305 1118.47 711.473C1118.47 713.02 1118.05 714.273 1117.22 715.234C1116.71 715.832 1116.04 716.301 1115.22 716.641C1116.54 717.004 1117.57 717.707 1118.31 718.75C1119.06 719.781 1119.44 721.047 1119.44 722.547C1119.44 724.949 1118.65 726.906 1117.06 728.418C1115.48 729.93 1113.24 730.686 1110.33 730.686Z" fill="black"/>
</g>
<g id="D4">
<path id="D_5" d="M1094.65 849.012C1095.83 849.012 1096.8 848.889 1097.57 848.643C1098.93 848.186 1100.04 847.307 1100.91 846.006C1101.6 844.963 1102.1 843.627 1102.4 841.998C1102.58 841.025 1102.66 840.123 1102.66 839.291C1102.66 836.092 1102.03 833.607 1100.75 831.838C1099.48 830.068 1097.44 829.184 1094.61 829.184H1088.41V849.012H1094.65ZM1084.89 826.178H1095.35C1098.9 826.178 1101.66 827.438 1103.61 829.957C1105.36 832.23 1106.23 835.143 1106.23 838.693C1106.23 841.436 1105.72 843.914 1104.69 846.129C1102.87 850.043 1099.75 852 1095.32 852H1084.89V826.178Z" fill="black"/>
<path id="4" d="M1115.88 864.088V852.68L1107.81 864.088H1115.88ZM1115.93 873V866.848H1104.89V863.754L1116.43 847.758H1119.1V864.088H1122.81V866.848H1119.1V873H1115.93Z" fill="black"/>
</g>
<g id="D5">
<path id="D_6" d="M1094.65 983.012C1095.83 983.012 1096.8 982.889 1097.57 982.643C1098.93 982.186 1100.04 981.307 1100.91 980.006C1101.6 978.963 1102.1 977.627 1102.4 975.998C1102.58 975.025 1102.66 974.123 1102.66 973.291C1102.66 970.092 1102.03 967.607 1100.75 965.838C1099.48 964.068 1097.44 963.184 1094.61 963.184H1088.41V983.012H1094.65ZM1084.89 960.178H1095.35C1098.9 960.178 1101.66 961.438 1103.61 963.957C1105.36 966.23 1106.23 969.143 1106.23 972.693C1106.23 975.436 1105.72 977.914 1104.69 980.129C1102.87 984.043 1099.75 986 1095.32 986H1084.89V960.178Z" fill="black"/>
<path id="5" d="M1108.43 1000.58C1108.64 1002.39 1109.48 1003.64 1110.94 1004.33C1111.69 1004.68 1112.56 1004.86 1113.54 1004.86C1115.42 1004.86 1116.81 1004.26 1117.71 1003.06C1118.61 1001.87 1119.06 1000.54 1119.06 999.09C1119.06 997.332 1118.52 995.973 1117.45 995.012C1116.38 994.051 1115.1 993.57 1113.6 993.57C1112.51 993.57 1111.57 993.781 1110.78 994.203C1110.01 994.625 1109.35 995.211 1108.8 995.961L1106.05 995.803L1107.97 982.25H1121.05V985.309H1110.34L1109.27 992.305C1109.86 991.859 1110.41 991.525 1110.94 991.303C1111.88 990.916 1112.96 990.723 1114.19 990.723C1116.5 990.723 1118.46 991.467 1120.06 992.955C1121.67 994.443 1122.47 996.33 1122.47 998.615C1122.47 1000.99 1121.73 1003.09 1120.26 1004.91C1118.79 1006.72 1116.45 1007.63 1113.23 1007.63C1111.18 1007.63 1109.36 1007.06 1107.78 1005.91C1106.21 1004.75 1105.33 1002.97 1105.14 1000.58H1108.43Z" fill="black"/>
</g>
<g id="D6">
<path id="D_7" d="M1091.65 1122.01C1092.83 1122.01 1093.8 1121.89 1094.57 1121.64C1095.93 1121.19 1097.04 1120.31 1097.91 1119.01C1098.6 1117.96 1099.1 1116.63 1099.4 1115C1099.58 1114.03 1099.66 1113.12 1099.66 1112.29C1099.66 1109.09 1099.03 1106.61 1097.75 1104.84C1096.48 1103.07 1094.44 1102.18 1091.61 1102.18H1085.41V1122.01H1091.65ZM1081.89 1099.18H1092.35C1095.9 1099.18 1098.66 1100.44 1100.61 1102.96C1102.36 1105.23 1103.23 1108.14 1103.23 1111.69C1103.23 1114.44 1102.72 1116.91 1101.69 1119.13C1099.87 1123.04 1096.75 1125 1092.32 1125H1081.89V1099.18Z" fill="black"/>
<path id="6" d="M1111.51 1120.72C1114.32 1120.72 1116.28 1121.46 1117.38 1122.92C1118.49 1124.37 1119.05 1125.87 1119.05 1127.42H1115.92C1115.73 1126.42 1115.44 1125.64 1115.03 1125.08C1114.26 1124.03 1113.11 1123.5 1111.56 1123.5C1109.79 1123.5 1108.39 1124.32 1107.34 1125.96C1106.3 1127.59 1105.72 1129.93 1105.6 1132.97C1106.33 1131.91 1107.24 1131.11 1108.35 1130.58C1109.35 1130.12 1110.48 1129.88 1111.72 1129.88C1113.83 1129.88 1115.67 1130.55 1117.24 1131.9C1118.81 1133.25 1119.6 1135.26 1119.6 1137.93C1119.6 1140.22 1118.85 1142.24 1117.36 1144.01C1115.88 1145.77 1113.75 1146.65 1111 1146.65C1108.64 1146.65 1106.61 1145.76 1104.9 1143.98C1103.19 1142.19 1102.33 1139.17 1102.33 1134.94C1102.33 1131.81 1102.71 1129.16 1103.48 1126.98C1104.94 1122.81 1107.62 1120.72 1111.51 1120.72ZM1111.28 1143.84C1112.95 1143.84 1114.19 1143.28 1115.01 1142.17C1115.84 1141.04 1116.26 1139.72 1116.26 1138.2C1116.26 1136.91 1115.89 1135.68 1115.15 1134.52C1114.41 1133.35 1113.07 1132.76 1111.12 1132.76C1109.76 1132.76 1108.57 1133.21 1107.54 1134.12C1106.52 1135.02 1106.01 1136.38 1106.01 1138.2C1106.01 1139.79 1106.47 1141.13 1107.4 1142.22C1108.33 1143.3 1109.63 1143.84 1111.28 1143.84Z" fill="black"/>
</g>
<g id="D7">
<path id="D_8" d="M1091.65 1256.01C1092.83 1256.01 1093.8 1255.89 1094.57 1255.64C1095.93 1255.19 1097.04 1254.31 1097.91 1253.01C1098.6 1251.96 1099.1 1250.63 1099.4 1249C1099.58 1248.03 1099.66 1247.12 1099.66 1246.29C1099.66 1243.09 1099.03 1240.61 1097.75 1238.84C1096.48 1237.07 1094.44 1236.18 1091.61 1236.18H1085.41V1256.01H1091.65ZM1081.89 1233.18H1092.35C1095.9 1233.18 1098.66 1234.44 1100.61 1236.96C1102.36 1239.23 1103.23 1242.14 1103.23 1245.69C1103.23 1248.44 1102.72 1250.91 1101.69 1253.13C1099.87 1257.04 1096.75 1259 1092.32 1259H1081.89V1233.18Z" fill="black"/>
<path id="7" d="M1119.81 1255.25V1258.01C1119 1258.79 1117.92 1260.16 1116.57 1262.11C1115.24 1264.05 1114.05 1266.15 1113.02 1268.4C1112 1270.59 1111.23 1272.59 1110.7 1274.39C1110.36 1275.55 1109.92 1277.42 1109.38 1280H1105.88C1106.68 1275.2 1108.44 1270.41 1111.16 1265.66C1112.76 1262.87 1114.45 1260.46 1116.22 1258.43H1102.3V1255.25H1119.81Z" fill="black"/>
</g>
<path id="WireA2_Decoder3to8" d="M76 146H154.5V155H161.66L153 170L144.34 155H151.5V149H76V804.149C79.1034 804.779 81.5087 807.326 81.9316 810.5H720V803.34L735 812L720 820.66V813.5H81.7285C80.9835 816.199 78.7697 818.287 76 818.85V942.149C79.1034 942.779 81.5087 945.326 81.9316 948.5H720V941.34L735 950L720 958.66V951.5H81.7285C80.9835 954.199 78.7697 956.287 76 956.85V1080.15C79.1034 1080.78 81.5087 1083.33 81.9316 1086.5H720V1079.34L735 1088L720 1096.66V1089.5H81.7285C80.9835 1092.2 78.7697 1094.29 76 1094.85V1220.5H720V1213.34L735 1222L720 1230.66V1223.5H73V1094.85C69.5767 1094.15 67 1091.13 67 1087.5C67 1083.87 69.5766 1080.84 73 1080.15V956.85C69.5767 956.155 67 953.128 67 949.5C67 945.872 69.5766 942.844 73 942.149V818.85C69.5767 818.155 67 815.128 67 811.5C67 807.872 69.5766 804.844 73 804.149V111H76V146Z" fill="black"/>
<path id="WireA2N_Decoder3to8" d="M154.5 258.65C157.438 259.247 159.753 261.562 160.35 264.5H720V257.34L735 266L720 274.66V267.5H160.35C159.753 270.439 157.439 272.754 154.5 273.351V394.649C157.439 395.246 159.753 397.561 160.35 400.5H720V393.34L735 402L720 410.66V403.5H160.35C159.753 406.439 157.439 408.753 154.5 409.35V531.067C157.842 531.513 160.486 534.158 160.932 537.5H720V530.34L735 539L720 547.66V540.5H160.729C159.939 543.359 157.501 545.532 154.5 545.932V675.5H720V668.34L735 677L720 685.66V678.5H151.5V545.728C148.329 544.852 146 541.949 146 538.5C146 535.051 148.329 532.147 151.5 531.271V409.35C148.077 408.655 145.5 405.628 145.5 402C145.5 398.372 148.077 395.344 151.5 394.649V273.351C148.077 272.656 145.5 269.629 145.5 266.001C145.5 262.373 148.077 259.345 151.5 258.65V218H154.5V258.65Z" fill="black"/>
<path id="WireA1_Decoder3to8" d="M235 146H313.5V155H320.66L312 170L303.34 155H310.5V149H235V552.649C237.939 553.246 240.253 555.561 240.85 558.5H720V551.34L735 560L720 568.66V561.5H240.85C240.253 564.439 237.939 566.753 235 567.35V690.649C237.939 691.246 240.253 693.561 240.85 696.5H720V689.34L735 698L720 706.66V699.5H240.85C240.253 702.439 237.939 704.753 235 705.35V1100.15C237.939 1100.75 240.253 1103.06 240.85 1106H720V1098.84L735 1107.5L720 1116.16V1109H240.85C240.253 1111.94 237.939 1114.25 235 1114.85V1241.5H720V1234.34L735 1243L720 1251.66V1244.5H232V1114.85C228.577 1114.15 226 1111.13 226 1107.5C226 1103.87 228.577 1100.84 232 1100.15V705.35C228.577 704.655 226 701.628 226 698C226 694.372 228.577 691.344 232 690.649V567.35C228.577 566.655 226 563.628 226 560C226 556.372 228.577 553.344 232 552.649V111H235V146Z" fill="black"/>
<path id="WireA1N_Decoder3to8" d="M313.5 278.649C316.439 279.246 318.753 281.561 319.35 284.5H720V277.34L735 286L720 294.66V287.5H319.35C318.753 290.439 316.439 292.753 313.5 293.35V414.649C316.439 415.246 318.753 417.561 319.35 420.5H720V413.34L735 422L720 430.66V423.5H319.35C318.753 426.439 316.439 428.753 313.5 429.35V823.637C316.473 824.209 318.821 826.537 319.423 829.5H720V822.34L735 831L720 839.66V832.5H319.423C318.821 835.463 316.473 837.789 313.5 838.362V967.5H720V960.34L735 969L720 977.66V970.5H310.5V838.333C307.113 837.61 304.573 834.602 304.573 831C304.573 827.398 307.113 824.389 310.5 823.666V429.35C307.077 428.655 304.5 425.628 304.5 422C304.5 418.372 307.077 415.344 310.5 414.649V293.35C307.077 292.655 304.5 289.628 304.5 286C304.5 282.372 307.077 279.344 310.5 278.649V218H313.5V278.649Z" fill="black"/>
<path id="WireA0_Decoder3to8" d="M394 146H471.5V155H478.66L470 170L461.34 155H468.5V149H394V434.649C396.939 435.246 399.253 437.561 399.85 440.5H720V433.34L735 442L720 450.66V443.5H399.85C399.253 446.439 396.939 448.753 394 449.35V710.649C396.939 711.246 399.253 713.561 399.85 716.5H720V709.34L735 718L720 726.66V719.5H399.85C399.253 722.439 396.939 724.753 394 725.35V981.649C396.939 982.246 399.253 984.561 399.85 987.5H720V980.34L735 989L720 997.66V990.5H399.85C399.253 993.439 396.939 995.753 394 996.35V1261.5H720V1254.34L735 1263L720 1271.66V1264.5H391V996.35C387.577 995.655 385 992.628 385 989C385 985.372 387.577 982.344 391 981.649V725.35C387.577 724.655 385 721.628 385 718C385 714.372 387.577 711.344 391 710.649V449.35C387.577 448.655 385 445.628 385 442C385 438.372 387.577 435.344 391 434.649V114H394V146Z" fill="black"/>
<path id="WireA0N_Decoder3to8" d="M472.5 298.649C475.439 299.246 477.753 301.561 478.35 304.5H720V297.34L735 306L720 314.66V307.5H478.35C477.753 310.439 475.439 312.753 472.5 313.35V572.649C475.439 573.246 477.753 575.561 478.35 578.5H720V571.34L735 580L720 588.66V581.5H478.35C477.753 584.439 475.439 586.753 472.5 587.35V843.649C475.439 844.246 477.753 846.561 478.35 849.5H720V842.34L735 851L720 859.66V852.5H478.35C477.753 855.439 475.439 857.753 472.5 858.35V1125.5H720V1118.34L735 1127L720 1135.66V1128.5H469.5V858.35C466.077 857.655 463.5 854.628 463.5 851C463.5 847.372 466.077 844.344 469.5 843.649V587.35C466.077 586.655 463.5 583.628 463.5 580C463.5 576.372 466.077 573.344 469.5 572.649V313.35C466.077 312.655 463.5 309.628 463.5 306C463.5 302.372 466.077 299.344 469.5 298.649V218.5H472.5V298.649Z" fill="black"/>
<path id="WireEnable_Decoder3to8" d="M659 318.649C661.939 319.246 664.253 321.561 664.85 324.5H720V317.34L735 326L720 334.66V327.5H664.85C664.253 330.439 661.939 332.753 659 333.35V454.646C661.946 455.238 664.269 457.556 664.866 460.5H720V453.34L735 462L720 470.66V463.5H664.866C664.269 466.444 661.946 468.761 659 469.353V592.649C661.939 593.246 664.253 595.561 664.85 598.5H720V591.34L735 600L720 608.66V601.5H664.85C664.253 604.439 661.939 606.753 659 607.35V731.649C661.939 732.246 664.253 734.561 664.85 737.5H720V730.34L735 739L720 747.66V740.5H664.85C664.253 743.439 661.939 745.753 659 746.35V862.649C661.939 863.246 664.253 865.561 664.85 868.5H720V861.34L735 870L720 878.66V871.5H664.85C664.253 874.439 661.939 876.753 659 877.35V1001.65C661.939 1002.25 664.253 1004.56 664.85 1007.5H720V1000.34L735 1009L720 1017.66V1010.5H664.85C664.253 1013.44 661.939 1015.75 659 1016.35V1139.65C661.939 1140.25 664.253 1142.56 664.85 1145.5H720V1138.34L735 1147L720 1155.66V1148.5H664.85C664.253 1151.44 661.939 1153.75 659 1154.35V1284.5H720V1277.34L735 1286L720 1294.66V1287.5H656V1154.35C652.577 1153.65 650 1150.63 650 1147C650 1143.37 652.577 1140.34 656 1139.65V1016.35C652.577 1015.65 650 1012.63 650 1009C650 1005.37 652.577 1002.34 656 1001.65V877.35C652.577 876.655 650 873.628 650 870C650 866.372 652.577 863.344 656 862.649V746.35C652.577 745.655 650 742.628 650 739C650 735.372 652.577 732.344 656 731.649V607.35C652.577 606.655 650 603.628 650 600C650 596.372 652.577 593.344 656 592.649V469.346C652.585 468.644 650.017 465.623 650.017 462C650.017 458.377 652.585 455.355 656 454.653V333.35C652.577 332.655 650 329.628 650 326C650 322.372 652.577 319.344 656 318.649V111H659V318.649Z" fill="black"/>
<path id="WireD0_Decoder3to8" d="M1074 296L1059 304.66V297.5H835V294.5H1059V287.34L1074 296Z" fill="black"/>
<path id="WireD1_Decoder3to8" d="M1075 433L1060 441.66V434.5H836V431.5H1060V424.34L1075 433Z" fill="black"/>
<path id="WireD2_Decoder3to8" d="M1075 570L1060 578.66V571.5H836V568.5H1060V561.34L1075 570Z" fill="black"/>
<path id="WireD3_Decoder3to8" d="M1075 707L1060 715.66V708.5H836V705.5H1060V698.34L1075 707Z" fill="black"/>
<path id="WireD4_Decoder3to8" d="M1074 844L1059 852.66V845.5H835V842.5H1059V835.34L1074 844Z" fill="black"/>
<path id="WireD5_Decoder3to8" d="M1075 981L1060 989.66V982.5H836V979.5H1060V972.34L1075 981Z" fill="black"/>
<path id="WireD6_Decoder3to8" d="M1075 1118L1060 1126.66V1119.5H836V1116.5H1060V1109.34L1075 1118Z" fill="black"/>
<path id="WireD7_Decoder3to8" d="M1075 1255L1060 1263.66V1256.5H836V1253.5H1060V1246.34L1075 1255Z" fill="black"/>
<g id="ANDGate0_Decoder3to8">
<path id="AND Gate" d="M736.5 253.806C740.368 253.293 752.675 251.913 767.476 252.779C785.501 253.835 806.902 258.208 821.382 271.209C827.951 277.107 831.22 283.335 832.854 288.07C833.671 290.441 834.08 292.441 834.286 293.841C834.389 294.54 834.442 295.09 834.469 295.461C834.482 295.646 834.49 295.787 834.494 295.883C834.496 295.932 834.498 295.967 834.499 296C834.499 296.003 834.499 296.007 834.499 296.011C834.499 296.027 834.498 296.049 834.497 296.076C834.494 296.154 834.489 296.279 834.477 296.445C834.452 296.779 834.403 297.282 834.303 297.931C834.102 299.228 833.698 301.104 832.883 303.354C831.255 307.849 827.983 313.864 821.382 319.791C806.894 332.799 785.478 337.17 767.446 338.223C758.465 338.747 750.401 338.443 744.581 338.009C741.673 337.792 739.328 337.543 737.714 337.348C737.246 337.291 736.841 337.238 736.5 337.193V253.806Z" fill="white" stroke="black" stroke-width="3"/>
</g>
<g id="ANDGate1_Decoder3to8">
<path id="AND Gate_2" d="M736.5 390.806C740.368 390.293 752.675 388.913 767.476 389.779C785.501 390.835 806.902 395.208 821.382 408.209C827.951 414.107 831.22 420.335 832.854 425.07C833.671 427.441 834.08 429.441 834.286 430.841C834.389 431.54 834.442 432.09 834.469 432.461C834.482 432.646 834.49 432.787 834.494 432.883C834.496 432.932 834.498 432.967 834.499 433C834.499 433.003 834.499 433.007 834.499 433.011C834.499 433.027 834.498 433.049 834.497 433.076C834.494 433.154 834.489 433.279 834.477 433.445C834.452 433.779 834.403 434.282 834.303 434.931C834.102 436.228 833.698 438.104 832.883 440.354C831.255 444.849 827.983 450.864 821.382 456.791C806.894 469.799 785.478 474.17 767.446 475.223C758.465 475.747 750.401 475.443 744.581 475.009C741.673 474.792 739.328 474.543 737.714 474.348C737.246 474.291 736.841 474.238 736.5 474.193V390.806Z" fill="white" stroke="black" stroke-width="3"/>
</g>
<g id="ANDGate2_Decoder3to8">
<path id="AND Gate_3" d="M736.5 527.806C740.368 527.293 752.675 525.913 767.476 526.779C785.501 527.835 806.902 532.208 821.382 545.209C827.951 551.107 831.22 557.335 832.854 562.07C833.671 564.441 834.08 566.441 834.286 567.841C834.389 568.54 834.442 569.09 834.469 569.461C834.482 569.646 834.49 569.787 834.494 569.883C834.496 569.932 834.498 569.967 834.499 570C834.499 570.003 834.499 570.007 834.499 570.011C834.499 570.027 834.498 570.049 834.497 570.076C834.494 570.154 834.489 570.279 834.477 570.445C834.452 570.779 834.403 571.282 834.303 571.931C834.102 573.228 833.698 575.104 832.883 577.354C831.255 581.849 827.983 587.864 821.382 593.791C806.894 606.799 785.478 611.17 767.446 612.223C758.465 612.747 750.401 612.443 744.581 612.009C741.673 611.792 739.328 611.543 737.714 611.348C737.246 611.291 736.841 611.238 736.5 611.193V527.806Z" fill="white" stroke="black" stroke-width="3"/>
</g>
<g id="ANDGate3_Decoder3to8">
<path id="AND Gate_4" d="M736.5 664.806C740.368 664.293 752.675 662.913 767.476 663.779C785.501 664.835 806.902 669.208 821.382 682.209C827.951 688.107 831.22 694.335 832.854 699.07C833.671 701.441 834.08 703.441 834.286 704.841C834.389 705.54 834.442 706.09 834.469 706.461C834.482 706.646 834.49 706.787 834.494 706.883C834.496 706.932 834.498 706.967 834.499 707C834.499 707.003 834.499 707.007 834.499 707.011C834.499 707.027 834.498 707.049 834.497 707.076C834.494 707.154 834.489 707.279 834.477 707.445C834.452 707.779 834.403 708.282 834.303 708.931C834.102 710.228 833.698 712.104 832.883 714.354C831.255 718.849 827.983 724.864 821.382 730.791C806.894 743.799 785.478 748.17 767.446 749.223C758.465 749.747 750.401 749.443 744.581 749.009C741.673 748.792 739.328 748.543 737.714 748.348C737.246 748.291 736.841 748.238 736.5 748.193V664.806Z" fill="white" stroke="black" stroke-width="3"/>
</g>
<g id="ANDGate4_Decoder3to8">
<path id="AND Gate_5" d="M736.5 801.806C740.368 801.293 752.675 799.913 767.476 800.779C785.501 801.835 806.902 806.208 821.382 819.209C827.951 825.107 831.22 831.335 832.854 836.07C833.671 838.441 834.08 840.441 834.286 841.841C834.389 842.54 834.442 843.09 834.469 843.461C834.482 843.646 834.49 843.787 834.494 843.883C834.496 843.932 834.498 843.967 834.499 844C834.499 844.003 834.499 844.007 834.499 844.011C834.499 844.027 834.498 844.049 834.497 844.076C834.494 844.154 834.489 844.279 834.477 844.445C834.452 844.779 834.403 845.282 834.303 845.931C834.102 847.228 833.698 849.104 832.883 851.354C831.255 855.849 827.983 861.864 821.382 867.791C806.894 880.799 785.478 885.17 767.446 886.223C758.465 886.747 750.401 886.443 744.581 886.009C741.673 885.792 739.328 885.543 737.714 885.348C737.246 885.291 736.841 885.238 736.5 885.193V801.806Z" fill="white" stroke="black" stroke-width="3"/>
</g>
<g id="ANDGate5_Decoder3to8">
<path id="AND Gate_6" d="M736.5 938.806C740.368 938.293 752.675 936.913 767.476 937.779C785.501 938.835 806.902 943.208 821.382 956.209C827.951 962.107 831.22 968.335 832.854 973.07C833.671 975.441 834.08 977.441 834.286 978.841C834.389 979.54 834.442 980.09 834.469 980.461C834.482 980.646 834.49 980.787 834.494 980.883C834.496 980.932 834.498 980.967 834.499 981C834.499 981.003 834.499 981.007 834.499 981.011C834.499 981.027 834.498 981.049 834.497 981.076C834.494 981.154 834.489 981.279 834.477 981.445C834.452 981.779 834.403 982.282 834.303 982.931C834.102 984.228 833.698 986.104 832.883 988.354C831.255 992.849 827.983 998.864 821.382 1004.79C806.894 1017.8 785.478 1022.17 767.446 1023.22C758.465 1023.75 750.401 1023.44 744.581 1023.01C741.673 1022.79 739.328 1022.54 737.714 1022.35C737.246 1022.29 736.841 1022.24 736.5 1022.19V938.806Z" fill="white" stroke="black" stroke-width="3"/>
</g>
<g id="ANDGate6_Decoder3to8">
<path id="AND Gate_7" d="M736.5 1075.81C740.368 1075.29 752.675 1073.91 767.476 1074.78C785.501 1075.83 806.902 1080.21 821.382 1093.21C827.951 1099.11 831.22 1105.33 832.854 1110.07C833.671 1112.44 834.08 1114.44 834.286 1115.84C834.389 1116.54 834.442 1117.09 834.469 1117.46C834.482 1117.65 834.49 1117.79 834.494 1117.88C834.496 1117.93 834.498 1117.97 834.499 1118C834.499 1118 834.499 1118.01 834.499 1118.01C834.499 1118.03 834.498 1118.05 834.497 1118.08C834.494 1118.15 834.489 1118.28 834.477 1118.45C834.452 1118.78 834.403 1119.28 834.303 1119.93C834.102 1121.23 833.698 1123.1 832.883 1125.35C831.255 1129.85 827.983 1135.86 821.382 1141.79C806.894 1154.8 785.478 1159.17 767.446 1160.22C758.465 1160.75 750.401 1160.44 744.581 1160.01C741.673 1159.79 739.328 1159.54 737.714 1159.35C737.246 1159.29 736.841 1159.24 736.5 1159.19V1075.81Z" fill="white" stroke="black" stroke-width="3"/>
</g>
<g id="ANDGate7_Decoder3to8">
<path id="AND Gate_8" d="M736.5 1212.81C740.368 1212.29 752.675 1210.91 767.476 1211.78C785.501 1212.83 806.902 1217.21 821.382 1230.21C827.951 1236.11 831.22 1242.33 832.854 1247.07C833.671 1249.44 834.08 1251.44 834.286 1252.84C834.389 1253.54 834.442 1254.09 834.469 1254.46C834.482 1254.65 834.49 1254.79 834.494 1254.88C834.496 1254.93 834.498 1254.97 834.499 1255C834.499 1255 834.499 1255.01 834.499 1255.01C834.499 1255.03 834.498 1255.05 834.497 1255.08C834.494 1255.15 834.489 1255.28 834.477 1255.45C834.452 1255.78 834.403 1256.28 834.303 1256.93C834.102 1258.23 833.698 1260.1 832.883 1262.35C831.255 1266.85 827.983 1272.86 821.382 1278.79C806.894 1291.8 785.478 1296.17 767.446 1297.22C758.465 1297.75 750.401 1297.44 744.581 1297.01C741.673 1296.79 739.328 1296.54 737.714 1296.35C737.246 1296.29 736.841 1296.24 736.5 1296.19V1212.81Z" fill="white" stroke="black" stroke-width="3"/>
</g>
<g id="NotGate0_Decoder3to8">
<path id="Buffer" d="M469.701 209.75L448.916 173.75L447.617 171.5L494.383 171.5L493.084 173.75L472.299 209.75L471 212L469.701 209.75Z" fill="white" stroke="black" stroke-width="3"/>
<circle id="Not" cx="471" cy="215" r="3" transform="rotate(90 471 215)" fill="#D9D9D9" stroke="black" stroke-width="2"/>
</g>
<g id="NotGate1_Decoder3to8">
<path id="Buffer_2" d="M310.701 209.75L289.916 173.75L288.617 171.5L335.383 171.5L334.084 173.75L313.299 209.75L312 212L310.701 209.75Z" fill="white" stroke="black" stroke-width="3"/>
<circle id="Not_2" cx="312" cy="215" r="3" transform="rotate(90 312 215)" fill="#D9D9D9" stroke="black" stroke-width="2"/>
</g>
<g id="NotGate2_Decoder3to8">
<path id="Buffer_3" d="M151.701 209.75L130.916 173.75L129.617 171.5L176.383 171.5L175.084 173.75L154.299 209.75L153 212L151.701 209.75Z" fill="white" stroke="black" stroke-width="3"/>
<circle id="Not_3" cx="153" cy="215" r="3" transform="rotate(90 153 215)" fill="#D9D9D9" stroke="black" stroke-width="2"/>
</g>
</svg>
