<svg width="1050" height="505" viewBox="0 0 1050 505" fill="none" xmlns="http://www.w3.org/2000/svg">
<rect width="1050" height="505" fill="#1E1E1E"/>
<rect id="Background_LU" width="1050" height="505" fill="white"/>
<line id="Line 14" x1="50.9393" y1="466.939" x2="76.9393" y2="440.939" stroke="black" stroke-width="3"/>
<path id="32" d="M61.1953 486.381C59.5417 486.381 58.3405 485.928 57.5918 485.023C56.8496 484.112 56.4785 483.005 56.4785 481.703H58.3145C58.3926 482.608 58.5618 483.266 58.8223 483.676C59.278 484.411 60.1016 484.779 61.293 484.779C62.2174 484.779 62.9596 484.532 63.5195 484.037C64.0794 483.542 64.3594 482.904 64.3594 482.123C64.3594 481.16 64.0632 480.486 63.4707 480.102C62.8848 479.717 62.0677 479.525 61.0195 479.525C60.9023 479.525 60.7819 479.529 60.6582 479.535C60.541 479.535 60.4206 479.538 60.2969 479.545V477.992C60.4792 478.012 60.6322 478.025 60.7559 478.031C60.8796 478.038 61.013 478.041 61.1562 478.041C61.8138 478.041 62.3542 477.937 62.7773 477.729C63.5195 477.364 63.8906 476.713 63.8906 475.775C63.8906 475.079 63.6432 474.542 63.1484 474.164C62.6536 473.786 62.0775 473.598 61.4199 473.598C60.248 473.598 59.4375 473.988 58.9883 474.77C58.7409 475.199 58.6009 475.811 58.5684 476.605H56.8301C56.8301 475.564 57.0384 474.678 57.4551 473.949C58.1712 472.647 59.431 471.996 61.2344 471.996C62.6602 471.996 63.7637 472.315 64.5449 472.953C65.3262 473.585 65.7168 474.503 65.7168 475.707C65.7168 476.566 65.4857 477.263 65.0234 477.797C64.737 478.129 64.3659 478.389 63.9102 478.578C64.6458 478.78 65.2188 479.171 65.6289 479.75C66.0456 480.323 66.2539 481.026 66.2539 481.859C66.2539 483.194 65.8145 484.281 64.9355 485.121C64.0566 485.961 62.8099 486.381 61.1953 486.381ZM67.7578 486C67.8229 484.796 68.0703 483.747 68.5 482.855C68.9362 481.964 69.7826 481.153 71.0391 480.424L72.9141 479.34C73.7539 478.852 74.3431 478.435 74.6816 478.09C75.2155 477.549 75.4824 476.931 75.4824 476.234C75.4824 475.421 75.2383 474.776 74.75 474.301C74.2617 473.819 73.6107 473.578 72.7969 473.578C71.5924 473.578 70.7591 474.034 70.2969 474.945C70.0495 475.434 69.9128 476.111 69.8867 476.977H68.0996C68.1191 475.759 68.3438 474.766 68.7734 473.998C69.5352 472.644 70.8796 471.967 72.8066 471.967C74.4082 471.967 75.5768 472.4 76.3125 473.266C77.0547 474.132 77.4258 475.095 77.4258 476.156C77.4258 477.276 77.0319 478.233 76.2441 479.027C75.7884 479.49 74.9714 480.049 73.793 480.707L72.4551 481.449C71.8171 481.801 71.3158 482.136 70.9512 482.455C70.3001 483.021 69.89 483.65 69.7207 484.34H77.3574V486H67.7578Z" fill="black"/>
<line id="Line 15" x1="402.939" y1="78.9393" x2="428.939" y2="52.9393" stroke="black" stroke-width="3"/>
<path id="32_2" d="M413.195 98.3809C411.542 98.3809 410.34 97.9284 409.592 97.0234C408.85 96.112 408.479 95.0052 408.479 93.7031H410.314C410.393 94.6081 410.562 95.2656 410.822 95.6758C411.278 96.4115 412.102 96.7793 413.293 96.7793C414.217 96.7793 414.96 96.5319 415.52 96.0371C416.079 95.5423 416.359 94.9043 416.359 94.123C416.359 93.1595 416.063 92.4857 415.471 92.1016C414.885 91.7174 414.068 91.5254 413.02 91.5254C412.902 91.5254 412.782 91.5286 412.658 91.5352C412.541 91.5352 412.421 91.5384 412.297 91.5449V89.9922C412.479 90.0117 412.632 90.0247 412.756 90.0312C412.88 90.0378 413.013 90.041 413.156 90.041C413.814 90.041 414.354 89.9368 414.777 89.7285C415.52 89.3639 415.891 88.7129 415.891 87.7754C415.891 87.0788 415.643 86.5417 415.148 86.1641C414.654 85.7865 414.077 85.5977 413.42 85.5977C412.248 85.5977 411.438 85.9883 410.988 86.7695C410.741 87.1992 410.601 87.8112 410.568 88.6055H408.83C408.83 87.5638 409.038 86.6784 409.455 85.9492C410.171 84.6471 411.431 83.9961 413.234 83.9961C414.66 83.9961 415.764 84.3151 416.545 84.9531C417.326 85.5846 417.717 86.5026 417.717 87.707C417.717 88.5664 417.486 89.263 417.023 89.7969C416.737 90.1289 416.366 90.3893 415.91 90.5781C416.646 90.7799 417.219 91.1706 417.629 91.75C418.046 92.3229 418.254 93.026 418.254 93.8594C418.254 95.194 417.814 96.2812 416.936 97.1211C416.057 97.9609 414.81 98.3809 413.195 98.3809ZM419.758 98C419.823 96.7956 420.07 95.7474 420.5 94.8555C420.936 93.9635 421.783 93.153 423.039 92.4238L424.914 91.3398C425.754 90.8516 426.343 90.4349 426.682 90.0898C427.215 89.5495 427.482 88.931 427.482 88.2344C427.482 87.4206 427.238 86.776 426.75 86.3008C426.262 85.819 425.611 85.5781 424.797 85.5781C423.592 85.5781 422.759 86.0339 422.297 86.9453C422.049 87.4336 421.913 88.1107 421.887 88.9766H420.1C420.119 87.7591 420.344 86.7663 420.773 85.998C421.535 84.6439 422.88 83.9668 424.807 83.9668C426.408 83.9668 427.577 84.3997 428.312 85.2656C429.055 86.1315 429.426 87.0951 429.426 88.1562C429.426 89.276 429.032 90.2331 428.244 91.0273C427.788 91.4896 426.971 92.0495 425.793 92.707L424.455 93.4492C423.817 93.8008 423.316 94.1361 422.951 94.4551C422.3 95.0215 421.89 95.6497 421.721 96.3398H429.357V98H419.758Z" fill="black"/>
<line id="Line 19" x1="822.939" y1="264.939" x2="848.939" y2="238.939" stroke="black" stroke-width="3"/>
<path id="32_3" d="M833.195 284.381C831.542 284.381 830.34 283.928 829.592 283.023C828.85 282.112 828.479 281.005 828.479 279.703H830.314C830.393 280.608 830.562 281.266 830.822 281.676C831.278 282.411 832.102 282.779 833.293 282.779C834.217 282.779 834.96 282.532 835.52 282.037C836.079 281.542 836.359 280.904 836.359 280.123C836.359 279.16 836.063 278.486 835.471 278.102C834.885 277.717 834.068 277.525 833.02 277.525C832.902 277.525 832.782 277.529 832.658 277.535C832.541 277.535 832.421 277.538 832.297 277.545V275.992C832.479 276.012 832.632 276.025 832.756 276.031C832.88 276.038 833.013 276.041 833.156 276.041C833.814 276.041 834.354 275.937 834.777 275.729C835.52 275.364 835.891 274.713 835.891 273.775C835.891 273.079 835.643 272.542 835.148 272.164C834.654 271.786 834.077 271.598 833.42 271.598C832.248 271.598 831.438 271.988 830.988 272.77C830.741 273.199 830.601 273.811 830.568 274.605H828.83C828.83 273.564 829.038 272.678 829.455 271.949C830.171 270.647 831.431 269.996 833.234 269.996C834.66 269.996 835.764 270.315 836.545 270.953C837.326 271.585 837.717 272.503 837.717 273.707C837.717 274.566 837.486 275.263 837.023 275.797C836.737 276.129 836.366 276.389 835.91 276.578C836.646 276.78 837.219 277.171 837.629 277.75C838.046 278.323 838.254 279.026 838.254 279.859C838.254 281.194 837.814 282.281 836.936 283.121C836.057 283.961 834.81 284.381 833.195 284.381ZM839.758 284C839.823 282.796 840.07 281.747 840.5 280.855C840.936 279.964 841.783 279.153 843.039 278.424L844.914 277.34C845.754 276.852 846.343 276.435 846.682 276.09C847.215 275.549 847.482 274.931 847.482 274.234C847.482 273.421 847.238 272.776 846.75 272.301C846.262 271.819 845.611 271.578 844.797 271.578C843.592 271.578 842.759 272.034 842.297 272.945C842.049 273.434 841.913 274.111 841.887 274.977H840.1C840.119 273.759 840.344 272.766 840.773 271.998C841.535 270.644 842.88 269.967 844.807 269.967C846.408 269.967 847.577 270.4 848.312 271.266C849.055 272.132 849.426 273.095 849.426 274.156C849.426 275.276 849.032 276.233 848.244 277.027C847.788 277.49 846.971 278.049 845.793 278.707L844.455 279.449C843.817 279.801 843.316 280.136 842.951 280.455C842.3 281.021 841.89 281.65 841.721 282.34H849.357V284H839.758Z" fill="black"/>
<line id="Line 18" x1="404.939" y1="445.939" x2="430.939" y2="419.939" stroke="black" stroke-width="3"/>
<path id="32_4" d="M415.195 465.381C413.542 465.381 412.34 464.928 411.592 464.023C410.85 463.112 410.479 462.005 410.479 460.703H412.314C412.393 461.608 412.562 462.266 412.822 462.676C413.278 463.411 414.102 463.779 415.293 463.779C416.217 463.779 416.96 463.532 417.52 463.037C418.079 462.542 418.359 461.904 418.359 461.123C418.359 460.16 418.063 459.486 417.471 459.102C416.885 458.717 416.068 458.525 415.02 458.525C414.902 458.525 414.782 458.529 414.658 458.535C414.541 458.535 414.421 458.538 414.297 458.545V456.992C414.479 457.012 414.632 457.025 414.756 457.031C414.88 457.038 415.013 457.041 415.156 457.041C415.814 457.041 416.354 456.937 416.777 456.729C417.52 456.364 417.891 455.713 417.891 454.775C417.891 454.079 417.643 453.542 417.148 453.164C416.654 452.786 416.077 452.598 415.42 452.598C414.248 452.598 413.438 452.988 412.988 453.77C412.741 454.199 412.601 454.811 412.568 455.605H410.83C410.83 454.564 411.038 453.678 411.455 452.949C412.171 451.647 413.431 450.996 415.234 450.996C416.66 450.996 417.764 451.315 418.545 451.953C419.326 452.585 419.717 453.503 419.717 454.707C419.717 455.566 419.486 456.263 419.023 456.797C418.737 457.129 418.366 457.389 417.91 457.578C418.646 457.78 419.219 458.171 419.629 458.75C420.046 459.323 420.254 460.026 420.254 460.859C420.254 462.194 419.814 463.281 418.936 464.121C418.057 464.961 416.81 465.381 415.195 465.381ZM421.758 465C421.823 463.796 422.07 462.747 422.5 461.855C422.936 460.964 423.783 460.153 425.039 459.424L426.914 458.34C427.754 457.852 428.343 457.435 428.682 457.09C429.215 456.549 429.482 455.931 429.482 455.234C429.482 454.421 429.238 453.776 428.75 453.301C428.262 452.819 427.611 452.578 426.797 452.578C425.592 452.578 424.759 453.034 424.297 453.945C424.049 454.434 423.913 455.111 423.887 455.977H422.1C422.119 454.759 422.344 453.766 422.773 452.998C423.535 451.644 424.88 450.967 426.807 450.967C428.408 450.967 429.577 451.4 430.312 452.266C431.055 453.132 431.426 454.095 431.426 455.156C431.426 456.276 431.032 457.233 430.244 458.027C429.788 458.49 428.971 459.049 427.793 459.707L426.455 460.449C425.817 460.801 425.316 461.136 424.951 461.455C424.3 462.021 423.89 462.65 423.721 463.34H431.357V465H421.758Z" fill="black"/>
<line id="Line 17" x1="404.939" y1="324.939" x2="430.939" y2="298.939" stroke="black" stroke-width="3"/>
<path id="32_5" d="M415.195 344.381C413.542 344.381 412.34 343.928 411.592 343.023C410.85 342.112 410.479 341.005 410.479 339.703H412.314C412.393 340.608 412.562 341.266 412.822 341.676C413.278 342.411 414.102 342.779 415.293 342.779C416.217 342.779 416.96 342.532 417.52 342.037C418.079 341.542 418.359 340.904 418.359 340.123C418.359 339.16 418.063 338.486 417.471 338.102C416.885 337.717 416.068 337.525 415.02 337.525C414.902 337.525 414.782 337.529 414.658 337.535C414.541 337.535 414.421 337.538 414.297 337.545V335.992C414.479 336.012 414.632 336.025 414.756 336.031C414.88 336.038 415.013 336.041 415.156 336.041C415.814 336.041 416.354 335.937 416.777 335.729C417.52 335.364 417.891 334.713 417.891 333.775C417.891 333.079 417.643 332.542 417.148 332.164C416.654 331.786 416.077 331.598 415.42 331.598C414.248 331.598 413.438 331.988 412.988 332.77C412.741 333.199 412.601 333.811 412.568 334.605H410.83C410.83 333.564 411.038 332.678 411.455 331.949C412.171 330.647 413.431 329.996 415.234 329.996C416.66 329.996 417.764 330.315 418.545 330.953C419.326 331.585 419.717 332.503 419.717 333.707C419.717 334.566 419.486 335.263 419.023 335.797C418.737 336.129 418.366 336.389 417.91 336.578C418.646 336.78 419.219 337.171 419.629 337.75C420.046 338.323 420.254 339.026 420.254 339.859C420.254 341.194 419.814 342.281 418.936 343.121C418.057 343.961 416.81 344.381 415.195 344.381ZM421.758 344C421.823 342.796 422.07 341.747 422.5 340.855C422.936 339.964 423.783 339.153 425.039 338.424L426.914 337.34C427.754 336.852 428.343 336.435 428.682 336.09C429.215 335.549 429.482 334.931 429.482 334.234C429.482 333.421 429.238 332.776 428.75 332.301C428.262 331.819 427.611 331.578 426.797 331.578C425.592 331.578 424.759 332.034 424.297 332.945C424.049 333.434 423.913 334.111 423.887 334.977H422.1C422.119 333.759 422.344 332.766 422.773 331.998C423.535 330.644 424.88 329.967 426.807 329.967C428.408 329.967 429.577 330.4 430.312 331.266C431.055 332.132 431.426 333.095 431.426 334.156C431.426 335.276 431.032 336.233 430.244 337.027C429.788 337.49 428.971 338.049 427.793 338.707L426.455 339.449C425.817 339.801 425.316 340.136 424.951 340.455C424.3 341.021 423.89 341.65 423.721 342.34H431.357V344H421.758Z" fill="black"/>
<line id="Line 16" x1="402.939" y1="201.939" x2="428.939" y2="175.939" stroke="black" stroke-width="3"/>
<path id="32_6" d="M413.195 221.381C411.542 221.381 410.34 220.928 409.592 220.023C408.85 219.112 408.479 218.005 408.479 216.703H410.314C410.393 217.608 410.562 218.266 410.822 218.676C411.278 219.411 412.102 219.779 413.293 219.779C414.217 219.779 414.96 219.532 415.52 219.037C416.079 218.542 416.359 217.904 416.359 217.123C416.359 216.16 416.063 215.486 415.471 215.102C414.885 214.717 414.068 214.525 413.02 214.525C412.902 214.525 412.782 214.529 412.658 214.535C412.541 214.535 412.421 214.538 412.297 214.545V212.992C412.479 213.012 412.632 213.025 412.756 213.031C412.88 213.038 413.013 213.041 413.156 213.041C413.814 213.041 414.354 212.937 414.777 212.729C415.52 212.364 415.891 211.713 415.891 210.775C415.891 210.079 415.643 209.542 415.148 209.164C414.654 208.786 414.077 208.598 413.42 208.598C412.248 208.598 411.438 208.988 410.988 209.77C410.741 210.199 410.601 210.811 410.568 211.605H408.83C408.83 210.564 409.038 209.678 409.455 208.949C410.171 207.647 411.431 206.996 413.234 206.996C414.66 206.996 415.764 207.315 416.545 207.953C417.326 208.585 417.717 209.503 417.717 210.707C417.717 211.566 417.486 212.263 417.023 212.797C416.737 213.129 416.366 213.389 415.91 213.578C416.646 213.78 417.219 214.171 417.629 214.75C418.046 215.323 418.254 216.026 418.254 216.859C418.254 218.194 417.814 219.281 416.936 220.121C416.057 220.961 414.81 221.381 413.195 221.381ZM419.758 221C419.823 219.796 420.07 218.747 420.5 217.855C420.936 216.964 421.783 216.153 423.039 215.424L424.914 214.34C425.754 213.852 426.343 213.435 426.682 213.09C427.215 212.549 427.482 211.931 427.482 211.234C427.482 210.421 427.238 209.776 426.75 209.301C426.262 208.819 425.611 208.578 424.797 208.578C423.592 208.578 422.759 209.034 422.297 209.945C422.049 210.434 421.913 211.111 421.887 211.977H420.1C420.119 210.759 420.344 209.766 420.773 208.998C421.535 207.644 422.88 206.967 424.807 206.967C426.408 206.967 427.577 207.4 428.312 208.266C429.055 209.132 429.426 210.095 429.426 211.156C429.426 212.276 429.032 213.233 428.244 214.027C427.788 214.49 426.971 215.049 425.793 215.707L424.455 216.449C423.817 216.801 423.316 217.136 422.951 217.455C422.3 218.021 421.89 218.65 421.721 219.34H429.357V221H419.758Z" fill="black"/>
<line id="Line 12" x1="729.939" y1="439.939" x2="755.939" y2="413.939" stroke="black" stroke-width="3"/>
<line id="Line 13" x1="50.9393" y1="55.9393" x2="76.9393" y2="29.9393" stroke="black" stroke-width="3"/>
<path id="x" d="M14.5273 35.1738H18.623L22.9473 41.8008L27.3242 35.1738L31.1738 35.2617L24.8281 44.3496L31.4551 54H27.4121L22.7363 46.9336L18.2012 54H14.1934L20.8203 44.3496L14.5273 35.1738Z" fill="black"/>
<path id="y" d="M28.0801 447.174H31.5781C31.1328 448.381 30.1426 451.135 28.6074 455.436C27.459 458.67 26.498 461.307 25.7246 463.346C23.8965 468.15 22.6074 471.08 21.8574 472.135C21.1074 473.189 19.8184 473.717 17.9902 473.717C17.5449 473.717 17.1992 473.699 16.9531 473.664C16.7188 473.629 16.4258 473.564 16.0742 473.471V470.588C16.625 470.74 17.0234 470.834 17.2695 470.869C17.5156 470.904 17.7324 470.922 17.9199 470.922C18.5059 470.922 18.9336 470.822 19.2031 470.623C19.4844 470.436 19.7188 470.201 19.9062 469.92C19.9648 469.826 20.1758 469.346 20.5391 468.479C20.9023 467.611 21.166 466.967 21.3301 466.545L14.3691 447.174H17.9551L23 462.502L28.0801 447.174Z" fill="black"/>
<path id="Logic Function" d="M689.523 468.654H691.467V481.291H698.732V483H689.523V468.654ZM704.572 481.867C705.738 481.867 706.535 481.428 706.965 480.549C707.401 479.663 707.619 478.68 707.619 477.6C707.619 476.623 707.463 475.829 707.15 475.217C706.656 474.253 705.803 473.771 704.592 473.771C703.518 473.771 702.736 474.182 702.248 475.002C701.76 475.822 701.516 476.812 701.516 477.971C701.516 479.084 701.76 480.012 702.248 480.754C702.736 481.496 703.511 481.867 704.572 481.867ZM704.641 472.238C705.988 472.238 707.128 472.688 708.059 473.586C708.99 474.484 709.455 475.806 709.455 477.551C709.455 479.237 709.045 480.63 708.225 481.73C707.404 482.831 706.132 483.381 704.406 483.381C702.967 483.381 701.825 482.896 700.979 481.926C700.132 480.949 699.709 479.641 699.709 478C699.709 476.242 700.155 474.842 701.047 473.801C701.939 472.759 703.137 472.238 704.641 472.238ZM715.246 472.355C716.066 472.355 716.783 472.557 717.395 472.961C717.727 473.189 718.065 473.521 718.41 473.957V472.639H720.031V482.15C720.031 483.479 719.836 484.527 719.445 485.295C718.716 486.714 717.339 487.424 715.314 487.424C714.188 487.424 713.241 487.17 712.473 486.662C711.704 486.161 711.275 485.373 711.184 484.299H712.971C713.055 484.768 713.225 485.129 713.479 485.383C713.876 485.773 714.501 485.969 715.354 485.969C716.701 485.969 717.583 485.493 718 484.543C718.247 483.983 718.361 482.984 718.342 481.545C717.99 482.079 717.567 482.476 717.072 482.736C716.577 482.997 715.923 483.127 715.109 483.127C713.977 483.127 712.984 482.727 712.131 481.926C711.285 481.118 710.861 479.787 710.861 477.932C710.861 476.18 711.288 474.813 712.141 473.83C713 472.847 714.035 472.355 715.246 472.355ZM718.41 477.727C718.41 476.431 718.143 475.471 717.609 474.846C717.076 474.221 716.395 473.908 715.568 473.908C714.331 473.908 713.485 474.488 713.029 475.646C712.788 476.265 712.668 477.076 712.668 478.078C712.668 479.257 712.906 480.155 713.381 480.773C713.863 481.385 714.507 481.691 715.314 481.691C716.577 481.691 717.466 481.122 717.98 479.982C718.267 479.338 718.41 478.586 718.41 477.727ZM722.688 472.59H724.475V483H722.688V472.59ZM722.688 468.654H724.475V470.646H722.688V468.654ZM731.174 472.238C732.352 472.238 733.309 472.525 734.045 473.098C734.787 473.671 735.233 474.657 735.383 476.057H733.674C733.57 475.412 733.332 474.878 732.961 474.455C732.59 474.025 731.994 473.811 731.174 473.811C730.054 473.811 729.253 474.357 728.771 475.451C728.459 476.161 728.303 477.036 728.303 478.078C728.303 479.126 728.524 480.008 728.967 480.725C729.41 481.441 730.106 481.799 731.057 481.799C731.786 481.799 732.362 481.577 732.785 481.135C733.215 480.686 733.511 480.074 733.674 479.299H735.383C735.188 480.686 734.699 481.701 733.918 482.346C733.137 482.984 732.137 483.303 730.92 483.303C729.553 483.303 728.462 482.805 727.648 481.809C726.835 480.806 726.428 479.556 726.428 478.059C726.428 476.223 726.874 474.794 727.766 473.771C728.658 472.749 729.794 472.238 731.174 472.238ZM743.127 468.654H753.078V470.412H745.07V474.768H752.111V476.477H745.07V483H743.127V468.654ZM756.691 472.541V479.484C756.691 480.018 756.776 480.454 756.945 480.793C757.258 481.418 757.84 481.73 758.693 481.73C759.917 481.73 760.751 481.184 761.193 480.09C761.434 479.504 761.555 478.7 761.555 477.678V472.541H763.312V483H761.652L761.672 481.457C761.444 481.854 761.161 482.189 760.822 482.463C760.152 483.01 759.338 483.283 758.381 483.283C756.89 483.283 755.874 482.785 755.334 481.789C755.041 481.255 754.895 480.542 754.895 479.65V472.541H756.691ZM766.066 472.541H767.736V474.025C768.231 473.413 768.755 472.974 769.309 472.707C769.862 472.44 770.477 472.307 771.154 472.307C772.639 472.307 773.641 472.824 774.162 473.859C774.449 474.426 774.592 475.236 774.592 476.291V483H772.805V476.408C772.805 475.77 772.71 475.256 772.521 474.865C772.209 474.214 771.643 473.889 770.822 473.889C770.406 473.889 770.064 473.931 769.797 474.016C769.315 474.159 768.892 474.445 768.527 474.875C768.234 475.22 768.042 475.578 767.951 475.949C767.867 476.314 767.824 476.838 767.824 477.521V483H766.066V472.541ZM781.232 472.238C782.411 472.238 783.368 472.525 784.104 473.098C784.846 473.671 785.292 474.657 785.441 476.057H783.732C783.628 475.412 783.391 474.878 783.02 474.455C782.648 474.025 782.053 473.811 781.232 473.811C780.113 473.811 779.312 474.357 778.83 475.451C778.518 476.161 778.361 477.036 778.361 478.078C778.361 479.126 778.583 480.008 779.025 480.725C779.468 481.441 780.165 481.799 781.115 481.799C781.844 481.799 782.421 481.577 782.844 481.135C783.273 480.686 783.57 480.074 783.732 479.299H785.441C785.246 480.686 784.758 481.701 783.977 482.346C783.195 482.984 782.196 483.303 780.979 483.303C779.611 483.303 778.521 482.805 777.707 481.809C776.893 480.806 776.486 479.556 776.486 478.059C776.486 476.223 776.932 474.794 777.824 473.771C778.716 472.749 779.852 472.238 781.232 472.238ZM787.551 469.621H789.328V472.541H790.998V473.977H789.328V480.803C789.328 481.167 789.452 481.411 789.699 481.535C789.836 481.607 790.064 481.643 790.383 481.643C790.467 481.643 790.559 481.643 790.656 481.643C790.754 481.636 790.868 481.626 790.998 481.613V483C790.796 483.059 790.585 483.101 790.363 483.127C790.148 483.153 789.914 483.166 789.66 483.166C788.84 483.166 788.283 482.958 787.99 482.541C787.697 482.118 787.551 481.571 787.551 480.9V473.977H786.135V472.541H787.551V469.621ZM792.766 472.59H794.553V483H792.766V472.59ZM792.766 468.654H794.553V470.646H792.766V468.654ZM801.369 481.867C802.535 481.867 803.332 481.428 803.762 480.549C804.198 479.663 804.416 478.68 804.416 477.6C804.416 476.623 804.26 475.829 803.947 475.217C803.452 474.253 802.6 473.771 801.389 473.771C800.314 473.771 799.533 474.182 799.045 475.002C798.557 475.822 798.312 476.812 798.312 477.971C798.312 479.084 798.557 480.012 799.045 480.754C799.533 481.496 800.308 481.867 801.369 481.867ZM801.438 472.238C802.785 472.238 803.924 472.688 804.855 473.586C805.786 474.484 806.252 475.806 806.252 477.551C806.252 479.237 805.842 480.63 805.021 481.73C804.201 482.831 802.928 483.381 801.203 483.381C799.764 483.381 798.622 482.896 797.775 481.926C796.929 480.949 796.506 479.641 796.506 478C796.506 476.242 796.952 474.842 797.844 473.801C798.736 472.759 799.934 472.238 801.438 472.238ZM808.352 472.541H810.021V474.025C810.516 473.413 811.04 472.974 811.594 472.707C812.147 472.44 812.762 472.307 813.439 472.307C814.924 472.307 815.926 472.824 816.447 473.859C816.734 474.426 816.877 475.236 816.877 476.291V483H815.09V476.408C815.09 475.77 814.995 475.256 814.807 474.865C814.494 474.214 813.928 473.889 813.107 473.889C812.691 473.889 812.349 473.931 812.082 474.016C811.6 474.159 811.177 474.445 810.812 474.875C810.52 475.22 810.327 475.578 810.236 475.949C810.152 476.314 810.109 476.838 810.109 477.521V483H808.352V472.541Z" fill="black"/>
<path id="Logic" d="M955.676 238.178H959.174V260.924H972.252V264H955.676V238.178ZM982.764 261.961C984.861 261.961 986.297 261.17 987.07 259.588C987.855 257.994 988.248 256.225 988.248 254.279C988.248 252.521 987.967 251.092 987.404 249.99C986.514 248.256 984.979 247.389 982.799 247.389C980.865 247.389 979.459 248.127 978.58 249.604C977.701 251.08 977.262 252.861 977.262 254.947C977.262 256.951 977.701 258.621 978.58 259.957C979.459 261.293 980.854 261.961 982.764 261.961ZM982.887 244.629C985.312 244.629 987.363 245.438 989.039 247.055C990.715 248.672 991.553 251.051 991.553 254.191C991.553 257.227 990.814 259.734 989.338 261.715C987.861 263.695 985.57 264.686 982.465 264.686C979.875 264.686 977.818 263.812 976.295 262.066C974.771 260.309 974.01 257.953 974.01 255C974.01 251.836 974.812 249.316 976.418 247.441C978.023 245.566 980.18 244.629 982.887 244.629ZM1001.98 244.84C1003.45 244.84 1004.74 245.203 1005.84 245.93C1006.44 246.34 1007.05 246.938 1007.67 247.723V245.35H1010.59V262.471C1010.59 264.861 1010.24 266.748 1009.54 268.131C1008.22 270.686 1005.74 271.963 1002.1 271.963C1000.07 271.963 998.367 271.506 996.984 270.592C995.602 269.689 994.828 268.271 994.664 266.338H997.881C998.033 267.182 998.338 267.832 998.795 268.289C999.51 268.992 1000.63 269.344 1002.17 269.344C1004.6 269.344 1006.18 268.488 1006.93 266.777C1007.38 265.77 1007.58 263.971 1007.55 261.381C1006.92 262.342 1006.15 263.057 1005.26 263.525C1004.37 263.994 1003.2 264.229 1001.73 264.229C999.691 264.229 997.904 263.508 996.369 262.066C994.846 260.613 994.084 258.217 994.084 254.877C994.084 251.725 994.852 249.264 996.387 247.494C997.934 245.725 999.797 244.84 1001.98 244.84ZM1007.67 254.508C1007.67 252.176 1007.19 250.447 1006.23 249.322C1005.27 248.197 1004.04 247.635 1002.56 247.635C1000.33 247.635 998.807 248.678 997.986 250.764C997.553 251.877 997.336 253.336 997.336 255.141C997.336 257.262 997.764 258.879 998.619 259.992C999.486 261.094 1000.65 261.645 1002.1 261.645C1004.37 261.645 1005.97 260.619 1006.9 258.568C1007.41 257.408 1007.67 256.055 1007.67 254.508ZM1015.37 245.262H1018.59V264H1015.37V245.262ZM1015.37 238.178H1018.59V241.764H1015.37V238.178ZM1030.65 244.629C1032.77 244.629 1034.49 245.145 1035.81 246.176C1037.15 247.207 1037.95 248.982 1038.22 251.502H1035.15C1034.96 250.342 1034.53 249.381 1033.86 248.619C1033.2 247.846 1032.12 247.459 1030.65 247.459C1028.63 247.459 1027.19 248.443 1026.32 250.412C1025.76 251.689 1025.48 253.266 1025.48 255.141C1025.48 257.027 1025.88 258.615 1026.67 259.904C1027.47 261.193 1028.72 261.838 1030.44 261.838C1031.75 261.838 1032.79 261.439 1033.55 260.643C1034.32 259.834 1034.85 258.732 1035.15 257.338H1038.22C1037.87 259.834 1036.99 261.662 1035.59 262.822C1034.18 263.971 1032.38 264.545 1030.19 264.545C1027.73 264.545 1025.77 263.648 1024.3 261.855C1022.84 260.051 1022.1 257.801 1022.1 255.105C1022.1 251.801 1022.91 249.229 1024.51 247.389C1026.12 245.549 1028.16 244.629 1030.65 244.629Z" fill="black"/>
<path id="2" d="M757.625 433C757.69 431.796 757.938 430.747 758.367 429.855C758.803 428.964 759.65 428.153 760.906 427.424L762.781 426.34C763.621 425.852 764.21 425.435 764.549 425.09C765.083 424.549 765.35 423.931 765.35 423.234C765.35 422.421 765.105 421.776 764.617 421.301C764.129 420.819 763.478 420.578 762.664 420.578C761.46 420.578 760.626 421.034 760.164 421.945C759.917 422.434 759.78 423.111 759.754 423.977H757.967C757.986 422.759 758.211 421.766 758.641 420.998C759.402 419.644 760.747 418.967 762.674 418.967C764.275 418.967 765.444 419.4 766.18 420.266C766.922 421.132 767.293 422.095 767.293 423.156C767.293 424.276 766.899 425.233 766.111 426.027C765.656 426.49 764.839 427.049 763.66 427.707L762.322 428.449C761.684 428.801 761.183 429.136 760.818 429.455C760.167 430.021 759.757 430.65 759.588 431.34H767.225V433H757.625Z" fill="black"/>
<path id="32_7" d="M61.1953 75.3809C59.5417 75.3809 58.3405 74.9284 57.5918 74.0234C56.8496 73.112 56.4785 72.0052 56.4785 70.7031H58.3145C58.3926 71.6081 58.5618 72.2656 58.8223 72.6758C59.278 73.4115 60.1016 73.7793 61.293 73.7793C62.2174 73.7793 62.9596 73.5319 63.5195 73.0371C64.0794 72.5423 64.3594 71.9043 64.3594 71.123C64.3594 70.1595 64.0632 69.4857 63.4707 69.1016C62.8848 68.7174 62.0677 68.5254 61.0195 68.5254C60.9023 68.5254 60.7819 68.5286 60.6582 68.5352C60.541 68.5352 60.4206 68.5384 60.2969 68.5449V66.9922C60.4792 67.0117 60.6322 67.0247 60.7559 67.0312C60.8796 67.0378 61.013 67.041 61.1562 67.041C61.8138 67.041 62.3542 66.9368 62.7773 66.7285C63.5195 66.3639 63.8906 65.7129 63.8906 64.7754C63.8906 64.0788 63.6432 63.5417 63.1484 63.1641C62.6536 62.7865 62.0775 62.5977 61.4199 62.5977C60.248 62.5977 59.4375 62.9883 58.9883 63.7695C58.7409 64.1992 58.6009 64.8112 58.5684 65.6055H56.8301C56.8301 64.5638 57.0384 63.6784 57.4551 62.9492C58.1712 61.6471 59.431 60.9961 61.2344 60.9961C62.6602 60.9961 63.7637 61.3151 64.5449 61.9531C65.3262 62.5846 65.7168 63.5026 65.7168 64.707C65.7168 65.5664 65.4857 66.263 65.0234 66.7969C64.737 67.1289 64.3659 67.3893 63.9102 67.5781C64.6458 67.7799 65.2188 68.1706 65.6289 68.75C66.0456 69.3229 66.2539 70.026 66.2539 70.8594C66.2539 72.194 65.8145 73.2812 64.9355 74.1211C64.0566 74.9609 62.8099 75.3809 61.1953 75.3809ZM67.7578 75C67.8229 73.7956 68.0703 72.7474 68.5 71.8555C68.9362 70.9635 69.7826 70.153 71.0391 69.4238L72.9141 68.3398C73.7539 67.8516 74.3431 67.4349 74.6816 67.0898C75.2155 66.5495 75.4824 65.931 75.4824 65.2344C75.4824 64.4206 75.2383 63.776 74.75 63.3008C74.2617 62.819 73.6107 62.5781 72.7969 62.5781C71.5924 62.5781 70.7591 63.0339 70.2969 63.9453C70.0495 64.4336 69.9128 65.1107 69.8867 65.9766H68.0996C68.1191 64.7591 68.3438 63.7663 68.7734 62.998C69.5352 61.6439 70.8796 60.9668 72.8066 60.9668C74.4082 60.9668 75.5768 61.3997 76.3125 62.2656C77.0547 63.1315 77.4258 64.0951 77.4258 65.1562C77.4258 66.276 77.0319 67.2331 76.2441 68.0273C75.7884 68.4896 74.9714 69.0495 73.793 69.707L72.4551 70.4492C71.8171 70.8008 71.3158 71.1361 70.9512 71.4551C70.3001 72.0215 69.89 72.6497 69.7207 73.3398H77.3574V75H67.7578Z" fill="black"/>
<path id="WireX_LU" d="M282 44L267 52.6602V45.5H110.932C110.509 48.6736 108.103 51.2196 105 51.8496V158.149C107.77 158.712 109.983 160.801 110.729 163.5H271.5V156.34L286.5 165L271.5 173.66V166.5H110.932C110.509 169.674 108.103 172.22 105 172.85V284.149C107.77 284.712 109.983 286.801 110.729 289.5H272.5V282.34L287.5 291L272.5 299.66V292.5H110.932C110.509 295.674 108.103 298.22 105 298.85V411.5H273.5V404.34L288.5 413L273.5 421.66V414.5H102V298.85C98.5767 298.155 96 295.128 96 291.5C96 287.872 98.5766 284.844 102 284.149V172.85C98.5767 172.155 96 169.128 96 165.5C96 161.872 98.5766 158.844 102 158.149V51.8496C98.8967 51.2196 96.4913 48.6736 96.0684 45.5H34V42.5H96.2715C97.1469 39.3291 100.051 37 103.5 37C106.949 37 109.853 39.3291 110.729 42.5H267V35.3398L282 44Z" fill="black"/>
<path id="WireY_LU" d="M282 88L267 96.6602V89.5H178V202.149C180.77 202.712 182.983 204.801 183.729 207.5H272V200.34L287 209L272 217.66V210.5H183.932C183.509 213.674 181.103 216.22 178 216.85V329.149C180.77 329.712 182.983 331.801 183.729 334.5H271V327.34L286 336L271 344.66V337.5H183.932C183.509 340.674 181.103 343.22 178 343.85V447.149C181.103 447.779 183.509 450.326 183.932 453.5H273V446.34L288 455L273 463.66V456.5H183.729C182.853 459.671 179.949 462 176.5 462C173.051 462 170.147 459.671 169.271 456.5H34V453.5H169.068C169.491 450.326 171.897 447.779 175 447.149V343.85C171.577 343.155 169 340.128 169 336.5C169 332.872 171.577 329.844 175 329.149V216.85C171.577 216.155 169 213.128 169 209.5C169 205.872 171.577 202.844 175 202.149V86.5H267V79.3398L282 88Z" fill="black"/>
<path id="WireAND_LU" d="M685 143L670 134.34V151.66L685 143ZM585 143V144.5H671.5V143V141.5H585V143ZM382 65.5V67H584V65.5V64H382V65.5ZM585.5 144.5H587V64H585.5H584V144.5H585.5Z" fill="black"/>
<path id="WireOR_LU" d="M685 215L670 206.34V223.66L685 215ZM585 215V216.5H671.5V215V213.5H585V215ZM379 187.5V189H584V187.5V186H379V187.5ZM585.5 216.5H587V186H585.5H584V216.5H585.5Z" fill="black"/>
<path id="WireXOR_LU" d="M685 291L670 282.34V299.66L685 291ZM585 291V292.5H671.5V291V289.5H585V291ZM393 310.5V312H587V310.5V309H393V310.5ZM585.5 310.5H587V289.5H585.5H584V310.5H585.5Z" fill="black"/>
<path id="WireNOR_LU" d="M685 366L670 357.34V374.66L685 366ZM585 366V367.5H671.5V366V364.5H585V366ZM389.5 432V433.5H584.5V432V430.5H389.5V432ZM585.5 433.5H587V364.5H585.5H584V433.5H585.5Z" fill="black"/>
<path id="WireLogicFunc_LU" d="M743 377L734.34 392L751.66 392L743 377ZM743 461H744.5L744.5 390.5L743 390.5L741.5 390.5L741.5 461H743Z" fill="black"/>
<path id="WireLogic_LU" d="M942 252L927 243.34V260.66L942 252ZM779 252V253.5H928.5V252V250.5H779V252Z" fill="black"/>
<g id="AND_LU">
<path id="AND Gate" d="M283.5 23.8057C287.368 23.2935 299.675 21.9126 314.476 22.7793C332.501 23.8348 353.902 28.2079 368.382 41.209C374.951 47.1069 378.22 53.3346 379.854 58.0703C380.671 60.441 381.08 62.4412 381.286 63.8408C381.389 64.5403 381.442 65.0903 381.469 65.4609C381.482 65.6456 381.49 65.7872 381.494 65.8828C381.496 65.9324 381.498 65.9671 381.499 66C381.499 66.003 381.499 66.0069 381.499 66.0107C381.499 66.0268 381.498 66.0486 381.497 66.0762C381.494 66.1544 381.489 66.2786 381.477 66.4453C381.452 66.7787 381.403 67.2823 381.303 67.9307C381.102 69.2281 380.698 71.1038 379.883 73.3545C378.255 77.8485 374.983 83.8641 368.382 89.791C353.894 102.799 332.478 107.17 314.446 108.223C305.465 108.747 297.401 108.443 291.581 108.009C288.673 107.792 286.328 107.543 284.714 107.348C284.246 107.291 283.841 107.238 283.5 107.193V23.8057Z" fill="white" stroke="black" stroke-width="3"/>
</g>
<g id="OR_LU">
<path id="ORGate" d="M383 187.5C361.436 216.175 332.057 231.333 302.2 232H282C293.201 197.339 293.203 177.846 282 143H302.2C332.057 143.667 361.436 158.825 383 187.5Z" fill="white" stroke="black" stroke-width="3"/>
</g>
<g id="XOR_LU">
<g id="ORGate_2">
<path id="ORGate_3" d="M393 310.5C371.436 339.175 342.057 354.333 312.2 355H292C303.201 320.339 303.203 300.846 292 266H312.2C342.057 266.667 371.436 281.825 393 310.5Z" fill="white" stroke="black" stroke-width="3"/>
</g>
<path id="XOR" d="M282 266C292.465 300.757 292.604 320.243 282 355" stroke="black" stroke-width="3"/>
</g>
<g id="NOR_LU">
<circle id="Not" cx="388" cy="432" r="3" fill="white" stroke="black" stroke-width="2"/>
<g id="ORGate_4">
<path id="ORGate_5" d="M384 431.5C362.436 460.175 333.057 475.333 303.2 476H283C294.201 441.339 294.203 421.846 283 387H303.2C333.057 387.667 362.436 402.825 384 431.5Z" fill="white" stroke="black" stroke-width="3"/>
</g>
</g>
<g id="MUX4to1_LU">
<path id="MUX" d="M777.5 153.096V351.903L686.5 414.156V90.8428L777.5 153.096Z" fill="white" stroke="black" stroke-width="3"/>
<path id="0" d="M696.492 131.219C698.664 131.219 700.234 132.113 701.203 133.902C701.953 135.285 702.328 137.18 702.328 139.586C702.328 141.867 701.988 143.754 701.309 145.246C700.324 147.387 698.715 148.457 696.48 148.457C694.465 148.457 692.965 147.582 691.98 145.832C691.16 144.371 690.75 142.41 690.75 139.949C690.75 138.043 690.996 136.406 691.488 135.039C692.41 132.492 694.078 131.219 696.492 131.219ZM696.469 146.535C697.562 146.535 698.434 146.051 699.082 145.082C699.73 144.113 700.055 142.309 700.055 139.668C700.055 137.762 699.82 136.195 699.352 134.969C698.883 133.734 697.973 133.117 696.621 133.117C695.379 133.117 694.469 133.703 693.891 134.875C693.32 136.039 693.035 137.758 693.035 140.031C693.035 141.742 693.219 143.117 693.586 144.156C694.148 145.742 695.109 146.535 696.469 146.535Z" fill="black"/>
<path id="1" d="M692.297 209.117V207.5C693.82 207.352 694.883 207.105 695.484 206.762C696.086 206.41 696.535 205.586 696.832 204.289H698.496V221H696.246V209.117H692.297Z" fill="black"/>
<path id="2_2" d="M690.75 295C690.828 293.555 691.125 292.297 691.641 291.227C692.164 290.156 693.18 289.184 694.688 288.309L696.938 287.008C697.945 286.422 698.652 285.922 699.059 285.508C699.699 284.859 700.02 284.117 700.02 283.281C700.02 282.305 699.727 281.531 699.141 280.961C698.555 280.383 697.773 280.094 696.797 280.094C695.352 280.094 694.352 280.641 693.797 281.734C693.5 282.32 693.336 283.133 693.305 284.172H691.16C691.184 282.711 691.453 281.52 691.969 280.598C692.883 278.973 694.496 278.16 696.809 278.16C698.73 278.16 700.133 278.68 701.016 279.719C701.906 280.758 702.352 281.914 702.352 283.188C702.352 284.531 701.879 285.68 700.934 286.633C700.387 287.188 699.406 287.859 697.992 288.648L696.387 289.539C695.621 289.961 695.02 290.363 694.582 290.746C693.801 291.426 693.309 292.18 693.105 293.008H702.27V295H690.75Z" fill="black"/>
<path id="3" d="M696.234 368.457C694.25 368.457 692.809 367.914 691.91 366.828C691.02 365.734 690.574 364.406 690.574 362.844H692.777C692.871 363.93 693.074 364.719 693.387 365.211C693.934 366.094 694.922 366.535 696.352 366.535C697.461 366.535 698.352 366.238 699.023 365.645C699.695 365.051 700.031 364.285 700.031 363.348C700.031 362.191 699.676 361.383 698.965 360.922C698.262 360.461 697.281 360.23 696.023 360.23C695.883 360.23 695.738 360.234 695.59 360.242C695.449 360.242 695.305 360.246 695.156 360.254V358.391C695.375 358.414 695.559 358.43 695.707 358.438C695.855 358.445 696.016 358.449 696.188 358.449C696.977 358.449 697.625 358.324 698.133 358.074C699.023 357.637 699.469 356.855 699.469 355.73C699.469 354.895 699.172 354.25 698.578 353.797C697.984 353.344 697.293 353.117 696.504 353.117C695.098 353.117 694.125 353.586 693.586 354.523C693.289 355.039 693.121 355.773 693.082 356.727H690.996C690.996 355.477 691.246 354.414 691.746 353.539C692.605 351.977 694.117 351.195 696.281 351.195C697.992 351.195 699.316 351.578 700.254 352.344C701.191 353.102 701.66 354.203 701.66 355.648C701.66 356.68 701.383 357.516 700.828 358.156C700.484 358.555 700.039 358.867 699.492 359.094C700.375 359.336 701.062 359.805 701.555 360.5C702.055 361.188 702.305 362.031 702.305 363.031C702.305 364.633 701.777 365.938 700.723 366.945C699.668 367.953 698.172 368.457 696.234 368.457Z" fill="black"/>
</g>
</svg>
