<svg width="889" height="420" viewBox="0 0 889 420" fill="none" xmlns="http://www.w3.org/2000/svg">
<rect width="889" height="420" fill="#1E1E1E"/>
<path id="Background_MUX2to1" d="M0 0H889V420H0V0Z" fill="white"/>
<path id="Out" d="M824.348 274.475C828.906 274.475 832.281 275.939 834.473 278.869C836.184 281.154 837.039 284.078 837.039 287.641C837.039 291.496 836.061 294.701 834.104 297.256C831.807 300.256 828.531 301.756 824.277 301.756C820.305 301.756 817.182 300.443 814.908 297.818C812.881 295.287 811.867 292.088 811.867 288.221C811.867 284.729 812.734 281.74 814.469 279.256C816.695 276.068 819.988 274.475 824.348 274.475ZM824.699 298.627C827.781 298.627 830.008 297.525 831.379 295.322C832.762 293.107 833.453 290.564 833.453 287.693C833.453 284.658 832.656 282.215 831.062 280.363C829.48 278.512 827.312 277.586 824.559 277.586C821.887 277.586 819.707 278.506 818.02 280.346C816.332 282.174 815.488 284.875 815.488 288.449C815.488 291.309 816.209 293.723 817.65 295.691C819.104 297.648 821.453 298.627 824.699 298.627ZM843.965 282.174V294.672C843.965 295.633 844.117 296.418 844.422 297.027C844.984 298.152 846.033 298.715 847.568 298.715C849.771 298.715 851.271 297.73 852.068 295.762C852.502 294.707 852.719 293.26 852.719 291.42V282.174H855.883V301H852.895L852.93 298.223C852.52 298.938 852.01 299.541 851.4 300.033C850.193 301.018 848.729 301.51 847.006 301.51C844.322 301.51 842.494 300.613 841.521 298.82C840.994 297.859 840.73 296.576 840.73 294.971V282.174H843.965ZM861.473 276.918H864.672V282.174H867.678V284.758H864.672V297.045C864.672 297.701 864.895 298.141 865.34 298.363C865.586 298.492 865.996 298.557 866.57 298.557C866.723 298.557 866.887 298.557 867.062 298.557C867.238 298.545 867.443 298.527 867.678 298.504V301C867.314 301.105 866.934 301.182 866.535 301.229C866.148 301.275 865.727 301.299 865.27 301.299C863.793 301.299 862.791 300.924 862.264 300.174C861.736 299.412 861.473 298.428 861.473 297.221V284.758H858.924V282.174H861.473V276.918Z" fill="black"/>
<g id="S0">
<path id="S" d="M148.021 31.668C148.104 33.1328 148.449 34.3223 149.059 35.2363C150.219 36.9473 152.264 37.8027 155.193 37.8027C156.506 37.8027 157.701 37.6152 158.779 37.2402C160.865 36.5137 161.908 35.2129 161.908 33.3379C161.908 31.9316 161.469 30.9297 160.59 30.332C159.699 29.7461 158.305 29.2363 156.406 28.8027L152.908 28.0117C150.623 27.4961 149.006 26.9277 148.057 26.3066C146.416 25.2285 145.596 23.6172 145.596 21.4727C145.596 19.1523 146.398 17.248 148.004 15.7598C149.609 14.2715 151.883 13.5273 154.824 13.5273C157.531 13.5273 159.828 14.1836 161.715 15.4961C163.613 16.7969 164.562 18.8828 164.562 21.7539H161.275C161.1 20.3711 160.725 19.3105 160.15 18.5723C159.084 17.2246 157.273 16.5508 154.719 16.5508C152.656 16.5508 151.174 16.9844 150.271 17.8516C149.369 18.7188 148.918 19.7266 148.918 20.875C148.918 22.1406 149.445 23.0664 150.5 23.6523C151.191 24.0273 152.756 24.4961 155.193 25.0586L158.814 25.8848C160.561 26.2832 161.908 26.8281 162.857 27.5195C164.498 28.7266 165.318 30.4785 165.318 32.7754C165.318 35.6348 164.275 37.6797 162.189 38.9102C160.115 40.1406 157.701 40.7559 154.947 40.7559C151.736 40.7559 149.223 39.9355 147.406 38.2949C145.59 36.666 144.699 34.457 144.734 31.668H148.021Z" fill="black"/>
<path id="0" d="M173.719 35.8281C176.977 35.8281 179.332 37.1699 180.785 39.8535C181.91 41.9277 182.473 44.7695 182.473 48.3789C182.473 51.8008 181.963 54.6309 180.943 56.8691C179.467 60.0801 177.053 61.6855 173.701 61.6855C170.678 61.6855 168.428 60.373 166.951 57.748C165.721 55.5566 165.105 52.6152 165.105 48.9238C165.105 46.0645 165.475 43.6094 166.213 41.5586C167.596 37.7383 170.098 35.8281 173.719 35.8281ZM173.684 58.8027C175.324 58.8027 176.631 58.0762 177.604 56.623C178.576 55.1699 179.062 52.4629 179.062 48.502C179.062 45.6426 178.711 43.293 178.008 41.4531C177.305 39.6016 175.939 38.6758 173.912 38.6758C172.049 38.6758 170.684 39.5547 169.816 41.3125C168.961 43.0586 168.533 45.6367 168.533 49.0469C168.533 51.6133 168.809 53.6758 169.359 55.2344C170.203 57.6133 171.645 58.8027 173.684 58.8027Z" fill="black"/>
</g>
<g id="I0">
<path id="I" d="M21.5234 191.178H25.0566V217H21.5234V191.178Z" fill="black"/>
<path id="0_2" d="M41.7188 212.828C44.9766 212.828 47.332 214.17 48.7852 216.854C49.9102 218.928 50.4727 221.77 50.4727 225.379C50.4727 228.801 49.9629 231.631 48.9434 233.869C47.4668 237.08 45.0527 238.686 41.7012 238.686C38.6777 238.686 36.4277 237.373 34.9512 234.748C33.7207 232.557 33.1055 229.615 33.1055 225.924C33.1055 223.064 33.4746 220.609 34.2129 218.559C35.5957 214.738 38.0977 212.828 41.7188 212.828ZM41.6836 235.803C43.3242 235.803 44.6309 235.076 45.6035 233.623C46.5762 232.17 47.0625 229.463 47.0625 225.502C47.0625 222.643 46.7109 220.293 46.0078 218.453C45.3047 216.602 43.9395 215.676 41.9121 215.676C40.0488 215.676 38.6836 216.555 37.8164 218.312C36.9609 220.059 36.5332 222.637 36.5332 226.047C36.5332 228.613 36.8086 230.676 37.3594 232.234C38.2031 234.613 39.6445 235.803 41.6836 235.803Z" fill="black"/>
</g>
<g id="I1">
<path id="I_2" d="M21.5234 322.178H25.0566V348H21.5234V322.178Z" fill="black"/>
<path id="1" d="M35.4258 351.176V348.75C37.7109 348.527 39.3047 348.158 40.207 347.643C41.1094 347.115 41.7832 345.879 42.2285 343.934H44.7246V369H41.3496V351.176H35.4258Z" fill="black"/>
</g>
<path id="WireI0_MUX2to1" d="M377.5 208L362.5 216.66V209.5H62V206.5H362.5V199.34L377.5 208Z" fill="black"/>
<path id="WireI1_MUX2to1" d="M378.5 336L363.5 344.66V337.5H65V334.5H363.5V327.34L378.5 336Z" fill="black"/>
<path id="WireS0_MUX2to1" d="M161 72.1494C164.103 72.7793 166.509 75.3264 166.932 78.5H243.5V99.5H250.66L242 114.5L233.34 99.5H240.5V81.5H166.729C165.983 84.1987 163.77 86.2874 161 86.8496V377.5H363.5V370.34L378.5 379L363.5 387.66V380.5H158V86.8496C154.577 86.1547 152 83.1284 152 79.5C152 75.8715 154.577 72.8443 158 72.1494V57H161V72.1494Z" fill="black"/>
<path id="WireS0not_MUX2to1" d="M243.5 249.5H363V242.34L378 251L363 259.66V252.5H240.5V161H243.5V249.5Z" fill="black"/>
<path id="WireAND0_MUX2to1" d="M523 266.5H594V259.34L609 268L594 276.66V269.5H520V231H476V228H523V266.5Z" fill="black"/>
<path id="WireAND1_MUX2to1" d="M609 313L594 321.66V314.5H523.5V360H479V357H520.5V311.5H594V304.34L609 313Z" fill="black"/>
<path id="WireOut_MUX2to1" d="M804.5 288.5L789.5 297.16V290H704.5V287H789.5V279.84L804.5 288.5Z" fill="black"/>
<g id="ANDGate0_MUX2to1">
<path id="AND Gate" d="M377.5 186.806C381.368 186.293 393.675 184.913 408.476 185.779C426.501 186.835 447.902 191.208 462.382 204.209C468.951 210.107 472.22 216.335 473.854 221.07C474.671 223.441 475.08 225.441 475.286 226.841C475.389 227.54 475.442 228.09 475.469 228.461C475.482 228.646 475.49 228.787 475.494 228.883C475.496 228.932 475.498 228.967 475.499 229C475.499 229.003 475.499 229.007 475.499 229.011C475.499 229.027 475.498 229.049 475.497 229.076C475.494 229.154 475.489 229.279 475.477 229.445C475.452 229.779 475.403 230.282 475.303 230.931C475.102 232.228 474.698 234.104 473.883 236.354C472.255 240.849 468.983 246.864 462.382 252.791C447.894 265.799 426.478 270.17 408.446 271.223C399.465 271.747 391.401 271.443 385.581 271.009C382.673 270.792 380.328 270.543 378.714 270.348C378.246 270.291 377.841 270.238 377.5 270.193V186.806Z" fill="white" stroke="black" stroke-width="3"/>
</g>
<g id="ANDGate1_MUX2to1">
<path id="AND Gate_2" d="M379.5 315.806C383.368 315.293 395.675 313.913 410.476 314.779C428.501 315.835 449.902 320.208 464.382 333.209C470.951 339.107 474.22 345.335 475.854 350.07C476.671 352.441 477.08 354.441 477.286 355.841C477.389 356.54 477.442 357.09 477.469 357.461C477.482 357.646 477.49 357.787 477.494 357.883C477.496 357.932 477.498 357.967 477.499 358C477.499 358.003 477.499 358.007 477.499 358.011C477.499 358.027 477.498 358.049 477.497 358.076C477.494 358.154 477.489 358.279 477.477 358.445C477.452 358.779 477.403 359.282 477.303 359.931C477.102 361.228 476.698 363.104 475.883 365.354C474.255 369.849 470.983 375.864 464.382 381.791C449.894 394.799 428.478 399.17 410.446 400.223C401.465 400.747 393.401 400.443 387.581 400.009C384.673 399.792 382.328 399.543 380.714 399.348C380.246 399.291 379.841 399.238 379.5 399.193V315.806Z" fill="white" stroke="black" stroke-width="3"/>
</g>
<g id="ORGate_MUX2to1">
<path id="ORGate" d="M705 288.5C683.436 317.175 654.057 332.333 624.2 333H604C615.201 298.339 615.203 278.846 604 244H624.2C654.057 244.667 683.436 259.825 705 288.5Z" fill="white" stroke="black" stroke-width="3"/>
</g>
<g id="NotGate_MUX2to1">
<path id="Buffer" d="M240.701 152.75L219.916 116.75L218.617 114.5L265.383 114.5L264.084 116.75L243.299 152.75L242 155L240.701 152.75Z" fill="white" stroke="black" stroke-width="3"/>
<circle id="Not" cx="242" cy="158" r="3" transform="rotate(90 242 158)" fill="#D9D9D9" stroke="black" stroke-width="2"/>
</g>
</svg>
