<svg width="1107" height="736" viewBox="0 0 1107 736" fill="none" xmlns="http://www.w3.org/2000/svg">
<rect width="1107" height="736" fill="#1E1E1E"/>
<path id="Background_MUX4to1" d="M0 0H1107V736H0V0Z" fill="white"/>
<path id="Out" d="M1057.35 468.475C1061.91 468.475 1065.28 469.939 1067.47 472.869C1069.18 475.154 1070.04 478.078 1070.04 481.641C1070.04 485.496 1069.06 488.701 1067.1 491.256C1064.81 494.256 1061.53 495.756 1057.28 495.756C1053.3 495.756 1050.18 494.443 1047.91 491.818C1045.88 489.287 1044.87 486.088 1044.87 482.221C1044.87 478.729 1045.73 475.74 1047.47 473.256C1049.7 470.068 1052.99 468.475 1057.35 468.475ZM1057.7 492.627C1060.78 492.627 1063.01 491.525 1064.38 489.322C1065.76 487.107 1066.45 484.564 1066.45 481.693C1066.45 478.658 1065.66 476.215 1064.06 474.363C1062.48 472.512 1060.31 471.586 1057.56 471.586C1054.89 471.586 1052.71 472.506 1051.02 474.346C1049.33 476.174 1048.49 478.875 1048.49 482.449C1048.49 485.309 1049.21 487.723 1050.65 489.691C1052.1 491.648 1054.45 492.627 1057.7 492.627ZM1076.96 476.174V488.672C1076.96 489.633 1077.12 490.418 1077.42 491.027C1077.98 492.152 1079.03 492.715 1080.57 492.715C1082.77 492.715 1084.27 491.73 1085.07 489.762C1085.5 488.707 1085.72 487.26 1085.72 485.42V476.174H1088.88V495H1085.89L1085.93 492.223C1085.52 492.938 1085.01 493.541 1084.4 494.033C1083.19 495.018 1081.73 495.51 1080.01 495.51C1077.32 495.51 1075.49 494.613 1074.52 492.82C1073.99 491.859 1073.73 490.576 1073.73 488.971V476.174H1076.96ZM1094.47 470.918H1097.67V476.174H1100.68V478.758H1097.67V491.045C1097.67 491.701 1097.89 492.141 1098.34 492.363C1098.59 492.492 1099 492.557 1099.57 492.557C1099.72 492.557 1099.89 492.557 1100.06 492.557C1100.24 492.545 1100.44 492.527 1100.68 492.504V495C1100.31 495.105 1099.93 495.182 1099.54 495.229C1099.15 495.275 1098.73 495.299 1098.27 495.299C1096.79 495.299 1095.79 494.924 1095.26 494.174C1094.74 493.412 1094.47 492.428 1094.47 491.221V478.758H1091.92V476.174H1094.47V470.918Z" fill="black"/>
<g id="S0">
<path id="S" d="M148.021 30.668C148.104 32.1328 148.449 33.3223 149.059 34.2363C150.219 35.9473 152.264 36.8027 155.193 36.8027C156.506 36.8027 157.701 36.6152 158.779 36.2402C160.865 35.5137 161.908 34.2129 161.908 32.3379C161.908 30.9316 161.469 29.9297 160.59 29.332C159.699 28.7461 158.305 28.2363 156.406 27.8027L152.908 27.0117C150.623 26.4961 149.006 25.9277 148.057 25.3066C146.416 24.2285 145.596 22.6172 145.596 20.4727C145.596 18.1523 146.398 16.248 148.004 14.7598C149.609 13.2715 151.883 12.5273 154.824 12.5273C157.531 12.5273 159.828 13.1836 161.715 14.4961C163.613 15.7969 164.562 17.8828 164.562 20.7539H161.275C161.1 19.3711 160.725 18.3105 160.15 17.5723C159.084 16.2246 157.273 15.5508 154.719 15.5508C152.656 15.5508 151.174 15.9844 150.271 16.8516C149.369 17.7188 148.918 18.7266 148.918 19.875C148.918 21.1406 149.445 22.0664 150.5 22.6523C151.191 23.0273 152.756 23.4961 155.193 24.0586L158.814 24.8848C160.561 25.2832 161.908 25.8281 162.857 26.5195C164.498 27.7266 165.318 29.4785 165.318 31.7754C165.318 34.6348 164.275 36.6797 162.189 37.9102C160.115 39.1406 157.701 39.7559 154.947 39.7559C151.736 39.7559 149.223 38.9355 147.406 37.2949C145.59 35.666 144.699 33.457 144.734 30.668H148.021Z" fill="black"/>
<path id="0" d="M173.719 34.8281C176.977 34.8281 179.332 36.1699 180.785 38.8535C181.91 40.9277 182.473 43.7695 182.473 47.3789C182.473 50.8008 181.963 53.6309 180.943 55.8691C179.467 59.0801 177.053 60.6855 173.701 60.6855C170.678 60.6855 168.428 59.373 166.951 56.748C165.721 54.5566 165.105 51.6152 165.105 47.9238C165.105 45.0645 165.475 42.6094 166.213 40.5586C167.596 36.7383 170.098 34.8281 173.719 34.8281ZM173.684 57.8027C175.324 57.8027 176.631 57.0762 177.604 55.623C178.576 54.1699 179.062 51.4629 179.062 47.502C179.062 44.6426 178.711 42.293 178.008 40.4531C177.305 38.6016 175.939 37.6758 173.912 37.6758C172.049 37.6758 170.684 38.5547 169.816 40.3125C168.961 42.0586 168.533 44.6367 168.533 48.0469C168.533 50.6133 168.809 52.6758 169.359 54.2344C170.203 56.6133 171.645 57.8027 173.684 57.8027Z" fill="black"/>
</g>
<g id="S1">
<path id="S_2" d="M311.021 30.668C311.104 32.1328 311.449 33.3223 312.059 34.2363C313.219 35.9473 315.264 36.8027 318.193 36.8027C319.506 36.8027 320.701 36.6152 321.779 36.2402C323.865 35.5137 324.908 34.2129 324.908 32.3379C324.908 30.9316 324.469 29.9297 323.59 29.332C322.699 28.7461 321.305 28.2363 319.406 27.8027L315.908 27.0117C313.623 26.4961 312.006 25.9277 311.057 25.3066C309.416 24.2285 308.596 22.6172 308.596 20.4727C308.596 18.1523 309.398 16.248 311.004 14.7598C312.609 13.2715 314.883 12.5273 317.824 12.5273C320.531 12.5273 322.828 13.1836 324.715 14.4961C326.613 15.7969 327.562 17.8828 327.562 20.7539H324.275C324.1 19.3711 323.725 18.3105 323.15 17.5723C322.084 16.2246 320.273 15.5508 317.719 15.5508C315.656 15.5508 314.174 15.9844 313.271 16.8516C312.369 17.7188 311.918 18.7266 311.918 19.875C311.918 21.1406 312.445 22.0664 313.5 22.6523C314.191 23.0273 315.756 23.4961 318.193 24.0586L321.814 24.8848C323.561 25.2832 324.908 25.8281 325.857 26.5195C327.498 27.7266 328.318 29.4785 328.318 31.7754C328.318 34.6348 327.275 36.6797 325.189 37.9102C323.115 39.1406 320.701 39.7559 317.947 39.7559C314.736 39.7559 312.223 38.9355 310.406 37.2949C308.59 35.666 307.699 33.457 307.734 30.668H311.021Z" fill="black"/>
<path id="1" d="M330.426 42.1758V39.75C332.711 39.5273 334.305 39.1582 335.207 38.6426C336.109 38.1152 336.783 36.8789 337.229 34.9336H339.725V60H336.35V42.1758H330.426Z" fill="black"/>
</g>
<g id="I0">
<path id="I" d="M21.5234 263.178H25.0566V289H21.5234V263.178Z" fill="black"/>
<path id="0_2" d="M41.7188 284.828C44.9766 284.828 47.332 286.17 48.7852 288.854C49.9102 290.928 50.4727 293.77 50.4727 297.379C50.4727 300.801 49.9629 303.631 48.9434 305.869C47.4668 309.08 45.0527 310.686 41.7012 310.686C38.6777 310.686 36.4277 309.373 34.9512 306.748C33.7207 304.557 33.1055 301.615 33.1055 297.924C33.1055 295.064 33.4746 292.609 34.2129 290.559C35.5957 286.738 38.0977 284.828 41.7188 284.828ZM41.6836 307.803C43.3242 307.803 44.6309 307.076 45.6035 305.623C46.5762 304.17 47.0625 301.463 47.0625 297.502C47.0625 294.643 46.7109 292.293 46.0078 290.453C45.3047 288.602 43.9395 287.676 41.9121 287.676C40.0488 287.676 38.6836 288.555 37.8164 290.312C36.9609 292.059 36.5332 294.637 36.5332 298.047C36.5332 300.613 36.8086 302.676 37.3594 304.234C38.2031 306.613 39.6445 307.803 41.6836 307.803Z" fill="black"/>
</g>
<g id="I1">
<path id="I_2" d="M21.5234 394.178H25.0566V420H21.5234V394.178Z" fill="black"/>
<path id="1_2" d="M35.4258 423.176V420.75C37.7109 420.527 39.3047 420.158 40.207 419.643C41.1094 419.115 41.7832 417.879 42.2285 415.934H44.7246V441H41.3496V423.176H35.4258Z" fill="black"/>
</g>
<g id="I2">
<path id="I_3" d="M21.5234 525.178H25.0566V551H21.5234V525.178Z" fill="black"/>
<path id="2" d="M33.1055 572C33.2227 569.832 33.668 567.945 34.4414 566.34C35.2266 564.734 36.75 563.275 39.0117 561.963L42.3867 560.012C43.8984 559.133 44.959 558.383 45.5684 557.762C46.5293 556.789 47.0098 555.676 47.0098 554.422C47.0098 552.957 46.5703 551.797 45.6914 550.941C44.8125 550.074 43.6406 549.641 42.1758 549.641C40.0078 549.641 38.5078 550.461 37.6758 552.102C37.2305 552.98 36.9844 554.199 36.9375 555.758H33.7207C33.7559 553.566 34.1602 551.779 34.9336 550.396C36.3047 547.959 38.7246 546.74 42.1934 546.74C45.0762 546.74 47.1797 547.52 48.5039 549.078C49.8398 550.637 50.5078 552.371 50.5078 554.281C50.5078 556.297 49.7988 558.02 48.3809 559.449C47.5605 560.281 46.0898 561.289 43.9688 562.473L41.5605 563.809C40.4121 564.441 39.5098 565.045 38.8535 565.619C37.6816 566.639 36.9434 567.77 36.6387 569.012H50.3848V572H33.1055Z" fill="black"/>
</g>
<g id="I3">
<path id="I_4" d="M21.5234 656.178H25.0566V682H21.5234V656.178Z" fill="black"/>
<path id="3" d="M41.332 703.686C38.3555 703.686 36.1934 702.871 34.8457 701.242C33.5098 699.602 32.8418 697.609 32.8418 695.266H36.1465C36.2871 696.895 36.5918 698.078 37.0605 698.816C37.8809 700.141 39.3633 700.803 41.5078 700.803C43.1719 700.803 44.5078 700.357 45.5156 699.467C46.5234 698.576 47.0273 697.428 47.0273 696.021C47.0273 694.287 46.4941 693.074 45.4277 692.383C44.373 691.691 42.9023 691.346 41.0156 691.346C40.8047 691.346 40.5879 691.352 40.3652 691.363C40.1543 691.363 39.9375 691.369 39.7148 691.381V688.586C40.043 688.621 40.3184 688.645 40.541 688.656C40.7637 688.668 41.0039 688.674 41.2617 688.674C42.4453 688.674 43.418 688.486 44.1797 688.111C45.5156 687.455 46.1836 686.283 46.1836 684.596C46.1836 683.342 45.7383 682.375 44.8477 681.695C43.957 681.016 42.9199 680.676 41.7363 680.676C39.627 680.676 38.168 681.379 37.3594 682.785C36.9141 683.559 36.6621 684.66 36.6035 686.09H33.4746C33.4746 684.215 33.8496 682.621 34.5996 681.309C35.8887 678.965 38.1562 677.793 41.4023 677.793C43.9688 677.793 45.9551 678.367 47.3613 679.516C48.7676 680.652 49.4707 682.305 49.4707 684.473C49.4707 686.02 49.0547 687.273 48.2227 688.234C47.707 688.832 47.0391 689.301 46.2188 689.641C47.543 690.004 48.5742 690.707 49.3125 691.75C50.0625 692.781 50.4375 694.047 50.4375 695.547C50.4375 697.949 49.6465 699.906 48.0645 701.418C46.4824 702.93 44.2383 703.686 41.332 703.686Z" fill="black"/>
</g>
<path id="WireI0_MUX4to1" d="M562.5 284L547.5 292.66V285.5H64V282.5H547.5V275.34L562.5 284Z" fill="black"/>
<path id="WireI1_MUX4to1" d="M562.5 416L547.5 424.66V417.5H64V414.5H547.5V407.34L562.5 416Z" fill="black"/>
<path id="WireI2_MUX4to1" d="M561.5 548L546.5 556.66V549.5H63V546.5H546.5V539.34L561.5 548Z" fill="black"/>
<path id="WireI3_MUX4to1" d="M562 680L547 688.66V681.5H63.5V678.5H547V671.34L562 680Z" fill="black"/>
<path id="WireAND0_MUX4to1" d="M775 449.5H825V442.34L840 451L825 459.66V452.5H772V287H661V284H775V449.5Z" fill="black"/>
<path id="WireAND1_MUX4to1" d="M746 470.5H829V463.34L844 472L829 480.66V473.5H743V418.5H661V415.5H746V470.5Z" fill="black"/>
<path id="WireAND2_MUX4to1" d="M844 492.5L829 501.16V494H746V549H661V546H743V491H829V483.84L844 492.5Z" fill="black"/>
<path id="WireAND3_MUX4to1" d="M840 515.5L825 524.16V517H775V682.5H661V679.5H772V514H825V506.84L840 515.5Z" fill="black"/>
<path id="WireS0Not_MUX4to1" d="M243.5 175.003L242.765 567.107C245.981 567.654 248.498 570.247 248.932 573.5H547V566.34L562 575L547 583.66V576.5H248.729C247.96 579.284 245.628 581.417 242.736 581.896L242.506 705.5H547V698.34L562 707L547 715.66V708.5H242.5V708.503L241 708.5H240V708.498L239.5 708.497L239.737 581.789C236.446 580.996 234 578.035 234 574.5C234 570.955 236.459 567.987 239.765 567.204L240.5 174.997L243.5 175.003Z" fill="black"/>
<path id="WireS1Not_MUX4to1" d="M401.5 383.067C404.842 383.513 407.486 386.158 407.932 389.5H547V382.34L562 391L547 399.66V392.5H407.729C406.939 395.359 404.501 397.532 401.5 397.932V653.5H547V646.34L562 655L547 663.66V656.5H398.5V397.728C395.329 396.852 393 393.949 393 390.5C393 387.051 395.329 384.147 398.5 383.271V175H401.5V383.067Z" fill="black"/>
<path id="WireS0_MUX4to1" d="M161 92.1494C163.939 92.7459 166.253 95.0613 166.85 98H243.5V113H250.66L242 128L233.34 113H240.5V101H166.85C166.253 103.939 163.939 106.253 161 106.85V303.149C164.103 303.779 166.509 306.326 166.932 309.5H547V302.34L562 311L547 319.66V312.5H166.729C165.983 315.199 163.77 317.287 161 317.85V441.5H547V434.34L562 443L547 451.66V444.5H158V317.85C154.577 317.155 152 314.128 152 310.5C152 306.872 154.577 303.844 158 303.149V106.85C154.577 106.155 152 103.128 152 99.5C152 95.8715 154.577 92.8443 158 92.1494V66H161V92.1494Z" fill="black"/>
<path id="WireS1_MUX4to1" d="M324 91.1494C326.939 91.7459 329.253 94.0613 329.85 97H401.5V112H408.66L400 127L391.34 112H398.5V100H329.85C329.253 102.939 326.939 105.253 324 105.85V251.149C327.103 251.779 329.509 254.326 329.932 257.5H547V250.34L562 259L547 267.66V260.5H329.729C328.983 263.199 326.77 265.287 324 265.85V521.5H547V514.34L562 523L547 531.66V524.5H321V265.85C317.577 265.155 315 262.128 315 258.5C315 254.872 317.577 251.844 321 251.149V105.85C317.577 105.155 315 102.128 315 98.5C315 94.8715 317.577 91.8443 321 91.1494V66H324V91.1494Z" fill="black"/>
<path id="WireOut_MUX4to1" d="M1037.5 482.5L1022.5 491.16V484H937.5V481H1022.5V473.84L1037.5 482.5Z" fill="black"/>
<g id="ANDGate0_MUX4to1">
<path id="AND Gate" d="M562.5 242.806C566.368 242.293 578.675 240.913 593.476 241.779C611.501 242.835 632.902 247.208 647.382 260.209C653.951 266.107 657.22 272.335 658.854 277.07C659.671 279.441 660.08 281.441 660.286 282.841C660.389 283.54 660.442 284.09 660.469 284.461C660.482 284.646 660.49 284.787 660.494 284.883C660.496 284.932 660.498 284.967 660.499 285C660.499 285.003 660.499 285.007 660.499 285.011C660.499 285.027 660.498 285.049 660.497 285.076C660.494 285.154 660.489 285.279 660.477 285.445C660.452 285.779 660.403 286.282 660.303 286.931C660.102 288.228 659.698 290.104 658.883 292.354C657.255 296.849 653.983 302.864 647.382 308.791C632.894 321.799 611.478 326.17 593.446 327.223C584.465 327.747 576.401 327.443 570.581 327.009C567.673 326.792 565.328 326.543 563.714 326.348C563.246 326.291 562.841 326.238 562.5 326.193V242.806Z" fill="white" stroke="black" stroke-width="3"/>
</g>
<g id="ANDGate1_MUX4to1">
<path id="AND Gate_2" d="M562.5 374.806C566.368 374.293 578.675 372.913 593.476 373.779C611.501 374.835 632.902 379.208 647.382 392.209C653.951 398.107 657.22 404.335 658.854 409.07C659.671 411.441 660.08 413.441 660.286 414.841C660.389 415.54 660.442 416.09 660.469 416.461C660.482 416.646 660.49 416.787 660.494 416.883C660.496 416.932 660.498 416.967 660.499 417C660.499 417.003 660.499 417.007 660.499 417.011C660.499 417.027 660.498 417.049 660.497 417.076C660.494 417.154 660.489 417.279 660.477 417.445C660.452 417.779 660.403 418.282 660.303 418.931C660.102 420.228 659.698 422.104 658.883 424.354C657.255 428.849 653.983 434.864 647.382 440.791C632.894 453.799 611.478 458.17 593.446 459.223C584.465 459.747 576.401 459.443 570.581 459.009C567.673 458.792 565.328 458.543 563.714 458.348C563.246 458.291 562.841 458.238 562.5 458.193V374.806Z" fill="white" stroke="black" stroke-width="3"/>
</g>
<g id="ANDGate2_MUX4to1">
<path id="AND Gate_3" d="M562.5 506.806C566.368 506.293 578.675 504.913 593.476 505.779C611.501 506.835 632.902 511.208 647.382 524.209C653.951 530.107 657.22 536.335 658.854 541.07C659.671 543.441 660.08 545.441 660.286 546.841C660.389 547.54 660.442 548.09 660.469 548.461C660.482 548.646 660.49 548.787 660.494 548.883C660.496 548.932 660.498 548.967 660.499 549C660.499 549.003 660.499 549.007 660.499 549.011C660.499 549.027 660.498 549.049 660.497 549.076C660.494 549.154 660.489 549.279 660.477 549.445C660.452 549.779 660.403 550.282 660.303 550.931C660.102 552.228 659.698 554.104 658.883 556.354C657.255 560.849 653.983 566.864 647.382 572.791C632.894 585.799 611.478 590.17 593.446 591.223C584.465 591.747 576.401 591.443 570.581 591.009C567.673 590.792 565.328 590.543 563.714 590.348C563.246 590.291 562.841 590.238 562.5 590.193V506.806Z" fill="white" stroke="black" stroke-width="3"/>
</g>
<g id="ANDGate3_MUX4to1">
<path id="AND Gate_4" d="M562.5 638.806C566.368 638.293 578.675 636.913 593.476 637.779C611.501 638.835 632.902 643.208 647.382 656.209C653.951 662.107 657.22 668.335 658.854 673.07C659.671 675.441 660.08 677.441 660.286 678.841C660.389 679.54 660.442 680.09 660.469 680.461C660.482 680.646 660.49 680.787 660.494 680.883C660.496 680.932 660.498 680.967 660.499 681C660.499 681.003 660.499 681.007 660.499 681.011C660.499 681.027 660.498 681.049 660.497 681.076C660.494 681.154 660.489 681.279 660.477 681.445C660.452 681.779 660.403 682.282 660.303 682.931C660.102 684.228 659.698 686.104 658.883 688.354C657.255 692.849 653.983 698.864 647.382 704.791C632.894 717.799 611.478 722.17 593.446 723.223C584.465 723.747 576.401 723.443 570.581 723.009C567.673 722.792 565.328 722.543 563.714 722.348C563.246 722.291 562.841 722.238 562.5 722.193V638.806Z" fill="white" stroke="black" stroke-width="3"/>
</g>
<g id="ORGate_MUX4to1">
<path id="ORGate" d="M938 482.5C916.436 511.175 887.057 526.333 857.2 527H837C848.201 492.339 848.203 472.846 837 438H857.2C887.057 438.667 916.436 453.825 938 482.5Z" fill="white" stroke="black" stroke-width="3"/>
</g>
<g id="NotGate1_MUX4to1">
<path id="Buffer" d="M398.701 166.75L377.916 130.75L376.617 128.5L423.383 128.5L422.084 130.75L401.299 166.75L400 169L398.701 166.75Z" fill="white" stroke="black" stroke-width="3"/>
<circle id="Not" cx="400" cy="172" r="3" transform="rotate(90 400 172)" fill="#D9D9D9" stroke="black" stroke-width="2"/>
</g>
<g id="NotGate0_MUX4to1">
<path id="Buffer_2" d="M240.701 166.75L219.916 130.75L218.617 128.5L265.383 128.5L264.084 130.75L243.299 166.75L242 169L240.701 166.75Z" fill="white" stroke="black" stroke-width="3"/>
<circle id="Not_2" cx="242" cy="172" r="3" transform="rotate(90 242 172)" fill="#D9D9D9" stroke="black" stroke-width="2"/>
</g>
</svg>
